<?xml version="1.0" encoding="UTF-8"?>
<!DOCTYPE svg PUBLIC "-//W3C//DTD SVG 1.0//EN" "http://www.w3.org/TR/2001/REC-SVG-20010904/DTD/svg10.dtd">
<svg xmlns="http://www.w3.org/2000/svg">
<metadata>
<version>1.0</version>
<id><![CDATA[URW Clarendon W01 Regular Obl]]></id>
<vendor>Monotype Imaging Inc.</vendor>
<credits>
<name>Fonts.com WebFonts</name>
<URL>http://webfonts.fonts.com</URL>
<role>Home of the Web fonts</role>
</credits>
<license>
<URL>http://webfonts.fonts.com/Legal</URL>
</license>
<copyright><![CDATA[(URW)++,Copyright 2004 by (URW)++ Design & Development]]></copyright>
<trademark><![CDATA[Please refer to the Copyright section for the font trademark attribution notices.]]></trademark>
<licensee>
<name/>
</licensee>
</metadata>
<defs>
<font horiz-adv-x="596" id="112a678d-e7e1-4844-b23e-a4ce842909c2">
<font-face font-family="" panose-1="4 0 5 0 0 0 0 0 0 0" ascent="932" descent="-227" units-per-em="1000" alphabetic="0">
</font-face>
<missing-glyph horiz-adv-x="0"/>

<glyph unicode="
"/>
<glyph unicode="" horiz-adv-x="0"/>
<glyph unicode=" " horiz-adv-x="250"/>
<glyph unicode="!" horiz-adv-x="318" d="M153 130Q177 130 193 114T210 72Q210 54 203 38T182 10T152 -9T117 -17Q91 -17 75 0T59 43Q59 60 66 76T87 104T117 123T153 130ZM132 190Q138 230 141 256T148 310T154 375T164 476Q168 522 171 550T176 594T182 619T189 637Q210 687 270 687Q330 687 330 638Q330 627 329 619T324 595T310 552T285 476Q267 425 255 389T233 321T214 260T193 190H132Z"/>
<glyph unicode="&quot;" horiz-adv-x="361" d="M69 399L106 667H226L150 399H69ZM239 399L277 667H397L320 399H239Z"/>
<glyph unicode="#" horiz-adv-x="621" d="M526 191H421L351 0H237L309 191H205L134 0H26L97 191H-8L27 288H132L170 391H66L101 488H205L271 667H381L314 488H419L485 667H596L530 488H633L598 391H495L457 288H561L526 191ZM279 391L242 288H346L383 391H279Z"/>
<glyph unicode="$" horiz-adv-x="621" d="M198 0Q140 5 107 15T47 48Q9 79 9 128Q9 150 16 170T36 204T66 226T104 235Q130 235 147 222T164 187Q164 157 142 135Q131 123 118 119T81 114Q95 99 106 90T132 76T164 68T211 63L250 248Q221 257 201 263T167 276T142 287T122 300Q101 316 89 340T77 393Q77 432 96 469T151 537Q168 552 185 562T222 581T268 594T326 605L342 680H409L393 605Q421 602 442 598T480 589T508 576T531 557Q566 522 566 480Q566 462 559 445T540 416T512 396T478 388Q452 388 436 401T419 435Q419 464 439 481T497 502Q484 514 474 521T451 533T422 539T380 543L342 364Q378 356 402 349T445 335T476 321T501 303Q538 271 538 217Q538 172 516 131T455 60Q437 46 418 36T377 19T328 8T264 -1L243 -104H176L198 0ZM278 65Q347 69 382 94T418 166Q418 180 414 190T397 208T365 222T315 235L278 65ZM313 542Q277 536 257 528T221 502Q197 475 197 441Q197 416 214 403T278 378L313 542Z"/>
<glyph unicode="%" horiz-adv-x="958" d="M282 622Q352 622 394 583T436 479Q436 429 418 386T367 310T292 258T200 239Q129 239 87 277T45 382Q45 432 63 475T114 551T190 603T282 622ZM269 559Q213 559 186 503Q179 490 174 473T164 437T157 400T154 366Q154 302 214 302Q268 302 297 358Q303 370 308 387T318 423T325 462T328 496Q328 526 313 542T269 559ZM257 -17H176L685 622H765L257 -17ZM743 366Q813 366 855 327T897 223Q897 173 879 130T828 54T753 2T661 -17Q590 -17 548 21T506 126Q506 175 524 219T575 295T651 347T743 366ZM729 303Q674 303 647 247Q640 234 635 217T625 181T618 144T615 110Q615 46 675 46Q728 46 757 102Q763 114 768 131T778 167T785 205T788 240Q788 270 773 286T729 303Z"/>
<glyph unicode="&amp;" horiz-adv-x="839" d="M775 229Q767 194 759 168T743 122T725 87T703 57Q672 21 627 1T533 -20Q514 -20 498 -18T466 -9T431 9T389 36Q355 20 329 10T280 -7T236 -16T191 -19Q103 -19 51 25T-1 145Q-1 181 12 217T50 283Q64 300 79 314T113 341T158 368T220 399Q212 445 212 470Q212 510 229 552T276 624Q339 687 428 687Q484 687 515 661T547 589Q547 555 531 520T486 454Q476 443 466 434T443 415T414 396T377 374Q389 344 398 322T416 280T436 239T464 188Q480 201 492 212T514 232T530 251T544 271Q568 306 568 323Q568 339 511 339H482L498 415H815L799 339H763Q714 339 686 319Q681 315 677 312T667 300T649 277T616 235Q608 224 598 213T576 189T546 158T507 120Q526 99 539 92T574 85Q633 85 665 142Q675 159 681 176T699 229H775ZM243 315Q190 286 169 257T147 182Q147 133 174 106T250 78Q269 78 288 83T339 101Q320 132 308 155T285 202T265 251T243 315ZM366 461Q455 506 455 567Q455 610 406 610Q372 610 351 586T329 523Q329 505 333 490T348 452L366 461Z"/>
<glyph unicode="'" horiz-adv-x="184" d="M66 399L103 667H223L147 399H66Z"/>
<glyph unicode="(" horiz-adv-x="382" d="M240 -192Q204 -180 177 -168T130 -143T95 -115T65 -81Q37 -42 22 9T7 117Q7 213 36 309T120 481Q152 526 191 563T273 626Q299 641 335 655T427 687L414 624Q385 611 364 599T325 574T294 545T264 508Q238 471 216 421T177 314T151 198T141 87Q141 51 146 21T162 -36Q168 -52 175 -64T193 -87T218 -108T254 -130L240 -192Z"/>
<glyph unicode=")" horiz-adv-x="382" d="M-64 -130Q-35 -117 -14 -105T24 -80T55 -50T86 -13Q112 24 134 74T173 181T199 296T209 408Q209 477 188 531Q182 547 175 559T157 582T132 603T96 624L110 687Q146 674 172 663T219 638T255 610T285 576Q314 536 328 486T343 378Q343 282 314 186T230 13Q198 -32 159 -68T77 -131Q51 -146 15 -160T-77 -192L-64 -130Z"/>
<glyph unicode="*" horiz-adv-x="496" d="M276 490Q279 512 279 528Q279 541 277 555T270 583Q266 595 264 601T261 612T260 618T260 623Q260 650 279 668T326 687Q347 687 359 677T371 648Q371 636 365 624T337 582Q329 570 323 561T312 541T302 518T291 490Q304 497 314 504T334 518T353 535T374 559Q388 575 398 585T416 601T431 608T448 610Q465 610 477 597T489 563Q489 546 479 531T454 509Q450 507 447 506T439 504T423 502T395 500Q379 498 367 497T344 493T322 487T297 477Q310 470 320 466T344 458T374 453T417 450Q457 447 457 410Q457 398 451 386T436 364T414 348T389 342Q372 342 363 351T339 393Q332 407 327 417T316 434T304 448T287 462Q284 438 284 421Q284 402 294 369Q299 350 301 342T303 326Q303 302 284 284T239 266Q193 266 193 303Q193 310 194 315T198 327T207 343T226 369Q236 385 243 396T255 418T264 439T272 462Q245 446 228 432T188 393Q174 376 165 366T148 351T133 344T115 342Q96 342 85 355T73 390Q73 406 83 420T109 442Q114 445 118 446T129 448T144 450T168 452Q199 454 218 459T266 475Q243 488 224 493T176 500Q144 502 134 504T115 515Q105 525 105 540Q105 553 111 565T126 588T148 604T174 610Q183 610 189 609T200 602T210 587T224 558Q235 534 245 520T276 490Z"/>
<glyph unicode="+" horiz-adv-x="567" d="M240 358L275 521H373L338 358H506L486 267H319L284 104H186L221 267H53L72 358H240Z"/>
<glyph unicode="," horiz-adv-x="238" d="M-60 -99Q39 -74 59 14Q43 5 34 2T13 -1Q-10 -1 -22 11T-35 45Q-35 63 -28 78T-9 105T19 123T55 130Q89 130 109 110T130 55Q130 19 115 -14T74 -73T11 -118T-69 -143L-60 -99Z"/>
<glyph unicode="-" horiz-adv-x="269" d="M-9 290H260L237 184H-32L-9 290Z"/>
<glyph unicode="." horiz-adv-x="308" d="M113 130Q137 130 153 114T170 72Q170 54 163 38T142 10T112 -9T77 -17Q51 -17 35 0T19 43Q19 60 26 76T47 104T77 123T113 130Z"/>
<glyph unicode="/" horiz-adv-x="369" d="M-79 -92L331 686H405L-5 -92H-79Z"/>
<glyph unicode="0" horiz-adv-x="621" d="M372 621Q422 621 463 605T533 559T577 487T593 392Q593 308 565 234T487 104T373 16T235 -17Q185 -17 144 -1T74 45T30 117T14 212Q14 296 42 370T120 500T234 588T372 621ZM355 544Q268 544 220 439Q208 413 198 378T179 306T166 233T161 170Q161 117 184 89T253 60Q338 60 388 165Q399 190 409 224T428 296T441 370T446 435Q446 488 423 516T355 544Z"/>
<glyph unicode="1" horiz-adv-x="621" d="M68 71H112Q137 71 153 73T178 81T193 99T203 130L271 448H148L163 519Q204 522 232 527T281 542T319 568T356 611H436L334 128Q329 106 329 95Q329 81 342 76T390 71H442L427 0H53L68 71Z"/>
<glyph unicode="2" horiz-adv-x="621" d="M-27 -4Q-17 54 3 98T58 177T146 243T278 304Q302 314 319 322T348 339T370 358T389 381Q415 419 415 461Q415 503 385 528T302 553Q257 553 225 536T161 476Q183 482 200 482Q223 482 237 468T252 433Q252 413 244 396T223 366T192 345T154 337Q119 337 99 358T78 415Q78 448 96 483T149 549Q233 622 352 622Q409 622 457 605T533 558Q548 541 556 517T565 466Q565 424 548 384T500 314Q486 300 470 290T434 271T388 254T329 239Q277 228 240 217T174 191T124 157T82 111Q110 125 128 131T162 137Q171 137 187 136T222 131T260 125T295 117Q323 111 344 108T376 104Q394 104 413 114T443 139Q447 145 450 151T458 165T466 186T476 217H532Q525 184 518 160T503 117T486 81T463 50Q436 18 403 1T334 -17Q309 -17 279 -10T220 11Q215 14 199 23T153 49Q129 64 99 64Q75 64 60 49T31 -4H-27Z"/>
<glyph unicode="3" horiz-adv-x="621" d="M252 359Q279 360 298 361T332 365T357 372T379 383Q402 398 416 424T431 479Q431 515 404 536T330 558Q313 558 300 557T273 551T244 539T210 521Q236 516 247 505T259 472Q259 455 252 439T231 411T201 392T166 385Q134 385 116 401T97 447Q97 482 119 514T179 570T267 608T373 622Q469 622 522 588T576 491Q576 461 562 431T521 379Q510 370 499 363T474 349T440 338T395 326Q439 315 462 305T502 278Q516 264 523 244T531 200Q531 152 503 108T424 33Q383 9 330 -4T213 -17Q166 -17 129 -7T64 21T23 66T8 125Q8 150 17 172T41 211T76 237T120 247Q185 247 185 188Q185 156 163 131Q149 114 133 108T86 99Q112 73 138 63T206 52Q244 52 276 62T331 92T367 137T380 195Q380 221 373 238T350 266T305 281T236 286L252 359Z"/>
<glyph unicode="4" horiz-adv-x="621" d="M171 71H207Q232 71 247 72T270 80T283 96T292 125L301 168H0L16 244L425 610H521L445 254H561L543 168H427L418 125Q416 117 415 111T414 99Q414 71 467 71H522L507 0H156L171 71ZM369 471L126 254H320L369 471Z"/>
<glyph unicode="5" horiz-adv-x="621" d="M174 395Q201 405 222 412T261 423T297 429T334 431Q380 431 417 419T481 385T522 331T537 261Q537 207 513 154T444 61Q399 21 345 2T222 -17Q122 -17 64 21T5 125Q5 149 14 169T38 206T73 231T118 240Q148 240 166 225T185 184Q185 167 179 151T159 122Q145 108 130 102T85 94Q114 70 139 61T202 52Q249 52 286 70T348 122Q367 148 378 183T389 252Q389 301 358 329T273 358Q235 358 204 345T133 295L67 298L165 620Q198 610 223 604T270 595T316 590T369 588Q399 588 423 589T471 594T522 604T587 619Q572 594 559 576T532 545T503 523T467 505Q399 477 308 477Q286 477 263 479T200 487L174 395Z"/>
<glyph unicode="6" horiz-adv-x="621" d="M479 536Q457 550 442 555T406 561Q374 561 344 549T291 514Q279 502 269 487T248 451T228 402T207 334Q234 349 254 359T294 375T331 383T371 386Q451 386 499 344T547 229Q547 182 525 136T461 54Q378 -18 248 -18Q142 -18 88 34T34 188Q34 270 63 351T143 496Q245 622 406 622Q485 622 533 591T581 509Q581 489 573 472T552 442T520 422T480 414Q451 414 435 427T419 466Q419 492 433 508T479 536ZM309 301Q279 301 254 289T211 255T183 203T173 137Q173 55 260 55Q289 55 314 67T357 102T385 154T396 221Q396 259 373 280T309 301Z"/>
<glyph unicode="7" horiz-adv-x="621" d="M174 -4Q184 49 195 90T220 167T254 232T302 295T369 362T459 441Q473 455 487 467T515 492Q482 481 462 477T423 472Q407 472 387 474T334 484Q302 491 277 491Q254 491 232 480T195 449Q189 441 184 431T174 408T164 375T152 330H84L143 606H215L200 537Q222 559 239 573T273 595T306 607T344 611Q371 611 397 606T456 586Q473 579 484 575T504 569T518 565T532 564Q552 564 567 573T596 605H659Q651 584 645 569T632 542T618 519T599 495Q588 482 578 470T556 445L505 388Q457 333 426 291T374 206T339 114T311 -4H174Z"/>
<glyph unicode="8" horiz-adv-x="621" d="M157 291Q116 322 101 348T85 412Q85 456 107 494T167 561T258 606T370 622Q418 622 457 613T525 588T568 548T584 497Q584 473 575 449T548 405Q540 396 531 388T510 373T483 357T446 340Q501 311 523 283T546 211Q546 169 526 127T470 55Q451 38 425 25T368 3T301 -12T230 -17Q178 -17 135 -7T62 21T15 64T-2 120Q-2 158 18 193T74 252Q98 269 157 291ZM224 262Q173 244 144 212T114 141Q114 61 254 61Q330 61 371 86T413 157Q413 178 398 192T350 218L224 262ZM382 367Q430 390 452 418T475 484Q475 516 444 534T357 553Q295 553 255 528T215 461Q215 415 276 397L382 367Z"/>
<glyph unicode="9" horiz-adv-x="621" d="M136 64Q157 51 171 47T205 42Q239 42 270 55T324 92Q336 104 346 119T365 155T383 205T403 273Q376 256 354 246T313 228T274 219T232 216Q152 216 105 258T57 372Q57 418 78 463T138 544Q180 582 237 602T360 622Q572 622 572 411Q572 332 546 254T472 114Q370 -19 202 -19Q125 -19 79 11T32 91Q32 110 40 127T62 158T94 178T134 186Q163 186 178 173T194 134Q194 109 181 93T136 64ZM344 549Q314 549 290 537T247 503T219 451T209 385Q209 346 232 324T297 302Q326 302 350 314T393 348T421 399T431 465Q431 549 344 549Z"/>
<glyph unicode=":" horiz-adv-x="318" d="M153 130Q177 130 193 114T210 72Q210 54 203 38T182 10T152 -9T117 -17Q91 -17 75 0T59 43Q59 60 66 76T87 104T117 123T153 130ZM220 447Q244 447 260 431T277 389Q277 371 270 355T249 327T219 308T184 300Q158 300 142 317T126 360Q126 377 133 393T154 421T184 440T220 447Z"/>
<glyph unicode=";" horiz-adv-x="318" d="M232 447Q257 447 273 431T289 389Q289 371 282 355T261 327T232 308T197 300Q171 300 155 317T139 360Q139 377 146 393T167 421T197 440T232 447ZM35 -99Q134 -74 154 14Q138 5 128 2T107 -1Q85 -1 73 11T60 45Q60 80 86 105T151 130Q184 130 204 110T225 55Q225 19 210 -14T169 -73T106 -118T26 -143L35 -99Z"/>
<glyph unicode="&lt;" horiz-adv-x="500" d="M498 482L162 333L435 184L409 63L22 282L44 385L524 603L498 482Z"/>
<glyph unicode="=" horiz-adv-x="567" d="M523 442L505 356H71L90 442H523ZM489 280L470 194H37L55 280H489Z"/>
<glyph unicode="&gt;" horiz-adv-x="500" d="M477 385L456 282L-24 63L2 184L338 333L65 482L91 603L477 385Z"/>
<glyph unicode="?" horiz-adv-x="526" d="M208 130Q233 130 249 114T265 72Q265 54 258 38T237 10T207 -9T172 -17Q146 -17 130 0T114 43Q114 60 121 76T142 104T172 123T208 130ZM188 189Q193 223 199 247T218 291T251 333T305 383Q334 409 352 427T381 462T396 493T400 529Q400 568 373 591T297 614Q247 614 205 583Q194 575 186 568T172 550T161 528T150 498Q170 512 183 516T210 521Q233 521 247 508T261 471Q261 453 253 437T230 407T198 387T160 379Q125 379 103 403T81 468Q81 505 97 541T144 607Q224 687 350 687Q394 687 429 677T490 647T530 600T544 539Q544 465 487 410Q476 399 467 392T444 374T407 349T344 310Q321 295 306 283T281 257T264 227T251 189H188Z"/>
<glyph unicode="@" horiz-adv-x="742" d="M597 493L517 297Q506 270 503 260T500 239Q500 217 520 217Q542 217 565 237T607 289T639 360T652 435Q652 515 598 562T452 609Q384 609 322 581T211 505T135 396T106 267Q106 187 147 132Q203 58 331 58Q439 58 532 92L536 20Q487 3 431 -6T318 -15Q160 -15 86 77Q57 112 42 158T26 255Q26 338 62 415T159 551T298 645T463 681Q522 681 570 665T652 617T705 543T724 447Q724 393 705 340T653 245T581 177T501 151Q473 151 456 166T437 208Q410 177 373 160T297 143Q247 143 217 175T186 262Q186 307 205 350T256 427T328 483T410 504Q480 504 499 449L517 493H597ZM404 418Q381 418 359 406T319 375T290 332T279 282Q279 256 295 240T337 224Q358 224 379 236T418 268T446 312T457 362Q457 388 443 403T404 418Z"/>
<glyph unicode="A" horiz-adv-x="715" d="M-70 76H-49Q-30 76 -16 79T11 89T32 109T53 140L351 667H491L578 140Q581 118 584 105T595 86T613 78T644 76H664L648 0H304L320 76H374Q409 76 422 82T435 108Q435 115 435 120T433 134L421 212H201L154 129Q146 114 143 106T139 93Q139 82 148 79T188 76H240L224 0H-86L-70 76ZM373 522L245 290H410L373 522Z"/>
<glyph unicode="B" horiz-adv-x="725" d="M-30 76H9Q31 76 44 78T66 86T78 104T88 137L171 529Q173 541 174 549T176 563Q176 580 165 585T118 591H80L96 667H480Q696 667 696 542Q696 512 687 482T660 429Q650 415 639 405T611 385T574 369T525 353Q566 342 586 333T623 306Q654 275 654 225Q654 180 636 138T586 66Q566 48 542 36T487 15T414 4T319 0H-46L-30 76ZM325 75Q387 75 421 86T478 127Q493 147 501 172T510 223Q510 269 478 288T365 307H264L215 75H325ZM375 383Q407 383 430 385T472 394T503 411T527 437Q539 453 545 474T552 517Q552 558 525 574T430 590H324L280 383H375Z"/>
<glyph unicode="C" horiz-adv-x="705" d="M637 258Q625 221 614 194T590 146T564 108T532 72Q438 -19 298 -19Q236 -19 186 0T101 54T46 138T26 249Q26 336 60 415T152 554T285 650T444 686Q471 686 493 683T535 672T576 651T623 617L655 677H726L668 404H592Q593 417 593 427T593 444Q593 521 555 563T445 605Q385 605 334 572T244 476Q229 452 217 422T197 360T184 294T179 230Q179 157 220 115T333 72Q408 72 467 123Q480 135 491 147T511 174T531 210T552 258H637Z"/>
<glyph unicode="D" horiz-adv-x="804" d="M-30 76H9Q31 76 44 78T66 86T78 104T88 137L171 530Q176 555 176 564Q176 581 165 586T118 591H80L96 667H474Q616 667 687 613Q725 584 746 537T768 433Q768 388 760 343T735 257T697 179T647 115Q588 55 512 28T332 0H-46L-30 76ZM301 76Q351 76 387 81T452 98T501 131T542 184Q574 234 592 300T611 430Q611 479 597 514T555 567Q533 580 501 585T411 591H324L215 76H301Z"/>
<glyph unicode="E" horiz-adv-x="750" d="M-30 76H9Q31 76 44 78T66 86T78 104T88 138L171 529Q173 541 174 549T176 563Q176 580 165 585T118 591H80L96 667H751L695 402H619Q625 433 627 451T629 486Q629 517 623 537T600 570T556 586T484 591H324L281 386H318Q357 386 379 393T414 417Q418 423 421 427T427 441T436 465T450 507H525L455 174H379Q383 205 384 220T386 251Q386 286 370 298T303 310H265L215 76H389Q434 76 464 84T516 114T556 177T594 283H669L609 0H-46L-30 76Z"/>
<glyph unicode="F" horiz-adv-x="690" d="M-30 76H9Q31 76 44 78T66 86T78 104T88 138L171 529Q173 541 174 549T176 563Q176 580 165 585T118 591H80L96 667H715L656 390H580Q587 426 589 447T592 486Q592 517 586 537T563 570T519 586T447 591H324L281 386H297Q337 386 359 393T394 417Q398 422 400 427T406 441T415 465T429 507H505L434 174H358Q363 205 364 220T365 251Q365 286 349 298T282 310H265L228 138Q223 116 223 103Q223 86 234 81T280 76H327L311 0H-46L-30 76Z"/>
<glyph unicode="G" horiz-adv-x="784" d="M511 52Q476 31 449 18T398 -4T349 -16T294 -19Q233 -19 184 0T99 54T45 138T26 248Q26 336 60 415T152 555T286 651T446 687Q475 687 497 684T540 672T579 650T623 613L662 671H733L677 410H602Q601 436 599 455T592 489T582 517T567 543Q546 573 514 589T444 605Q384 605 333 571T243 472Q214 421 198 358T181 233Q181 155 222 112T336 69Q370 69 402 79T460 108Q482 124 492 141T510 189L518 226Q520 236 521 244T522 257Q522 272 510 276T454 281H412L428 357H780L764 281H722Q704 281 693 279T675 270T663 251T654 219L607 -4H534L511 52Z"/>
<glyph unicode="H" horiz-adv-x="824" d="M-31 76H8Q30 76 43 78T65 86T77 104T87 137L170 529Q172 541 173 549T175 563Q175 580 164 585T117 591H79L95 667H452L436 591H389Q366 591 353 589T332 581T319 563T310 529L279 382H567L598 529Q603 554 603 564Q603 581 592 586T545 591H498L514 667H872L856 591H817Q794 591 781 589T760 581T747 563T738 529L655 137Q650 115 650 103Q650 86 661 81T707 76H746L730 0H373L389 76H436Q458 76 471 78T493 86T505 104T515 137L550 302H262L227 137Q225 128 224 118T222 103Q222 86 233 81T279 76H326L310 0H-47L-31 76Z"/>
<glyph unicode="I" horiz-adv-x="412" d="M-28 76H15Q37 76 50 78T72 86T84 104T94 137L177 530Q179 542 180 550T182 564Q182 581 171 586T124 591H82L98 667H457L441 591H398Q376 591 363 589T341 581T328 563T319 530L236 137Q231 112 231 103Q231 86 242 81T289 76H331L315 0H-44L-28 76Z"/>
<glyph unicode="J" horiz-adv-x="576" d="M273 667H623L607 591H577Q555 591 542 589T520 581T508 563T499 530L431 213Q423 177 415 151T397 104T374 69T344 39Q309 10 262 -5T162 -20Q80 -20 31 16T-18 115Q-18 143 -9 167T15 209T52 236T100 246Q165 246 165 185Q165 110 79 86Q99 68 114 63T155 57Q182 57 205 65T244 91Q258 106 266 127T285 193L356 530Q361 552 361 564Q361 581 350 586T303 591H257L273 667Z"/>
<glyph unicode="K" horiz-adv-x="770" d="M224 137Q221 123 220 116T219 103Q219 86 230 81T277 76H304L288 0H-46L-30 76H9Q31 76 44 78T66 86T78 104T88 137L171 530Q176 555 176 564Q176 581 165 586T118 591H80L96 667H435L418 591H386Q364 591 351 589T329 581T317 563T308 530L268 342L537 553Q560 570 560 580Q560 591 522 591H479L495 667H831L814 591H792Q772 591 752 587T710 572T662 544T604 503L487 414L629 126Q636 111 643 101T660 86T682 78T714 76H747L731 0H361L377 76H431Q457 76 467 80T478 96Q478 106 468 128L373 324L244 229L224 137Z"/>
<glyph unicode="L" horiz-adv-x="690" d="M453 667L437 591H390Q367 591 354 589T333 581T320 563T311 530L215 76H338Q375 76 401 79T446 89T480 108T506 139Q514 152 521 166T534 197T546 237T558 288H634L573 0H-46L-30 76H9Q31 76 44 78T66 86T78 104T88 137L171 530Q176 555 176 563Q176 580 165 585T118 591H80L96 667H453Z"/>
<glyph unicode="M" horiz-adv-x="968" d="M548 76H593Q615 76 628 78T650 86T662 104T671 137L763 569L428 0H363L283 579L189 137Q186 123 185 116T184 103Q184 86 195 81T242 76H282L265 0H-46L-30 76H6Q28 76 41 78T63 86T75 104T85 137L168 530Q173 555 173 564Q173 581 162 586T115 591H80L96 667H407L462 234L719 667H1017L1000 591H962Q939 591 926 589T905 581T892 563T883 530L800 137Q795 115 795 103Q795 86 806 81T852 76H891L875 0H532L548 76Z"/>
<glyph unicode="N" horiz-adv-x="814" d="M487 0L271 543L185 137Q183 124 182 116T180 103Q180 86 191 81T238 76H283L267 0H-61L-45 76H2Q24 76 37 78T59 86T71 104T80 137L164 530Q166 543 167 551T169 564Q169 581 158 586T111 591H69L85 667H369L561 183L635 530Q640 555 640 564Q640 581 629 586T582 591H536L552 667H867L851 591H819Q796 591 783 589T762 581T749 563T740 530L627 0H487Z"/>
<glyph unicode="O" horiz-adv-x="804" d="M479 686Q548 686 603 668T697 615T757 531T778 421Q778 333 744 251T646 107Q515 -19 325 -19Q256 -19 201 -1T107 52T47 136T26 246Q26 334 61 417T158 560Q289 686 479 686ZM460 607Q393 607 336 572T241 472Q227 449 216 420T197 358T185 292T180 229Q180 151 224 106T344 60Q411 60 468 95T563 196Q576 218 587 247T606 309T619 375T624 438Q624 516 580 561T460 607Z"/>
<glyph unicode="P" horiz-adv-x="680" d="M311 0H-46L-30 76H9Q31 76 44 78T66 86T78 104T88 137L171 530Q176 555 176 564Q176 581 165 586T118 591H80L96 667H446Q567 667 625 632T683 523Q683 474 661 429T601 354Q582 339 560 329T509 313T443 304T355 301H263L228 137Q226 128 225 118T223 103Q223 86 234 81T280 76H327L311 0ZM344 377Q379 377 405 379T450 388T482 403T507 427Q521 445 528 467T536 512Q536 553 511 570Q502 576 493 580T469 587T434 590T382 591H324L279 377H344Z"/>
<glyph unicode="Q" horiz-adv-x="829" d="M786 130Q780 104 775 86T765 53T753 26T738 2Q690 -69 605 -69Q587 -69 573 -66T545 -54T517 -31T483 7Q456 -1 436 -6T397 -14T362 -18T326 -19Q257 -19 201 -1T106 52T46 136T25 246Q25 334 59 416T158 560Q287 686 477 686Q546 686 601 668T696 615T756 531T777 420Q777 319 734 232T608 79Q621 57 633 48T661 39Q671 39 679 42T693 56T706 84T721 130H786ZM442 86Q440 91 440 92T437 100Q406 182 346 182Q315 182 294 160T272 107Q272 84 289 70T336 55Q366 55 391 62T442 86ZM552 169Q590 228 609 291T628 427Q628 514 585 560T461 607Q392 607 336 573T240 471Q211 423 195 361T178 238Q178 196 187 171T220 122Q226 163 235 184T262 225Q306 271 376 271Q401 271 423 266T465 249T507 218T552 169Z"/>
<glyph unicode="R" horiz-adv-x="770" d="M311 0H-46L-30 76H9Q31 76 44 78T66 86T78 104T88 137L171 529Q173 541 174 549T176 563Q176 580 165 585T118 591H80L96 667H494Q606 667 658 637T710 542Q710 499 691 460T636 393Q621 382 606 374T573 359T532 347T479 337Q510 332 528 326T558 309Q588 284 588 250Q588 231 582 194L573 135Q570 114 570 100Q570 79 593 79Q602 79 608 83T620 99T632 132T646 190H709Q703 160 698 139T688 102T677 74T663 48Q643 16 609 -1T529 -19Q423 -19 423 75Q423 89 426 103L439 181Q442 196 443 210T445 236Q445 279 416 296T312 314H265L228 137Q226 128 225 118T223 103Q223 86 234 81T280 76H327L311 0ZM399 390Q452 390 482 401T533 438Q560 473 560 518Q560 559 534 575T438 591H324L282 390H399Z"/>
<glyph unicode="S" horiz-adv-x="641" d="M29 275H106L109 215L291 70Q362 70 403 98T444 177Q444 206 422 225T350 256L247 281Q151 304 109 341T66 437Q66 489 88 535T149 614T240 667T354 687Q382 687 404 684T446 674T487 653T534 618L580 667H639L585 414H510Q510 459 503 489T476 546Q458 573 421 589T341 606Q276 606 236 578T196 503Q196 477 215 461T278 433L405 402Q445 393 480 377T536 341Q556 323 567 296T578 236Q578 183 555 137T490 56T395 1T279 -19Q250 -19 225 -15T176 -2T128 23T75 62L40 0H-29L29 275Z"/>
<glyph unicode="T" horiz-adv-x="675" d="M322 593Q277 594 244 584T185 550T143 487T112 391H36L95 667H722L663 391H587Q592 424 594 444T597 479Q597 536 569 564Q554 580 530 586T463 593L366 137Q361 115 361 103Q361 86 372 81T419 76H476L460 0H73L90 76H147Q169 76 182 78T204 86T216 104T226 137L322 593Z"/>
<glyph unicode="U" horiz-adv-x="760" d="M91 667H438L421 591H379Q356 591 343 589T322 581T309 563T300 530L232 211Q225 180 225 152Q225 120 256 99T337 78Q369 78 400 87T454 114Q475 129 487 151T507 211L575 530Q577 542 578 550T580 564Q580 581 569 586T522 591H483L499 667H808L792 591H762Q739 591 726 589T705 581T692 563T683 530L615 211Q592 98 512 39T303 -20Q201 -20 143 22T84 137Q84 171 92 211L160 530Q163 544 164 551T165 564Q165 581 154 586T107 591H75L91 667Z"/>
<glyph unicode="V" horiz-adv-x="710" d="M133 528Q128 564 115 577T69 591H40L56 667H406L389 591H338Q304 591 291 582T278 547Q278 536 278 529T280 512L330 166L537 520Q545 534 551 549T557 572Q557 583 545 587T500 591H456L472 667H789L773 591H752Q734 591 721 589T696 579T676 559T654 526L345 0H207L133 528Z"/>
<glyph unicode="W" horiz-adv-x="973" d="M140 502Q138 529 135 546T125 573T108 587T82 591H65L81 667H366L350 591H318Q269 591 269 548V539L293 163L485 507Q485 555 473 573T428 591H403L419 667H712L695 591H659Q629 591 617 583T605 552Q605 550 605 546T606 537L640 173L812 511Q821 529 827 546T833 571Q833 580 819 585T783 591H750L766 667H1039L1022 591H1001Q975 591 956 576T919 524L656 0H525L496 357L300 0H174L140 502Z"/>
<glyph unicode="X" horiz-adv-x="785" d="M276 0H-71L-55 76H-22Q-7 76 5 78T28 85T51 100T80 124L317 341L202 537Q184 568 166 579T115 591H81L97 667H450L434 591H388Q355 591 355 567Q355 556 365 540L430 435L560 545Q570 554 576 562T582 576Q582 591 541 591H503L519 667H832L816 591H780Q768 591 757 589T733 578T703 556T658 517L477 357L601 146Q615 122 625 108T646 87T670 78T706 76H735L719 0H337L353 76H399Q428 76 439 81T450 102Q450 113 444 124L365 261L247 152Q224 130 214 117T204 92Q204 83 213 80T246 76H292L276 0Z"/>
<glyph unicode="Y" horiz-adv-x="730" d="M488 0H100L116 76H174Q196 76 209 78T231 86T244 104T253 137L283 279L170 523Q153 561 135 576T88 591H55L71 667H424L408 591H359Q333 591 322 585T311 564Q311 554 318 538L396 381L550 543Q570 565 570 576Q570 591 538 591H479L495 667H804L788 591H765Q739 591 721 582T678 547L423 279L393 137Q388 112 388 103Q388 86 399 81T446 76H504L488 0Z"/>
<glyph unicode="Z" horiz-adv-x="656" d="M-14 80L493 591H379Q340 591 313 588T265 578T230 559T201 527Q193 516 187 504T174 475T162 437T148 387H72L131 667H673L655 581L153 76H260Q323 76 363 83T431 115T478 183T520 302H596L532 0H-31L-14 80Z"/>
<glyph unicode="[" horiz-adv-x="382" d="M160 667H409L394 600H274L124 -105H244L230 -172H-18L160 667Z"/>
<glyph unicode="\" horiz-adv-x="369" d="M115 686H189L268 -92H194L115 686Z"/>
<glyph unicode="]" horiz-adv-x="382" d="M-63 -172L-49 -105H71L221 600H101L115 667H364L185 -172H-63Z"/>
<glyph unicode="^" horiz-adv-x="500" d="M27 360L253 670H389L484 360H374L303 588L136 360H27Z"/>
<glyph unicode="_" horiz-adv-x="500" d="M416 -63L400 -137H-100L-84 -63H416Z"/>
<glyph unicode="`" horiz-adv-x="500" d="M317 540L175 619Q136 641 136 666Q136 692 155 711T201 730Q220 730 233 720T267 683L372 540H317Z"/>
<glyph unicode="a" horiz-adv-x="566" d="M530 175Q523 145 518 125T507 90T497 65T486 44Q444 -17 366 -17Q321 -17 301 -1T273 57Q250 36 230 22T190 -2T147 -14T97 -18Q42 -18 11 8T-21 82Q-21 121 -1 156T58 215Q71 223 85 229T120 243T168 257T233 273Q291 287 315 309T339 374Q339 432 249 432Q219 432 198 426T151 403Q180 401 193 392T206 362Q206 330 182 308T122 285Q92 285 75 301T57 343Q57 374 74 400T120 445T190 475T277 486Q363 486 409 461T455 388Q455 363 444 308L399 100Q398 95 398 90T397 82Q397 65 416 65Q425 65 431 70T444 88T456 122T469 175H530ZM276 229Q260 224 242 217T203 202Q162 187 140 162T117 107Q117 65 168 65Q217 65 251 97T299 188L311 245L276 229Z"/>
<glyph unicode="b" horiz-adv-x="591" d="M71 -5H6L122 541Q124 550 125 558T126 575Q126 589 115 594T77 600H57L71 667H268L211 395Q233 420 253 437T294 466T338 481T388 486Q463 486 506 443T549 324Q549 257 528 192T471 81Q431 30 385 7T281 -17Q228 -17 193 0T125 60L71 -5ZM330 400Q292 400 261 380T207 321Q199 307 192 288T179 247T171 203T168 162Q168 118 192 92T259 66Q294 66 323 85T372 141Q380 156 387 177T400 220T409 266T412 310Q412 352 390 376T330 400Z"/>
<glyph unicode="c" horiz-adv-x="511" d="M451 195Q442 165 434 143T415 104T394 72T368 44Q302 -17 195 -17Q104 -17 53 31T1 165Q1 232 26 291T94 393T195 461T322 486Q397 486 443 453T489 366Q489 343 482 324T461 289T429 266T391 257Q363 257 347 271T331 308Q331 339 349 358T402 385Q390 396 380 403T361 414T341 419T317 421Q230 421 181 335Q171 318 163 298T149 255T140 211T137 169Q137 72 235 72Q286 72 317 100T374 195H451Z"/>
<glyph unicode="d" horiz-adv-x="621" d="M368 667H587L472 126Q470 117 469 108T468 93Q468 79 479 73T517 67H545L531 0H326L343 82Q322 55 302 37T262 7T218 -9T165 -14Q88 -14 46 28T4 148Q4 181 9 214T25 280T49 340T81 392Q155 486 271 486Q329 486 359 465T409 391L441 541Q443 549 444 558T445 573Q445 600 396 600H354L368 667ZM293 400Q258 400 229 381T180 325Q172 310 165 290T152 246T143 200T140 156Q140 114 162 90T222 66Q260 66 291 86T345 145Q353 159 360 178T372 219T381 262T384 303Q384 348 360 374T293 400Z"/>
<glyph unicode="e" horiz-adv-x="531" d="M462 167Q451 139 440 119T417 82T391 52T358 27Q289 -18 198 -18Q106 -18 54 31T2 169Q2 235 26 293T92 393T190 461T310 486Q403 486 447 439Q467 418 477 390T488 330Q488 308 485 282T477 225H142Q140 206 139 189T137 158Q137 112 162 87T233 62Q260 62 281 67T319 85T350 117T379 167H462ZM360 295Q362 309 363 322T364 345Q364 420 296 420Q251 420 220 391T161 295H360Z"/>
<glyph unicode="f" horiz-adv-x="372" d="M39 398L53 467H143L146 483Q189 684 361 684Q417 684 450 661T484 600Q484 580 478 563T460 534T433 514T400 506Q375 506 361 518T347 551Q347 602 402 619Q393 627 385 630T363 633Q326 633 307 612T277 535L262 467H364L349 398H248L190 126Q187 114 186 107T185 94Q185 67 234 67H279L265 0H-46L-32 67H-3Q16 67 28 69T49 78T61 96T70 126L128 398H39Z"/>
<glyph unicode="g" horiz-adv-x="660" d="M299 81Q369 81 406 73T464 43Q491 16 491 -26Q491 -64 470 -99T414 -160Q378 -185 312 -199T167 -214Q58 -214 0 -189T-59 -115Q-59 -98 -52 -82T-34 -55Q-20 -41 -2 -33T53 -13Q19 -2 5 14T-10 58Q-10 76 -3 94T19 127Q34 142 51 152T101 175Q76 204 67 225T58 274Q58 319 78 358T133 425T217 470T322 486Q371 486 405 476T475 441Q507 467 530 476T584 486Q626 486 649 467T673 412Q673 392 667 375T649 344T622 324T589 316Q566 316 552 329T537 362Q537 413 597 431Q589 439 583 441T568 444Q549 444 533 435T493 403Q499 382 501 370T503 344Q503 303 484 262T430 192Q397 163 349 148T243 132Q216 132 195 135T138 149Q120 138 113 129T105 109Q105 93 118 87T163 81H299ZM305 428Q243 428 213 371Q202 349 195 318T188 259Q188 195 255 195Q320 195 349 251Q360 272 367 304T374 364Q374 428 305 428ZM212 -25Q149 -25 114 -30T61 -47Q29 -68 29 -100Q29 -157 171 -157Q259 -157 305 -136T351 -72Q351 -45 321 -35T212 -25Z"/>
<glyph unicode="h" horiz-adv-x="646" d="M96 667H298L239 387Q268 414 292 433T339 463T383 479T429 484Q483 484 515 459T548 392Q548 377 546 356T538 311L498 126Q496 117 495 108T494 93Q494 67 543 67H570L556 0H275L289 67H309Q327 67 338 69T357 78T370 96T379 126L418 311Q422 327 423 339T425 359Q425 379 408 393T366 407Q308 407 261 358Q241 337 229 312T208 243L183 126Q181 116 180 108T179 94Q179 80 190 74T228 67H248L234 0H-46L-32 67H-6Q12 67 23 69T42 78T55 96T64 126L152 541Q154 549 155 558T156 574Q156 588 145 594T107 600H82L96 667Z"/>
<glyph unicode="i" horiz-adv-x="348" d="M245 675Q270 675 286 659T302 616Q302 598 295 582T274 554T244 535T209 527Q183 527 167 544T151 587Q151 605 158 621T179 649T209 668T245 675ZM-32 67H4Q22 67 33 69T53 78T65 96T74 126L120 343Q122 351 123 360T124 375Q124 389 113 395T75 402H40L54 469H268L195 126Q193 116 192 108T191 94Q191 80 202 74T240 67H270L255 0H-46L-32 67Z"/>
<glyph unicode="j" horiz-adv-x="318" d="M46 469H264L159 -26Q148 -79 135 -108T100 -159Q74 -185 36 -199T-44 -214Q-97 -214 -129 -191T-161 -131Q-161 -113 -154 -97T-136 -69T-109 -50T-75 -43Q-52 -43 -39 -54T-25 -85Q-25 -142 -90 -154Q-63 -165 -47 -165Q-35 -165 -21 -157T2 -138Q12 -125 17 -110T30 -58L116 343Q118 353 119 361T120 375Q120 389 109 395T71 402H32L46 469ZM240 675Q265 675 281 659T297 616Q297 598 290 582T269 554T240 535T205 527Q179 527 163 544T147 587Q147 604 154 620T175 648T205 667T240 675Z"/>
<glyph unicode="k" horiz-adv-x="636" d="M385 364Q408 380 408 391Q408 398 402 400T375 402H322L336 469H633L618 402H598Q586 402 576 401T556 395T533 384T504 365L396 289L478 123Q492 94 511 81T558 67H581L567 0H279L293 67H327Q341 67 349 72T358 85Q358 90 356 96T352 108L298 224L188 149L183 126Q181 116 180 108T179 94Q179 67 228 67H240L225 0H-46L-32 67H-6Q29 67 42 78T64 126L152 541Q154 549 155 558T156 574Q156 588 145 594T107 600H82L96 667H298L208 241L385 364Z"/>
<glyph unicode="l" horiz-adv-x="338" d="M185 126Q182 114 181 107T180 94Q180 67 229 67H260L246 0H-51L-37 67H-6Q11 67 22 69T42 78T54 96T63 126L152 541Q156 560 156 574Q156 588 145 594T107 600H77L91 667H300L185 126Z"/>
<glyph unicode="m" horiz-adv-x="924" d="M244 390Q273 417 296 435T340 464T381 479T425 484Q475 484 502 460Q514 450 521 434T535 389Q568 417 592 435T638 464T678 479T720 484Q769 484 800 460T832 399Q832 386 829 363T819 311L780 126Q775 103 775 93Q775 67 824 67H852L838 0H567L581 67H592Q610 67 621 69T641 78T653 96T662 126L701 311Q709 348 709 365Q709 384 694 395T655 407Q631 407 609 397T568 370T536 328T516 277L484 126Q481 114 480 107T479 94Q479 67 528 67H540L525 0H271L285 67H296Q314 67 325 69T345 78T357 96T366 126L405 311Q410 330 412 344T414 365Q414 384 399 395T359 407Q336 407 314 397T272 370T240 328T220 277L188 126Q185 114 184 106T183 93Q183 67 233 67H244L230 0H-46L-32 67H0Q18 67 29 69T49 78T61 96T70 126L116 343Q119 354 120 362T121 375Q121 402 72 402H40L54 469H261L244 390Z"/>
<glyph unicode="n" horiz-adv-x="651" d="M-32 67H0Q18 67 29 69T49 78T61 96T70 126L116 343Q119 354 120 362T121 375Q121 402 72 402H40L54 469H263L245 387Q274 414 298 433T345 463T389 479T435 484Q489 484 521 459T554 392Q554 375 552 355T544 311L505 126Q500 101 500 93Q500 67 549 67H577L563 0H281L296 67H315Q333 67 344 69T364 78T376 96T385 126L425 311Q431 341 431 360Q431 380 414 393T372 407Q314 407 268 358Q247 336 236 313T216 247L190 126Q187 114 186 107T185 94Q185 67 234 67H254L240 0H-46L-32 67Z"/>
<glyph unicode="o" horiz-adv-x="586" d="M326 486Q427 486 485 436T543 298Q543 231 518 174T450 74T346 7T217 -17Q167 -17 127 -4T59 33T15 93T0 171Q0 238 25 295T94 395T197 462T326 486ZM311 416Q223 416 178 335Q168 317 160 295T146 249T137 201T134 153Q134 105 159 79T233 53Q321 53 366 134Q376 151 384 173T398 219T407 267T410 315Q410 364 385 390T311 416Z"/>
<glyph unicode="p" horiz-adv-x="621" d="M44 469H246L228 387Q249 414 269 432T310 462T354 478T407 483Q483 483 525 441T567 321Q567 288 562 255T546 189T522 128T490 77Q417 -17 300 -17Q271 -17 250 -12T212 4T184 33T163 78L127 -88Q125 -97 124 -105T123 -120Q123 -147 172 -147H216L202 -214H-106L-92 -147H-62Q-27 -147 -14 -136T8 -88L99 343Q104 368 104 376Q104 402 55 402H30L44 469ZM349 403Q312 403 280 383T226 324Q218 310 211 291T199 250T191 207T188 166Q188 121 212 95T279 69Q350 69 391 144Q399 159 406 180T419 223T428 269T431 313Q431 355 409 379T349 403Z"/>
<glyph unicode="q" horiz-adv-x="626" d="M499 -214H189L204 -147H248Q266 -147 277 -145T297 -136T309 -118T318 -88L353 78Q332 51 313 33T272 4T227 -12T174 -17Q98 -17 56 25T14 145Q14 178 19 211T35 277T59 337T91 389Q164 483 281 483Q310 483 331 478T369 462T397 432T419 387L436 469H638L624 402H599Q564 402 550 391T529 343L437 -88Q435 -98 434 -106T433 -120Q433 -147 482 -147H513L499 -214ZM304 403Q269 403 240 384T191 328Q183 313 176 292T163 249T154 203T151 159Q151 117 173 93T234 69Q271 69 302 89T356 148Q364 162 371 181T383 222T392 265T395 306Q395 351 371 377T304 403Z"/>
<glyph unicode="r" horiz-adv-x="492" d="M270 0H-46L-32 67H0Q18 67 29 69T49 78T61 96T70 126L116 343Q119 354 120 362T121 375Q121 402 72 402H40L54 469H263L248 399Q286 445 318 463T392 482Q437 482 463 459T490 397Q490 375 482 356T461 323T429 300T390 291Q363 291 348 303T333 338Q333 396 409 419Q383 429 366 429Q346 429 320 414T273 375Q253 352 239 320T217 253L190 126Q187 114 186 107T185 94Q185 67 234 67H284L270 0Z"/>
<glyph unicode="s" horiz-adv-x="492" d="M-1 186H72Q73 148 80 128T104 91Q138 55 201 55Q244 55 271 75T299 126Q299 144 283 155T228 177L158 194Q33 227 33 310Q33 347 49 379T95 435T164 472T250 486Q291 486 320 476T382 439L411 475H468L431 302H364Q359 335 352 353T329 385Q314 399 290 407T241 415Q203 415 179 397T154 350Q154 322 201 310L286 289Q359 271 391 243T424 167Q424 133 409 100T367 41Q306 -17 198 -17Q175 -17 158 -15T124 -7T90 9T51 36L24 -6H-42L-1 186Z"/>
<glyph unicode="t" horiz-adv-x="402" d="M29 400L43 465Q80 473 107 485T153 519T188 572T219 653H282L242 469H372L357 400H226L169 133Q164 110 164 99Q164 75 193 75Q225 75 240 111Q243 119 245 126T251 145T258 174T269 221H334Q327 185 321 159T307 112T293 76T275 46Q229 -17 143 -17Q95 -17 69 6T42 71Q42 84 44 104T52 147L106 400H29Z"/>
<glyph unicode="u" horiz-adv-x="645" d="M53 469H253L187 158Q183 143 182 131T180 109Q180 89 197 76T240 62Q267 62 293 74T343 111Q364 131 375 155T395 221L421 343Q424 354 425 362T426 375Q426 402 377 402H331L345 469H568L495 126Q492 114 491 107T490 94Q490 67 539 67H565L551 0H348L366 82Q337 55 313 36T266 6T222 -10T176 -15Q122 -15 90 10T57 76Q57 93 59 114T67 158L106 343Q109 354 110 362T111 375Q111 402 62 402H39L53 469Z"/>
<glyph unicode="v" horiz-adv-x="551" d="M91 352Q85 402 48 402H20L34 469H292L278 402H262Q236 402 226 393T216 357Q216 353 216 348T218 335L245 118L373 344Q388 369 388 383Q388 402 348 402H324L338 469H569L555 402H530Q491 402 457 342L264 0H138L91 352Z"/>
<glyph unicode="w" horiz-adv-x="819" d="M92 344Q88 379 79 390T46 402H25L39 469H285L271 402H247Q225 402 217 394T209 363Q209 352 209 349T210 338L229 109L362 342Q376 366 376 382Q376 393 368 397T337 402H318L332 469H572L558 402H529Q508 402 499 393T491 363L492 348L519 103L640 328Q662 369 662 384Q662 402 634 402H610L624 469H830L816 402H795Q775 402 760 388T725 337L541 0H424L396 262L250 0H131L92 344Z"/>
<glyph unicode="x" horiz-adv-x="641" d="M-52 67H-28Q-9 67 15 77T65 107L229 231L139 355Q119 381 102 391T59 402H39L53 469H340L326 402H305Q274 402 274 385Q274 379 284 365L327 303L399 359Q415 370 421 377T427 389Q427 402 397 402H376L391 469H642L628 402H608Q585 402 562 391T501 352L371 252L470 120Q490 92 509 80T551 67H572L558 0H263L277 67H298Q339 67 339 84Q339 92 329 105L274 178L175 104Q153 86 153 79Q153 67 178 67H216L202 0H-66L-52 67Z"/>
<glyph unicode="y" horiz-adv-x="581" d="M103 342Q95 374 82 388T42 402H13L27 469H314L300 402H266Q226 402 226 370Q226 360 227 356L273 140L399 347Q413 369 413 384Q413 402 374 402H347L361 469H601L587 402H564Q520 402 476 331L307 56Q257 -25 220 -77T149 -159T85 -202T18 -214Q-34 -214 -65 -187T-97 -113Q-97 -90 -89 -70T-67 -34T-34 -9T6 0Q32 0 47 -14T62 -52Q62 -80 41 -103Q29 -115 15 -120T-25 -125Q-14 -139 -5 -144T20 -149Q41 -149 58 -142T95 -118T135 -72T184 0L103 342Z"/>
<glyph unicode="z" horiz-adv-x="501" d="M-36 73L337 402H232Q189 402 166 392T126 354Q122 348 119 341T112 323T104 298T95 262H25L69 469H488L472 394L105 67H192Q222 67 243 69T279 76T305 90T325 113Q335 128 343 150T366 224H436L389 0H-51L-36 73Z"/>
<glyph unicode="{" horiz-adv-x="382" d="M232 365Q226 339 219 320T202 287T178 263T145 242Q168 226 176 210T185 169Q185 158 184 145T179 119L146 -37Q143 -52 142 -60T139 -74T138 -81T138 -88Q138 -108 155 -115T220 -123Q223 -123 230 -123T245 -122L231 -185Q205 -187 189 -187T154 -187Q112 -187 90 -184T51 -171Q11 -149 11 -97Q11 -73 17 -41L52 122Q57 145 57 164Q57 201 15 212L28 272Q60 280 76 298T102 358L139 529Q147 569 161 596T199 640T256 664T339 671Q352 671 365 671T413 669L400 606Q391 607 384 607T374 607Q339 607 324 605T297 593Q290 589 286 585T279 574T273 555T265 522L232 365Z"/>
<glyph unicode="|" horiz-adv-x="500" d="M382 667L205 -167H83L260 667H382Z"/>
<glyph unicode="}" horiz-adv-x="382" d="M111 119Q117 145 124 164T141 197T164 221T198 242Q175 258 167 274T158 315Q158 339 164 365L197 521Q200 536 201 544T204 557T205 565T205 571Q205 591 188 598T123 606H98L112 669Q136 670 152 670T189 671Q231 671 253 668T292 655Q332 633 332 580Q332 555 326 525L291 362Q286 337 286 320Q286 281 328 272L315 211Q283 204 267 186T241 126L204 -45Q196 -86 182 -113T144 -156T87 -180T4 -187Q-7 -187 -21 -187T-70 -185L-57 -122Q-48 -123 -41 -123T-31 -123Q4 -123 19 -121T46 -109Q53 -105 57 -101T64 -90T70 -71T78 -39L111 119Z"/>
<glyph unicode="~" horiz-adv-x="667" d="M153 613Q195 679 236 709T323 740Q343 740 365 733T427 705Q446 696 458 690T478 681T493 677T508 676Q531 676 552 691T601 743L651 693Q607 625 567 595T481 565Q472 565 464 566T445 571T419 582T382 600Q362 609 349 615T327 624T311 629T296 630Q273 630 253 616T203 564L153 613Z"/>
<glyph unicode=" " horiz-adv-x="250"/>
<glyph unicode="¡" horiz-adv-x="308" d="M188 484Q214 484 230 467T246 424Q246 407 239 391T218 363T188 344T153 336Q128 336 112 352T96 395Q96 413 103 429T124 457T153 476T188 484ZM174 277Q169 243 166 219T160 173T155 128T149 74L134 -79Q132 -102 130 -118T125 -146T118 -167T109 -184Q87 -220 35 -220Q-25 -220 -25 -171Q-25 -161 -24 -152T-19 -128T-5 -85T21 -9Q38 42 50 78T72 145T91 206T112 277H174Z"/>
<glyph unicode="¢" horiz-adv-x="621" d="M139 21Q113 39 96 55T69 90T54 131T49 182Q49 250 74 309T142 411T245 479T372 504Q401 504 421 500T473 482L537 569H596L511 453Q526 430 531 416T537 384Q537 361 529 341T507 306T475 283T436 274Q422 274 414 277T393 290L249 93Q261 91 270 90T288 89Q313 89 337 100T378 130Q392 145 401 162T422 212H500Q491 183 483 162T465 124T446 94T422 67Q390 35 345 17T253 -1Q242 -1 224 0T186 5L110 -99H52L139 21ZM397 375Q405 382 410 386T421 393T433 398T450 402Q438 413 428 420T408 431T388 436T364 438Q279 438 228 352Q208 318 196 272T184 183Q184 163 189 150T208 116L397 375Z"/>
<glyph unicode="£" horiz-adv-x="621" d="M-12 66Q25 90 49 111T90 155T117 205T133 270H35L48 329H127Q118 363 115 382T111 419Q111 462 132 499T190 563T279 605T390 621Q435 621 473 612T538 586T581 546T597 495Q597 472 589 453T566 418T532 395T491 386Q464 386 447 401T430 439Q430 465 445 483T496 515Q470 541 450 550T397 559Q368 559 343 550T300 525T272 486T261 438Q261 427 263 413T270 371L277 329H403L391 270H272Q261 226 231 190T156 129L158 122Q195 137 215 142T253 148Q272 148 297 141T346 123Q364 114 375 109T393 102T404 99T414 98Q443 98 461 121Q471 132 477 147T493 195H548Q542 168 537 148T526 112T513 83T496 56Q471 21 436 2T361 -17Q349 -17 338 -16T315 -11T288 -1T251 17Q219 32 195 39T150 46Q132 46 116 43T84 33T49 15T8 -14L-12 66Z"/>
<glyph unicode="¤" horiz-adv-x="667" d="M110 233Q99 256 94 277T89 324Q89 375 108 420T170 511L89 612L164 673L243 572Q285 597 320 607T395 618Q433 618 463 608T524 573L646 673L693 612L573 512Q585 485 590 464T595 419Q595 370 576 326T515 234L594 133L521 72L442 172Q401 148 365 137T290 125Q253 125 223 135T158 172L37 72L-11 133L110 233ZM374 518Q339 518 306 504T248 464T208 407T193 341Q193 290 225 258T309 225Q345 225 377 239T435 279T476 335T491 402Q491 427 483 448T458 485T421 509T374 518Z"/>
<glyph unicode="¥" horiz-adv-x="723" d="M94 203L107 261H277L251 316H112L124 374H224L178 474Q162 508 146 522T104 536H74L89 605H409L394 536H349Q326 536 316 531T306 511Q306 500 313 487L384 345L523 492Q541 510 541 522Q541 536 512 536H459L473 605H754L739 536H718Q694 536 678 528T639 496L523 374H616L604 316H468L415 261H585L573 203H397L381 125Q376 102 376 94Q376 79 386 74T428 69H481L466 0H115L129 69H182Q202 69 214 70T234 78T245 95T253 125L270 203H94Z"/>
<glyph unicode="¦" horiz-adv-x="500" d="M382 667L309 322H187L260 667H382ZM273 153L205 -167H83L151 153H273Z"/>
<glyph unicode="§" horiz-adv-x="591" d="M416 412Q527 368 527 280Q527 250 513 221T472 166Q454 149 433 136T369 104Q406 78 420 55T435 2Q435 -42 414 -81T355 -150T268 -197T162 -214Q123 -214 90 -206T32 -182T-5 -146T-19 -101Q-19 -82 -12 -65T9 -35T39 -14T74 -6Q98 -6 114 -19T131 -53Q131 -81 118 -98T70 -130Q101 -146 119 -151T163 -157Q199 -157 229 -148T281 -122T315 -82T328 -31Q328 -6 311 10T249 44L175 72Q131 88 102 103T56 135T31 171T23 214Q23 247 37 278T79 336Q99 356 121 368T183 396Q150 425 137 447T124 499Q124 533 142 567T193 629Q228 657 276 672T381 687Q456 687 501 661T546 589Q546 571 539 555T520 526T493 506T460 498Q437 498 421 512T405 547Q405 567 416 583T452 616Q425 627 408 630T367 634Q336 634 310 626T264 604T235 571T224 529Q224 507 241 492T302 458L416 412ZM307 139Q424 161 424 242Q424 267 410 283T362 313L245 360Q207 355 185 345T145 313Q124 289 124 256Q124 236 136 223T177 196L307 139Z"/>
<glyph unicode="¨" horiz-adv-x="500" d="M237 699Q260 699 275 683T290 643Q290 626 283 611T264 585T237 567T204 560Q179 560 164 575T148 616Q148 632 155 647T175 673T204 692T237 699ZM426 699Q449 699 464 683T479 643Q479 626 472 611T453 585T426 567T393 560Q368 560 353 575T337 616Q337 632 344 647T364 673T393 692T426 699Z"/>
<glyph unicode="©" horiz-adv-x="791" d="M554 294Q546 272 540 256T526 228T511 205T492 184Q439 132 356 132Q320 132 291 143T242 174T210 222T198 285Q198 334 217 379T270 459T347 513T439 534Q455 534 467 533T491 527T514 515T540 497L557 529H603L569 370H520V393Q520 436 499 459T439 482Q408 482 382 466T335 422T304 357T292 276Q292 236 315 213T378 190Q420 190 448 214T499 294H554ZM474 681Q536 681 589 660T680 602T741 514T763 403Q763 349 746 297T699 199T628 114T537 46T433 2T321 -14Q258 -14 204 7T111 65T50 153T28 264Q28 345 65 420T164 554T306 646T474 681ZM461 625Q389 625 323 596T206 518T125 406T94 274Q94 224 112 182T161 108T236 60T331 42Q402 42 468 71T585 149T666 261T697 394Q697 444 679 486T630 559T555 607T461 625Z"/>
<glyph unicode="ª" horiz-adv-x="363" d="M384 438Q379 419 376 406T370 384T364 369T356 356Q329 318 277 318Q249 318 236 327T217 359Q189 335 166 326T107 317Q72 317 51 334T30 380Q30 404 43 425T81 461Q97 471 121 478T192 497Q227 505 240 517T254 552Q254 584 200 584Q171 584 149 572Q178 568 178 545Q178 525 162 511T121 496Q101 496 89 506T77 534Q77 572 117 597T218 622Q274 622 304 606T334 560Q334 543 328 513L301 390L300 381Q300 373 309 373Q319 373 325 386T339 438H384ZM237 471Q224 468 209 459Q200 456 191 453T174 447Q124 430 124 396Q124 373 153 373Q215 373 231 443L237 471Z"/>
<glyph unicode="«" horiz-adv-x="482" d="M69 129Q55 158 47 185T38 226Q38 260 115 346L167 403H238L196 336Q169 294 157 266T144 221Q144 207 146 183T154 139L168 72H96L69 129ZM264 129Q250 157 242 184T233 226Q233 260 310 346L362 403H433L391 336Q364 294 352 266T339 221Q339 207 342 183T349 139L363 72H291L264 129Z"/>
<glyph unicode="¬" horiz-adv-x="500" d="M315 179H0L23 286H456L395 0H277L315 179Z"/>
<glyph unicode="­" horiz-adv-x="269" d="M-9 290H260L237 184H-32L-9 290Z"/>
<glyph unicode="®" horiz-adv-x="791" d="M369 143H158L169 192H194Q206 192 213 193T224 197T230 206T235 223L281 443Q283 448 283 453T284 461Q284 469 279 471T254 474H229L239 523H469Q535 523 565 506T595 451Q595 406 565 377T479 336Q526 324 526 287Q526 274 523 255L518 222Q517 217 517 213T517 203Q517 193 527 193Q535 193 540 204T554 256H596Q589 221 584 204T569 172Q544 132 489 132Q426 132 426 188L427 204L435 247Q438 263 438 277Q438 301 422 310T365 320H342L321 223Q320 218 320 213T319 205Q319 197 324 195T349 192H379L369 143ZM416 369Q503 369 503 436Q503 458 489 466T436 474H375L352 369H416ZM474 681Q536 681 589 660T680 602T741 514T763 403Q763 349 746 297T699 199T628 114T537 46T433 2T321 -14Q258 -14 204 7T111 65T50 153T28 264Q28 345 65 420T164 554T306 646T474 681ZM461 625Q389 625 323 596T206 518T125 406T94 274Q94 224 112 182T161 108T236 60T331 42Q402 42 468 71T585 149T666 261T697 394Q697 444 679 486T630 559T555 607T461 625Z"/>
<glyph unicode="¯" horiz-adv-x="500" d="M172 670H470L453 588H155L172 670Z"/>
<glyph unicode="°" horiz-adv-x="400" d="M204 686Q235 686 261 674T307 642T338 593T350 533Q350 501 339 474T307 426T259 393T200 381Q168 381 141 393T94 425T62 474T50 534Q50 566 62 593T94 641T143 674T204 686ZM202 629Q161 629 134 602T106 533Q106 513 113 496T133 466T163 446T200 438Q219 438 236 445T266 466T286 496T293 534Q293 553 286 570T267 601T238 621T202 629Z"/>
<glyph unicode="±" horiz-adv-x="549" d="M535 55V0H11V55H535ZM302 423H539V368H302V129H247V368H10V423H247V662H302V423Z"/>
<glyph unicode="²" horiz-adv-x="392" d="M15 264Q21 297 32 321T66 366T121 403T203 437Q247 453 267 473T287 523Q287 547 267 561T214 576Q186 576 166 566T126 533Q141 536 151 536Q165 536 175 528T185 508Q185 486 167 471T124 455Q101 455 88 467T75 500Q75 522 89 543T126 580T180 605T244 615Q307 615 344 591T381 525Q381 502 371 480T342 442Q324 427 301 418T235 401Q202 395 179 389T139 374T108 354T82 328Q100 336 111 339T132 343Q143 343 169 340T216 332Q233 329 246 327T268 325Q279 325 291 330T309 345Q314 351 317 359T329 388H364Q356 351 348 332T323 295Q306 277 286 267T243 257Q230 257 219 258T195 264T166 275T128 294Q112 302 93 302Q78 302 69 294T51 264H15Z"/>
<glyph unicode="³" horiz-adv-x="392" d="M182 468Q217 469 232 471T262 481Q276 489 285 503T294 533Q294 554 276 566T228 579Q208 579 193 575T154 558Q185 554 185 530Q185 510 168 496T127 482Q107 482 95 491T83 518Q83 537 97 555T134 586T188 607T254 615Q316 615 350 595T385 540Q385 523 376 507T352 479Q339 468 322 462T273 449Q321 439 340 423T360 377Q360 351 346 329T305 291T242 266T163 257Q103 257 68 279T32 339Q32 366 52 385T101 405Q143 405 143 371Q143 348 127 336T81 322Q98 307 115 302T158 296Q205 296 235 318T265 374Q265 404 246 415T174 427L182 468Z"/>
<glyph unicode="´" horiz-adv-x="500" d="M357 683Q388 710 406 720T443 730Q463 730 474 719T486 688Q486 666 471 650T422 619L247 540H192L357 683Z"/>
<glyph unicode="µ" horiz-adv-x="576" d="M442 131Q442 90 455 66T492 41Q509 41 523 60T540 109L567 108Q556 50 526 19T449 -13Q410 -13 388 8T354 80Q274 -13 200 -13Q174 -13 153 -4T101 33L103 -9Q118 -73 124 -94Q132 -120 132 -146Q132 -178 119 -198T83 -219Q61 -219 47 -199T33 -147Q33 -138 33 -132T35 -116T40 -94T50 -56Q62 -11 62 20V500H150V169Q150 116 174 87T242 58Q274 58 300 75T354 131L353 500H442V131Z"/>
<glyph unicode="¶" horiz-adv-x="603" d="M220 320Q215 319 212 319T207 319Q138 319 99 354T59 449Q59 496 80 540T137 613Q201 667 328 667H642L624 581H555L411 -94H316L460 581H370L227 -94H132L220 320Z"/>
<glyph unicode="·" horiz-adv-x="308" d="M151 308Q175 308 191 292T208 250Q208 232 201 216T180 188T150 169T115 161Q89 161 73 178T57 221Q57 238 64 254T85 282T115 301T151 308Z"/>
<glyph unicode="¸" horiz-adv-x="499" d="M41 -132Q95 -171 146 -171Q170 -171 184 -159T198 -124Q198 -111 189 -104T163 -96Q148 -96 130 -99L151 0H193L181 -56Q205 -53 222 -53Q251 -53 269 -70T287 -116Q287 -140 277 -160T250 -195T210 -218T158 -227Q123 -227 89 -217T7 -182L41 -132Z"/>
<glyph unicode="¹" horiz-adv-x="392" d="M83 307H111Q127 307 137 308T153 312T162 322T167 340L205 518H128L137 557Q163 559 180 562T210 570T234 585T257 609H307L250 339Q249 334 249 330T248 322Q248 313 255 310T286 307H319L310 267H75L83 307Z"/>
<glyph unicode="º" horiz-adv-x="376" d="M250 621Q316 621 353 590T391 505Q391 465 375 431T332 372T266 333T184 318Q119 318 81 349T43 434Q43 474 59 508T102 567T168 606T250 621ZM239 573Q185 573 160 528Q148 508 141 480T134 425Q134 366 195 366Q247 366 274 411Q285 431 292 459T300 514Q300 573 239 573Z"/>
<glyph unicode="»" horiz-adv-x="482" d="M4 72L47 139Q98 221 98 254Q98 269 96 293T88 336L74 403H146L173 346Q179 333 185 319T195 291T201 267T204 249Q204 214 127 129L76 72H4ZM199 72L241 139Q268 181 280 209T293 254Q293 269 291 293T283 336L269 403H341L368 346Q382 319 390 291T399 249Q399 213 322 129L271 72H199Z"/>
<glyph unicode="¼" horiz-adv-x="948" d="M83 307H111Q127 307 137 308T153 312T162 322T167 340L205 518H128L137 557Q163 559 180 562T210 570T234 585T257 609H307L250 339Q249 334 249 330T248 322Q248 313 255 310T286 307H319L310 267H75L83 307ZM707 622H786L230 -17H154L707 622ZM634 40H656Q672 40 681 41T696 45T705 54T710 70L715 94H525L534 136L786 342H846L804 142H877L867 94H794L789 70Q787 60 787 56Q787 40 820 40H855L847 0H626L634 40ZM753 264L603 142H725L753 264Z"/>
<glyph unicode="½" horiz-adv-x="948" d="M83 307H111Q127 307 137 308T153 312T162 322T167 340L205 518H128L137 557Q163 559 180 562T210 570T234 585T257 609H307L250 339Q249 334 249 330T248 322Q248 313 255 310T286 307H319L310 267H75L83 307ZM707 622H786L230 -17H154L707 622ZM514 -2Q520 30 531 54T565 99T620 136T702 170Q747 186 767 206T787 256Q787 280 767 294T714 309Q685 309 665 299T626 266Q641 269 651 269Q665 269 674 261T684 241Q684 219 667 204T624 188Q601 188 588 200T575 233Q575 255 589 276T626 313T680 338T744 348Q807 348 844 324T881 258Q881 235 871 213T842 175Q824 160 801 151T735 134Q702 128 679 122T638 107T607 88T581 62Q599 70 610 73T631 76Q642 76 669 73T716 65Q733 62 746 60T767 58Q778 58 790 63T809 78Q814 84 817 92T828 121H863Q855 84 847 65T822 28Q788 -9 742 -9Q729 -9 718 -8T693 -2T665 9T627 27Q611 35 593 35Q577 35 568 27T551 -2H514Z"/>
<glyph unicode="¾" horiz-adv-x="948" d="M182 468Q217 469 232 471T262 481Q276 489 285 503T294 533Q294 554 276 566T228 579Q208 579 193 575T154 558Q185 554 185 530Q185 510 168 496T127 482Q107 482 95 491T83 518Q83 537 97 555T134 586T188 607T254 615Q316 615 350 595T385 540Q385 523 376 507T352 479Q339 468 322 462T273 449Q321 439 340 423T360 377Q360 351 346 329T305 291T242 266T163 257Q103 257 68 279T32 339Q32 366 52 385T101 405Q143 405 143 371Q143 348 127 336T81 322Q98 307 115 302T158 296Q205 296 235 318T265 374Q265 404 246 415T174 427L182 468ZM707 622H786L230 -17H154L707 622ZM634 40H657Q672 40 681 41T696 45T705 54T710 70L715 94H525L534 136L786 342H846L804 142H877L867 94H794L789 70Q787 60 787 56Q787 40 820 40H856L847 0H626L634 40ZM753 264L603 142H725L753 264Z"/>
<glyph unicode="¿" horiz-adv-x="497" d="M309 483Q335 483 351 466T367 423Q367 406 360 390T339 362T309 343T273 336Q248 336 232 352T216 395Q216 412 223 428T244 456T274 475T309 483ZM293 277Q287 242 281 219T262 175T230 133T176 83Q147 57 129 39T100 4T85 -27T81 -62Q81 -100 109 -123T184 -147Q234 -147 276 -116Q298 -100 309 -83T331 -31Q311 -45 298 -50T271 -55Q248 -55 234 -42T220 -5Q220 13 228 29T251 59T283 79T321 87Q356 87 378 63T400 -2Q400 -39 384 -75T337 -141Q258 -220 130 -220Q86 -220 51 -210T-10 -180T-49 -133T-63 -72Q-63 -2 -6 57Q4 67 13 75T37 93T74 118T137 157Q159 172 174 184T200 210T217 240T230 277H293Z"/>
<glyph unicode="À" horiz-adv-x="715" d="M-70 76H-49Q-30 76 -16 79T11 89T32 109T53 140L351 667H491L578 140Q581 118 584 105T595 86T613 78T644 76H664L648 0H304L320 76H374Q409 76 422 82T435 108Q435 115 435 120T433 134L421 212H201L154 129Q146 114 143 106T139 93Q139 82 148 79T188 76H240L224 0H-86L-70 76ZM373 522L245 290H410L373 522ZM350 772Q334 779 325 789T316 813Q316 823 321 833T334 850T352 863T373 868Q386 868 395 863T419 842L531 721H477L350 772Z"/>
<glyph unicode="Á" horiz-adv-x="715" d="M-70 76H-49Q-30 76 -16 79T11 89T32 109T53 140L351 667H491L578 140Q581 118 584 105T595 86T613 78T644 76H664L648 0H304L320 76H374Q409 76 422 82T435 108Q435 115 435 120T433 134L421 212H201L154 129Q146 114 143 106T139 93Q139 82 148 79T188 76H240L224 0H-86L-70 76ZM373 522L245 290H410L373 522ZM350 721L513 842Q533 857 545 862T571 868Q586 868 596 858T607 831Q607 813 593 797T552 772L404 721H350Z"/>
<glyph unicode="Â" horiz-adv-x="715" d="M-70 76H-49Q-30 76 -16 79T11 89T32 109T53 140L351 667H491L578 140Q581 118 584 105T595 86T613 78T644 76H664L648 0H304L320 76H374Q409 76 422 82T435 108Q435 115 435 120T433 134L421 212H201L154 129Q146 114 143 106T139 93Q139 82 148 79T188 76H240L224 0H-86L-70 76ZM373 522L245 290H410L373 522ZM397 858H513L580 721H533L437 776L318 721H272L397 858Z"/>
<glyph unicode="Ã" horiz-adv-x="715" d="M-70 76H-49Q-30 76 -16 79T11 89T32 109T53 140L351 667H491L578 140Q581 118 584 105T595 86T613 78T644 76H664L648 0H304L320 76H374Q409 76 422 82T435 108Q435 115 435 120T433 134L421 212H201L154 129Q146 114 143 106T139 93Q139 82 148 79T188 76H240L224 0H-86L-70 76ZM373 522L245 290H410L373 522ZM289 720Q318 786 347 813T421 841Q438 841 456 836L510 821Q520 818 530 818Q547 818 558 826T582 858H620Q604 822 592 804T563 769Q529 737 489 737Q481 737 474 738T458 741L407 756Q398 758 391 759T378 761Q348 761 326 720H289Z"/>
<glyph unicode="Ä" horiz-adv-x="715" d="M-70 76H-49Q-30 76 -16 79T11 89T32 109T53 140L351 667H491L578 140Q581 118 584 105T595 86T613 78T644 76H664L648 0H304L320 76H374Q409 76 422 82T435 108Q435 115 435 120T433 134L421 212H201L154 129Q146 114 143 106T139 93Q139 82 148 79T188 76H240L224 0H-86L-70 76ZM373 522L245 290H410L373 522ZM361 858Q383 858 398 842T414 803Q414 787 407 773T388 747T361 729T328 722Q305 722 290 737T275 777Q275 793 282 807T301 833T328 851T361 858ZM547 858Q569 858 584 842T600 803Q600 787 593 773T574 747T547 729T514 722Q491 722 476 737T461 777Q461 793 468 807T487 833T514 851T547 858Z"/>
<glyph unicode="Å" horiz-adv-x="715" d="M-70 76H-49Q-30 76 -16 79T11 89T32 109T53 140L351 667H491L578 140Q581 118 584 105T595 86T613 78T644 76H664L648 0H304L320 76H374Q409 76 422 82T435 108Q435 115 435 120T433 134L421 212H201L154 129Q146 114 143 106T139 93Q139 82 148 79T188 76H240L224 0H-86L-70 76ZM373 522L245 290H410L373 522ZM479 932Q516 932 540 908T564 847Q564 822 553 799T522 757T478 727T426 716Q391 716 367 742T343 806Q343 831 354 854T384 894T427 921T479 932ZM465 873Q454 874 443 869T423 856T409 838T403 816Q403 799 413 788T441 776Q465 776 484 793T503 834Q503 851 493 861T465 873Z"/>
<glyph unicode="Æ" horiz-adv-x="1097" d="M177 141Q157 114 152 105T146 91Q146 76 186 76H233L217 0H-86L-70 76H-54Q-24 76 6 93T59 140L353 529Q368 549 372 557T377 572Q377 583 365 587T321 591H275L291 667H1092L1035 402H959Q965 434 967 451T969 486Q969 517 963 537T940 570T896 586T824 591H665L621 386H659Q697 386 719 393T755 417Q759 422 762 427T768 442T777 466T790 507H866L795 174H719Q724 203 725 219T726 250Q726 286 710 298T644 310H605L555 76H729Q774 76 804 84T857 116T897 179T934 283H1010L950 0H289L306 76H352Q374 76 387 78T409 86T422 104T431 138L452 234H246L177 141ZM527 591H508L302 310H468L527 591Z"/>
<glyph unicode="Ç" horiz-adv-x="705" d="M283 -59Q295 -57 305 -56T325 -55Q355 -55 373 -72T391 -119Q391 -142 381 -161T354 -195T312 -218T260 -227Q225 -227 191 -217T110 -182L143 -132Q198 -171 248 -171Q271 -171 285 -159T300 -126Q300 -113 291 -106T265 -98Q250 -98 232 -101L250 -16Q198 -9 157 13T86 69T42 148T26 248Q26 335 60 414T152 554T285 650T444 686Q471 686 493 683T535 672T576 651T623 617L655 677H726L668 404H592Q593 417 593 427T593 444Q593 521 555 563T445 605Q385 605 334 572T244 476Q229 452 217 422T197 360T184 294T179 230Q179 157 220 115T333 72Q410 72 467 123Q480 135 491 147T511 174T531 210T552 258H637Q595 118 511 51T292 -19L283 -59Z"/>
<glyph unicode="È" horiz-adv-x="750" d="M-30 76H9Q31 76 44 78T66 86T78 104T88 138L171 529Q173 541 174 549T176 563Q176 580 165 585T118 591H80L96 667H751L695 402H619Q625 433 627 451T629 486Q629 517 623 537T600 570T556 586T484 591H324L281 386H318Q357 386 379 393T414 417Q418 423 421 427T427 441T436 465T450 507H525L455 174H379Q383 205 384 220T386 251Q386 286 370 298T303 310H265L215 76H389Q434 76 464 84T516 114T556 177T594 283H669L609 0H-46L-30 76ZM368 772Q352 779 343 789T334 813Q334 823 339 833T352 850T370 863T391 868Q404 868 413 863T437 842L549 721H495L368 772Z"/>
<glyph unicode="É" horiz-adv-x="750" d="M-30 76H9Q31 76 44 78T66 86T78 104T88 138L171 529Q173 541 174 549T176 563Q176 580 165 585T118 591H80L96 667H751L695 402H619Q625 433 627 451T629 486Q629 517 623 537T600 570T556 586T484 591H324L281 386H318Q357 386 379 393T414 417Q418 423 421 427T427 441T436 465T450 507H525L455 174H379Q383 205 384 220T386 251Q386 286 370 298T303 310H265L215 76H389Q434 76 464 84T516 114T556 177T594 283H669L609 0H-46L-30 76ZM367 721L530 842Q550 856 562 862T589 868Q604 868 614 858T625 831Q625 813 611 797T570 772L421 721H367Z"/>
<glyph unicode="Ê" horiz-adv-x="750" d="M-30 76H9Q31 76 44 78T66 86T78 104T88 138L171 529Q173 541 174 549T176 563Q176 580 165 585T118 591H80L96 667H751L695 402H619Q625 433 627 451T629 486Q629 517 623 537T600 570T556 586T484 591H324L281 386H318Q357 386 379 393T414 417Q418 423 421 427T427 441T436 465T450 507H525L455 174H379Q383 205 384 220T386 251Q386 286 370 298T303 310H265L215 76H389Q434 76 464 84T516 114T556 177T594 283H669L609 0H-46L-30 76ZM429 858H544L611 721H565L469 776L350 721H303L429 858Z"/>
<glyph unicode="Ë" horiz-adv-x="750" d="M-30 76H9Q31 76 44 78T66 86T78 104T88 138L171 529Q173 541 174 549T176 563Q176 580 165 585T118 591H80L96 667H751L695 402H619Q625 433 627 451T629 486Q629 517 623 537T600 570T556 586T484 591H324L281 386H318Q357 386 379 393T414 417Q418 423 421 427T427 441T436 465T450 507H525L455 174H379Q383 205 384 220T386 251Q386 286 370 298T303 310H265L215 76H389Q434 76 464 84T516 114T556 177T594 283H669L609 0H-46L-30 76ZM395 858Q417 858 432 842T448 803Q448 787 441 773T422 747T395 729T362 722Q339 722 324 737T309 777Q309 793 316 807T335 833T362 851T395 858ZM582 858Q604 858 619 842T635 803Q635 787 628 773T609 747T582 729T549 722Q526 722 511 737T496 777Q496 793 503 807T522 833T549 851T582 858Z"/>
<glyph unicode="Ì" horiz-adv-x="412" d="M-28 76H15Q37 76 50 78T72 86T84 104T94 137L177 530Q179 542 180 550T182 564Q182 581 171 586T124 591H82L98 667H457L441 591H398Q376 591 363 589T341 581T328 563T319 530L236 137Q231 112 231 103Q231 86 242 81T289 76H331L315 0H-44L-28 76ZM199 772Q184 778 175 789T166 813Q166 823 171 833T184 850T202 863T223 868Q235 868 244 863T268 842L380 721H326L199 772Z"/>
<glyph unicode="Í" horiz-adv-x="412" d="M-28 76H15Q37 76 50 78T72 86T84 104T94 137L177 530Q179 542 180 550T182 564Q182 581 171 586T124 591H82L98 667H457L441 591H398Q376 591 363 589T341 581T328 563T319 530L236 137Q231 112 231 103Q231 86 242 81T289 76H331L315 0H-44L-28 76ZM199 721L362 842Q382 857 394 862T420 868Q435 868 445 858T456 831Q456 813 442 797T401 772L253 721H199Z"/>
<glyph unicode="Î" horiz-adv-x="412" d="M-28 76H15Q37 76 50 78T72 86T84 104T94 137L177 530Q179 542 180 550T182 564Q182 581 171 586T124 591H82L98 667H457L441 591H398Q376 591 363 589T341 581T328 563T319 530L236 137Q231 112 231 103Q231 86 242 81T289 76H331L315 0H-44L-28 76ZM260 858H376L443 721H396L300 776L181 721H135L260 858Z"/>
<glyph unicode="Ï" horiz-adv-x="412" d="M-28 76H15Q37 76 50 78T72 86T84 104T94 137L177 530Q179 542 180 550T182 564Q182 581 171 586T124 591H82L98 667H457L441 591H398Q376 591 363 589T341 581T328 563T319 530L236 137Q231 112 231 103Q231 86 242 81T289 76H331L315 0H-44L-28 76ZM230 858Q252 858 267 842T283 803Q283 787 276 773T257 747T230 729T197 722Q174 722 159 737T144 777Q144 793 151 807T170 833T197 851T230 858ZM410 858Q432 858 447 842T463 803Q463 787 456 773T437 747T410 729T377 722Q354 722 339 737T324 777Q324 793 331 807T350 833T377 851T410 858Z"/>
<glyph unicode="Ð" horiz-adv-x="809" d="M-28 76H11Q33 76 46 78T68 86T80 104T90 137L126 308H-5L10 377H140L173 530Q178 555 178 564Q178 581 167 586T120 591H82L98 667H476Q618 667 689 613Q727 584 748 537T770 433Q770 388 762 343T737 257T699 179T649 115Q590 56 514 28T334 0H-44L-28 76ZM303 76Q353 76 389 81T454 98T503 131T544 184Q560 209 572 238T594 300T608 364T613 429Q613 479 599 514T557 567Q535 580 503 585T413 591H326L281 377H448L434 308H266L217 76H303Z"/>
<glyph unicode="Ñ" horiz-adv-x="814" d="M487 0L271 543L185 137Q183 124 182 116T180 103Q180 86 191 81T238 76H283L267 0H-61L-45 76H2Q24 76 37 78T59 86T71 104T80 137L164 530Q166 543 167 551T169 564Q169 581 158 586T111 591H69L85 667H369L561 183L635 530Q640 555 640 564Q640 581 629 586T582 591H536L552 667H867L851 591H819Q796 591 783 589T762 581T749 563T740 530L627 0H487ZM339 720Q368 786 397 813T471 841Q488 841 506 836L559 821Q569 818 580 818Q597 818 607 826T632 858H670Q654 822 642 804T613 769Q578 737 539 737Q531 737 524 738T508 741L457 756Q437 761 428 761Q411 761 399 751T376 720H339Z"/>
<glyph unicode="Ò" horiz-adv-x="804" d="M479 686Q548 686 603 668T697 615T757 531T778 421Q778 333 744 251T646 107Q515 -19 325 -19Q256 -19 201 -1T107 52T47 136T26 246Q26 334 61 417T158 560Q289 686 479 686ZM460 607Q393 607 336 572T241 472Q227 449 216 420T197 358T185 292T180 229Q180 151 224 106T344 60Q411 60 468 95T563 196Q576 218 587 247T606 309T619 375T624 438Q624 516 580 561T460 607ZM395 772Q379 779 370 789T361 813Q361 823 366 833T379 850T397 863T418 868Q431 868 440 863T464 842L576 721H522L395 772Z"/>
<glyph unicode="Ó" horiz-adv-x="804" d="M479 686Q548 686 603 668T697 615T757 531T778 421Q778 333 744 251T646 107Q515 -19 325 -19Q256 -19 201 -1T107 52T47 136T26 246Q26 334 61 417T158 560Q289 686 479 686ZM460 607Q393 607 336 572T241 472Q227 449 216 420T197 358T185 292T180 229Q180 151 224 106T344 60Q411 60 468 95T563 196Q576 218 587 247T606 309T619 375T624 438Q624 516 580 561T460 607ZM394 721L558 842Q578 857 590 862T616 868Q631 868 641 858T652 831Q652 813 638 797T597 772L448 721H394Z"/>
<glyph unicode="Ô" horiz-adv-x="804" d="M479 686Q548 686 603 668T697 615T757 531T778 421Q778 333 744 251T646 107Q515 -19 325 -19Q256 -19 201 -1T107 52T47 136T26 246Q26 334 61 417T158 560Q289 686 479 686ZM460 607Q393 607 336 572T241 472Q227 449 216 420T197 358T185 292T180 229Q180 151 224 106T344 60Q411 60 468 95T563 196Q576 218 587 247T606 309T619 375T624 438Q624 516 580 561T460 607ZM456 858H571L638 721H592L496 776L377 721H330L456 858Z"/>
<glyph unicode="Õ" horiz-adv-x="804" d="M479 686Q548 686 603 668T697 615T757 531T778 421Q778 333 744 251T646 107Q515 -19 325 -19Q256 -19 201 -1T107 52T47 136T26 246Q26 334 61 417T158 560Q289 686 479 686ZM460 607Q393 607 336 572T241 472Q227 449 216 420T197 358T185 292T180 229Q180 151 224 106T344 60Q411 60 468 95T563 196Q576 218 587 247T606 309T619 375T624 438Q624 516 580 561T460 607ZM334 720Q363 786 392 813T466 841Q483 841 501 836L554 821Q564 818 575 818Q592 818 603 826T627 858H664Q649 822 637 804T608 769Q573 737 534 737Q526 737 519 738T503 741L452 756Q432 761 423 761Q406 761 394 751T371 720H334Z"/>
<glyph unicode="Ö" horiz-adv-x="804" d="M478 686Q547 686 602 668T696 615T756 531T777 421Q777 333 743 251T645 107Q514 -19 324 -19Q255 -19 200 -1T106 52T46 136T25 246Q25 334 60 417T157 560Q288 686 478 686ZM459 607Q392 607 335 572T240 472Q226 449 215 420T196 358T184 292T179 229Q179 151 223 106T343 60Q410 60 467 95T562 196Q575 218 586 247T605 309T618 375T623 438Q623 516 579 561T459 607ZM418 858Q440 858 455 842T471 803Q471 787 464 773T445 747T418 729T385 722Q362 722 347 737T332 777Q332 793 339 807T358 833T385 851T418 858ZM605 858Q626 858 641 842T657 803Q657 787 650 773T631 747T604 729T572 722Q549 722 534 737T519 777Q519 793 526 807T545 833T572 851T605 858Z"/>
<glyph unicode="×" horiz-adv-x="567" d="M215 313L102 456L180 521L293 377L466 521L517 456L343 313L456 170L378 105L265 249L92 105L41 170L215 313Z"/>
<glyph unicode="Ø" horiz-adv-x="804" d="M-10 16L75 91Q49 141 39 179T28 264Q28 345 61 422T158 560Q222 623 302 654T475 686Q570 686 631 654Q641 649 653 641T683 622L771 700L809 653L726 580Q741 555 751 535T766 497T774 459T777 417Q777 330 743 249T645 107Q514 -19 326 -19Q226 -19 164 16Q148 25 117 47L27 -32L-10 16ZM208 127Q237 90 267 75T344 60Q411 60 468 95T563 195Q575 216 586 244T605 303T618 364T623 421Q623 442 617 486L208 127ZM592 543Q574 562 560 574T530 594T497 604T458 607Q399 607 349 579T261 502T203 385T182 240Q182 230 182 217T184 187L592 543Z"/>
<glyph unicode="Ù" horiz-adv-x="760" d="M91 667H438L421 591H379Q356 591 343 589T322 581T309 563T300 530L232 211Q225 180 225 152Q225 120 256 99T337 78Q369 78 400 87T454 114Q475 129 487 151T507 211L575 530Q577 542 578 550T580 564Q580 581 569 586T522 591H483L499 667H808L792 591H762Q739 591 726 589T705 581T692 563T683 530L615 211Q592 98 512 39T303 -20Q201 -20 143 22T84 137Q84 171 92 211L160 530Q163 544 164 551T165 564Q165 581 154 586T107 591H75L91 667ZM373 772Q357 779 348 789T339 813Q339 823 344 833T357 850T375 863T396 868Q409 868 418 863T442 842L554 721H500L373 772Z"/>
<glyph unicode="Ú" horiz-adv-x="760" d="M91 667H438L421 591H379Q356 591 343 589T322 581T309 563T300 530L232 211Q225 180 225 152Q225 120 256 99T337 78Q369 78 400 87T454 114Q475 129 487 151T507 211L575 530Q577 542 578 550T580 564Q580 581 569 586T522 591H483L499 667H808L792 591H762Q739 591 726 589T705 581T692 563T683 530L615 211Q592 98 512 39T303 -20Q201 -20 143 22T84 137Q84 171 92 211L160 530Q163 544 164 551T165 564Q165 581 154 586T107 591H75L91 667ZM373 721L536 842Q556 857 568 862T594 868Q609 868 619 858T630 831Q630 813 616 797T575 772L427 721H373Z"/>
<glyph unicode="Û" horiz-adv-x="760" d="M91 667H438L421 591H379Q356 591 343 589T322 581T309 563T300 530L232 211Q225 180 225 152Q225 120 256 99T337 78Q369 78 400 87T454 114Q475 129 487 151T507 211L575 530Q577 542 578 550T580 564Q580 581 569 586T522 591H483L499 667H808L792 591H762Q739 591 726 589T705 581T692 563T683 530L615 211Q592 98 512 39T303 -20Q201 -20 143 22T84 137Q84 171 92 211L160 530Q163 544 164 551T165 564Q165 581 154 586T107 591H75L91 667ZM434 858H550L617 721H570L474 776L355 721H308L434 858Z"/>
<glyph unicode="Ü" horiz-adv-x="760" d="M91 667H438L421 591H379Q356 591 343 589T322 581T309 563T300 530L232 211Q225 180 225 152Q225 120 256 99T337 78Q369 78 400 87T454 114Q475 129 487 151T507 211L575 530Q577 542 578 550T580 564Q580 581 569 586T522 591H483L499 667H808L792 591H762Q739 591 726 589T705 581T692 563T683 530L615 211Q592 98 512 39T303 -20Q201 -20 143 22T84 137Q84 171 92 211L160 530Q163 544 164 551T165 564Q165 581 154 586T107 591H75L91 667ZM400 858Q422 858 437 842T453 803Q453 787 446 773T427 747T400 729T367 722Q344 722 329 737T314 777Q314 793 321 807T340 833T367 851T400 858ZM586 858Q608 858 623 842T639 803Q639 787 632 773T613 747T586 729T553 722Q530 722 515 737T500 777Q500 793 507 807T526 833T553 851T586 858Z"/>
<glyph unicode="Ý" horiz-adv-x="730" d="M488 0H100L116 76H174Q196 76 209 78T231 86T244 104T253 137L283 279L170 523Q153 561 135 576T88 591H55L71 667H424L408 591H359Q333 591 322 585T311 564Q311 554 318 538L396 381L550 543Q570 565 570 576Q570 591 538 591H479L495 667H804L788 591H765Q739 591 721 582T678 547L423 279L393 137Q388 112 388 103Q388 86 399 81T446 76H504L488 0ZM389 721L552 842Q572 857 584 862T610 868Q625 868 635 858T646 831Q646 813 632 797T591 772L443 721H389Z"/>
<glyph unicode="Þ" horiz-adv-x="680" d="M-30 76H9Q31 76 44 78T66 86T78 104T88 137L171 530Q176 555 176 564Q176 581 165 586T118 591H80L96 667H453L437 591H390Q367 591 354 589T333 581T320 563T311 530L310 523H415Q537 523 594 488T652 379Q652 330 630 285T570 210Q551 195 529 185T479 169T412 160T324 157H232L228 137Q226 128 225 118T223 103Q223 86 234 81T280 76H327L311 0H-46L-30 76ZM314 233Q349 233 374 235T419 244T451 259T476 283Q490 301 497 323T505 368Q505 421 457 438Q449 441 441 442T420 445T392 446T352 447H294L248 233H314Z"/>
<glyph unicode="ß" horiz-adv-x="626" d="M-37 67H-11Q7 67 18 69T37 78T50 96T59 126L132 470Q145 530 167 568T228 635Q263 661 303 672T395 684Q483 684 534 652T585 562Q585 521 560 488Q542 463 515 447T433 412Q470 401 489 390T523 360Q552 322 552 272Q552 218 532 162T478 62Q414 -17 325 -17Q223 -17 223 70Q223 80 223 89T226 109T230 134T238 170H311Q305 135 303 120T301 92Q301 60 330 60Q362 60 379 100Q387 121 394 146T407 197T416 246T419 288Q419 308 411 324T388 350Q372 361 351 364T287 368L302 439Q330 440 349 442T383 449T407 460T426 478Q453 511 453 552Q453 582 435 598T382 614Q356 614 332 604T292 576Q269 548 254 484L152 0H-51L-37 67Z"/>
<glyph unicode="à" horiz-adv-x="566" d="M530 175Q523 145 518 125T507 90T497 65T486 44Q444 -17 366 -17Q321 -17 301 -1T273 57Q250 36 230 22T190 -2T147 -14T97 -18Q42 -18 11 8T-21 82Q-21 121 -1 156T58 215Q71 223 85 229T120 243T168 257T233 273Q291 287 315 309T339 374Q339 432 249 432Q219 432 198 426T151 403Q180 401 193 392T206 362Q206 330 182 308T122 285Q92 285 75 301T57 343Q57 374 74 400T120 445T190 475T277 486Q363 486 409 461T455 388Q455 363 444 308L399 100Q398 95 398 90T397 82Q397 65 416 65Q425 65 431 70T444 88T456 122T469 175H530ZM276 229Q260 224 242 217T203 202Q162 187 140 162T117 107Q117 65 168 65Q217 65 251 97T299 188L311 245L276 229ZM350 540L208 619Q169 641 169 666Q169 692 188 711T234 730Q253 730 266 720T300 683L405 540H350Z"/>
<glyph unicode="á" horiz-adv-x="566" d="M530 175Q523 145 518 125T507 90T497 65T486 44Q444 -17 366 -17Q321 -17 301 -1T273 57Q250 36 230 22T190 -2T147 -14T97 -18Q42 -18 11 8T-21 82Q-21 121 -1 156T58 215Q71 223 85 229T120 243T168 257T233 273Q291 287 315 309T339 374Q339 432 249 432Q219 432 198 426T151 403Q180 401 193 392T206 362Q206 330 182 308T122 285Q92 285 75 301T57 343Q57 374 74 400T120 445T190 475T277 486Q363 486 409 461T455 388Q455 363 444 308L399 100Q398 95 398 90T397 82Q397 65 416 65Q425 65 431 70T444 88T456 122T469 175H530ZM276 229Q260 224 242 217T203 202Q162 187 140 162T117 107Q117 65 168 65Q217 65 251 97T299 188L311 245L276 229ZM391 683Q422 710 440 720T476 730Q496 730 507 719T519 688Q519 667 504 651T455 619L280 540H225L391 683Z"/>
<glyph unicode="â" horiz-adv-x="566" d="M530 175Q523 145 518 125T507 90T497 65T486 44Q444 -17 366 -17Q321 -17 301 -1T273 57Q250 36 230 22T190 -2T147 -14T97 -18Q42 -18 11 8T-21 82Q-21 121 -1 156T58 215Q71 223 85 229T120 243T168 257T233 273Q291 287 315 309T339 374Q339 432 249 432Q219 432 198 426T151 403Q180 401 193 392T206 362Q206 330 182 308T122 285Q92 285 75 301T57 343Q57 374 74 400T120 445T190 475T277 486Q363 486 409 461T455 388Q455 363 444 308L399 100Q398 95 398 90T397 82Q397 65 416 65Q425 65 431 70T444 88T456 122T469 175H530ZM276 229Q260 224 242 217T203 202Q162 187 140 162T117 107Q117 65 168 65Q217 65 251 97T299 188L311 245L276 229ZM304 720H393L466 540H417L328 623L203 540H154L304 720Z"/>
<glyph unicode="ã" horiz-adv-x="566" d="M530 175Q523 145 518 125T507 90T497 65T486 44Q444 -17 366 -17Q321 -17 301 -1T273 57Q250 36 230 22T190 -2T147 -14T97 -18Q42 -18 11 8T-21 82Q-21 121 -1 156T58 215Q71 223 85 229T120 243T168 257T233 273Q291 287 315 309T339 374Q339 432 249 432Q219 432 198 426T151 403Q180 401 193 392T206 362Q206 330 182 308T122 285Q92 285 75 301T57 343Q57 374 74 400T120 445T190 475T277 486Q363 486 409 461T455 388Q455 363 444 308L399 100Q398 95 398 90T397 82Q397 65 416 65Q425 65 431 70T444 88T456 122T469 175H530ZM276 229Q260 224 242 217T203 202Q162 187 140 162T117 107Q117 65 168 65Q217 65 251 97T299 188L311 245L276 229ZM153 555Q184 625 216 654T293 684Q308 684 330 679L385 663Q397 660 407 660Q425 660 436 669T462 704H502Q470 633 439 605T363 576Q345 576 332 580L278 596Q260 601 249 601Q231 601 218 591T194 555H153Z"/>
<glyph unicode="ä" horiz-adv-x="566" d="M530 175Q523 145 518 125T507 90T497 65T486 44Q444 -17 366 -17Q321 -17 301 -1T273 57Q250 36 230 22T190 -2T147 -14T97 -18Q42 -18 11 8T-21 82Q-21 121 -1 156T58 215Q71 223 85 229T120 243T168 257T233 273Q291 287 315 309T339 374Q339 432 249 432Q219 432 198 426T151 403Q180 401 193 392T206 362Q206 330 182 308T122 285Q92 285 75 301T57 343Q57 374 74 400T120 445T190 475T277 486Q363 486 409 461T455 388Q455 363 444 308L399 100Q398 95 398 90T397 82Q397 65 416 65Q425 65 431 70T444 88T456 122T469 175H530ZM276 229Q260 224 242 217T203 202Q162 187 140 162T117 107Q117 65 168 65Q217 65 251 97T299 188L311 245L276 229ZM269 699Q291 699 306 683T321 643Q321 626 314 611T295 585T268 567T235 560Q210 560 195 575T179 616Q179 632 186 647T206 673T235 692T269 699ZM457 699Q480 699 495 683T510 643Q510 626 503 611T484 585T457 567T424 560Q399 560 384 575T368 616Q368 632 375 647T395 673T424 692T457 699Z"/>
<glyph unicode="å" horiz-adv-x="566" d="M530 175Q523 145 518 125T507 90T497 65T486 44Q444 -17 366 -17Q321 -17 301 -1T273 57Q250 36 230 22T190 -2T147 -14T97 -18Q42 -18 11 8T-21 82Q-21 121 -1 156T58 215Q71 223 85 229T120 243T168 257T233 273Q291 287 315 309T339 374Q339 432 249 432Q219 432 198 426T151 403Q180 401 193 392T206 362Q206 330 182 308T122 285Q92 285 75 301T57 343Q57 374 74 400T120 445T190 475T277 486Q363 486 409 461T455 388Q455 363 444 308L399 100Q398 94 398 90T397 81Q397 65 416 65Q425 65 431 70T444 88T456 122T469 175H530ZM276 229Q260 224 242 217T203 202Q162 187 140 162T117 107Q117 65 168 65Q217 65 251 97T299 188L311 245L276 229ZM365 778Q408 778 436 749T465 675Q465 645 452 617T416 568T364 533T303 520Q258 520 230 549T202 624Q202 655 215 683T251 732T303 765T365 778ZM349 714Q334 715 319 709T293 691T274 666T267 636Q267 613 281 599T318 584Q334 584 349 590T375 607T393 632T400 662Q400 685 386 698T349 714Z"/>
<glyph unicode="æ" horiz-adv-x="844" d="M762 167Q752 143 744 125T726 93T705 67T679 42Q641 10 602 -3T510 -17Q477 -17 452 -12T406 5T368 38T332 88Q303 59 277 39T225 5T170 -13T110 -19Q48 -19 13 8T-22 82Q-22 125 2 162T70 222Q96 236 137 248T252 275Q309 287 334 309T359 369Q359 433 262 433Q248 433 236 432T210 427T182 418T148 403Q178 401 191 392T204 362Q204 346 198 332T180 308T153 291T120 285Q90 285 73 301T55 343Q55 374 72 400T119 445T190 475T280 486Q308 486 331 483T374 474T413 456T452 428Q479 445 500 456T540 474T577 483T619 486Q695 486 741 444T788 331Q788 308 785 282T777 225H443Q435 182 435 154Q435 110 461 86T534 62Q560 62 581 67T619 85T650 118T679 167H762ZM332 246Q320 241 307 236T279 224L217 203Q161 183 138 162T115 108Q115 61 172 61Q230 61 271 97Q291 114 301 135T319 188L332 246ZM660 295Q662 309 663 322T664 345Q664 420 593 420Q545 420 516 392T462 295H660Z"/>
<glyph unicode="ç" horiz-adv-x="511" d="M187 -56Q211 -53 229 -53Q258 -53 275 -70T293 -116Q293 -140 283 -160T256 -195T216 -218T164 -227Q129 -227 95 -217T13 -182L47 -132Q101 -171 152 -171Q176 -171 190 -159T204 -124Q204 -111 195 -104T169 -96Q154 -96 136 -99L154 -14Q116 -9 94 1T51 33Q1 85 1 165Q1 232 26 291T94 393T195 461T322 486Q397 486 443 453T489 366Q489 343 482 324T461 289T429 266T391 257Q363 257 347 271T331 308Q331 339 349 358T402 385Q390 396 380 403T361 414T341 419T317 421Q230 421 181 335Q171 318 163 298T149 255T140 211T137 169Q137 72 235 72Q286 72 317 100T374 195H451Q395 -16 195 -17L187 -56Z"/>
<glyph unicode="è" horiz-adv-x="531" d="M462 167Q451 139 440 119T417 82T391 52T358 27Q289 -18 198 -18Q106 -18 54 31T2 169Q2 235 26 293T92 393T190 461T310 486Q403 486 447 439Q467 418 477 390T488 330Q488 308 485 282T477 225H142Q140 206 139 189T137 158Q137 112 162 87T233 62Q260 62 281 67T319 85T350 117T379 167H462ZM360 295Q362 309 363 322T364 345Q364 420 296 420Q251 420 220 391T161 295H360ZM357 540L215 619Q176 641 176 666Q176 692 195 711T241 730Q260 730 274 720T307 683L412 540H357Z"/>
<glyph unicode="é" horiz-adv-x="531" d="M462 167Q451 139 440 119T417 82T391 52T358 27Q289 -18 198 -18Q106 -18 54 31T2 169Q2 235 26 293T92 393T190 461T310 486Q403 486 447 439Q467 418 477 390T488 330Q488 308 485 282T477 225H142Q140 206 139 189T137 158Q137 112 162 87T233 62Q260 62 281 67T319 85T350 117T379 167H462ZM360 295Q362 309 363 322T364 345Q364 420 296 420Q251 420 220 391T161 295H360ZM398 683Q429 710 447 720T483 730Q503 730 514 719T526 688Q526 666 511 650T463 619L287 540H232L398 683Z"/>
<glyph unicode="ê" horiz-adv-x="531" d="M462 167Q451 139 440 119T417 82T391 52T358 27Q289 -18 198 -18Q106 -18 54 31T2 169Q2 235 26 293T92 393T190 461T310 486Q403 486 447 439Q467 418 477 390T488 330Q488 308 485 282T477 225H142Q140 206 139 189T137 158Q137 112 162 87T233 62Q260 62 281 67T319 85T350 117T379 167H462ZM360 295Q362 309 363 322T364 345Q364 420 296 420Q251 420 220 391T161 295H360ZM321 720H410L483 540H434L345 623L220 540H171L321 720Z"/>
<glyph unicode="ë" horiz-adv-x="531" d="M462 167Q451 139 440 119T417 82T391 52T358 27Q289 -18 198 -18Q106 -18 54 31T2 169Q2 235 26 293T92 393T190 461T310 486Q403 486 447 439Q467 418 477 390T488 330Q488 308 485 282T477 225H142Q140 206 139 189T137 158Q137 112 162 87T233 62Q260 62 281 67T319 85T350 117T379 167H462ZM360 295Q362 309 363 322T364 345Q364 420 296 420Q251 420 220 391T161 295H360ZM253 699Q275 699 290 683T305 643Q305 626 298 611T280 585T253 567T220 560Q195 560 180 575T164 616Q164 632 171 647T191 673T220 692T253 699ZM442 699Q464 699 479 683T494 643Q494 626 487 611T469 585T442 567T409 560Q384 560 369 575T353 616Q353 632 360 647T380 673T409 692T442 699Z"/>
<glyph unicode="ì" horiz-adv-x="348" d="M-32 67H4Q22 67 33 69T53 78T65 96T74 126L120 343Q122 351 123 360T124 375Q124 389 113 395T75 402H40L54 469H268L195 126Q193 116 192 108T191 94Q191 80 202 74T240 67H270L255 0H-46L-32 67ZM228 538L139 614Q105 644 105 668Q105 690 123 706T164 723Q183 723 195 713T216 678L267 538H228Z"/>
<glyph unicode="í" horiz-adv-x="348" d="M270 678Q290 702 306 712T341 723Q359 723 370 714T381 688Q381 669 367 652T321 614L199 538H160L270 678ZM-32 67H4Q22 67 33 69T53 78T65 96T74 126L120 343Q122 351 123 360T124 375Q124 389 113 395T75 402H40L54 469H268L195 126Q193 116 192 108T191 94Q191 80 202 74T240 67H270L255 0H-46L-32 67Z"/>
<glyph unicode="î" horiz-adv-x="348" d="M198 715H288L344 538H298L225 630L114 538H67L198 715ZM-32 67H4Q22 67 33 69T53 78T65 96T74 126L120 343Q122 351 123 360T124 375Q124 389 113 395T75 402H40L54 469H268L195 126Q193 116 192 108T191 94Q191 80 202 74T240 67H270L255 0H-46L-32 67Z"/>
<glyph unicode="ï" horiz-adv-x="348" d="M-32 67H4Q22 67 33 69T53 78T65 96T74 126L120 343Q122 351 123 360T124 375Q124 389 113 395T75 402H40L54 469H268L195 126Q193 116 192 108T191 94Q191 80 202 74T240 67H270L255 0H-46L-32 67ZM155 699Q178 699 193 683T208 643Q208 626 201 611T182 585T155 567T122 560Q97 560 82 575T66 616Q66 632 73 647T93 673T122 692T155 699ZM334 699Q357 699 372 683T387 643Q387 626 380 611T361 585T334 567T301 560Q276 560 261 575T245 616Q245 632 252 647T272 673T301 692T334 699Z"/>
<glyph unicode="ð" horiz-adv-x="588" d="M371 667L397 636L495 671L509 618L427 589Q460 538 482 498T519 423T540 358T546 298Q546 231 521 174T453 74T350 7T221 -17Q171 -17 131 -4T63 33T19 91T3 169Q3 235 27 293T94 393T194 460T318 485Q336 485 348 484T377 477Q374 486 372 491T368 502T361 517T350 541L344 555L259 522L246 575L325 604Q319 617 315 625T307 640T300 653T292 667H371ZM314 416Q226 416 181 335Q171 317 163 295T149 249T140 201T137 153Q137 105 162 79T236 53Q324 53 369 134Q379 151 387 173T401 219T410 267T413 315Q413 364 388 390T314 416Z"/>
<glyph unicode="ñ" horiz-adv-x="651" d="M-32 67H0Q18 67 29 69T49 78T61 96T70 126L116 343Q119 354 120 362T121 375Q121 402 72 402H40L54 469H263L245 387Q274 414 298 433T345 463T389 479T435 484Q489 484 521 459T554 392Q554 375 552 355T544 311L505 126Q500 101 500 93Q500 67 549 67H577L563 0H281L296 67H315Q333 67 344 69T364 78T376 96T385 126L425 311Q431 341 431 360Q431 380 414 393T372 407Q314 407 268 358Q247 336 236 313T216 247L190 126Q187 114 186 107T185 94Q185 67 234 67H254L240 0H-46L-32 67ZM214 555Q245 625 276 654T353 684Q369 684 391 679L446 663Q458 660 468 660Q485 660 496 669T523 704H563Q531 633 500 605T424 576Q405 576 392 580L339 596Q319 601 310 601Q276 601 254 555H214Z"/>
<glyph unicode="ò" horiz-adv-x="586" d="M326 486Q427 486 485 436T543 298Q543 231 518 174T450 74T346 7T217 -17Q167 -17 127 -4T59 33T15 93T0 171Q0 238 25 295T94 395T197 462T326 486ZM311 416Q223 416 178 335Q168 317 160 295T146 249T137 201T134 153Q134 105 159 79T233 53Q321 53 366 134Q376 151 384 173T398 219T407 267T410 315Q410 364 385 390T311 416ZM391 540L249 619Q210 641 210 666Q210 692 229 711T275 730Q293 730 307 720T341 683L446 540H391Z"/>
<glyph unicode="ó" horiz-adv-x="586" d="M326 486Q427 486 485 436T543 298Q543 231 518 174T450 74T346 7T217 -17Q167 -17 127 -4T59 33T15 93T0 171Q0 238 25 295T94 395T197 462T326 486ZM311 416Q223 416 178 335Q168 317 160 295T146 249T137 201T134 153Q134 105 159 79T233 53Q321 53 366 134Q376 151 384 173T398 219T407 267T410 315Q410 364 385 390T311 416ZM421 683Q452 710 470 720T507 730Q527 730 538 719T550 688Q550 666 535 650T486 619L311 540H256L421 683Z"/>
<glyph unicode="ô" horiz-adv-x="586" d="M326 486Q427 486 485 436T543 298Q543 231 518 174T450 74T346 7T217 -17Q167 -17 127 -4T59 33T15 93T0 171Q0 238 25 295T94 395T197 462T326 486ZM311 416Q223 416 178 335Q168 317 160 295T146 249T137 201T134 153Q134 105 159 79T233 53Q321 53 366 134Q376 151 384 173T398 219T407 267T410 315Q410 364 385 390T311 416ZM337 720H427L499 540H451L361 623L237 540H188L337 720Z"/>
<glyph unicode="õ" horiz-adv-x="586" d="M326 486Q427 486 485 436T543 298Q543 231 518 174T450 74T346 7T217 -17Q167 -17 127 -4T59 33T15 93T0 171Q0 238 25 295T94 395T197 462T326 486ZM311 416Q223 416 178 335Q168 317 160 295T146 249T137 201T134 153Q134 105 159 79T233 53Q321 53 366 134Q376 151 384 173T398 219T407 267T410 315Q410 364 385 390T311 416ZM181 555Q212 626 244 655T321 684Q330 684 339 683T358 679L413 663Q425 660 435 660Q453 660 464 669T490 704H530Q498 633 467 605T391 576Q373 576 360 580L306 596Q288 601 277 601Q259 601 246 591T222 555H181Z"/>
<glyph unicode="ö" horiz-adv-x="586" d="M328 486Q429 486 487 436T545 298Q545 231 520 174T452 74T348 7T219 -17Q169 -17 129 -4T61 33T17 93T2 171Q2 238 27 295T96 395T199 462T328 486ZM313 416Q225 416 180 335Q170 317 162 295T148 249T139 201T136 153Q136 105 161 79T235 53Q323 53 368 134Q378 151 386 173T400 219T409 267T412 315Q412 364 387 390T313 416ZM287 699Q310 699 325 683T340 643Q340 626 333 611T314 585T287 567T254 560Q229 560 214 575T198 616Q198 632 205 647T225 673T254 692T287 699ZM476 699Q499 699 514 683T529 643Q529 626 522 611T503 585T476 567T443 560Q418 560 403 575T387 616Q387 632 394 647T414 673T443 692T476 699Z"/>
<glyph unicode="÷" horiz-adv-x="549" d="M274 126Q299 126 317 108T335 64Q335 38 317 20T273 2Q247 2 229 20T211 64Q211 90 229 108T274 126ZM274 525Q299 525 317 507T335 463Q335 437 317 419T273 401Q247 401 229 419T211 463Q211 489 229 507T274 525ZM536 294V239H10V294H536Z"/>
<glyph unicode="ø" horiz-adv-x="586" d="M30 69Q13 105 7 127T1 172Q1 238 26 295T94 394T196 461T322 486Q346 486 365 484T401 477T437 464T479 441L555 504L589 463L514 401Q531 366 538 345T545 300Q545 234 520 176T452 75T349 8T223 -17Q197 -17 178 -15T141 -8T105 6T65 29L-12 -35L-44 8L30 69ZM146 96Q158 83 168 75T189 62T210 55T236 53Q283 53 317 77T374 150Q393 191 401 229T411 315L146 96ZM398 374Q373 399 355 407T309 416Q232 416 186 347T134 156L398 374Z"/>
<glyph unicode="ù" horiz-adv-x="645" d="M53 469H253L187 158Q183 143 182 131T180 109Q180 89 197 76T240 62Q267 62 293 74T343 111Q364 131 375 155T395 221L421 343Q424 354 425 362T426 375Q426 402 377 402H331L345 469H568L495 126Q492 114 491 107T490 94Q490 67 539 67H565L551 0H348L366 82Q337 55 313 36T266 6T222 -10T176 -15Q122 -15 90 10T57 76Q57 93 59 114T67 158L106 343Q109 354 110 362T111 375Q111 402 62 402H39L53 469ZM389 540L248 619Q209 641 209 666Q209 692 228 711T274 730Q292 730 306 720T340 683L444 540H389Z"/>
<glyph unicode="ú" horiz-adv-x="645" d="M53 469H253L187 158Q183 143 182 131T180 109Q180 89 197 76T240 62Q267 62 293 74T343 111Q364 131 375 155T395 221L421 343Q424 354 425 362T426 375Q426 402 377 402H331L345 469H568L495 126Q492 114 491 107T490 94Q490 67 539 67H565L551 0H348L366 82Q337 55 313 36T266 6T222 -10T176 -15Q122 -15 90 10T57 76Q57 93 59 114T67 158L106 343Q109 354 110 362T111 375Q111 402 62 402H39L53 469ZM449 683Q480 710 498 720T535 730Q555 730 566 719T578 688Q578 666 563 650T514 619L339 540H284L449 683Z"/>
<glyph unicode="û" horiz-adv-x="645" d="M53 469H253L187 158Q183 143 182 131T180 109Q180 89 197 76T240 62Q267 62 293 74T343 111Q364 131 375 155T395 221L421 343Q424 354 425 362T426 375Q426 402 377 402H331L345 469H568L495 126Q492 114 491 107T490 94Q490 67 539 67H565L551 0H348L366 82Q337 55 313 36T266 6T222 -10T176 -15Q122 -15 90 10T57 76Q57 93 59 114T67 158L106 343Q109 354 110 362T111 375Q111 402 62 402H39L53 469ZM360 720H449L522 540H473L384 623L259 540H210L360 720Z"/>
<glyph unicode="ü" horiz-adv-x="645" d="M53 469H253L187 158Q183 143 182 131T180 109Q180 89 197 76T240 62Q267 62 293 74T343 111Q364 131 375 155T395 221L421 343Q424 354 425 362T426 375Q426 402 377 402H331L345 469H568L495 126Q492 114 491 107T490 94Q490 67 539 67H565L551 0H348L366 82Q337 55 313 36T266 6T222 -10T176 -15Q122 -15 90 10T57 76Q57 93 59 114T67 158L106 343Q109 354 110 362T111 375Q111 402 62 402H39L53 469ZM309 699Q332 699 347 683T362 643Q362 626 355 611T336 585T309 567T276 560Q251 560 236 575T220 616Q220 632 227 647T247 673T276 692T309 699ZM498 699Q521 699 536 683T551 643Q551 626 544 611T525 585T498 567T465 560Q440 560 425 575T409 616Q409 632 416 647T436 673T465 692T498 699Z"/>
<glyph unicode="ý" horiz-adv-x="581" d="M103 342Q95 374 82 388T42 402H13L27 469H314L300 402H266Q226 402 226 370Q226 360 227 356L273 140L399 347Q413 369 413 384Q413 402 374 402H347L361 469H601L587 402H564Q520 402 476 331L307 56Q257 -25 220 -77T149 -159T85 -202T18 -214Q-34 -214 -65 -187T-97 -113Q-97 -90 -89 -70T-67 -34T-34 -9T6 0Q32 0 47 -14T62 -52Q62 -80 41 -103Q29 -115 15 -120T-25 -125Q-14 -139 -5 -144T20 -149Q41 -149 58 -142T95 -118T135 -72T184 0L103 342ZM412 683Q443 710 461 720T498 730Q518 730 529 719T541 688Q541 666 526 650T477 619L302 540H247L412 683Z"/>
<glyph unicode="þ" horiz-adv-x="621" d="M86 667H288L228 387Q249 414 269 432T310 462T354 478T407 483Q483 483 525 441T567 321Q567 288 562 255T546 189T522 128T490 77Q417 -17 300 -17Q271 -17 250 -12T212 4T184 33T163 78L127 -88Q125 -97 124 -105T123 -120Q123 -147 172 -147H216L202 -214H-106L-92 -147H-62Q-27 -147 -14 -136T8 -88L141 541Q144 553 145 560T146 574Q146 600 97 600H72L86 667ZM349 403Q312 403 280 383T226 324Q218 310 211 291T199 250T191 207T188 166Q188 121 212 95T279 69Q350 69 391 144Q399 159 406 180T419 223T428 269T431 313Q431 355 409 379T349 403Z"/>
<glyph unicode="ÿ" horiz-adv-x="581" d="M103 342Q95 374 82 388T42 402H13L27 469H314L300 402H266Q226 402 226 370Q226 360 227 356L273 140L399 347Q413 369 413 384Q413 402 374 402H347L361 469H601L587 402H564Q520 402 476 331L307 56Q257 -25 220 -77T149 -159T85 -202T18 -214Q-34 -214 -65 -187T-97 -113Q-97 -90 -89 -70T-67 -34T-34 -9T6 0Q32 0 47 -14T62 -52Q62 -80 41 -103Q29 -115 15 -120T-25 -125Q-14 -139 -5 -144T20 -149Q41 -149 58 -142T95 -118T135 -72T184 0L103 342ZM278 699Q300 699 315 683T330 643Q330 626 323 611T305 585T278 567T245 560Q220 560 205 575T189 616Q189 632 196 647T216 673T245 692T278 699ZM467 699Q489 699 504 683T519 643Q519 626 512 611T494 585T467 567T434 560Q409 560 394 575T378 616Q378 632 385 647T405 673T434 692T467 699Z"/>
<glyph unicode="Œ" horiz-adv-x="1236" d="M1177 402H1101Q1107 433 1109 451T1111 486Q1111 517 1105 537T1082 570T1038 586T966 591H806L763 386H800Q839 386 861 393T896 417Q900 422 903 427T910 442T919 467T932 507H1008L937 174H861Q865 205 866 220T868 251Q868 286 852 298T785 310H747L697 76H871Q916 76 946 84T998 114T1038 177T1076 283H1151L1091 0H650Q624 0 585 -2T494 -10Q446 -15 404 -17T327 -19Q258 -19 203 0T108 53T47 137T25 246Q25 338 60 418T156 558T300 652T477 686Q510 686 552 684T640 677Q691 672 729 670T792 667H1233L1177 402ZM653 529Q658 554 658 564Q658 582 639 590Q619 598 580 604T500 610Q430 610 377 590T285 528Q261 503 242 470T209 399T188 319T180 237Q180 57 383 57Q405 57 429 59T474 64T513 71T540 81Q552 87 557 98T570 138L653 529Z"/>
<glyph unicode="œ" horiz-adv-x="914" d="M846 167Q836 143 828 125T810 93T789 67T763 42Q725 11 686 -3T599 -17Q561 -17 529 -8T473 18Q462 26 453 36T430 67Q404 44 379 28T329 2T275 -12T215 -17Q167 -17 128 -4T60 34T17 93T2 171Q2 237 27 294T95 394T196 461T321 486Q349 486 373 482T419 470T461 448T504 415Q531 435 554 448T600 470T646 482T697 486Q778 486 825 444T872 330Q872 308 869 282T861 225H527Q519 182 519 155Q519 113 545 87T614 61Q638 61 662 68T705 87Q722 98 734 115T763 167H846ZM313 416Q225 416 180 336Q160 300 148 250T136 153Q136 104 161 79T235 53Q323 53 368 133Q377 150 385 172T399 219T408 267T412 315Q412 364 387 390T313 416ZM745 295Q747 309 747 322T748 345Q748 384 731 402T676 420Q652 420 634 414T600 393T571 354T546 295H745Z"/>
<glyph unicode="Š" horiz-adv-x="641" d="M29 275H106L109 215L291 70Q362 70 403 98T444 177Q444 206 422 225T350 256L247 281Q151 304 109 341T66 437Q66 489 88 535T149 614T240 667T354 687Q382 687 404 684T446 674T487 653T534 618L580 667H639L585 414H510Q510 459 503 489T476 546Q458 573 421 589T341 606Q276 606 236 578T196 503Q196 477 215 461T278 433L405 402Q445 393 480 377T536 341Q556 323 567 296T578 236Q578 183 555 137T490 56T395 1T279 -19Q250 -19 225 -15T176 -2T128 23T75 62L40 0H-29L29 275ZM300 858L395 803L515 858H561L436 721H320L253 858H300Z"/>
<glyph unicode="š" horiz-adv-x="492" d="M-1 186H72Q73 148 80 128T104 91Q138 55 201 55Q244 55 271 75T299 126Q299 144 283 155T228 177L158 194Q33 227 33 310Q33 347 49 379T95 435T164 472T250 486Q291 486 320 476T382 439L411 475H468L431 302H364Q359 335 352 353T329 385Q314 399 290 407T241 415Q203 415 179 397T154 350Q154 322 201 310L286 289Q359 271 391 243T424 167Q424 133 409 100T367 41Q306 -17 198 -17Q175 -17 158 -15T124 -7T90 9T51 36L24 -6H-42L-1 186ZM197 719L286 636L411 719H460L311 540H221L148 719H197Z"/>
<glyph unicode="Ÿ" horiz-adv-x="730" d="M488 0H100L116 76H174Q196 76 209 78T231 86T244 104T253 137L283 279L170 523Q153 561 135 576T88 591H55L71 667H424L408 591H359Q333 591 322 585T311 564Q311 554 318 538L396 381L550 543Q570 565 570 576Q570 591 538 591H479L495 667H804L788 591H765Q739 591 721 582T678 547L423 279L393 137Q388 112 388 103Q388 86 399 81T446 76H504L488 0ZM386 858Q408 858 423 842T439 803Q439 787 432 773T413 747T386 729T353 722Q330 722 315 737T300 777Q300 793 307 807T326 833T353 851T386 858ZM572 858Q594 858 609 842T625 803Q625 787 618 773T599 747T572 729T539 722Q516 722 501 737T486 777Q486 793 493 807T512 833T539 851T572 858Z"/>
<glyph unicode="Ž" horiz-adv-x="656" d="M-14 80L493 591H379Q340 591 313 588T265 578T230 559T201 527Q193 516 187 504T174 475T162 437T148 387H72L131 667H673L655 581L153 76H260Q323 76 363 83T431 115T478 183T520 302H596L532 0H-31L-14 80ZM321 858L417 803L537 858H583L458 721H342L275 858H321Z"/>
<glyph unicode="ž" horiz-adv-x="501" d="M-36 73L337 402H232Q189 402 166 392T126 354Q122 348 119 341T112 323T104 298T95 262H25L69 469H488L472 394L105 67H192Q222 67 243 69T279 76T305 90T325 113Q335 128 343 150T366 224H436L389 0H-51L-36 73ZM215 719L305 636L429 719H478L329 540H240L167 719H215Z"/>
<glyph unicode="ƒ" horiz-adv-x="607" d="M267 37Q193 -164 20 -164Q-29 -164 -59 -145T-90 -94Q-90 -73 -82 -54T-59 -20T-27 4T10 13Q31 13 43 4T56 -23Q56 -49 38 -69T-10 -99Q-2 -107 5 -110T26 -113Q63 -113 86 -92T129 -15L282 398H192L218 467H307L313 483Q387 684 561 684Q611 684 641 665T671 614Q671 593 663 574T640 539T608 515T570 506Q549 506 537 515T524 542Q524 568 542 589T591 619Q583 627 576 630T554 633Q517 633 495 612T452 535L427 467H529L503 398H401L267 37Z"/>
<glyph unicode="ˆ" horiz-adv-x="500" d="M287 720H377L449 540H401L311 623L187 540H138L287 720Z"/>
<glyph unicode="˜" horiz-adv-x="500" d="M138 555Q169 625 201 654T278 684Q293 684 315 679L370 663Q382 660 392 660Q410 660 421 669T447 704H487Q455 633 424 605T348 576Q330 576 317 580L263 596Q245 601 234 601Q216 601 203 591T178 555H138Z"/>
<glyph unicode="–" horiz-adv-x="556" d="M19 279H515L498 196H1L19 279Z"/>
<glyph unicode="—" horiz-adv-x="709" d="M-11 279H698L680 196H-29L-11 279Z"/>
<glyph unicode="‘" horiz-adv-x="238" d="M276 642Q179 617 158 530Q173 539 183 542T204 545Q226 545 238 533T251 499Q251 463 225 438T161 413Q127 413 107 433T86 488Q86 524 101 557T142 617T205 662T285 687L276 642Z"/>
<glyph unicode="’" horiz-adv-x="238" d="M58 457Q109 470 137 497T177 570Q160 561 151 558T130 555Q108 555 96 567T83 601Q83 637 109 662T173 687Q207 687 227 667T248 612Q248 576 233 543T192 483T129 438T49 413L58 457Z"/>
<glyph unicode="‚" horiz-adv-x="238" d="M-60 -99Q-9 -86 19 -59T59 14Q43 5 33 2T12 -1Q-10 -1 -22 11T-35 45Q-35 63 -28 78T-9 105T19 123T55 130Q89 130 109 110T130 55Q130 19 115 -14T74 -73T11 -118T-69 -143L-60 -99Z"/>
<glyph unicode="“" horiz-adv-x="477" d="M511 642Q414 617 393 530Q409 539 418 542T439 545Q462 545 474 533T487 499Q487 481 480 466T461 438T432 420T396 413Q362 413 342 433T321 488Q321 524 336 557T377 617T440 662T520 687L511 642ZM276 642Q179 617 158 530Q173 539 183 542T204 545Q226 545 238 533T251 499Q251 463 225 438T161 413Q127 413 107 433T86 488Q86 524 101 557T142 617T205 662T285 687L276 642Z"/>
<glyph unicode="”" horiz-adv-x="477" d="M294 457Q391 482 412 570Q396 561 386 558T365 555Q343 555 331 567T318 601Q318 637 344 662T409 687Q442 687 462 667T483 612Q483 576 468 543T427 483T364 438T284 413L294 457ZM58 457Q109 470 137 497T177 570Q160 561 151 558T130 555Q108 555 96 567T83 601Q83 637 109 662T173 687Q207 687 227 667T248 612Q248 576 233 543T192 483T129 438T49 413L58 457Z"/>
<glyph unicode="„" horiz-adv-x="477" d="M175 -99Q272 -74 294 14Q278 5 268 2T247 -1Q225 -1 213 11T200 45Q200 63 207 78T226 105T254 123T290 130Q324 130 344 110T365 55Q365 19 350 -14T309 -73T246 -118T166 -143L175 -99ZM-60 -99Q39 -74 59 14Q43 5 34 2T13 -1Q-10 -1 -22 11T-35 45Q-35 63 -28 78T-9 105T19 123T55 130Q89 130 109 110T130 55Q130 19 115 -14T74 -73T11 -118T-69 -143L-60 -99Z"/>
<glyph unicode="†" horiz-adv-x="591" d="M294 592Q294 687 370 687Q420 687 420 644Q420 633 416 619T402 582Q388 550 379 529T363 489T351 451T338 404Q352 406 361 407T379 410T396 414T418 421Q451 430 469 433T505 437Q553 437 553 397Q553 368 534 351T482 333Q465 333 449 336T403 349Q391 353 383 355T368 359T352 362T330 366Q318 312 309 265T293 166T278 55T262 -87Q255 -154 236 -184T178 -214Q130 -214 130 -165Q130 -155 130 -148T135 -126T147 -88T169 -19Q190 48 204 96T230 185T252 269T275 366Q260 364 251 363T234 360T216 356T194 349Q162 340 144 337T107 333Q59 333 59 373Q59 402 78 419T130 437Q148 437 164 434T209 421Q221 417 229 415T244 411T260 408T283 404Q290 446 292 470T295 518L294 592Z"/>
<glyph unicode="‡" horiz-adv-x="591" d="M212 236Q227 261 238 281T257 320T270 357T281 398Q267 396 258 395T240 392T223 388T201 381Q168 371 150 368T114 365Q66 365 66 405Q66 434 85 451T137 469Q154 469 170 466T216 453Q228 449 236 447T251 443T267 440T289 436Q294 465 295 481T297 514Q297 519 297 524T296 536Q295 560 295 577T294 599Q294 640 314 663T370 687Q420 687 420 644Q420 636 419 629T414 612T402 584T380 536Q374 522 370 512T361 491T354 467T345 436Q359 438 368 439T386 442T402 446T425 453Q457 462 475 465T511 469Q560 469 560 429Q560 400 541 383T489 365Q472 365 456 368T410 381Q398 385 390 387T375 391T359 394T337 398Q332 368 330 351T328 318Q328 300 330 283T338 236Q323 211 312 191T292 152T278 114T268 74Q282 76 291 77T309 80T326 84T348 91Q381 101 398 104T434 107Q483 107 483 67Q483 39 464 22T412 4Q394 4 378 7T333 20Q321 24 313 26T298 30T282 33T260 37Q255 8 254 -8T252 -42Q252 -47 252 -52T253 -63Q255 -89 255 -107T256 -127Q256 -167 235 -190T179 -214Q129 -214 129 -171Q129 -162 130 -156T135 -138T147 -110T169 -63Q175 -50 179 -40T188 -18T196 6T205 37Q190 35 181 34T163 30T146 26T124 20Q91 10 74 7T38 4Q-11 4 -11 44Q-11 72 9 89T61 107Q78 107 94 104T139 91Q151 87 159 85T174 81T190 78T213 74Q218 101 219 116T221 150Q221 170 219 188T212 236Z"/>
<glyph unicode="•" horiz-adv-x="667" d="M366 480Q414 480 444 449T475 370Q475 337 461 306T423 252T368 214T304 200Q256 200 225 231T194 310Q194 343 208 374T246 428T301 466T366 480Z"/>
<glyph unicode="…" horiz-adv-x="924" d="M113 130Q137 130 153 114T170 72Q170 54 163 38T142 10T112 -9T77 -17Q51 -17 35 0T19 43Q19 60 26 76T47 104T77 123T113 130ZM421 130Q445 130 461 114T478 72Q478 54 471 38T450 10T420 -9T385 -17Q359 -17 343 0T327 43Q327 60 334 76T355 104T385 123T421 130ZM728 130Q753 130 769 114T785 72Q785 54 778 38T757 10T728 -9T693 -17Q667 -17 651 0T635 43Q635 60 642 76T663 104T693 123T728 130Z"/>
<glyph unicode="‰" horiz-adv-x="1385" d="M282 622Q352 622 394 583T436 479Q436 429 418 386T367 310T292 258T200 239Q129 239 87 277T45 382Q45 432 63 475T114 551T190 603T282 622ZM269 559Q213 559 186 503Q179 490 174 473T164 437T157 400T154 366Q154 302 214 302Q268 302 297 358Q303 370 308 387T318 423T325 462T328 496Q328 526 313 542T269 559ZM257 -17H176L685 622H765L257 -17ZM743 366Q813 366 855 327T897 223Q897 173 879 130T828 54T753 2T661 -17Q590 -17 548 21T506 126Q506 175 524 219T575 295T651 347T743 366ZM729 303Q674 303 647 247Q640 234 635 217T625 181T618 144T615 110Q615 46 675 46Q728 46 757 102Q763 114 768 131T778 167T785 205T788 240Q788 270 773 286T729 303ZM1169 366Q1239 366 1281 327T1323 223Q1323 173 1305 130T1254 54T1179 2T1087 -17Q1016 -17 974 21T932 126Q932 175 950 219T1001 295T1077 347T1169 366ZM1155 303Q1101 303 1072 247Q1066 234 1060 217T1050 181T1044 144T1041 110Q1041 46 1101 46Q1154 46 1183 102Q1189 114 1194 131T1204 167T1211 205T1214 240Q1214 270 1199 286T1155 303Z"/>
<glyph unicode="‹" horiz-adv-x="288" d="M69 129Q55 158 47 185T38 226Q38 260 115 346L167 403H238L196 336Q169 294 157 266T144 220Q144 206 146 183T154 139L168 72H96L69 129Z"/>
<glyph unicode="›" horiz-adv-x="288" d="M4 72L47 139Q73 181 85 209T98 254Q98 268 96 293T88 336L74 403H146L173 346Q179 333 185 319T195 291T201 267T204 249Q204 214 127 129L76 72H4Z"/>
<glyph unicode="€" horiz-adv-x="714" d="M0 188L48 267H73Q75 281 77 293T84 322H28L76 401H114Q137 449 174 489T255 559T350 604T451 621Q476 621 495 618T533 608T571 589T613 559L642 613H707L654 366H585Q586 378 586 387T586 402Q586 471 551 509T453 547Q392 547 342 509T260 401H504L456 322H233Q230 308 228 295T223 267H420L372 188H220Q228 127 262 95T355 63Q380 63 401 67T444 82T487 110T534 151L495 24Q469 11 449 3T409 -10T369 -17T323 -19Q217 -19 151 36T73 188H0Z"/>
<glyph unicode="™" horiz-adv-x="999" d="M221 619Q170 620 144 595T103 505H51L85 667H468L434 505H382Q385 523 386 535T388 556Q388 590 371 604T312 619L258 367Q257 362 257 357T256 349Q256 341 262 339T288 336H326L315 287H77L87 336H125Q138 336 145 337T156 341T163 350T168 367L221 619ZM774 336H804Q817 336 824 337T836 341T842 350T847 367L894 592L707 287H663L613 596L564 367Q562 357 562 354T561 349Q561 341 567 339T594 336H621L610 287H417L427 336H452Q465 336 472 337T483 341T490 350T495 367L541 587Q543 592 543 597T544 605Q544 613 538 615T512 618H487L498 667H690L726 431L873 667H1057L1046 618H1020Q1007 618 1000 617T988 613T982 604T977 587L930 367Q929 362 929 357T928 349Q928 341 934 339T960 336H986L976 287H764L774 336Z"/>

</font>
</defs>
</svg>
