<?xml version="1.0" encoding="UTF-8"?>
<!DOCTYPE svg PUBLIC "-//W3C//DTD SVG 1.0//EN" "http://www.w3.org/TR/2001/REC-SVG-20010904/DTD/svg10.dtd">
<svg xmlns="http://www.w3.org/2000/svg">
<metadata>
<version>1.0</version>
<id><![CDATA[URW Clarendon W01 Regular]]></id>
<vendor>Monotype Imaging Inc.</vendor>
<credits>
<name>Fonts.com WebFonts</name>
<URL>http://webfonts.fonts.com</URL>
<role>Home of the Web fonts</role>
</credits>
<license>
<URL>http://webfonts.fonts.com/Legal</URL>
</license>
<copyright><![CDATA[(URW)++,Copyright 2003 by (URW)++ Design & Development]]></copyright>
<trademark><![CDATA[Please refer to the Copyright section for the font trademark attribution notices.]]></trademark>
<licensee>
<name/>
</licensee>
</metadata>
<defs>
<font horiz-adv-x="596" id="2c297035-0850-415d-9586-b2d821fc6abc">
<font-face font-family="" panose-1="4 0 5 0 0 0 0 0 0 0" ascent="933" descent="-227" units-per-em="1000" alphabetic="0">
</font-face>
<missing-glyph horiz-adv-x="0"/>

<glyph unicode="
"/>
<glyph unicode="" horiz-adv-x="0"/>
<glyph unicode=" " horiz-adv-x="250"/>
<glyph unicode="!" horiz-adv-x="318" d="M193 131Q224 131 245 110T267 57Q267 26 246 5T194 -17Q162 -17 141 5T119 59Q119 88 141 109T193 131ZM162 190Q160 224 158 248T154 294T150 339T144 392Q139 434 135 472T126 546Q124 564 123 581T121 609Q121 687 195 687Q269 687 269 609Q269 600 269 593T268 573T263 538T255 476Q248 424 244 387T236 320T230 259T224 190H162Z"/>
<glyph unicode="&quot;" horiz-adv-x="361" d="M54 399L35 667H155L135 399H54ZM225 399L205 667H325L305 399H225Z"/>
<glyph unicode="#" horiz-adv-x="621" d="M556 191H451L421 0H307L339 191H235L205 0H96L127 191H22L36 288H142L158 391H54L68 488H172L200 667H310L280 488H386L414 667H525L497 488H600L586 391H482L466 288H571L556 191ZM267 391L251 288H355L371 391H267Z"/>
<glyph unicode="$" horiz-adv-x="621" d="M269 0Q211 4 176 14T111 45Q50 86 50 154Q50 190 70 212T126 235Q156 235 176 217T197 173Q197 114 128 114Q145 99 158 90T187 76T221 68T269 63V248Q238 257 217 263T180 276T153 287T130 300Q98 320 80 353T62 425Q62 463 79 496T127 554Q140 565 154 572T184 586T221 596T269 605V680H336V605Q365 602 386 599T424 590T454 577T481 560Q507 539 522 514T537 462Q537 430 517 409T466 388Q437 388 417 405T397 447Q397 496 462 502Q446 514 434 521T408 533T378 539T336 543V364Q373 356 399 349T445 336T479 321T508 303Q536 283 551 251T567 181Q567 94 494 45Q479 35 464 28T431 15T390 6T336 -1V-104H269V0ZM336 65Q456 71 456 149Q456 167 451 180T432 203T395 220T336 235V65ZM269 542Q219 534 196 514T173 458Q173 425 194 408T269 378V542Z"/>
<glyph unicode="%" horiz-adv-x="958" d="M220 622Q262 622 297 608T357 569T397 508T411 431Q411 389 397 354T358 293T298 253T221 239Q178 239 143 253T83 292T44 353T30 433Q30 474 44 509T83 569T144 608T220 622ZM221 559Q142 559 142 431Q142 365 161 334T222 303Q262 303 281 333T300 428Q300 496 282 527T221 559ZM332 -17H251L624 622H704L332 -17ZM735 366Q777 366 812 352T872 313T912 252T926 174Q926 132 912 97T873 37T813 -3T736 -17Q693 -17 658 -3T598 36T559 97T545 177Q545 218 559 253T598 313T659 352T735 366ZM735 302Q656 302 656 174Q656 108 675 77T736 46Q776 46 795 76T814 171Q814 239 796 270T735 302Z"/>
<glyph unicode="&amp;" horiz-adv-x="839" d="M798 229Q797 194 795 169T789 123T779 88T763 57Q740 21 699 1T608 -20Q590 -20 573 -18T538 -9T500 9T453 36Q422 19 398 9T353 -8T311 -17T266 -20Q216 -20 174 -5T101 38T53 103T35 186Q35 269 100 331Q116 346 141 362T207 399Q191 438 186 461T180 512Q180 551 192 583T228 638T283 674T353 687Q419 687 458 653T497 559Q497 531 490 507T468 461T428 418T369 374Q387 344 400 322T428 280T457 238T496 188Q571 266 571 317Q571 329 558 334T511 339H481V415H798V339H763Q713 339 690 319Q685 315 682 312T674 300T661 277T637 235Q626 214 607 189T553 120Q576 100 591 93T627 85Q656 85 676 99T707 142Q712 158 715 175T722 229H798ZM247 315Q207 291 192 269T176 212Q176 183 185 158T212 115T253 87T305 77Q324 77 342 82T389 101Q363 132 346 156T313 203T282 252T247 315ZM324 452Q329 455 331 456T340 461Q408 501 408 553Q408 579 392 594T349 610Q322 610 305 593T287 548Q287 525 295 503T324 452Z"/>
<glyph unicode="'" horiz-adv-x="184" d="M52 399L32 667H152L132 399H52Z"/>
<glyph unicode="(" horiz-adv-x="382" d="M352 -192Q303 -176 267 -160T202 -125T153 -82T111 -26Q39 87 39 247Q39 335 60 409T124 540Q143 567 164 588T211 626T272 657T352 687V624Q324 610 304 597T268 568T241 533T218 488Q179 395 179 247Q179 87 225 -8Q236 -31 247 -47T272 -78T306 -104T352 -130V-192Z"/>
<glyph unicode=")" horiz-adv-x="382" d="M35 -130Q63 -116 83 -103T119 -73T145 -38T168 7Q207 98 207 247Q207 408 161 503Q150 525 139 542T114 573T81 599T35 624V687Q84 671 120 655T184 620T234 576T276 521Q311 465 329 396T347 247Q347 160 326 86T263 -45Q243 -72 222 -93T175 -131T115 -162T35 -192V-130Z"/>
<glyph unicode="*" horiz-adv-x="497" d="M243 490Q240 519 235 539T217 583Q203 609 200 617T197 636Q197 659 212 673T251 687Q274 687 289 673T305 638Q305 628 301 617T285 582Q279 570 275 561T267 541T262 520T258 490Q281 505 295 519T326 559Q336 575 344 585T358 600T372 608T389 610Q410 610 426 592T442 551Q442 538 435 526T417 509Q413 507 411 506T403 504T388 502T360 500Q328 497 310 493T267 477Q281 470 292 466T317 458T349 453T393 450Q416 448 429 435T442 399Q442 376 426 359T388 342Q379 342 373 344T359 351T345 366T326 393Q316 408 309 417T294 434T279 448T260 462Q261 446 262 435T267 413T274 393T286 369Q298 346 302 336T306 315Q306 294 291 280T253 266Q228 266 213 279T198 314Q198 320 198 324T200 333T206 346T218 369Q225 384 229 396T237 418T242 439T245 462Q221 446 207 432T176 393Q165 376 158 366T144 351T130 344T114 342Q92 342 76 360T60 401Q60 414 67 425T86 442Q91 445 95 446T104 448T119 450T143 452Q158 453 169 454T191 459T212 465T236 475Q210 488 190 493T141 500Q126 501 117 501T103 503T93 505T84 510Q60 523 60 551Q60 575 76 592T115 610Q124 610 130 609T142 603T156 587T176 558Q192 534 205 520T243 490Z"/>
<glyph unicode="+" horiz-adv-x="567" d="M235 358V521H333V358H500V267H333V104H235V267H67V358H235Z"/>
<glyph unicode="," horiz-adv-x="238" d="M33 -99Q126 -74 127 14Q113 5 104 2T84 -1Q58 -1 42 16T25 61Q25 92 45 111T99 130Q141 130 167 101T193 24Q193 -42 150 -87T33 -143V-99Z"/>
<glyph unicode="-" horiz-adv-x="269" d="M0 290H269V184H0V290Z"/>
<glyph unicode="." horiz-adv-x="308" d="M153 131Q184 131 205 110T227 57Q227 26 206 5T154 -17Q122 -17 101 5T79 59Q79 88 101 109T153 131Z"/>
<glyph unicode="/" horiz-adv-x="369" d="M11 -92L256 686H329L85 -92H11Z"/>
<glyph unicode="0" horiz-adv-x="621" d="M310 621Q372 621 423 598T512 532T569 431T590 302Q590 231 570 173T512 72T424 7T311 -17Q248 -17 196 6T108 72T51 174T30 307Q30 376 51 433T109 532T197 597T310 621ZM310 544Q245 544 215 485T184 300Q184 175 214 118T310 60Q375 60 405 118T436 302Q436 427 406 485T310 544Z"/>
<glyph unicode="1" horiz-adv-x="621" d="M124 71H168Q193 71 208 73T232 81T243 99T246 130V448H124V519Q164 522 191 527T236 542T269 568T297 611H377V128Q377 109 379 98T388 80T409 73T446 71H498V0H124V71Z"/>
<glyph unicode="2" horiz-adv-x="621" d="M45 -4Q43 54 53 98T91 177T166 242T284 304Q319 320 338 332T368 361Q391 395 391 434Q391 487 354 519T256 552Q231 552 208 545T167 524Q158 516 150 506T131 476Q142 479 152 480T168 482Q196 482 214 463T233 415Q233 380 211 359T153 337Q112 337 86 366T59 441Q59 478 77 511T126 569T200 608T290 622Q348 622 400 605T486 558Q512 535 527 499T542 425Q542 393 532 364T504 313Q482 287 448 271T349 239Q299 228 264 217T204 191T162 157T130 111Q156 126 172 131T208 137Q215 137 230 136T263 131T302 125T342 117Q382 109 397 107T421 104Q440 104 456 111T481 132Q489 143 492 160T501 217H557Q557 185 556 161T550 117T540 82T523 50Q503 18 474 1T407 -17Q384 -17 355 -10T293 10Q288 12 284 13T273 18T252 29T214 49Q201 56 186 60T158 64Q132 64 120 49T103 -4H45Z"/>
<glyph unicode="3" horiz-adv-x="621" d="M247 359Q270 359 286 360T315 363T336 367T354 374Q403 397 403 456Q403 502 370 530T281 558Q265 558 253 557T228 551T202 539T171 521Q231 509 231 458Q231 426 210 406T154 385Q117 385 94 407T71 466Q71 499 89 527T140 577T216 610T312 622Q365 622 408 611T482 579T529 529T546 464Q546 435 534 409T499 366Q482 353 461 345T397 326Q444 315 469 305T514 278Q537 258 550 230T563 169Q563 127 544 93T488 34T401 -4T287 -17Q236 -17 193 -4T118 31T68 85T50 152Q50 194 75 220T140 247Q175 247 197 226T219 172Q219 155 212 139T192 113Q183 106 171 103T136 99Q168 73 196 63T266 52Q333 52 372 83T412 168Q412 203 398 230T358 269Q338 279 315 282T247 286V359Z"/>
<glyph unicode="4" horiz-adv-x="621" d="M226 71H262Q287 71 302 72T324 80T334 96T337 125V168H35V244L366 610H462V254H578V168H462V125Q462 107 464 98T474 83Q480 78 494 75T522 71H578V0H226V71ZM340 471L143 254H337L340 471Z"/>
<glyph unicode="5" horiz-adv-x="621" d="M161 395Q186 405 205 412T242 423T276 429T313 431Q367 431 412 415T489 370T540 301T558 212Q558 160 537 115T478 38Q444 10 400 -3T297 -17Q242 -17 196 -5T117 30T66 82T47 150Q47 189 72 214T138 240Q173 240 196 220T219 168Q219 149 211 133T188 107Q172 95 136 94Q170 71 197 62T263 52Q335 52 373 92T412 207Q412 277 374 317T268 358Q230 358 203 344T141 295L74 298L104 620Q139 610 165 604T215 595T263 590T317 588Q346 588 369 589T415 594T465 604T527 619Q508 569 488 545T431 505Q368 477 277 477Q255 477 232 479T168 487L161 395Z"/>
<glyph unicode="6" horiz-adv-x="621" d="M436 536Q412 550 396 555T358 561Q327 561 301 550T256 518Q245 506 238 491T224 454T214 403T207 334Q231 349 250 359T286 375T321 383T360 386Q406 386 445 371T512 330T557 267T574 189Q574 143 556 105T505 40T426 -3T324 -18Q180 -18 113 75Q86 113 71 168T55 286Q55 357 74 419T132 530Q204 622 344 622Q388 622 425 612T489 585T531 543T546 490Q546 457 523 436T463 414Q431 414 411 432T390 480Q390 501 400 513T436 536ZM316 301Q266 301 239 270T211 181Q211 119 238 87T319 55Q370 55 397 87T425 179Q425 238 397 269T316 301Z"/>
<glyph unicode="7" horiz-adv-x="621" d="M246 -4Q244 76 250 131T276 233T334 327T436 441Q441 447 452 459T481 492Q449 481 431 477T392 472Q377 472 355 475T301 484Q284 488 269 489T243 491Q220 491 200 480T170 449Q166 441 163 431T158 408T155 376T153 330H84V606H157V537Q174 558 188 572T217 595T248 607T285 611Q312 611 339 606T402 586Q420 579 432 575T454 569T469 565T483 564Q503 564 515 573T538 605H601Q598 584 595 570T588 545T579 523T567 500Q562 491 544 464T493 388Q418 280 397 191Q392 173 390 156T385 118T383 71T382 10V-4H246Z"/>
<glyph unicode="8" horiz-adv-x="621" d="M166 291Q110 328 88 362T65 444Q65 483 83 516T133 572T210 609T309 622Q363 622 407 611T484 580T533 533T551 471Q551 427 528 398T445 340Q485 321 508 305T545 270Q575 229 575 175Q575 133 557 97T508 37Q473 11 419 -3T303 -17Q244 -17 196 -5T113 29T59 82T40 150Q40 210 87 249Q99 260 118 270T166 291ZM239 262Q198 246 176 219T153 160Q153 61 311 61Q451 61 451 142Q451 169 433 187T374 218L239 262ZM375 367Q413 387 428 409T444 464Q444 506 409 529T310 553Q253 553 220 532T186 474Q186 419 262 397L375 367Z"/>
<glyph unicode="9" horiz-adv-x="621" d="M193 64Q216 50 232 46T267 41Q299 41 327 53T373 87Q383 100 390 115T402 151T410 202T416 273Q392 256 373 245T335 228T298 219T257 216Q212 216 173 231T106 272T61 334T45 413Q45 459 63 497T115 564T195 607T299 622Q434 622 503 534Q533 496 550 437T567 312Q567 245 550 186T497 80Q425 -19 278 -19Q235 -19 199 -10T137 17T97 58T82 110Q82 143 105 164T166 186Q198 186 218 168T238 120Q238 100 228 88T193 64ZM300 549Q249 549 222 518T194 427Q194 367 222 335T304 302Q353 302 380 333T408 421Q408 483 380 516T300 549Z"/>
<glyph unicode=":" horiz-adv-x="318" d="M193 131Q224 131 245 110T267 57Q267 26 246 5T194 -17Q162 -17 141 5T119 59Q119 88 141 109T193 131ZM193 448Q224 448 245 427T267 374Q267 343 246 322T194 300Q162 300 141 322T119 376Q119 405 141 426T193 448Z"/>
<glyph unicode=";" horiz-adv-x="318" d="M205 448Q236 448 257 427T279 374Q279 343 258 322T206 300Q174 300 153 322T131 376Q131 405 153 426T205 448ZM127 -99Q220 -74 221 14Q207 5 198 2T178 -1Q152 -1 136 16T119 61Q119 92 139 111T193 130Q235 130 261 101T287 24Q287 -42 244 -87T127 -143V-99Z"/>
<glyph unicode="&lt;" horiz-adv-x="500" d="M466 482L162 333L466 184V63L33 282V385L466 603V482Z"/>
<glyph unicode="=" horiz-adv-x="567" d="M500 442V356H67V442H500ZM500 280V194H67V280H500Z"/>
<glyph unicode="&gt;" horiz-adv-x="500" d="M467 385V282L34 63V184L338 333L34 482V603L467 385Z"/>
<glyph unicode="?" horiz-adv-x="526" d="M249 131Q280 131 301 110T323 57Q323 26 302 5T250 -17Q218 -17 197 5T175 59Q175 88 197 109T249 131ZM219 189Q218 201 218 210T218 226Q218 248 221 266T233 301T257 338T296 383Q317 405 330 421T350 450T360 476T363 503Q363 553 329 583T239 614Q189 614 153 583Q135 567 127 550T115 498Q133 512 145 516T171 521Q198 521 216 503T234 456Q234 424 210 402T151 379Q107 379 78 414T49 503Q49 543 65 577T112 635T183 673T275 687Q325 687 367 674T440 636T488 578T505 504Q505 442 456 393Q447 384 441 378T424 364T397 344T350 310Q331 295 319 282T299 256T288 226T283 189H219Z"/>
<glyph unicode="@" horiz-adv-x="742" d="M564 493L526 297Q521 275 520 266T519 252Q519 236 526 227T545 217Q562 217 578 231T607 269T628 323T636 384Q636 433 618 474T568 546T492 592T393 609Q334 609 283 588T195 528T136 439T114 328Q114 272 134 222T191 133Q228 95 277 77T392 58Q498 58 584 92L603 20Q557 3 504 -6T394 -15Q236 -15 141 77Q91 125 64 191T36 328Q36 402 63 466T138 578T250 653T390 681Q458 681 516 659T616 597T683 503T707 385Q707 338 694 296T657 222T604 170T541 151Q512 151 492 166T465 208Q445 178 412 161T340 143Q310 143 284 155T239 188T209 239T198 302Q198 343 212 379T250 444T306 488T374 504Q408 504 434 490T475 449L484 493H564ZM385 418Q366 418 349 409T318 384T297 348T289 304Q289 269 309 247T361 224Q380 224 396 233T426 259T446 296T454 340Q454 375 435 396T385 418Z"/>
<glyph unicode="A" horiz-adv-x="715" d="M-15 76H6Q25 76 39 79T63 89T80 109T94 140L280 667H421L619 140Q627 118 633 105T648 86T667 78T699 76H719V0H375V76H429Q461 76 472 81T484 101Q484 106 482 115T475 134L447 212H227L197 129Q189 106 189 98Q189 84 199 80T243 76H295V0H-15V76ZM333 522L254 290H419L333 522Z"/>
<glyph unicode="B" horiz-adv-x="725" d="M25 76H64Q86 76 99 78T118 86T127 104T129 137V529Q129 550 127 562T119 581T99 589T64 591H25V667H408Q655 667 655 503Q655 472 648 449T625 408T584 377T521 353Q542 348 558 343T586 333T608 321T628 306Q681 261 681 180Q681 93 624 48Q607 35 586 26T537 11T473 3T389 0H25V76ZM379 75Q426 75 455 81T501 102Q518 116 527 139T536 192Q536 251 500 279Q480 295 452 301T370 307H269V75H379ZM364 383Q416 383 442 389T487 414Q515 439 515 487Q515 541 484 566Q467 579 443 584T375 590H269V383H364Z"/>
<glyph unicode="C" horiz-adv-x="705" d="M653 258Q649 222 644 195T631 146T613 107T588 71Q515 -20 374 -20Q300 -20 238 6T131 80T61 192T35 334Q35 408 60 472T131 584T236 659T367 686Q395 686 418 683T463 672T509 651T562 617L582 677H653V404H577Q572 432 568 452T557 489T542 519T523 544Q498 573 463 589T388 605Q295 605 243 532T191 329Q191 206 241 141Q267 108 305 90T389 71Q466 71 512 122Q523 134 531 146T545 175T557 211T568 258H653Z"/>
<glyph unicode="D" horiz-adv-x="804" d="M25 76H64Q86 76 99 78T118 86T127 104T129 137V530Q129 551 127 563T119 581T99 589T64 591H25V667H403Q578 667 667 583T756 333Q756 168 667 84T403 0H25V76ZM356 76Q433 76 473 87T540 129Q569 162 584 214T600 333Q600 399 585 452T540 538Q514 568 474 579T356 591H269V76H356Z"/>
<glyph unicode="E" horiz-adv-x="750" d="M25 76H64Q86 76 99 78T118 86T127 104T129 138V529Q129 550 127 562T119 581T99 589T64 591H25V667H680V402H604Q602 455 596 485T576 541Q561 569 529 580T429 591H269V386H307Q345 386 366 393T395 415Q398 421 400 426T404 440T408 464T413 507H489V174H413Q410 220 405 247T389 288T359 306T308 310H269V76H444Q489 76 517 84T563 114T589 177T604 283H680V0H25V76Z"/>
<glyph unicode="F" horiz-adv-x="690" d="M25 76H64Q86 76 99 78T118 86T127 104T129 138V529Q129 550 127 562T119 581T99 589T64 591H25V667H644V390H568Q568 420 566 442T561 482T553 514T540 541Q524 569 492 580T393 591H269V386H286Q324 386 345 392T375 415Q378 421 380 426T383 440T387 464T392 507H468V174H392Q388 220 383 247T368 288T338 306T287 310H269V138Q269 117 271 105T279 86T299 78T335 76H382V0H25V76Z"/>
<glyph unicode="G" horiz-adv-x="785" d="M571 52Q541 31 517 17T469 -5T422 -16T367 -19Q295 -19 235 7T130 81T60 193T35 334Q35 409 60 474T130 586T235 660T367 687Q398 687 422 684T468 672T512 650T564 613L591 671H661V410H585Q579 436 573 455T559 490T544 518T523 543Q467 605 385 605Q341 605 305 586T244 532T205 446T191 333Q191 207 243 138T392 69Q462 69 509 108Q527 124 534 141T541 189V226Q541 245 539 256T530 273T507 279T465 281H423V357H775V281H733Q715 281 705 279T689 270T681 251T679 219V-4H606L571 52Z"/>
<glyph unicode="H" horiz-adv-x="824" d="M24 76H63Q85 76 98 78T117 86T126 104T128 137V529Q128 550 126 562T118 581T98 589T63 591H24V667H381V591H334Q311 591 298 589T279 581T270 563T268 529V382H557V529Q557 550 555 562T547 581T527 589T491 591H444V667H801V591H762Q740 591 727 589T708 581T699 563T697 529V137Q697 116 699 104T707 86T727 78T762 76H801V0H444V76H491Q513 76 526 78T546 86T555 104T557 137V302H268V137Q268 116 270 104T278 86T298 78T334 76H381V0H24V76Z"/>
<glyph unicode="I" horiz-adv-x="412" d="M27 76H69Q91 76 104 78T124 86T133 104T135 137V530Q135 551 133 563T125 581T105 589T69 591H27V667H386V591H343Q320 591 307 589T288 581T279 563T277 530V137Q277 116 279 104T287 86T307 78T343 76H386V0H27V76Z"/>
<glyph unicode="J" horiz-adv-x="576" d="M202 667H552V591H522Q500 591 487 589T468 581T459 563T457 530V213Q457 177 455 151T446 104T431 69T407 39Q378 10 334 -5T236 -20Q190 -20 151 -8T84 27T41 80T25 148Q25 193 50 219T119 246Q155 246 177 224T199 166Q199 134 183 116T132 86Q155 69 171 63T214 57Q270 57 295 91Q306 106 310 127T314 193V530Q314 551 312 563T304 581T284 589T249 591H202V667Z"/>
<glyph unicode="K" horiz-adv-x="770" d="M266 137Q266 116 268 104T276 86T296 78T332 76H359V0H25V76H64Q86 76 99 78T118 86T127 104T129 137V530Q129 551 127 563T119 581T99 589T64 591H25V667H364V591H332Q309 591 296 589T277 581T268 563T266 530V342L491 553Q498 560 502 566T507 578Q507 591 468 591H424V667H760V591H737Q717 591 698 587T659 572T617 544T568 503L470 414L673 126Q684 111 693 101T713 86T737 78T769 76H802V0H432V76H486Q511 76 519 79T528 93Q528 106 512 128L375 324L266 229V137Z"/>
<glyph unicode="L" horiz-adv-x="690" d="M382 667V591H335Q312 591 299 589T280 581T271 563T269 530V76H393Q429 76 454 79T496 89T525 107T545 136Q558 161 562 194T568 288H644V0H25V76H64Q86 76 99 78T118 86T127 104T129 137V530Q129 551 127 563T119 581T99 589T64 591H25V667H382Z"/>
<glyph unicode="M" horiz-adv-x="968" d="M603 76H648Q670 76 683 78T703 86T712 104T714 137V569L499 0H433L231 579V137Q231 116 233 104T241 86T261 78T297 76H336V0H25V76H61Q83 76 96 78T115 86T124 104T126 137V530Q126 551 124 563T116 581T96 589T61 591H25V667H335L483 234L648 667H946V591H908Q885 591 872 589T853 581T844 563T842 530V137Q842 116 844 104T852 86T872 78T908 76H946V0H603V76Z"/>
<glyph unicode="N" horiz-adv-x="814" d="M557 0L227 543V137Q227 116 229 104T237 86T257 78T293 76H338V0H10V76H56Q78 76 91 78T111 86T120 104T122 137V530Q122 551 120 563T112 581T92 589T56 591H14V667H298L593 183V530Q593 551 591 563T583 581T563 589T527 591H481V667H796V591H764Q741 591 728 589T709 581T700 563T698 530V0H557Z"/>
<glyph unicode="O" horiz-adv-x="804" d="M403 686Q485 686 552 661T668 589T742 478T769 334Q769 255 743 190T668 79T553 7T404 -19Q320 -19 252 6T136 78T62 191T36 339Q36 416 63 480T138 589T254 660T403 686ZM403 607Q303 607 248 536T192 338Q192 269 204 223T244 138Q301 60 403 60Q503 60 558 131T613 334Q613 398 601 446T561 529Q504 607 403 607Z"/>
<glyph unicode="P" horiz-adv-x="680" d="M382 0H25V76H64Q86 76 99 78T118 86T127 104T129 137V530Q129 551 127 563T119 581T99 589T64 591H25V667H375Q446 667 494 656T577 622Q611 599 629 563T647 481Q647 433 627 395T572 335Q555 326 537 320T493 309T436 303T362 301H269V137Q269 116 271 104T279 86T299 78T335 76H382V0ZM335 377Q390 377 419 383T468 404Q484 416 492 437T501 485Q501 521 485 546T438 581Q429 584 420 586T399 589T369 590T327 591H269V377H335Z"/>
<glyph unicode="Q" horiz-adv-x="829" d="M829 130Q829 97 827 72T819 28T807 -5T787 -32Q752 -69 691 -69Q673 -69 658 -66T628 -54T595 -31T553 7Q528 -1 509 -6T472 -14T438 -18T401 -19Q319 -19 252 6T136 78T62 189T35 333Q35 412 61 477T136 588T251 660T402 686Q484 686 551 661T667 589T742 478T769 335Q769 255 743 193T662 79Q680 57 694 48T725 39Q747 39 756 64Q759 72 760 84T765 130H829ZM495 86Q489 97 485 104T477 115Q435 182 378 182Q352 182 336 165T320 122Q320 93 341 74T397 55Q426 55 449 62T495 86ZM265 148Q265 207 297 239T390 271Q415 271 438 266T484 249T532 218T587 169Q596 190 602 207T613 243T618 281T620 326Q620 460 564 533T405 607Q304 607 247 535T190 334Q190 251 215 189Q223 168 233 154T265 122V148Z"/>
<glyph unicode="R" horiz-adv-x="770" d="M382 0H25V76H64Q86 76 99 78T118 86T127 104T129 137V529Q129 550 127 562T119 581T99 589T64 591H25V667H423Q490 667 534 658T611 626Q639 607 654 576T669 506Q669 423 604 378Q581 362 554 354T478 337Q515 331 540 321T581 294T604 253T612 194L615 135Q617 101 623 90T646 78Q655 78 661 81T670 97T674 131T676 190H740V173Q740 149 739 131T737 98T732 72T724 47Q710 15 680 -2T604 -20Q544 -20 510 11T474 103L472 181Q470 221 463 246T438 287T391 308T316 314H269V137Q269 116 271 104T279 86T299 78T335 76H382V0ZM386 390Q458 390 490 413T523 490Q523 520 512 542T481 575Q464 584 443 587T384 591H269V390H386Z"/>
<glyph unicode="S" horiz-adv-x="641" d="M43 275H120Q126 244 133 222T149 182T169 150T195 122Q227 95 263 83T348 70Q411 70 445 92T480 157Q480 195 454 218T367 256L259 281Q142 308 91 354T40 480Q40 526 57 564T106 630T182 672T279 687Q307 687 330 684T375 673T421 652T475 618L510 667H569V414H494Q483 465 465 500T419 560Q394 581 358 593T285 606Q226 606 193 583T159 520Q159 486 182 466T257 433L391 402Q433 393 471 377T535 341Q567 316 585 277T604 192Q604 146 586 107T534 40T455 -4T355 -20Q326 -20 300 -16T248 -2T195 23T134 62L112 0H43V275Z"/>
<glyph unicode="T" horiz-adv-x="675" d="M267 593Q222 594 191 584T140 550T111 487T100 391H24V667H651V391H575Q574 448 565 487T536 550T485 584T407 593V137Q407 116 409 104T417 86T437 78T473 76H531V0H144V76H201Q223 76 236 78T256 86T265 104T267 137V593Z"/>
<glyph unicode="U" horiz-adv-x="760" d="M20 667H366V591H323Q301 591 288 589T269 581T260 563T258 530V211Q258 169 265 148T289 111Q307 95 334 87T391 78Q423 78 452 87T501 114Q518 129 525 151T533 211V530Q533 551 531 563T523 581T503 589T467 591H428V667H737V591H707Q684 591 671 589T652 581T643 563T641 530V211Q641 157 626 115T581 46Q548 14 495 -3T378 -20Q260 -20 188 37Q151 66 135 107T118 211V530Q118 551 116 563T108 581T88 589T52 591H20V667Z"/>
<glyph unicode="V" horiz-adv-x="710" d="M91 528Q78 564 62 577T14 591H-15V667H334V591H282Q253 591 242 585T230 561Q230 553 233 541T242 512L365 166L497 520Q502 531 505 545T508 565Q508 580 495 585T445 591H401V667H718V591H698Q679 591 667 589T645 579T628 559T613 526L416 0H278L91 528Z"/>
<glyph unicode="W" horiz-adv-x="973" d="M104 502Q96 529 89 546T74 573T54 587T27 591H10V667H295V591H263Q222 591 222 563Q222 558 223 552T226 539L329 163L448 507Q437 554 421 572T372 591H348V667H640V591H603Q578 591 568 585T557 565Q557 554 562 537L674 173L774 511Q778 525 780 539T783 561Q783 591 728 591H695V667H967V591H945Q920 591 905 576T878 524L727 0H595L491 357L370 0H245L104 502Z"/>
<glyph unicode="X" horiz-adv-x="785" d="M347 0H0V76H34Q49 76 60 78T82 85T102 100T125 124L315 341L159 537Q135 568 114 579T61 591H27V667H379V591H333Q305 591 305 572Q305 560 321 540L408 435L514 545Q530 561 530 574Q530 591 486 591H448V667H761V591H725Q713 591 703 589T682 578T656 556T619 517L472 357L641 146Q660 122 673 108T699 87T725 78T761 76H790V0H408V76H454Q480 76 490 80T500 95Q500 110 488 124L380 261L285 152Q268 132 262 120T255 97Q255 85 265 81T301 76H347V0Z"/>
<glyph unicode="Y" horiz-adv-x="730" d="M558 0H170V76H228Q250 76 263 78T283 86T292 104T294 137V279L129 523Q103 561 82 576T33 591H0V667H353V591H304Q280 591 271 586T261 569Q261 556 274 538L386 381L505 543Q518 561 518 572Q518 591 483 591H424V667H733V591H710Q684 591 668 582T632 547L434 279V137Q434 116 436 104T444 86T464 78T500 76H558V0Z"/>
<glyph unicode="Z" horiz-adv-x="655" d="M40 80L438 591H325Q286 591 260 589T215 579T184 560T162 530Q156 519 152 507T144 478T139 439T136 387H60V667H603V581L208 76H314Q378 76 416 83T477 115T510 183T527 302H603V0H40V80Z"/>
<glyph unicode="[" horiz-adv-x="382" d="M89 667H337V600H217V-105H337V-172H89V667Z"/>
<glyph unicode="\" horiz-adv-x="369" d="M40 686H114L358 -92H285L40 686Z"/>
<glyph unicode="]" horiz-adv-x="382" d="M45 -172V-105H165V600H45V667H293V-172H45Z"/>
<glyph unicode="^" horiz-adv-x="500" d="M22 360L183 670H318L479 360H369L250 588L131 360H22Z"/>
<glyph unicode="_" horiz-adv-x="500" d="M500 -63V-137H0V-63H500Z"/>
<glyph unicode="`" horiz-adv-x="500" d="M273 540L114 619Q87 633 76 646T64 677Q64 700 79 715T118 730Q135 730 151 720T193 683L328 540H273Z"/>
<glyph unicode="a" horiz-adv-x="566" d="M563 175Q563 146 562 126T560 92T556 68T549 47Q521 -17 439 -17Q395 -17 371 -1T332 57Q314 36 297 22T260 -1T220 -14T172 -18Q108 -18 69 17T29 110Q29 148 48 179T104 227Q129 240 160 250T246 273Q295 285 314 302T333 353Q333 432 228 432Q198 432 178 426T135 403Q170 401 185 388T201 348Q201 320 182 303T132 285Q97 285 75 306T53 363Q53 391 67 413T106 452T166 477T246 486Q295 486 336 477T400 450Q415 439 424 428T439 401T447 363T449 308V100Q449 65 473 65Q490 65 496 86T503 164V175H563ZM329 245Q295 227 281 222L230 202Q198 189 181 169T163 122Q163 95 179 80T224 65Q270 65 298 95Q315 112 322 133T329 188V245Z"/>
<glyph unicode="b" horiz-adv-x="591" d="M143 -5H78V541Q78 559 76 570T67 588T50 597T21 600H0V667H198V395Q215 420 231 437T266 466T307 481T356 486Q453 486 506 420T560 235Q560 177 548 134T508 55Q479 17 443 0T355 -17Q329 -17 307 -13T264 0T224 24T183 60L143 -5ZM315 400Q258 400 228 357T198 233Q198 152 228 109T315 66Q369 66 396 107T424 230Q424 400 315 400Z"/>
<glyph unicode="c" horiz-adv-x="511" d="M481 195Q476 138 466 107T434 48Q381 -17 271 -17Q216 -17 172 0T96 50T47 129T30 232Q30 289 49 335T102 415T183 467T289 486Q332 486 368 475T430 445T470 400T485 342Q485 304 463 281T406 257Q374 257 354 275T334 323Q334 375 392 385Q378 395 367 402T345 413T323 419T299 421Q234 421 200 373T165 236Q165 73 288 73Q341 73 367 100T404 195H481Z"/>
<glyph unicode="d" horiz-adv-x="621" d="M298 667H517V126Q517 108 519 97T528 79T545 70T574 67H602V0H397V82Q382 55 366 37T332 7T291 -9T240 -14Q142 -14 89 51T35 236Q35 356 88 421T239 486Q268 486 290 481T331 465T366 436T397 391V541Q397 559 395 570T386 588T369 597T340 600H298V667ZM280 400Q226 400 199 358T171 236Q171 66 280 66Q337 66 367 109T397 233Q397 314 367 357T280 400Z"/>
<glyph unicode="e" horiz-adv-x="531" d="M497 167Q487 113 472 84T426 30Q366 -18 273 -18Q218 -18 174 0T97 51T48 130T30 233Q30 290 48 336T98 416T176 467T277 486Q389 486 446 416Q460 399 469 381T485 341T495 291T500 225H166Q169 178 176 153T197 107Q229 62 291 62Q344 62 374 87Q388 99 396 116T414 167H497ZM369 295Q361 364 341 392T277 420Q232 420 207 391T170 295H369Z"/>
<glyph unicode="f" horiz-adv-x="372" d="M25 398V467H114V483Q114 684 287 684Q351 684 390 656T430 580Q430 546 412 526T363 506Q335 506 318 522T300 564Q300 605 342 619Q331 627 323 630T300 633Q263 633 249 612T234 535V467H336V398H234V126Q234 90 245 79T291 67H336V0H25V67H54Q73 67 84 69T102 78T111 96T114 126V398H25Z"/>
<glyph unicode="g" horiz-adv-x="660" d="M353 81Q383 81 406 80T448 76T480 68T508 56Q537 40 554 11T571 -53Q571 -91 551 -124T497 -175Q459 -194 404 -204T283 -214Q165 -214 100 -184T35 -99Q35 -83 39 -71T55 -48T83 -30T127 -13Q85 0 66 21T47 76Q47 110 67 132T135 175Q97 211 82 240T67 309Q67 349 83 381T128 437T198 473T289 486Q339 486 375 476T453 441Q479 467 500 476T551 486Q601 486 630 460T659 388Q659 356 641 336T594 316Q567 316 549 333T530 376Q530 417 577 431Q566 439 560 441T544 444Q526 444 511 435T478 403Q494 372 499 353T505 308Q505 226 447 179T286 132Q260 132 238 135T178 149Q164 138 159 131T153 115Q153 103 162 94Q170 86 180 84T217 81H353ZM285 428Q198 428 198 315Q198 252 218 224T285 195Q332 195 353 222T374 309Q374 371 353 399T285 428ZM288 -25Q228 -25 194 -29T146 -45Q121 -62 121 -89Q121 -157 275 -157Q440 -157 440 -84Q440 -67 433 -56T407 -38T360 -28T288 -25Z"/>
<glyph unicode="h" horiz-adv-x="645" d="M25 667H228V387Q274 441 311 462T396 484Q428 484 458 473T508 443Q527 424 534 395T542 311V126Q542 108 544 97T553 79T570 70T599 67H627V0H346V67H366Q383 67 394 69T411 78T419 96T422 126V311Q422 342 419 356T408 381Q399 393 383 400T349 407Q323 407 299 394T257 358Q240 337 234 312T228 243V126Q228 108 230 97T239 79T256 70T285 67H305V0H25V67H51Q69 67 80 69T97 78T105 96T108 126V541Q108 559 106 570T97 588T80 597T51 600H25V667Z"/>
<glyph unicode="i" horiz-adv-x="348" d="M170 675Q201 675 222 654T244 601Q244 570 223 549T171 527Q139 527 118 549T96 603Q96 632 118 653T170 675ZM25 67H61Q96 67 107 78T118 126V343Q118 379 107 390T61 402H25V469H239V126Q239 90 250 79T296 67H326V0H25V67Z"/>
<glyph unicode="j" horiz-adv-x="318" d="M16 469H234V-26Q234 -77 228 -106T206 -156Q186 -183 151 -198T71 -214Q12 -214 -26 -186T-65 -113Q-65 -82 -46 -63T5 -43Q33 -43 49 -58T65 -100Q65 -124 53 -136T12 -154Q27 -159 37 -162T55 -165Q69 -165 82 -158T102 -138Q109 -125 111 -110T113 -58V343Q113 379 102 390T55 402H16V469ZM164 675Q195 675 216 654T238 601Q238 570 217 549T165 527Q133 527 112 549T90 603Q90 632 112 653T164 675Z"/>
<glyph unicode="k" horiz-adv-x="636" d="M379 364Q396 378 396 388Q396 396 389 399T361 402H307V469H604V402H584Q571 402 562 401T542 395T522 384T497 365L405 289L523 123Q543 94 565 81T615 67H638V0H350V67H384Q396 67 404 71T412 82Q412 86 409 93T400 108L321 224L228 149V126Q228 108 230 97T239 79T256 70T284 67H296V0H25V67H51Q69 67 80 69T97 78T105 96T108 126V541Q108 559 106 570T97 588T80 597T51 600H25V667H228V241L379 364Z"/>
<glyph unicode="l" horiz-adv-x="338" d="M229 126Q229 108 231 97T240 79T257 70T286 67H317V0H20V67H50Q86 67 97 78T108 126V541Q108 578 97 589T50 600H20V667H229V126Z"/>
<glyph unicode="m" horiz-adv-x="924" d="M232 390Q255 417 274 435T312 464T350 479T394 484Q444 484 472 463T523 389Q549 417 569 435T609 464T646 479T688 484Q719 484 746 474T792 445Q802 435 808 425T817 399T822 363T824 311V126Q824 108 826 97T835 79T852 70T881 67H909V0H638V67H649Q667 67 678 69T695 78T703 96T706 126V311Q706 345 704 358T694 383Q686 394 672 400T640 407Q616 407 596 397T560 370T537 328T528 277V126Q528 108 530 97T539 79T556 70T585 67H596V0H342V67H353Q371 67 382 69T399 78T407 96T410 126V311Q410 345 408 358T398 383Q390 394 376 400T344 407Q320 407 300 397T264 370T241 328T232 277V126Q232 89 243 78T290 67H301V0H25V67H57Q75 67 86 69T103 78T111 96T114 126V343Q114 361 112 372T103 390T86 399T57 402H25V469H232V390Z"/>
<glyph unicode="n" horiz-adv-x="650" d="M25 67H57Q75 67 86 69T103 78T111 96T114 126V343Q114 361 112 372T103 390T86 399T57 402H25V469H234V387Q257 414 277 433T318 463T358 479T403 484Q435 484 465 473T515 443Q534 424 541 395T549 311V126Q549 108 551 97T560 79T577 70T606 67H634V0H352V67H372Q390 67 401 69T418 78T426 96T429 126V311Q429 342 426 356T415 381Q394 407 355 407Q329 407 305 394T263 358Q246 336 240 313T234 247V126Q234 108 236 97T245 79T262 70T291 67H311V0H25V67Z"/>
<glyph unicode="o" horiz-adv-x="586" d="M293 486Q353 486 402 468T485 417T539 338T558 234Q558 178 539 132T486 52T403 1T295 -17Q233 -17 184 1T100 52T47 132T28 238Q28 293 47 339T101 417T185 468T293 486ZM293 416Q164 416 164 237Q164 53 293 53Q422 53 422 234Q422 416 293 416Z"/>
<glyph unicode="p" horiz-adv-x="621" d="M15 469H217V387Q232 414 248 432T282 462T323 478T374 483Q472 483 525 418T579 233Q579 114 526 49T374 -17Q345 -17 323 -12T283 4T248 33T217 78V-88Q217 -124 228 -135T274 -147H318V-214H10V-147H40Q75 -147 86 -136T97 -88V343Q97 361 95 372T86 390T69 399T40 402H15V469ZM334 403Q277 403 247 360T217 236Q217 155 247 112T334 69Q388 69 415 110T443 233Q443 403 334 403Z"/>
<glyph unicode="q" horiz-adv-x="626" d="M615 -214H306V-147H350Q385 -147 396 -136T407 -88V78Q392 51 376 33T342 4T301 -12T250 -17Q152 -17 99 48T45 233Q45 352 98 417T250 483Q278 483 300 478T341 462T376 433T407 387V469H609V402H584Q566 402 555 400T538 391T530 373T527 343V-88Q527 -124 538 -135T584 -147H615V-214ZM290 403Q236 403 209 362T181 239Q181 69 290 69Q347 69 377 112T407 236Q407 317 377 360T290 403Z"/>
<glyph unicode="r" horiz-adv-x="492" d="M341 0H25V67H57Q92 67 103 78T114 126V343Q114 361 112 372T103 390T86 399T57 402H25V469H234V399Q263 444 291 463T361 482Q386 482 408 474T445 452T470 418T479 375Q479 338 457 315T399 291Q368 291 350 307T331 352Q331 378 345 393T391 419Q377 424 366 426T347 429Q327 429 304 415T266 377Q251 354 243 322T234 253V126Q234 90 245 79T291 67H341V0Z"/>
<glyph unicode="s" horiz-adv-x="492" d="M30 186H103Q116 140 132 116T179 74Q214 55 260 55Q298 55 321 71T344 115Q344 138 325 152T261 177L188 194Q35 231 35 339Q35 372 48 399T85 445T143 475T218 486Q258 486 290 476T360 439L381 475H438V302H371Q360 334 349 351T320 383Q303 397 276 406T224 415Q190 415 170 401T150 361Q150 323 206 310L295 289Q384 268 423 232T463 135Q463 64 413 24T273 -17Q250 -17 232 -15T197 -7T160 9T114 36L96 -6H30V186Z"/>
<glyph unicode="t" horiz-adv-x="402" d="M15 400V465Q51 473 75 485T114 519T138 572T151 653H214V469H343V400H212V133Q212 100 219 87T247 74Q281 74 287 110Q289 119 290 126T291 144T292 173T293 221H358V186Q358 132 354 102T336 46Q305 -17 217 -17Q147 -17 115 32Q102 52 97 77T92 147V400H15Z"/>
<glyph unicode="u" horiz-adv-x="645" d="M25 469H225V158Q225 126 228 112T239 87Q260 61 299 61Q325 61 349 74T391 110Q407 131 413 155T419 221V343Q419 379 408 390T362 402H317V469H539V126Q539 89 550 78T597 67H623V0H419V82Q396 55 376 36T336 6T296 -10T251 -15Q219 -15 189 -4T139 26Q120 45 113 74T105 158V343Q105 379 94 390T48 402H25V469Z"/>
<glyph unicode="v" horiz-adv-x="551" d="M87 352Q78 379 66 390T33 402H5V469H263V402H247Q226 402 217 397T208 377Q208 369 210 358T217 335L291 118L371 344Q377 360 377 377Q377 402 333 402H309V469H540V402H515Q477 402 455 342L335 0H208L87 352Z"/>
<glyph unicode="w" horiz-adv-x="819" d="M90 344Q79 379 67 390T31 402H10V469H256V402H232Q214 402 207 397T200 378Q200 372 201 363T208 338L276 109L360 342Q363 352 365 360T367 373Q367 390 358 396T322 402H303V469H543V402H514Q483 402 483 379Q483 373 484 365T489 348L568 103L641 328Q652 361 652 377Q652 402 620 402H595V469H801V402H780Q760 402 748 388T724 337L612 0H495L410 262L320 0H201L90 344Z"/>
<glyph unicode="x" horiz-adv-x="640" d="M5 67H30Q48 67 70 77T114 107L252 231L135 355Q110 381 90 391T45 402H25V469H311V402H290Q263 402 263 388Q263 383 266 379T277 365L334 303L394 359Q408 371 412 377T416 388Q416 402 383 402H362V469H613V402H593Q585 402 572 399T547 390Q536 385 528 378T497 352L388 252L515 120Q542 92 564 80T608 67H629V0H334V67H355Q393 67 393 81Q393 90 378 105L307 178L225 104Q214 95 211 90T207 81Q207 75 215 71T235 67H273V0H5V67Z"/>
<glyph unicode="y" horiz-adv-x="581" d="M101 342Q87 374 70 388T28 402H-2V469H285V402H251Q214 402 216 380Q216 368 222 356L314 140L396 347Q403 364 403 377Q403 402 359 402H332V469H572V402H550Q505 402 477 331L365 56Q333 -24 307 -76T254 -159T199 -202T134 -214Q104 -214 79 -205T35 -178T6 -139T-5 -89Q-5 -49 18 -25T77 0Q107 0 126 -18T146 -66Q146 -125 73 -125Q87 -139 97 -144T123 -149Q143 -149 159 -142T191 -118T221 -72T254 0L101 342Z"/>
<glyph unicode="z" horiz-adv-x="501" d="M20 73L322 402H218Q175 402 155 392T123 357Q120 350 118 343T115 325T112 299T110 262H40V469H460V394L162 67H248Q278 67 298 69T333 76T356 89T371 110Q375 118 377 126T382 148T386 179T390 224H460V0H20V73Z"/>
<glyph unicode="{" horiz-adv-x="382" d="M226 365Q226 340 223 322T214 290T196 265T166 242Q200 220 213 194T226 119V-37Q226 -67 228 -84T242 -109T277 -120T342 -122V-185Q316 -187 300 -187T266 -187Q218 -187 186 -180T135 -155T107 -110T98 -41V122Q98 165 86 185T42 212V272Q73 279 85 298T98 358V529Q98 569 106 596T135 640T188 664T269 671Q281 671 294 671T342 669V606Q334 607 327 607T317 607Q282 607 268 605T244 594Q238 589 235 585T230 574T227 555T226 522V365Z"/>
<glyph unicode="|" horiz-adv-x="500" d="M311 667V-167H189V667H311Z"/>
<glyph unicode="}" horiz-adv-x="382" d="M157 119Q157 144 160 162T169 194T187 219T217 242Q183 263 170 290T157 365V521Q157 542 156 555T154 575T148 587T138 595Q129 601 113 603T65 606H40V669Q66 670 83 670T117 671Q165 671 197 664T248 639T276 594T285 525V362Q285 319 297 299T340 272V211Q310 204 298 185T285 126V-45Q285 -86 277 -113T248 -156T195 -180T113 -187Q108 -187 103 -187T89 -187T70 -187T40 -185V-122Q48 -123 55 -123T65 -123Q83 -123 94 -123T114 -121T128 -117T139 -110Q145 -106 148 -102T153 -90T156 -71T157 -39V119Z"/>
<glyph unicode="~" horiz-adv-x="667" d="M93 613Q121 679 156 709T236 740Q256 740 280 733T347 705Q368 696 381 690T403 681T420 677T435 676Q458 676 476 691T514 743L575 693Q544 625 511 595T432 565Q423 565 414 566T394 571T366 582T325 600Q303 609 289 615T265 624T248 629T232 630Q209 630 192 616T154 564L93 613Z"/>
<glyph unicode=" " horiz-adv-x="250"/>
<glyph unicode="¡" horiz-adv-x="308" d="M154 484Q186 484 207 462T229 408Q229 379 207 358T155 336Q124 336 103 357T81 410Q81 441 102 462T154 484ZM185 277Q188 243 189 219T193 174T197 129T204 75Q209 36 212 -2T221 -79Q223 -97 224 -114T226 -142Q226 -220 153 -220Q79 -220 79 -142Q79 -133 79 -127T80 -107T85 -72T93 -9Q100 43 104 80T112 148T118 208T124 277H185Z"/>
<glyph unicode="¢" horiz-adv-x="621" d="M205 21Q162 46 141 66T106 114Q90 143 82 178T74 249Q74 306 93 353T146 433T229 485T336 504Q350 504 362 503T386 500T411 493T442 482L487 569H546L486 453Q512 424 520 405T529 361Q529 322 507 298T449 274Q435 274 426 277T402 290L300 93Q322 90 339 90Q364 90 386 101T421 131Q432 146 437 163T448 212H526Q523 184 519 164T510 127T498 97T481 70Q455 37 413 19T320 0Q310 0 292 1T255 5L202 -99H144L205 21ZM388 375Q395 382 399 386T409 393T420 398T436 402Q407 423 389 430T344 438Q279 438 244 390T209 254Q209 228 211 209T218 174T232 144T254 116L388 375Z"/>
<glyph unicode="£" horiz-adv-x="621" d="M45 66Q77 90 97 111T129 154T144 204T147 270H49V329H129Q117 352 110 369T98 401T91 428T89 454Q89 491 106 522T156 575T231 609T328 622Q379 622 422 611T497 579T547 532T565 472Q565 434 542 410T481 386Q449 386 428 405T406 453Q406 475 417 489T458 515Q442 528 430 536T405 550T379 557T350 559Q299 559 267 533T235 465Q235 456 236 448T240 430T248 405T262 371L278 329H404V270H286Q284 226 262 190T200 129L204 122Q237 137 255 142T291 148Q311 148 338 142T391 123Q411 114 423 109T442 102T454 99T465 98Q494 98 506 119T523 195H577Q577 169 577 152T575 123T571 101T566 82Q549 34 516 9T435 -17Q423 -17 412 -16T388 -10T359 0T319 17Q282 34 257 40T209 47Q192 47 177 44T147 34T117 15T82 -14L45 66Z"/>
<glyph unicode="¤" horiz-adv-x="667" d="M131 233Q85 298 85 373Q85 411 96 443T132 511L30 612L91 673L192 572Q229 597 262 607T334 618Q372 618 405 608T473 573L573 673L634 612L534 512Q560 474 571 442T582 372Q582 334 572 302T536 234L636 133L576 72L476 172Q441 148 407 137T334 125Q297 125 264 136T192 172L92 72L31 133L131 233ZM335 518Q304 518 277 507T230 475T199 429T187 371Q187 341 198 315T230 268T276 237T333 225Q363 225 390 236T437 268T468 314T480 371Q480 401 469 428T437 475T391 506T335 518Z"/>
<glyph unicode="¥" horiz-adv-x="723" d="M122 203V261H293L255 316H116V374H216L149 474Q126 508 106 522T61 536H31V605H351V536H307Q285 536 277 532T268 516Q268 505 280 487L381 345L489 492Q501 507 501 519Q501 536 469 536H416V605H696V536H675Q651 536 637 528T605 496L514 374H607V316H472L431 261H601V203H425V125Q425 106 427 95T435 78T452 71T484 69H537V0H186V69H239Q259 69 270 70T288 78T296 95T298 125V203H122Z"/>
<glyph unicode="¦" horiz-adv-x="500" d="M311 667V322H189V667H311ZM311 153V-167H189V153H311Z"/>
<glyph unicode="§" horiz-adv-x="591" d="M399 412Q468 386 504 346T541 254Q541 226 529 200T496 153Q482 139 466 130T418 104Q443 88 460 73T489 43T504 10T509 -29Q509 -70 492 -104T445 -162T372 -200T279 -214Q235 -214 198 -204T132 -176T87 -134T71 -83Q71 -51 92 -29T145 -6Q175 -6 194 -23T214 -68Q214 -91 205 -103T168 -130Q185 -138 198 -143T222 -151T244 -155T268 -157Q326 -157 367 -131Q408 -105 408 -52Q408 -17 387 4T311 44L231 72Q182 89 152 103T100 133Q74 152 60 181T45 245Q45 297 74 333T170 396Q123 430 105 458T86 526Q86 562 102 591T147 642T216 675T306 687Q347 687 381 679T441 655T480 618T494 571Q494 539 475 519T426 498Q399 498 379 516T359 559Q359 576 366 589T392 616Q363 627 345 630T304 634Q249 634 215 610T181 548Q181 532 185 520T201 498T230 478T276 458L399 412ZM348 139Q399 149 422 169T445 224Q445 256 427 277T366 313L239 360Q139 346 139 274Q139 246 154 229T207 196L348 139Z"/>
<glyph unicode="¨" horiz-adv-x="500" d="M346 699Q374 699 394 679T414 630Q414 601 394 581T344 560Q315 560 295 580T275 630Q275 659 296 679T346 699ZM157 699Q185 699 205 679T225 630Q225 601 205 581T155 560Q126 560 106 580T86 630Q86 659 107 679T157 699Z"/>
<glyph unicode="©" horiz-adv-x="791" d="M562 294Q560 273 557 257T550 228T539 205T524 184Q481 132 400 132Q357 132 321 147T259 189T218 253T203 334Q203 376 218 412T259 476T320 518T397 534Q412 534 425 533T450 527T475 515T505 497L516 529H562V370H513Q508 402 502 418T482 449Q454 482 408 482Q357 482 328 442T299 331Q299 263 327 227T409 190Q451 190 474 214T508 294H562ZM402 681Q474 681 538 654T651 579T728 468T756 333Q756 261 728 198T651 88T537 14T397 -14Q322 -14 257 13T142 88T65 198T36 333Q36 406 64 469T142 580T258 654T402 681ZM401 625Q338 625 283 603T188 541T124 448T101 333Q101 273 124 220T188 128T282 65T397 42Q458 42 511 65T605 127T668 220T691 333Q691 393 668 446T606 538T513 601T401 625Z"/>
<glyph unicode="ª" horiz-adv-x="363" d="M362 438Q361 401 359 386T352 358Q334 318 281 318Q253 318 238 327T212 359Q190 336 168 327T113 317Q71 317 45 339T19 396Q19 416 26 431T49 457T91 478T158 496Q187 503 198 512T210 541Q210 584 148 584Q118 584 99 572Q134 566 134 536Q134 519 121 508T87 496Q64 496 49 509T34 545Q34 580 68 601T159 622Q191 622 217 617T258 600Q268 593 274 586T283 570T288 547T290 513V390Q290 373 301 373Q310 373 313 384T317 426V438H362ZM208 471Q198 466 192 464T182 459Q174 456 166 453T150 447Q110 433 110 404Q110 373 145 373Q175 373 191 391T208 443V471Z"/>
<glyph unicode="«" horiz-adv-x="482" d="M113 129Q88 164 74 193T60 238Q60 252 74 281T113 346L152 403H224L196 336Q184 309 176 280T167 237Q167 225 175 196T196 139L224 72H152L113 129ZM308 129Q284 164 270 193T255 238Q255 252 269 281T308 346L347 403H419L391 336Q379 309 371 280T362 237Q362 225 370 196T391 139L419 72H347L308 129Z"/>
<glyph unicode="¬" horiz-adv-x="500" d="M348 179H33V286H466V0H348V179Z"/>
<glyph unicode="­" horiz-adv-x="269" d="M0 290H269V184H0V290Z"/>
<glyph unicode="®" horiz-adv-x="791" d="M409 143H199V192H224Q248 192 253 196T258 223V443Q258 465 253 469T224 474H199V523H429Q573 523 573 430Q573 354 479 336Q512 328 525 310T540 255L542 222Q544 204 546 199T556 193Q565 193 567 204T570 256H613V242Q613 181 595 157T532 132Q497 132 477 150T455 204L453 247Q452 269 448 283T435 305T409 316T368 320H345V223Q345 201 350 197T379 192H409V143ZM408 369Q448 369 465 381T483 421Q483 451 467 462T407 474H345V369H408ZM402 681Q474 681 538 654T651 579T728 468T756 333Q756 261 728 198T651 88T537 14T397 -14Q322 -14 257 13T142 88T65 198T36 333Q36 406 64 469T142 580T258 654T402 681ZM401 625Q338 625 283 603T188 541T124 448T101 333Q101 273 124 220T188 128T282 65T397 42Q458 42 511 65T605 127T668 220T691 333Q691 393 668 446T606 538T513 601T401 625Z"/>
<glyph unicode="¯" horiz-adv-x="500" d="M101 670H399V588H101V670Z"/>
<glyph unicode="°" horiz-adv-x="400" d="M203 686Q234 686 261 674T307 642T338 593T350 533Q350 501 339 474T307 426T259 393T200 381Q168 381 141 393T94 425T62 474T50 534Q50 566 62 593T94 641T143 674T203 686ZM202 629Q161 629 134 602T106 533Q106 513 113 496T134 466T164 446T200 438Q219 438 236 445T266 466T286 496T293 534Q293 553 286 570T267 601T238 621T202 629Z"/>
<glyph unicode="±" horiz-adv-x="549" d="M535 55V0H11V55H535ZM302 423H539V368H302V129H247V368H10V423H247V662H302V423Z"/>
<glyph unicode="²" horiz-adv-x="392" d="M30 264Q29 297 35 321T59 365T106 402T181 437Q218 451 233 467T248 510Q248 539 225 557T163 576Q134 576 116 566T84 533Q99 536 108 536Q125 536 137 526T149 498Q149 479 135 467T99 455Q73 455 56 471T39 513Q39 534 50 553T81 585T128 607T185 615Q256 615 299 585T343 505Q343 468 319 442Q305 427 283 418T221 400Q190 394 168 388T130 374T103 354T83 328Q100 337 110 340T133 343Q142 343 166 340T217 332Q242 328 252 327T267 325Q292 325 302 337T317 388H353Q353 352 349 332T331 295Q307 257 258 257Q245 257 234 258T209 264T178 275T136 294Q120 302 101 302Q85 302 78 294T66 264H30Z"/>
<glyph unicode="³" horiz-adv-x="392" d="M154 468Q183 469 196 470T221 476Q252 490 252 522Q252 548 231 563T175 579Q155 579 142 575T106 558Q144 552 144 523Q144 505 131 494T96 482Q73 482 58 495T43 528Q43 546 54 562T86 590T134 608T195 615Q262 615 302 591T342 527Q342 510 334 496T312 472Q301 464 288 460T248 449Q278 443 293 438T322 422Q336 411 344 395T353 361Q353 313 306 285T180 257Q148 257 121 264T73 284T42 314T30 352Q30 375 46 390T86 405Q109 405 122 394T136 363Q136 324 84 322Q104 308 122 302T166 296Q208 296 233 314T258 361Q258 380 249 395T224 418Q211 423 196 425T154 427V468Z"/>
<glyph unicode="´" horiz-adv-x="500" d="M283 683Q307 709 324 719T359 730Q382 730 397 715T412 677Q412 659 401 646T361 619L203 540H148L283 683Z"/>
<glyph unicode="µ" horiz-adv-x="636" d="M407 82Q384 55 364 36T324 6T284 -10T239 -15Q222 -15 205 -12T174 -3Q175 -21 176 -31T181 -50T191 -67T209 -89Q217 -99 222 -115T228 -147Q228 -180 208 -203T160 -227Q125 -227 107 -198T88 -114Q88 -102 88 -95T89 -77T93 -51T100 -7Q101 -5 103 13T108 52Q93 83 93 158V343Q93 379 82 390T36 402H13V469H213V158Q213 127 216 113T227 88Q248 62 287 62Q313 62 337 75T379 111Q395 131 401 155T407 221V343Q407 379 396 390T350 402H305V469H527V126Q527 89 538 78T585 67H611V0H407V82Z"/>
<glyph unicode="¶" horiz-adv-x="602" d="M223 320Q218 319 215 319T210 319Q170 319 137 331T80 366T43 420T30 490Q30 541 52 580T113 640Q137 653 175 660T258 667H571V581H502V-94H407V581H318V-94H223V320Z"/>
<glyph unicode="·" horiz-adv-x="308" d="M153 309Q184 309 205 288T227 235Q227 204 206 183T154 161Q122 161 101 183T79 237Q79 266 101 287T153 309Z"/>
<glyph unicode="¸" horiz-adv-x="499" d="M139 -132Q200 -171 252 -171Q295 -171 295 -136Q295 -96 252 -96Q239 -96 221 -99V0H263V-56Q285 -53 304 -53Q339 -53 361 -76T384 -136Q384 -178 355 -202T276 -227Q241 -227 204 -217T116 -182L139 -132Z"/>
<glyph unicode="¹" horiz-adv-x="392" d="M89 307H117Q149 307 157 312T166 340V518H89V557Q114 559 131 562T160 570T180 585T198 609H249V339Q249 317 256 312T292 307H324V267H89V307Z"/>
<glyph unicode="º" horiz-adv-x="376" d="M188 621Q226 621 257 610T311 580T346 532T358 469Q358 435 346 408T312 360T258 329T189 318Q111 318 65 359T18 472Q18 505 30 532T65 579T119 610T188 621ZM188 573Q110 573 110 471Q110 366 188 366Q266 366 266 469Q266 573 188 573Z"/>
<glyph unicode="»" horiz-adv-x="482" d="M60 72L88 139Q100 168 108 196T117 237Q117 250 109 278T88 336L60 403H132L171 346Q196 311 210 282T224 237Q224 223 210 194T171 129L132 72H60ZM255 72L283 139Q295 168 303 196T312 237Q312 250 304 278T283 336L255 403H327L366 346Q391 310 405 281T419 237Q419 223 405 194T366 129L327 72H255Z"/>
<glyph unicode="¼" horiz-adv-x="948" d="M89 307H117Q149 307 157 312T166 340V518H89V557Q114 559 131 562T160 570T180 585T198 609H249V339Q249 317 256 312T292 307H324V267H89V307ZM646 622H725L304 -17H228L646 622ZM696 40H718Q749 40 757 45T765 70V94H576V136L784 342H844V142H918V94H844V70Q844 53 852 47T882 40H918V0H696V40ZM767 264L644 142H765L767 264Z"/>
<glyph unicode="½" horiz-adv-x="948" d="M89 307H117Q149 307 157 312T166 340V518H89V557Q114 559 131 562T160 570T180 585T198 609H249V339Q249 317 256 312T292 307H324V267H89V307ZM646 622H725L304 -17H228L646 622ZM586 -2Q585 1 585 4T585 8Q585 38 592 60T616 101T663 136T736 170Q774 184 789 200T804 243Q804 272 780 290T718 309Q690 309 672 299T640 266Q653 269 663 269Q680 269 692 259T704 231Q704 212 690 200T654 188Q628 188 611 204T594 246Q594 267 605 286T636 318T683 340T740 348Q812 348 855 318T899 237Q899 220 893 203T875 175Q861 160 840 151T777 134Q745 128 723 121T686 106T659 88T639 62Q656 70 666 73T688 76Q698 76 722 73T772 65Q797 61 807 60T822 58Q848 58 858 70T873 121H908Q908 85 904 66T887 28Q861 -9 814 -9Q801 -9 790 -8T765 -2T734 9T692 27Q684 31 675 33T657 35Q640 35 633 27T622 -2H586Z"/>
<glyph unicode="¾" horiz-adv-x="948" d="M154 468Q183 469 196 470T221 476Q252 490 252 522Q252 548 231 563T175 579Q155 579 142 575T106 558Q144 552 144 523Q144 505 131 494T96 482Q73 482 58 495T43 528Q43 546 54 562T86 590T134 608T195 615Q262 615 302 591T342 527Q342 510 334 496T312 472Q301 464 288 460T248 449Q278 443 293 438T322 422Q336 411 344 395T353 361Q353 313 306 285T180 257Q148 257 121 264T73 284T42 314T30 352Q30 375 46 390T86 405Q109 405 122 394T136 363Q136 324 84 322Q104 308 122 302T166 296Q208 296 233 314T258 361Q258 380 249 395T224 418Q211 423 196 425T154 427V468ZM646 622H725L305 -17H229L646 622ZM697 40H719Q750 40 758 45T766 70V94H576V136L785 342H845V142H918V94H845V70Q845 53 853 47T883 40H918V0H697V40ZM768 264L644 142H766L768 264Z"/>
<glyph unicode="¿" horiz-adv-x="497" d="M275 484Q307 484 328 462T350 408Q350 379 328 358T275 336Q245 336 224 357T202 410Q202 441 223 462T275 484ZM305 277Q306 264 306 256T306 240Q306 217 303 200T291 165T267 128T229 83Q208 60 195 45T175 16T165 -9T162 -37Q162 -86 196 -116T286 -147Q335 -147 371 -116Q390 -101 397 -83T409 -31Q391 -45 379 -50T353 -55Q326 -55 308 -37T290 10Q290 42 314 64T373 87Q417 87 446 52T475 -36Q475 -76 459 -110T412 -168T341 -206T250 -220Q200 -220 158 -207T85 -169T37 -112T20 -38Q20 26 69 74Q78 83 84 89T100 102T127 122T175 157Q194 172 206 184T226 210T237 240T242 277H305Z"/>
<glyph unicode="À" horiz-adv-x="715" d="M-15 76H6Q25 76 39 79T63 89T80 109T94 140L280 667H421L619 140Q627 118 633 105T648 86T667 78T699 76H719V0H375V76H429Q461 76 472 81T484 101Q484 106 482 115T475 134L447 212H227L197 129Q189 106 189 98Q189 84 199 80T243 76H295V0H-15V76ZM333 522L254 290H419L333 522ZM257 772Q214 788 214 822Q214 841 227 854T260 868Q272 868 283 862T311 842L449 721H395L257 772Z"/>
<glyph unicode="Á" horiz-adv-x="715" d="M-15 76H6Q25 76 39 79T63 89T80 109T94 140L280 667H421L619 140Q627 118 633 105T648 86T667 78T699 76H719V0H375V76H429Q461 76 472 81T484 101Q484 106 482 115T475 134L447 212H227L197 129Q189 106 189 98Q189 84 199 80T243 76H295V0H-15V76ZM333 522L254 290H419L333 522ZM267 721L405 842Q422 857 433 862T456 868Q475 868 488 855T502 822Q502 806 491 793T459 772L321 721H267Z"/>
<glyph unicode="Â" horiz-adv-x="715" d="M-15 76H6Q25 76 39 79T63 89T80 109T94 140L280 667H421L619 140Q627 118 633 105T648 86T667 78T699 76H719V0H375V76H429Q461 76 472 81T484 101Q484 106 482 115T475 134L447 212H227L197 129Q189 106 189 98Q189 84 199 80T243 76H295V0H-15V76ZM333 522L254 290H419L333 522ZM299 858H415L512 721H465L357 776L250 721H203L299 858Z"/>
<glyph unicode="Ã" horiz-adv-x="715" d="M-15 76H6Q25 76 39 79T63 89T80 109T94 140L280 667H421L619 140Q627 118 633 105T648 86T667 78T699 76H719V0H375V76H429Q461 76 472 81T484 101Q484 106 482 115T475 134L447 212H227L197 129Q189 106 189 98Q189 84 199 80T243 76H295V0H-15V76ZM333 522L254 290H419L333 522ZM207 720Q221 786 245 813T313 841Q330 841 350 836L406 821Q411 819 417 819T427 818Q444 818 453 826T471 858H508Q500 822 493 804T471 769Q444 737 403 737Q396 737 388 738T372 741L317 756Q297 761 287 761Q256 761 244 720H207Z"/>
<glyph unicode="Ä" horiz-adv-x="715" d="M-15 76H6Q25 76 39 79T63 89T80 109T94 140L280 667H421L619 140Q627 118 633 105T648 86T667 78T699 76H719V0H375V76H429Q461 76 472 81T484 101Q484 106 482 115T475 134L447 212H227L197 129Q189 106 189 98Q189 84 199 80T243 76H295V0H-15V76ZM333 522L254 290H419L333 522ZM261 858Q288 858 308 838T329 789Q329 762 309 742T262 722Q233 722 213 742T193 791Q193 817 213 837T261 858ZM447 858Q474 858 494 838T515 789Q515 762 495 742T448 722Q419 722 399 742T379 791Q379 817 399 837T447 858Z"/>
<glyph unicode="Å" horiz-adv-x="715" d="M-15 76H6Q25 76 39 79T63 89T80 109T94 140L280 667H421L619 140Q627 118 633 105T648 86T667 78T699 76H719V0H375V76H429Q461 76 472 81T484 101Q484 106 482 115T475 134L447 212H227L197 129Q189 106 189 98Q189 84 199 80T243 76H295V0H-15V76ZM333 522L254 290H419L333 522ZM349 933Q371 933 391 925T425 902T448 868T457 826Q457 804 449 784T425 749T391 725T350 716Q327 716 308 725T273 749T250 784T241 828Q241 850 249 869T273 902T307 924T349 933ZM349 874Q329 874 315 860T300 826Q300 805 314 791T350 776Q370 776 384 790T398 825Q398 845 384 859T349 874Z"/>
<glyph unicode="Æ" horiz-adv-x="1097" d="M218 141Q207 118 203 108T198 93Q198 76 241 76H288V0H-15V76H1Q31 76 57 93T101 140L311 529Q320 546 323 554T326 568Q326 582 314 586T267 591H220V667H1021V402H945Q943 456 937 486T917 541Q901 569 869 580T769 591H610V386H647Q685 386 706 393T736 415Q739 421 741 426T744 440T748 464T753 507H829V174H753Q750 220 745 247T730 288T700 306T649 310H610V76H784Q829 76 857 84T903 115T930 178T945 283H1021V0H360V76H407Q429 76 442 78T462 86T471 104T473 138V234H267L218 141ZM473 591H453L307 310H473V591Z"/>
<glyph unicode="Ç" horiz-adv-x="705" d="M366 -59Q378 -57 388 -56T408 -55Q442 -55 465 -78T489 -137Q489 -178 460 -202T379 -227Q344 -227 307 -217T219 -182L242 -132Q303 -171 355 -171Q398 -171 398 -136Q398 -119 387 -109T355 -98Q342 -98 324 -101V-16Q259 -7 206 22T115 98T55 204T34 334Q34 408 59 472T130 584T235 659T366 686Q394 686 417 683T463 672T508 651T562 617L582 677H653V404H577Q572 432 567 452T556 489T542 519T523 544Q497 573 463 589T387 605Q341 605 305 586T243 532T204 445T190 329Q190 206 240 141Q266 108 304 90T388 71Q464 71 512 122Q523 134 531 146T545 175T557 211T568 258H653Q648 222 643 195T631 146T613 106T588 71Q550 25 495 1T376 -20Q374 -20 372 -20T366 -19V-59Z"/>
<glyph unicode="È" horiz-adv-x="750" d="M25 76H64Q86 76 99 78T118 86T127 104T129 138V529Q129 550 127 562T119 581T99 589T64 591H25V667H680V402H604Q602 455 596 485T576 541Q561 569 529 580T429 591H269V386H307Q345 386 366 393T395 415Q398 421 400 426T404 440T408 464T413 507H489V174H413Q410 220 405 247T389 288T359 306T308 310H269V76H444Q489 76 517 84T563 114T589 177T604 283H680V0H25V76ZM275 772Q232 788 232 822Q232 841 245 854T278 868Q290 868 301 863T329 842L466 721H412L275 772Z"/>
<glyph unicode="É" horiz-adv-x="750" d="M25 76H64Q86 76 99 78T118 86T127 104T129 138V529Q129 550 127 562T119 581T99 589T64 591H25V667H680V402H604Q602 455 596 485T576 541Q561 569 529 580T429 591H269V386H307Q345 386 366 393T395 415Q398 421 400 426T404 440T408 464T413 507H489V174H413Q410 220 405 247T389 288T359 306T308 310H269V76H444Q489 76 517 84T563 114T589 177T604 283H680V0H25V76ZM285 721L423 842Q440 857 450 862T474 868Q493 868 506 855T520 822Q520 788 477 772L339 721H285Z"/>
<glyph unicode="Ê" horiz-adv-x="750" d="M25 76H64Q86 76 99 78T118 86T127 104T129 138V529Q129 550 127 562T119 581T99 589T64 591H25V667H680V402H604Q602 455 596 485T576 541Q561 569 529 580T429 591H269V386H307Q345 386 366 393T395 415Q398 421 400 426T404 440T408 464T413 507H489V174H413Q410 220 405 247T389 288T359 306T308 310H269V76H444Q489 76 517 84T563 114T589 177T604 283H680V0H25V76ZM317 858H433L529 721H483L375 776L267 721H221L317 858Z"/>
<glyph unicode="Ë" horiz-adv-x="750" d="M25 76H64Q86 76 99 78T118 86T127 104T129 138V529Q129 550 127 562T119 581T99 589T64 591H25V667H680V402H604Q602 455 596 485T576 541Q561 569 529 580T429 591H269V386H307Q345 386 366 393T395 415Q398 421 400 426T404 440T408 464T413 507H489V174H413Q410 220 405 247T389 288T359 306T308 310H269V76H444Q489 76 517 84T563 114T589 177T604 283H680V0H25V76ZM282 858Q309 858 329 838T350 789Q350 762 330 742T283 722Q254 722 234 742T214 791Q214 817 234 837T282 858ZM468 858Q495 858 515 838T536 789Q536 762 516 742T469 722Q440 722 420 742T400 791Q400 817 420 837T468 858Z"/>
<glyph unicode="Ì" horiz-adv-x="412" d="M27 76H69Q91 76 104 78T124 86T133 104T135 137V530Q135 551 133 563T125 581T105 589T69 591H27V667H386V591H343Q320 591 307 589T288 581T279 563T277 530V137Q277 116 279 104T287 86T307 78T343 76H386V0H27V76ZM106 772Q63 788 63 822Q63 841 76 854T109 868Q122 868 132 862T160 842L298 721H244L106 772Z"/>
<glyph unicode="Í" horiz-adv-x="412" d="M27 76H69Q91 76 104 78T124 86T133 104T135 137V530Q135 551 133 563T125 581T105 589T69 591H27V667H386V591H343Q320 591 307 589T288 581T279 563T277 530V137Q277 116 279 104T287 86T307 78T343 76H386V0H27V76ZM117 721L254 842Q271 857 282 862T305 868Q324 868 337 855T351 822Q351 788 308 772L171 721H117Z"/>
<glyph unicode="Î" horiz-adv-x="412" d="M27 76H69Q91 76 104 78T124 86T133 104T135 137V530Q135 551 133 563T125 581T105 589T69 591H27V667H386V591H343Q320 591 307 589T288 581T279 563T277 530V137Q277 116 279 104T287 86T307 78T343 76H386V0H27V76ZM149 858H264L361 721H314L206 776L99 721H52L149 858Z"/>
<glyph unicode="Ï" horiz-adv-x="412" d="M27 76H69Q91 76 104 78T124 86T133 104T135 137V530Q135 551 133 563T125 581T105 589T69 591H27V667H386V591H343Q320 591 307 589T288 581T279 563T277 530V137Q277 116 279 104T287 86T307 78T343 76H386V0H27V76ZM117 858Q144 858 164 838T185 789Q185 762 165 742T118 722Q89 722 69 742T49 791Q49 817 69 837T117 858ZM296 858Q323 858 343 838T364 789Q364 762 344 742T297 722Q268 722 248 742T228 791Q228 817 248 837T296 858Z"/>
<glyph unicode="Ð" horiz-adv-x="809" d="M26 76H65Q87 76 100 78T120 86T129 104T131 137V308H0V377H131V530Q131 551 129 563T121 581T101 589T65 591H26V667H405Q580 667 669 583T759 333Q759 168 670 84T405 0H26V76ZM358 76Q397 76 425 78T476 87T513 104T543 129Q572 162 587 215T603 333Q603 399 588 452T543 538Q529 553 514 563T476 579T426 588T358 591H271V377H439V308H271V76H358Z"/>
<glyph unicode="Ñ" horiz-adv-x="814" d="M557 0L227 543V137Q227 116 229 104T237 86T257 78T293 76H338V0H10V76H56Q78 76 91 78T111 86T120 104T122 137V530Q122 551 120 563T112 581T92 589T56 591H14V667H298L593 183V530Q593 551 591 563T583 581T563 589T527 591H481V667H796V591H764Q741 591 728 589T709 581T700 563T698 530V0H557ZM256 720Q271 786 295 813T363 841Q381 841 399 836L456 821Q466 818 477 818Q494 818 503 826T520 858H558Q550 822 543 804T521 769Q492 737 453 737Q445 737 438 738T422 741L367 756Q347 761 336 761Q306 761 294 720H256Z"/>
<glyph unicode="Ò" horiz-adv-x="804" d="M403 686Q485 686 552 661T668 589T742 478T769 334Q769 255 743 190T668 79T553 7T404 -19Q320 -19 252 6T136 78T62 191T36 339Q36 416 63 480T138 589T254 660T403 686ZM403 607Q303 607 248 536T192 338Q192 269 204 223T244 138Q301 60 403 60Q503 60 558 131T613 334Q613 398 601 446T561 529Q504 607 403 607ZM302 772Q259 788 259 822Q259 841 272 854T305 868Q318 868 329 863T357 842L494 721H440L302 772Z"/>
<glyph unicode="Ó" horiz-adv-x="804" d="M403 686Q485 686 552 661T668 589T742 478T769 334Q769 255 743 190T668 79T553 7T404 -19Q320 -19 252 6T136 78T62 191T36 339Q36 416 63 480T138 589T254 660T403 686ZM403 607Q303 607 248 536T192 338Q192 269 204 223T244 138Q301 60 403 60Q503 60 558 131T613 334Q613 398 601 446T561 529Q504 607 403 607ZM313 721L450 842Q467 857 478 862T501 868Q520 868 533 855T547 822Q547 788 504 772L367 721H313Z"/>
<glyph unicode="Ô" horiz-adv-x="804" d="M403 686Q485 686 552 661T668 589T742 478T769 334Q769 255 743 190T668 79T553 7T404 -19Q320 -19 252 6T136 78T62 191T36 339Q36 416 63 480T138 589T254 660T403 686ZM403 607Q303 607 248 536T192 338Q192 269 204 223T244 138Q301 60 403 60Q503 60 558 131T613 334Q613 398 601 446T561 529Q504 607 403 607ZM345 858H460L557 721H510L403 776L295 721H249L345 858Z"/>
<glyph unicode="Õ" horiz-adv-x="804" d="M403 686Q485 686 552 661T668 589T742 478T769 334Q769 255 743 190T668 79T553 7T404 -19Q320 -19 252 6T136 78T62 191T36 339Q36 416 63 480T138 589T254 660T403 686ZM403 607Q303 607 248 536T192 338Q192 269 204 223T244 138Q301 60 403 60Q503 60 558 131T613 334Q613 398 601 446T561 529Q504 607 403 607ZM252 720Q266 786 290 813T358 841Q375 841 395 836L451 821Q463 818 472 818Q489 818 498 826T516 858H554Q546 822 538 804T516 769Q489 737 448 737Q441 737 433 738T417 741L362 756Q342 761 332 761Q302 761 290 720H252Z"/>
<glyph unicode="Ö" horiz-adv-x="804" d="M402 686Q484 686 551 661T667 589T741 478T768 334Q768 255 742 190T667 79T552 7T403 -19Q319 -19 251 6T135 78T61 191T35 339Q35 416 62 480T137 589T253 660T402 686ZM402 607Q302 607 247 536T191 338Q191 269 203 223T243 138Q300 60 402 60Q502 60 557 131T612 334Q612 398 600 446T560 529Q503 607 402 607ZM305 858Q332 858 352 838T373 789Q373 762 353 742T306 722Q277 722 257 742T237 791Q237 817 257 837T305 858ZM491 858Q518 858 538 838T559 789Q559 762 539 742T492 722Q463 722 443 742T423 791Q423 817 443 837T491 858Z"/>
<glyph unicode="×" horiz-adv-x="567" d="M219 313L76 456L140 521L284 377L427 521L491 456L348 313L491 170L427 105L284 249L140 105L76 170L219 313Z"/>
<glyph unicode="Ø" horiz-adv-x="804" d="M58 16L127 91Q116 106 108 117T94 137T84 155T74 174Q54 214 45 256T35 343Q35 417 63 481T143 594Q242 686 403 686Q436 686 462 683T513 673T564 654T622 622L694 700L742 653L674 580Q696 553 708 536T729 502Q748 466 758 423T768 332Q768 253 742 189T667 78T550 7T399 -19Q365 -19 338 -16T286 -6T235 14T178 47L105 -32L58 16ZM253 127Q289 90 322 75T402 60Q501 60 556 131T612 331Q612 353 611 371T607 406T599 442T586 486L253 127ZM548 543Q527 562 510 574T475 593T440 604T399 607Q351 607 313 589T247 536T206 453T191 344Q191 325 192 308T196 273T203 235T215 187L548 543Z"/>
<glyph unicode="Ù" horiz-adv-x="760" d="M20 667H366V591H323Q301 591 288 589T269 581T260 563T258 530V211Q258 169 265 148T289 111Q307 95 334 87T391 78Q423 78 452 87T501 114Q518 129 525 151T533 211V530Q533 551 531 563T523 581T503 589T467 591H428V667H737V591H707Q684 591 671 589T652 581T643 563T641 530V211Q641 157 626 115T581 46Q548 14 495 -3T378 -20Q260 -20 188 37Q151 66 135 107T118 211V530Q118 551 116 563T108 581T88 589T52 591H20V667ZM280 772Q236 788 236 822Q236 841 249 854T282 868Q295 868 306 862T334 842L471 721H417L280 772Z"/>
<glyph unicode="Ú" horiz-adv-x="760" d="M20 667H366V591H323Q301 591 288 589T269 581T260 563T258 530V211Q258 169 265 148T289 111Q307 95 334 87T391 78Q423 78 452 87T501 114Q518 129 525 151T533 211V530Q533 551 531 563T523 581T503 589T467 591H428V667H737V591H707Q684 591 671 589T652 581T643 563T641 530V211Q641 157 626 115T581 46Q548 14 495 -3T378 -20Q260 -20 188 37Q151 66 135 107T118 211V530Q118 551 116 563T108 581T88 589T52 591H20V667ZM290 721L427 842Q444 856 455 862T479 868Q498 868 511 855T525 822Q525 788 482 772L344 721H290Z"/>
<glyph unicode="Û" horiz-adv-x="760" d="M20 667H366V591H323Q301 591 288 589T269 581T260 563T258 530V211Q258 169 265 148T289 111Q307 95 334 87T391 78Q423 78 452 87T501 114Q518 129 525 151T533 211V530Q533 551 531 563T523 581T503 589T467 591H428V667H737V591H707Q684 591 671 589T652 581T643 563T641 530V211Q641 157 626 115T581 46Q548 14 495 -3T378 -20Q260 -20 188 37Q151 66 135 107T118 211V530Q118 551 116 563T108 581T88 589T52 591H20V667ZM322 858H438L534 721H487L380 776L272 721H226L322 858Z"/>
<glyph unicode="Ü" horiz-adv-x="760" d="M20 667H366V591H323Q301 591 288 589T269 581T260 563T258 530V211Q258 169 265 148T289 111Q307 95 334 87T391 78Q423 78 452 87T501 114Q518 129 525 151T533 211V530Q533 551 531 563T523 581T503 589T467 591H428V667H737V591H707Q684 591 671 589T652 581T643 563T641 530V211Q641 157 626 115T581 46Q548 14 495 -3T378 -20Q260 -20 188 37Q151 66 135 107T118 211V530Q118 551 116 563T108 581T88 589T52 591H20V667ZM286 858Q313 858 333 838T354 789Q354 762 334 742T287 722Q258 722 238 742T218 791Q218 817 238 837T286 858ZM472 858Q499 858 519 838T540 789Q540 762 520 742T473 722Q444 722 424 742T404 791Q404 817 424 837T472 858Z"/>
<glyph unicode="Ý" horiz-adv-x="730" d="M558 0H170V76H228Q250 76 263 78T283 86T292 104T294 137V279L129 523Q103 561 82 576T33 591H0V667H353V591H304Q280 591 271 586T261 569Q261 556 274 538L386 381L505 543Q518 561 518 572Q518 591 483 591H424V667H733V591H710Q684 591 668 582T632 547L434 279V137Q434 116 436 104T444 86T464 78T500 76H558V0ZM275 721L412 842Q429 856 440 862T464 868Q483 868 496 855T510 822Q510 788 467 772L329 721H275Z"/>
<glyph unicode="Þ" horiz-adv-x="680" d="M25 76H64Q86 76 99 78T118 86T127 104T129 137V530Q129 551 127 563T119 581T99 589T64 591H25V667H382V591H335Q312 591 299 589T280 581T271 563T269 530V523H375Q446 523 494 512T577 478Q611 455 629 419T647 337Q647 289 627 251T572 191Q555 182 537 176T493 165T436 159T362 157H269V137Q269 116 271 104T279 86T299 78T335 76H382V0H25V76ZM335 233Q390 233 419 239T468 260Q484 272 492 293T501 341Q501 377 485 402T438 437Q429 440 420 442T399 445T369 446T327 447H269V233H335Z"/>
<glyph unicode="ß" horiz-adv-x="626" d="M20 67H46Q64 67 75 69T92 78T100 96T103 126V470Q103 530 117 568T164 635Q193 661 231 672T320 684Q369 684 409 674T478 644T523 597T539 537Q539 493 511 465T416 412Q436 406 450 401T477 390T498 377T518 360Q572 306 572 208Q572 158 559 115T520 39Q476 -17 398 -17Q348 -17 318 5T279 73Q277 83 276 90T274 106T273 129T273 170H346Q347 136 349 115T355 81T368 65T388 60Q414 60 425 90T436 195Q436 248 430 281T407 334T359 360T280 368V439Q322 441 342 445T376 458Q391 468 400 487T409 530Q409 569 386 591T322 614Q296 614 274 604T241 576Q232 561 228 539T223 484V0H20V67Z"/>
<glyph unicode="à" horiz-adv-x="566" d="M563 175Q563 146 562 126T560 92T556 68T549 47Q521 -17 439 -17Q395 -17 371 -1T332 57Q314 36 297 22T260 -1T220 -14T172 -18Q108 -18 69 17T29 110Q29 148 48 179T104 227Q129 240 160 250T246 273Q295 285 314 302T333 353Q333 432 228 432Q198 432 178 426T135 403Q170 401 185 388T201 348Q201 320 182 303T132 285Q97 285 75 306T53 363Q53 391 67 413T106 452T166 477T246 486Q295 486 336 477T400 450Q415 439 424 428T439 401T447 363T449 308V100Q449 65 473 65Q490 65 496 86T503 164V175H563ZM329 245Q295 227 281 222L230 202Q198 189 181 169T163 122Q163 95 179 80T224 65Q270 65 298 95Q315 112 322 133T329 188V245ZM306 540L148 619Q120 633 109 646T97 677Q97 700 112 715T151 730Q168 730 184 720T226 683L361 540H306Z"/>
<glyph unicode="á" horiz-adv-x="566" d="M563 175Q563 146 562 126T560 92T556 68T549 47Q521 -17 439 -17Q395 -17 371 -1T332 57Q314 36 297 22T260 -1T220 -14T172 -18Q108 -18 69 17T29 110Q29 148 48 179T104 227Q129 240 160 250T246 273Q295 285 314 302T333 353Q333 432 228 432Q198 432 178 426T135 403Q170 401 185 388T201 348Q201 320 182 303T132 285Q97 285 75 306T53 363Q53 391 67 413T106 452T166 477T246 486Q295 486 336 477T400 450Q415 439 424 428T439 401T447 363T449 308V100Q449 65 473 65Q490 65 496 86T503 164V175H563ZM329 245Q295 227 281 222L230 202Q198 189 181 169T163 122Q163 95 179 80T224 65Q270 65 298 95Q315 112 322 133T329 188V245ZM317 683Q341 709 358 719T392 730Q415 730 430 715T445 677Q445 659 434 646T395 619L237 540H182L317 683Z"/>
<glyph unicode="â" horiz-adv-x="566" d="M563 175Q563 146 562 126T560 92T556 68T549 47Q521 -17 439 -17Q395 -17 371 -1T332 57Q314 36 297 22T260 -1T220 -14T172 -18Q108 -18 69 17T29 110Q29 148 48 179T104 227Q129 240 160 250T246 273Q295 285 314 302T333 353Q333 432 228 432Q198 432 178 426T135 403Q170 401 185 388T201 348Q201 320 182 303T132 285Q97 285 75 306T53 363Q53 391 67 413T106 452T166 477T246 486Q295 486 336 477T400 450Q415 439 424 428T439 401T447 363T449 308V100Q449 65 473 65Q490 65 496 86T503 164V175H563ZM329 245Q295 227 281 222L230 202Q198 189 181 169T163 122Q163 95 179 80T224 65Q270 65 298 95Q315 112 322 133T329 188V245ZM222 720H312L422 540H374L267 623L160 540H111L222 720Z"/>
<glyph unicode="ã" horiz-adv-x="566" d="M563 175Q563 146 562 126T560 92T556 68T549 47Q521 -17 439 -17Q395 -17 371 -1T332 57Q314 36 297 22T260 -1T220 -14T172 -18Q108 -18 69 17T29 110Q29 148 48 179T104 227Q129 240 160 250T246 273Q295 285 314 302T333 353Q333 432 228 432Q198 432 178 426T135 403Q170 401 185 388T201 348Q201 320 182 303T132 285Q97 285 75 306T53 363Q53 391 67 413T106 452T166 477T246 486Q295 486 336 477T400 450Q415 439 424 428T439 401T447 363T449 308V100Q449 65 473 65Q490 65 496 86T503 164V175H563ZM329 245Q295 227 281 222L230 202Q198 189 181 169T163 122Q163 95 179 80T224 65Q270 65 298 95Q315 112 322 133T329 188V245ZM106 555Q122 625 147 654T218 684Q234 684 257 679L316 663Q321 661 327 661T338 660Q355 660 365 669T383 704H424Q419 684 415 670T406 644T396 625T384 608Q357 576 312 576Q293 576 280 580L223 596Q203 601 192 601Q158 601 147 555H106Z"/>
<glyph unicode="ä" horiz-adv-x="566" d="M563 175Q563 146 562 126T560 92T556 68T549 47Q521 -17 439 -17Q395 -17 371 -1T332 57Q314 36 297 22T260 -1T220 -14T172 -18Q108 -18 69 17T29 110Q29 148 48 179T104 227Q129 240 160 250T246 273Q295 285 314 302T333 353Q333 432 228 432Q198 432 178 426T135 403Q170 401 185 388T201 348Q201 320 182 303T132 285Q97 285 75 306T53 363Q53 391 67 413T106 452T166 477T246 486Q295 486 336 477T400 450Q415 439 424 428T439 401T447 363T449 308V100Q449 65 473 65Q490 65 496 86T503 164V175H563ZM329 245Q295 227 281 222L230 202Q198 189 181 169T163 122Q163 95 179 80T224 65Q270 65 298 95Q315 112 322 133T329 188V245ZM202 699Q230 699 250 679T270 629Q270 600 251 580T202 560Q172 560 152 580T131 630Q131 657 152 678T202 699ZM390 699Q419 699 439 679T459 629Q459 600 440 580T391 560Q361 560 341 580T320 630Q320 657 341 678T390 699Z"/>
<glyph unicode="å" horiz-adv-x="566" d="M563 175Q563 146 562 126T560 92T556 68T549 47Q521 -17 439 -17Q395 -17 371 -1T332 57Q314 36 297 22T260 -1T220 -14T172 -18Q108 -18 69 17T29 110Q29 148 48 179T104 227Q129 240 160 250T246 273Q295 285 314 302T333 353Q333 432 228 432Q198 432 178 426T135 403Q170 401 185 388T201 348Q201 320 182 303T132 285Q97 285 75 306T53 363Q53 391 67 413T106 452T166 477T246 486Q295 486 336 477T400 450Q415 439 424 428T439 401T447 363T449 308V100Q449 65 472 65Q490 65 496 86T503 164V175H563ZM329 245Q295 227 281 222L230 202Q198 189 181 169T163 122Q163 95 179 80T224 65Q270 65 298 95Q315 112 322 133T329 188V245ZM276 778Q303 778 326 768T367 740T395 699T405 649Q405 622 395 599T368 557T327 529T277 519Q250 519 226 529T185 557T157 599T147 651Q147 677 157 700T185 740T226 768T276 778ZM276 714Q250 714 231 695T211 650Q211 621 229 602T276 583Q303 583 322 602T341 648Q341 675 322 694T276 714Z"/>
<glyph unicode="æ" horiz-adv-x="844" d="M797 167Q793 143 788 125T777 93T761 67T740 42Q709 11 673 -3T585 -17Q552 -17 525 -12T475 5T430 38T384 88Q370 70 359 57T337 35T315 18T289 4Q241 -19 185 -19Q114 -19 71 16T28 109Q28 144 44 172T89 219Q134 247 264 275Q313 285 333 302T353 351Q353 390 324 411T240 433Q226 433 214 432T190 427T165 418T133 403Q168 401 183 388T199 348Q199 320 180 303T130 285Q95 285 73 306T51 363Q51 419 105 452T247 486Q303 486 343 473T431 428Q454 445 473 456T509 474T545 483T585 486Q636 486 677 468T746 416Q760 399 769 381T785 341T795 291T800 225H465Q466 202 468 185T473 154T480 130T492 109Q524 62 591 62Q642 62 673 87Q687 99 696 116T714 167H797ZM350 246Q334 238 321 233T302 225Q288 219 274 214T245 203Q198 186 180 168T161 123Q161 94 179 78T230 61Q256 61 279 70T319 95Q336 112 343 133T350 188V246ZM668 295Q660 365 640 392T574 420Q526 420 503 392T470 295H668Z"/>
<glyph unicode="ç" horiz-adv-x="511" d="M270 -56Q292 -53 311 -53Q346 -53 368 -76T391 -136Q391 -178 362 -202T283 -227Q248 -227 211 -217T123 -182L146 -132Q207 -171 259 -171Q302 -171 302 -136Q302 -96 259 -96Q246 -96 228 -99V-14Q191 -9 168 0T120 29Q75 64 53 115T30 232Q30 289 49 335T102 415T183 467T289 486Q332 486 368 475T430 445T470 400T485 342Q485 304 463 281T406 257Q374 257 354 275T334 323Q334 375 391 385Q377 395 366 402T344 413T323 419T299 421Q234 421 200 373T165 235Q165 72 288 72Q341 72 367 99T404 195H480Q470 -16 270 -17V-56Z"/>
<glyph unicode="è" horiz-adv-x="531" d="M497 167Q487 113 472 84T426 30Q366 -18 273 -18Q218 -18 174 0T97 51T48 130T30 233Q30 290 48 336T98 416T176 467T277 486Q389 486 446 416Q460 399 469 381T485 341T495 291T500 225H166Q169 178 176 153T197 107Q229 62 291 62Q344 62 374 87Q388 99 396 116T414 167H497ZM369 295Q361 364 341 392T277 420Q232 420 207 391T170 295H369ZM320 540L161 619Q134 633 123 646T111 677Q111 700 126 715T165 730Q182 730 198 720T240 683L375 540H320Z"/>
<glyph unicode="é" horiz-adv-x="531" d="M497 167Q487 113 472 84T426 30Q366 -18 273 -18Q218 -18 174 0T97 51T48 130T30 233Q30 290 48 336T98 416T176 467T277 486Q389 486 446 416Q460 399 469 381T485 341T495 291T500 225H166Q169 178 176 153T197 107Q229 62 291 62Q344 62 374 87Q388 99 396 116T414 167H497ZM369 295Q361 364 341 392T277 420Q232 420 207 391T170 295H369ZM299 683Q324 709 340 719T375 730Q398 730 413 715T428 677Q428 659 417 646T378 619L219 540H164L299 683Z"/>
<glyph unicode="ê" horiz-adv-x="531" d="M497 167Q487 113 472 84T426 30Q366 -18 273 -18Q218 -18 174 0T97 51T48 130T30 233Q30 290 48 336T98 416T176 467T277 486Q389 486 446 416Q460 399 469 381T485 341T495 291T500 225H166Q169 178 176 153T197 107Q229 62 291 62Q344 62 374 87Q388 99 396 116T414 167H497ZM369 295Q361 364 341 392T277 420Q232 420 207 391T170 295H369ZM232 720H321L432 540H383L276 623L169 540H120L232 720Z"/>
<glyph unicode="ë" horiz-adv-x="531" d="M497 167Q487 113 472 84T426 30Q366 -18 273 -18Q218 -18 174 0T97 51T48 130T30 233Q30 290 48 336T98 416T176 467T277 486Q389 486 446 416Q460 399 469 381T485 341T495 291T500 225H166Q169 178 176 153T197 107Q229 62 291 62Q344 62 374 87Q388 99 396 116T414 167H497ZM369 295Q361 364 341 392T277 420Q232 420 207 391T170 295H369ZM173 699Q201 699 221 679T241 629Q241 600 222 580T173 560Q143 560 123 580T102 630Q102 657 123 678T173 699ZM362 699Q390 699 410 679T430 629Q430 600 411 580T362 560Q332 560 312 580T291 630Q291 657 312 678T362 699Z"/>
<glyph unicode="ì" horiz-adv-x="348" d="M25 67H61Q96 67 107 78T118 126V343Q118 379 107 390T61 402H25V469H239V126Q239 90 250 79T296 67H326V0H25V67ZM184 538L79 614Q34 647 34 677Q34 697 48 710T82 723Q101 723 115 713T143 678L224 538H184Z"/>
<glyph unicode="í" horiz-adv-x="348" d="M170 678Q184 702 198 712T231 723Q252 723 265 710T279 677Q279 661 269 647T233 614L128 538H89L170 678ZM25 67H61Q96 67 107 78T118 126V343Q118 379 107 390T61 402H25V469H239V126Q239 90 250 79T296 67H326V0H25V67Z"/>
<glyph unicode="î" horiz-adv-x="348" d="M118 715H207L301 538H255L163 630L71 538H24L118 715ZM25 67H61Q96 67 107 78T118 126V343Q118 379 107 390T61 402H25V469H239V126Q239 90 250 79T297 67H327V0H25V67Z"/>
<glyph unicode="ï" horiz-adv-x="348" d="M25 67H61Q96 67 107 78T118 126V343Q118 379 107 390T61 402H25V469H239V126Q239 90 250 79T296 67H326V0H25V67ZM76 699Q104 699 124 679T144 629Q144 600 125 580T76 560Q46 560 26 580T5 630Q5 657 26 678T76 699ZM255 699Q283 699 303 679T323 629Q323 600 304 580T255 560Q225 560 205 580T184 630Q184 657 205 678T255 699Z"/>
<glyph unicode="ð" horiz-adv-x="588" d="M300 667L333 636L423 671L448 618L373 589Q428 525 464 477T521 387T552 309T561 232Q561 176 542 130T489 52T405 1T297 -17Q237 -17 188 1T104 52T50 131T31 235Q31 290 49 336T101 415T181 466T285 485Q303 485 316 484T346 477Q342 484 339 489T335 497Q332 502 325 513T306 541L297 555L219 522L194 575L267 604Q257 618 251 626T241 641T232 653T221 667H300ZM296 416Q167 416 167 237Q167 53 296 53Q425 53 425 234Q425 416 296 416Z"/>
<glyph unicode="ñ" horiz-adv-x="650" d="M25 67H57Q75 67 86 69T103 78T111 96T114 126V343Q114 361 112 372T103 390T86 399T57 402H25V469H234V387Q257 414 277 433T318 463T358 479T403 484Q435 484 465 473T515 443Q534 424 541 395T549 311V126Q549 108 551 97T560 79T577 70T606 67H634V0H352V67H372Q390 67 401 69T418 78T426 96T429 126V311Q429 342 426 356T415 381Q394 407 355 407Q329 407 305 394T263 358Q246 336 240 313T234 247V126Q234 108 236 97T245 79T262 70T291 67H311V0H25V67ZM167 555Q183 625 208 654T279 684Q295 684 317 679L376 663Q388 660 399 660Q416 660 425 669T444 704H484Q479 684 475 670T466 644T456 625T444 608Q431 592 413 584T373 576Q355 576 340 580L283 596Q263 601 252 601Q220 601 207 555H167Z"/>
<glyph unicode="ò" horiz-adv-x="586" d="M293 486Q353 486 402 468T485 417T539 338T558 234Q558 178 539 132T486 52T403 1T295 -17Q233 -17 184 1T100 52T47 132T28 238Q28 293 47 339T101 417T185 468T293 486ZM293 416Q164 416 164 237Q164 53 293 53Q422 53 422 234Q422 416 293 416ZM347 540L188 619Q161 633 150 646T138 677Q138 700 153 715T192 730Q209 730 225 720T267 683L402 540H347Z"/>
<glyph unicode="ó" horiz-adv-x="586" d="M293 486Q353 486 402 468T485 417T539 338T558 234Q558 178 539 132T486 52T403 1T295 -17Q233 -17 184 1T100 52T47 132T28 238Q28 293 47 339T101 417T185 468T293 486ZM293 416Q164 416 164 237Q164 53 293 53Q422 53 422 234Q422 416 293 416ZM326 683Q351 709 367 719T402 730Q425 730 440 715T455 677Q455 659 444 646T405 619L246 540H191L326 683Z"/>
<glyph unicode="ô" horiz-adv-x="586" d="M293 486Q353 486 402 468T485 417T539 338T558 234Q558 178 539 132T486 52T403 1T295 -17Q233 -17 184 1T100 52T47 132T28 238Q28 293 47 339T101 417T185 468T293 486ZM293 416Q164 416 164 237Q164 53 293 53Q422 53 422 234Q422 416 293 416ZM259 720H348L459 540H410L303 623L196 540H147L259 720Z"/>
<glyph unicode="õ" horiz-adv-x="586" d="M293 486Q353 486 402 468T485 417T539 338T558 234Q558 178 539 132T486 52T403 1T295 -17Q233 -17 184 1T100 52T47 132T28 238Q28 293 47 339T101 417T185 468T293 486ZM293 416Q164 416 164 237Q164 53 293 53Q422 53 422 234Q422 416 293 416ZM134 555Q150 625 175 654T246 684Q262 684 285 679L343 663Q355 660 366 660Q383 660 392 669T411 704H451Q446 684 442 670T434 644T424 625T412 608Q385 576 340 576Q321 576 308 580L251 596Q231 601 220 601Q186 601 175 555H134Z"/>
<glyph unicode="ö" horiz-adv-x="586" d="M295 486Q355 486 404 468T487 417T541 338T560 234Q560 178 541 132T488 52T405 1T297 -17Q235 -17 186 1T102 52T49 132T30 238Q30 293 49 339T103 417T187 468T295 486ZM295 416Q166 416 166 237Q166 53 295 53Q424 53 424 234Q424 416 295 416ZM207 699Q235 699 255 679T275 629Q275 600 256 580T207 560Q177 560 157 580T136 630Q136 657 157 678T207 699ZM396 699Q424 699 444 679T464 629Q464 600 445 580T396 560Q366 560 346 580T325 630Q325 658 346 678T396 699Z"/>
<glyph unicode="÷" horiz-adv-x="549" d="M274 126Q299 126 317 108T335 64Q335 38 317 20T273 2Q247 2 229 20T211 65Q211 91 229 108T274 126ZM274 525Q299 525 317 507T335 463Q335 437 317 419T273 401Q247 401 229 419T211 464Q211 489 229 507T274 525ZM536 294V239H10V294H536Z"/>
<glyph unicode="ø" horiz-adv-x="586" d="M86 69Q69 94 58 114T41 153T32 191T29 235Q29 292 48 338T101 417T184 468T293 486Q316 486 334 484T371 477T410 463T456 441L519 504L562 463L500 401Q517 377 528 358T546 319T555 280T558 234Q558 177 539 131T486 52T403 1T294 -17Q269 -17 250 -15T212 -8T174 6T130 29L66 -35L25 8L86 69ZM197 96Q225 70 245 62T296 53Q423 53 423 237Q423 257 422 273T415 315L197 96ZM389 374Q360 399 340 407T290 416Q164 416 164 234Q164 213 165 198T172 156L389 374Z"/>
<glyph unicode="ù" horiz-adv-x="645" d="M25 469H225V158Q225 126 228 112T239 87Q260 61 299 61Q325 61 349 74T391 110Q407 131 413 155T419 221V343Q419 379 408 390T362 402H317V469H539V126Q539 89 550 78T597 67H623V0H419V82Q396 55 376 36T336 6T296 -10T251 -15Q219 -15 189 -4T139 26Q120 45 113 74T105 158V343Q105 379 94 390T48 402H25V469ZM346 540L187 619Q160 633 149 646T137 677Q137 700 152 715T191 730Q208 730 224 720T266 683L401 540H346Z"/>
<glyph unicode="ú" horiz-adv-x="645" d="M25 469H225V158Q225 126 228 112T239 87Q260 61 299 61Q325 61 349 74T391 110Q407 131 413 155T419 221V343Q419 379 408 390T362 402H317V469H539V126Q539 89 550 78T597 67H623V0H419V82Q396 55 376 36T336 6T296 -10T251 -15Q219 -15 189 -4T139 26Q120 45 113 74T105 158V343Q105 379 94 390T48 402H25V469ZM356 683Q381 709 397 719T432 730Q455 730 470 715T485 677Q485 659 474 646T435 619L276 540H221L356 683Z"/>
<glyph unicode="û" horiz-adv-x="645" d="M25 469H225V158Q225 126 228 112T239 87Q260 61 299 61Q325 61 349 74T391 110Q407 131 413 155T419 221V343Q419 379 408 390T362 402H317V469H539V126Q539 89 550 78T597 67H623V0H419V82Q396 55 376 36T336 6T296 -10T251 -15Q219 -15 189 -4T139 26Q120 45 113 74T105 158V343Q105 379 94 390T48 402H25V469ZM278 720H368L479 540H430L323 623L216 540H167L278 720Z"/>
<glyph unicode="ü" horiz-adv-x="645" d="M25 469H225V158Q225 126 228 112T239 87Q260 61 299 61Q325 61 349 74T391 110Q407 131 413 155T419 221V343Q419 379 408 390T362 402H317V469H539V126Q539 89 550 78T597 67H623V0H419V82Q396 55 376 36T336 6T296 -10T251 -15Q219 -15 189 -4T139 26Q120 45 113 74T105 158V343Q105 379 94 390T48 402H25V469ZM230 699Q258 699 278 679T298 629Q298 600 279 580T230 560Q200 560 180 580T159 630Q159 657 180 678T230 699ZM419 699Q447 699 467 679T487 629Q487 600 468 580T419 560Q389 560 369 580T348 630Q348 657 369 678T419 699Z"/>
<glyph unicode="ý" horiz-adv-x="581" d="M101 342Q87 374 70 388T28 402H-2V469H285V402H251Q214 402 216 380Q216 368 222 356L314 140L396 347Q403 364 403 377Q403 402 359 402H332V469H572V402H550Q505 402 477 331L365 56Q333 -24 307 -76T254 -159T199 -202T134 -214Q104 -214 79 -205T35 -178T6 -139T-5 -89Q-5 -49 18 -25T77 0Q107 0 126 -18T146 -66Q146 -125 73 -125Q87 -139 97 -144T123 -149Q143 -149 159 -142T191 -118T221 -72T254 0L101 342ZM351 683Q376 709 392 719T427 730Q450 730 465 715T480 677Q480 659 469 646T430 619L271 540H216L351 683Z"/>
<glyph unicode="þ" horiz-adv-x="621" d="M15 667H217V387Q232 414 248 432T282 462T323 478T374 483Q472 483 525 418T579 233Q579 114 526 49T374 -17Q345 -17 323 -12T283 4T248 33T217 78V-88Q217 -124 228 -135T274 -147H318V-214H10V-147H40Q75 -147 86 -136T97 -88V541Q97 559 95 570T86 588T69 597T40 600H15V667ZM334 403Q277 403 247 360T217 236Q217 155 247 112T334 69Q388 69 415 110T443 233Q443 403 334 403Z"/>
<glyph unicode="ÿ" horiz-adv-x="581" d="M101 342Q87 374 70 388T28 402H-2V469H285V402H251Q214 402 216 380Q216 368 222 356L314 140L396 347Q403 364 403 377Q403 402 359 402H332V469H572V402H550Q505 402 477 331L365 56Q333 -24 307 -76T254 -159T199 -202T134 -214Q104 -214 79 -205T35 -178T6 -139T-5 -89Q-5 -49 18 -25T77 0Q107 0 126 -18T146 -66Q146 -125 73 -125Q87 -139 97 -144T123 -149Q143 -149 159 -142T191 -118T221 -72T254 0L101 342ZM197 699Q225 699 245 679T265 629Q265 600 246 580T197 560Q167 560 147 580T126 630Q126 657 147 678T197 699ZM386 699Q414 699 434 679T454 629Q454 600 435 580T386 560Q356 560 336 580T315 630Q315 657 336 678T386 699Z"/>
<glyph unicode="Œ" horiz-adv-x="1236" d="M1163 402H1087Q1085 456 1079 486T1059 541Q1043 569 1011 580T911 591H752V386H789Q827 386 848 393T878 415Q881 421 883 426T886 440T890 464T895 507H971V174H895Q892 220 887 247T872 288T842 306T791 310H752V76H926Q971 76 999 84T1045 114T1072 177T1087 283H1163V0H722Q696 0 657 -2T567 -10Q522 -15 480 -17T406 -19Q323 -19 255 6T137 78T62 189T35 333Q35 412 61 477T137 588T254 660T406 686Q437 686 479 684T567 677Q619 672 657 670T722 667H1163V402ZM612 529Q612 561 608 571T587 589Q576 593 560 597T525 604T484 608T444 610Q191 610 191 333Q191 57 442 57Q463 57 485 59T528 64T565 71T592 80Q604 86 608 97T612 138V529Z"/>
<glyph unicode="œ" horiz-adv-x="914" d="M882 167Q877 143 873 125T862 93T846 67T825 42Q794 11 758 -3T674 -17Q638 -17 604 -9T544 16Q530 24 518 35T487 67Q465 44 451 33T419 11Q392 -3 359 -10T291 -17Q232 -17 184 1T102 53T49 132T30 235Q30 290 49 336T102 416T183 467T288 486Q344 486 389 470T487 415Q510 435 530 448T572 470T615 482T665 486Q774 486 830 416Q844 399 853 381T869 341T879 291T885 225H550Q551 179 557 155T577 109Q593 86 618 74T673 61Q697 61 719 68T757 87Q772 99 781 116T798 167H882ZM295 416Q166 416 166 237Q166 53 295 53Q424 53 424 235Q424 416 295 416ZM753 295Q745 366 724 393T657 420Q609 420 587 393T554 295H753Z"/>
<glyph unicode="Š" horiz-adv-x="641" d="M43 275H120Q126 244 133 222T149 182T169 150T195 122Q227 95 263 83T348 70Q411 70 445 92T480 157Q480 195 454 218T367 256L259 281Q142 308 91 354T40 480Q40 526 57 564T106 630T182 672T279 687Q307 687 330 684T375 673T421 652T475 618L510 667H569V414H494Q483 465 465 500T419 560Q394 581 358 593T285 606Q226 606 193 583T159 520Q159 486 182 466T257 433L391 402Q433 393 471 377T535 341Q567 316 585 277T604 192Q604 146 586 107T534 40T455 -4T355 -20Q326 -20 300 -16T248 -2T195 23T134 62L112 0H43V275ZM213 858L320 803L428 858H475L378 721H263L166 858H213Z"/>
<glyph unicode="š" horiz-adv-x="492" d="M30 186H103Q116 140 132 116T179 74Q214 55 260 55Q298 55 321 71T344 115Q344 138 325 152T261 177L188 194Q35 231 35 339Q35 372 48 399T85 445T143 475T218 486Q258 486 290 476T360 439L381 475H438V302H371Q360 334 349 351T320 383Q303 397 276 406T224 415Q190 415 170 401T150 361Q150 323 206 310L295 289Q384 268 423 232T463 135Q463 64 413 24T273 -17Q250 -17 232 -15T197 -7T160 9T114 36L96 -6H30V186ZM139 719L246 636L353 719H402L291 540H201L90 719H139Z"/>
<glyph unicode="Ÿ" horiz-adv-x="730" d="M558 0H170V76H228Q250 76 263 78T283 86T292 104T294 137V279L129 523Q103 561 82 576T33 591H0V667H353V591H304Q280 591 271 586T261 569Q261 556 274 538L386 381L505 543Q518 561 518 572Q518 591 483 591H424V667H733V591H710Q684 591 668 582T632 547L434 279V137Q434 116 436 104T444 86T464 78T500 76H558V0ZM294 858Q321 858 341 838T362 789Q362 762 342 742T295 722Q266 722 246 742T226 791Q226 817 246 837T294 858ZM480 858Q507 858 527 838T548 789Q548 762 528 742T481 722Q452 722 432 742T412 791Q412 817 432 837T480 858Z"/>
<glyph unicode="Ž" horiz-adv-x="655" d="M40 80L438 591H325Q286 591 260 589T215 579T184 560T162 530Q156 519 152 507T144 478T139 439T136 387H60V667H603V581L208 76H314Q378 76 416 83T477 115T510 183T527 302H603V0H40V80ZM220 858L328 803L435 858H482L386 721H270L174 858H220Z"/>
<glyph unicode="ž" horiz-adv-x="501" d="M20 73L322 402H218Q175 402 155 392T123 357Q120 350 118 343T115 325T112 299T110 262H40V469H460V394L162 67H248Q278 67 298 69T333 76T356 89T371 110Q375 118 377 126T382 148T386 179T390 224H460V0H20V73ZM144 719L251 636L358 719H407L296 540H206L95 719H144Z"/>
<glyph unicode="ƒ" horiz-adv-x="607" d="M330 37Q299 -164 127 -164Q69 -164 34 -140T-1 -76Q-1 -38 21 -13T78 13Q104 13 118 0T133 -35Q133 -84 82 -99Q92 -107 100 -110T122 -113Q158 -113 176 -92T203 -15L268 398H179L190 467H279L282 483Q313 684 486 684Q543 684 578 660T613 596Q613 558 591 532T534 506Q508 506 494 519T479 555Q479 604 530 619Q520 627 512 629T490 632Q454 632 436 611T409 535L399 467H500L489 398H388L330 37Z"/>
<glyph unicode="ˆ" horiz-adv-x="500" d="M205 720H295L405 540H357L250 623L143 540H94L205 720Z"/>
<glyph unicode="˜" horiz-adv-x="500" d="M91 555Q107 625 132 654T203 684Q219 684 242 679L300 663Q312 660 323 660Q340 660 349 669T368 704H408Q398 664 390 645T368 608Q355 592 337 584T297 576Q279 576 264 580L208 596Q186 601 176 601Q144 601 131 555H91Z"/>
<glyph unicode="–" horiz-adv-x="557" d="M30 279H527V196H30V279Z"/>
<glyph unicode="—" horiz-adv-x="709" d="M0 279H709V196H0V279Z"/>
<glyph unicode="‘" horiz-adv-x="238" d="M210 642Q118 619 116 530Q130 539 139 542T159 545Q185 545 201 528T218 483Q218 452 198 433T144 413Q102 413 76 442T50 519Q50 585 93 630T210 687V642Z"/>
<glyph unicode="’" horiz-adv-x="238" d="M33 457Q126 482 127 570Q113 561 104 558T84 555Q58 555 42 572T25 617Q25 648 45 667T99 687Q141 687 167 658T193 581Q193 515 150 470T33 413V457Z"/>
<glyph unicode="‚" horiz-adv-x="238" d="M33 -99Q126 -74 127 14Q113 5 104 2T84 -2Q58 -2 42 15T25 60Q25 91 45 110T99 130Q141 130 167 101T193 24Q193 -42 150 -87T33 -143V-99Z"/>
<glyph unicode="“" horiz-adv-x="477" d="M445 642Q352 617 351 530Q365 539 374 542T394 545Q420 545 436 528T453 483Q453 452 433 433T379 413Q337 413 311 442T285 519Q285 585 328 630T445 687V642ZM210 642Q118 619 116 530Q130 539 139 542T159 545Q185 545 201 528T218 483Q218 452 198 433T144 413Q102 413 76 442T50 519Q50 585 93 630T210 687V642Z"/>
<glyph unicode="”" horiz-adv-x="477" d="M268 457Q361 482 362 570Q348 561 339 558T319 555Q293 555 277 572T260 617Q260 648 280 667T334 687Q376 687 402 658T428 581Q428 515 385 470T268 413V457ZM33 457Q126 482 127 570Q113 561 104 558T84 555Q58 555 42 572T25 617Q25 648 45 667T99 687Q141 687 167 658T193 581Q193 515 150 470T33 413V457Z"/>
<glyph unicode="„" horiz-adv-x="477" d="M268 -99Q361 -74 362 14Q348 5 339 2T319 -1Q293 -1 277 16T260 61Q260 92 280 111T334 130Q376 130 402 101T428 24Q428 -42 385 -86T268 -143V-99ZM33 -99Q126 -74 127 14Q113 5 104 2T84 -1Q58 -1 42 16T25 61Q25 92 45 111T99 130Q141 130 167 101T193 24Q193 -42 150 -87T33 -143V-99Z"/>
<glyph unicode="†" horiz-adv-x="591" d="M324 404Q338 406 347 407T363 410T379 414T401 421Q431 430 448 433T483 437Q511 437 526 424T542 385Q542 360 527 347T482 333Q465 333 448 336T401 349Q388 353 380 355T364 359T347 362T324 366Q324 311 325 264T329 167T338 56T353 -87Q356 -113 356 -137Q356 -214 295 -214Q234 -214 234 -137Q234 -128 234 -122T235 -105T238 -75T245 -19Q251 47 255 94T262 184T266 268T268 366Q254 364 245 363T229 360T213 356T191 349Q162 340 145 337T110 333Q81 333 66 346T50 385Q50 410 65 423T110 437Q127 437 144 434T191 421Q204 417 212 415T228 411T245 408T268 404Q267 431 266 450T262 488T254 528T242 582Q239 595 237 608T235 629Q235 656 251 671T296 687Q325 687 341 672T357 629Q357 621 355 609T350 582Q342 550 338 529T331 488T327 450T324 404Z"/>
<glyph unicode="‡" horiz-adv-x="591" d="M233 236Q243 260 249 280T260 319T266 357T268 398Q254 396 245 395T229 392T213 388T191 381Q161 372 144 369T110 365Q81 365 66 378T50 417Q50 442 65 455T110 469Q127 469 144 466T191 453Q204 449 212 447T228 443T245 440T268 436Q267 458 266 472T263 501T255 533T242 582Q239 594 237 606T235 628Q235 656 251 671T296 687Q325 687 341 672T357 628Q357 620 357 615T355 601T349 578T338 536Q331 510 329 491T324 436Q338 438 347 439T363 442T379 446T401 453Q431 462 448 465T482 469Q511 469 526 456T542 417Q542 392 527 379T483 365Q466 365 449 368T401 381Q388 385 380 387T364 391T347 394T324 398Q325 372 327 353T333 316T343 280T359 236Q349 212 343 192T332 152T326 114T324 74Q338 76 347 77T363 80T379 84T401 91Q431 100 448 103T482 107Q511 107 526 94T542 55Q542 31 527 18T482 4Q465 4 448 7T401 20Q389 24 381 26T364 30T347 33T324 37Q325 14 326 0T329 -28T337 -61T350 -109Q353 -121 355 -133T357 -155Q357 -183 341 -198T296 -214Q267 -214 251 -199T235 -155Q235 -148 235 -143T237 -128T243 -105T254 -63Q257 -50 259 -40T263 -18T266 6T268 37Q254 35 245 34T228 30T212 26T191 20Q160 10 144 7T110 4Q81 4 66 17T50 55Q50 80 65 93T110 107Q127 107 144 104T191 91Q203 87 211 85T228 81T245 78T268 74Q268 96 266 115T260 153T250 192T233 236Z"/>
<glyph unicode="•" horiz-adv-x="667" d="M336 477Q364 477 389 466T432 436T462 392T473 338Q473 309 462 284T433 241T389 211T335 200Q306 200 281 211T237 240T207 284T196 338Q196 367 207 392T237 436T281 466T336 477Z"/>
<glyph unicode="…" horiz-adv-x="924" d="M153 131Q184 131 205 110T227 57Q227 26 206 5T154 -17Q122 -17 101 5T79 59Q79 88 101 109T153 131ZM461 131Q492 131 513 110T535 57Q535 26 514 5T462 -17Q430 -17 409 5T387 59Q387 88 409 109T461 131ZM769 131Q800 131 821 110T843 57Q843 26 822 5T770 -17Q738 -17 717 5T695 59Q695 88 717 109T769 131Z"/>
<glyph unicode="‰" horiz-adv-x="1385" d="M220 622Q262 622 297 608T357 569T397 508T411 431Q411 389 397 354T358 293T298 253T221 239Q178 239 143 253T83 292T44 353T30 433Q30 474 44 509T83 569T144 608T220 622ZM221 559Q142 559 142 431Q142 365 161 334T222 303Q262 303 281 333T300 428Q300 496 282 527T221 559ZM332 -17H251L624 622H704L332 -17ZM735 366Q777 366 812 352T872 313T912 252T926 174Q926 132 912 97T873 37T813 -3T736 -17Q693 -17 658 -3T598 36T559 97T545 177Q545 218 559 253T598 313T659 352T735 366ZM735 302Q656 302 656 174Q656 108 675 77T736 46Q776 46 795 76T814 171Q814 239 796 270T735 302ZM1162 366Q1204 366 1239 352T1299 313T1338 252T1352 175Q1352 133 1338 98T1299 37T1239 -3T1162 -17Q1120 -17 1085 -3T1025 36T986 97T972 177Q972 218 986 253T1025 313T1085 352T1162 366ZM1162 303Q1083 303 1083 175Q1083 108 1102 77T1162 46Q1202 46 1221 76T1240 172Q1240 240 1222 271T1162 303Z"/>
<glyph unicode="‹" horiz-adv-x="288" d="M113 129Q88 164 74 193T60 238Q60 252 74 281T113 346L152 403H224L196 336Q184 308 176 279T167 237Q167 225 175 196T196 139L224 72H152L113 129Z"/>
<glyph unicode="›" horiz-adv-x="288" d="M60 72L88 139Q100 168 108 196T117 237Q117 250 109 278T88 336L60 403H132L171 346Q196 311 210 282T224 237Q224 223 210 194T171 129L132 72H60Z"/>
<glyph unicode="€" horiz-adv-x="752" d="M30 355L55 414H111Q117 449 132 483T170 548Q219 615 287 650T435 686Q463 686 486 683T531 673T577 652T630 618L650 677H721V404H645Q640 432 636 452T625 489T610 519T591 544Q566 574 532 589T456 605Q381 605 331 555T266 414H542L517 355H260L259 328Q259 324 259 321T260 311H498L473 252H265Q279 165 329 118T457 71Q534 71 580 122Q591 134 599 146T613 175T625 211T636 258H721Q717 222 712 195T699 146T681 107T656 71Q582 -20 442 -20Q380 -20 325 -1T227 54T153 140T111 252H30L55 311H104Q103 318 103 323T103 335Q103 341 103 345T104 355H30Z"/>
<glyph unicode="™" horiz-adv-x="999" d="M160 619Q108 620 88 595T66 506H14V667H397V506H345Q344 538 339 559T323 594T295 613T251 619V367Q251 356 252 350T256 341T267 337T287 336H325V287H86V336H124Q137 336 144 337T154 341T159 350T160 367V619ZM773 336H803Q816 336 823 337T833 341T838 350T839 367V592L716 287H672L557 596V367Q557 356 558 350T562 341T573 337T593 336H620V287H426V336H451Q464 336 471 337T481 341T486 350T487 367V587Q487 598 486 604T482 613T471 617T451 618H426V667H619L705 431L801 667H985V618H959Q946 618 939 617T929 613T924 604T923 587V367Q923 356 924 350T928 341T939 337T959 336H985V287H773V336Z"/>

</font>
</defs>
</svg>
