<?xml version="1.0" encoding="UTF-8"?>
<!DOCTYPE svg PUBLIC "-//W3C//DTD SVG 1.0//EN" "http://www.w3.org/TR/2001/REC-SVG-20010904/DTD/svg10.dtd">
<svg xmlns="http://www.w3.org/2000/svg">
<metadata>
<version>1.0</version>
<id><![CDATA[URW Clarendon W01 Light]]></id>
<vendor>Monotype Imaging Inc.</vendor>
<credits>
<name>Fonts.com WebFonts</name>
<URL>http://webfonts.fonts.com</URL>
<role>Home of the Web fonts</role>
</credits>
<license>
<URL>http://webfonts.fonts.com/Legal</URL>
</license>
<copyright><![CDATA[(URW)++,Copyright 2003 by (URW)++ Design & Development]]></copyright>
<trademark><![CDATA[Please refer to the Copyright section for the font trademark attribution notices.]]></trademark>
<licensee>
<name/>
</licensee>
</metadata>
<defs>
<font horiz-adv-x="576" id="41cc4bf7-0351-4f28-9ff6-7645a928a5b6">
<font-face font-family="" panose-1="4 0 4 0 0 0 0 0 0 0" ascent="893" descent="-221" units-per-em="1000" alphabetic="0">
</font-face>
<missing-glyph horiz-adv-x="0"/>

<glyph unicode="
"/>
<glyph unicode="" horiz-adv-x="0"/>
<glyph unicode=" " horiz-adv-x="250"/>
<glyph unicode="!" horiz-adv-x="298" d="M186 96Q209 96 225 80T242 40Q242 17 226 0T186 -17Q162 -17 146 0T129 41Q129 64 146 80T186 96ZM163 181Q162 214 161 241T159 291T157 337T153 382Q152 393 150 418T142 481Q140 494 138 512T133 558Q131 575 130 592T129 617Q129 649 144 668T186 687Q212 687 227 668T242 617Q242 600 237 555T221 416Q216 375 213 316T207 181H163Z"/>
<glyph unicode="&quot;" horiz-adv-x="326" d="M58 399L45 667H133L119 399H58ZM206 399L193 667H281L267 399H206Z"/>
<glyph unicode="#" horiz-adv-x="600" d="M536 205H426L394 0H314L347 205H215L183 0H106L139 205H28L37 274H148L169 405H59L68 474H178L209 667H286L256 474H388L418 667H497L466 474H575L565 405H457L437 274H545L536 205ZM246 405L227 274H358L378 405H246Z"/>
<glyph unicode="$" horiz-adv-x="611" d="M269 -2Q233 2 207 7T161 17T126 30T98 47Q71 67 56 94T40 150Q40 184 59 204T108 225Q135 225 152 210T169 171Q169 121 105 115Q115 99 127 89T158 71T203 58T269 48V272Q237 279 214 285T174 297T142 311T115 328Q87 348 71 378T55 441Q55 474 71 503T116 555Q130 565 144 573T176 587T216 597T269 606V681H320V606Q356 603 382 598T430 586T467 568T498 543Q534 505 534 466Q534 437 516 420T469 402Q443 402 428 416T413 454Q413 477 424 488T462 505Q446 531 413 544T320 559V349Q356 341 381 335T426 323T460 310T490 294Q524 274 542 243T560 173Q560 135 543 103T494 49Q479 38 463 31T426 17T380 7T320 -2V-104H269V-2ZM269 561Q230 554 210 548T172 529Q136 502 136 459Q136 438 146 420T173 391Q189 381 208 375T269 361V561ZM320 48Q341 51 357 53T385 58T406 64T426 73Q451 86 464 108T478 156Q478 203 433 229Q414 239 390 246T320 263V48Z"/>
<glyph unicode="%" horiz-adv-x="510" d="M137 650Q190 650 223 615T257 522Q257 494 248 471T224 430T186 404T138 394Q84 394 51 430T17 524Q17 579 51 614T137 650ZM137 623Q105 623 87 597T68 523Q68 475 86 448T137 421Q169 421 187 447T206 522Q206 570 188 596T137 623ZM435 658H484L75 0H27L435 658ZM374 249Q427 249 460 214T494 121Q494 93 485 70T461 29T423 3T375 -7Q321 -7 288 29T254 123Q254 178 288 213T374 249ZM374 222Q342 222 324 196T305 122Q305 74 323 47T374 20Q406 20 424 46T443 121Q443 169 425 195T374 222Z"/>
<glyph unicode="&amp;" horiz-adv-x="819" d="M777 201Q776 163 773 136T763 87T747 49T723 20Q681 -19 613 -19Q571 -19 538 -6T462 43Q411 10 365 -5T267 -20Q221 -20 175 -3T100 41Q72 67 56 105T40 181Q40 221 56 258T105 325Q121 340 147 357T215 396Q204 422 197 441T186 477T180 506T178 533Q178 565 190 593T224 642T275 675T338 687Q368 687 394 678T439 651T468 611T479 561Q479 507 438 454Q428 442 419 432T397 413T370 395T333 373Q363 324 382 294T417 242T449 199T491 151Q540 207 562 245T585 311Q585 352 511 352H484V405H776V352H752Q732 352 717 349T690 336T668 312T646 275Q630 245 617 223T591 181T564 144T531 107Q563 77 584 66T632 54Q660 54 681 70T710 114Q713 123 715 130T718 147T721 169T724 201H777ZM417 89Q390 120 372 143T336 191T299 249T248 333Q217 317 196 302T163 271T145 237T139 196Q139 164 150 137T182 90T231 59T291 47Q318 47 345 56T417 89ZM300 431Q311 438 317 442T328 449T335 453T342 458Q375 481 389 504T404 560Q404 592 385 612T336 632Q304 632 285 608T265 541Q265 515 272 492T300 431Z"/>
<glyph unicode="'" horiz-adv-x="178" d="M58 399L45 667H133L119 399H58Z"/>
<glyph unicode="(" horiz-adv-x="358" d="M334 -192Q300 -179 274 -165T225 -134T183 -97T143 -49Q50 74 50 247Q50 434 157 562Q177 586 195 603T234 635T278 662T334 687V649Q310 637 291 624T255 595T223 560T193 516Q162 466 146 397T130 248Q130 70 204 -39Q219 -60 232 -76T261 -106T293 -131T334 -154V-192Z"/>
<glyph unicode=")" horiz-adv-x="358" d="M20 -155Q44 -143 63 -130T98 -101T130 -66T160 -22Q191 28 207 97T223 247Q223 335 205 407T149 533Q134 555 121 571T92 600T60 625T20 648V686Q54 672 80 659T129 628T171 591T211 543Q304 420 304 247Q304 60 197 -68Q177 -92 159 -109T120 -141T76 -168T20 -192V-155Z"/>
<glyph unicode="*" horiz-adv-x="497" d="M259 458Q261 442 261 432T263 418Q264 414 268 405T277 383Q290 356 294 345T298 321Q298 302 285 290T250 278Q229 278 216 290T203 323Q203 329 203 333T206 343T212 358T225 383Q235 404 238 421T242 470Q239 468 237 466T233 463L201 439Q193 433 178 410Q155 377 142 366T112 354Q95 354 80 370T65 407Q65 430 89 444Q95 447 98 448T108 451T123 453T151 455Q175 457 193 463T234 483Q228 487 224 488Q210 495 202 498T186 504T171 508T151 510Q135 511 126 512T110 514T99 517T88 522Q65 535 65 558Q65 578 79 594T110 611Q130 611 150 593Q154 588 158 583T177 555Q183 545 188 539T200 526T217 513T244 495Q243 499 243 502T242 507Q241 523 240 533T238 546Q238 550 234 560T225 581Q212 608 208 620T204 644Q204 663 217 675T252 687Q273 687 285 675T298 642Q298 636 298 632T295 622T289 607T277 582Q272 571 269 563T263 544T260 523T259 494Q263 497 265 498T268 501Q276 508 284 514T301 526Q308 530 324 554Q336 571 344 582T360 599T375 607T390 610Q407 610 422 594T437 557Q437 534 413 521Q407 518 404 516T394 513T378 511T350 509Q326 507 307 501T267 481Q277 477 277 477Q291 470 300 466T313 461Q318 459 328 458T350 455Q365 454 375 453T391 451T403 448T413 443Q436 430 436 406Q436 386 422 370T391 354Q372 354 352 372Q350 374 348 376T344 381T337 392T325 410Q318 419 313 425T301 438T284 451T258 469L259 458Z"/>
<glyph unicode="+" horiz-adv-x="506" d="M215 342V504H291V342H454V276H291V114H215V276H52V342H215Z"/>
<glyph unicode="," horiz-adv-x="303" d="M79 -111Q108 -106 123 -98T152 -72Q172 -45 172 -13V3Q160 -5 152 -8T134 -11Q112 -11 98 3T84 39Q84 65 100 80T142 95Q176 95 197 71T219 6Q219 -23 209 -50T180 -98Q161 -118 140 -128T79 -146V-111Z"/>
<glyph unicode="-" horiz-adv-x="258" d="M0 275H258V201H0V275Z"/>
<glyph unicode="." horiz-adv-x="279" d="M140 96Q163 96 179 80T196 40Q196 17 180 0T140 -17Q116 -17 100 0T83 41Q83 64 100 80T140 96Z"/>
<glyph unicode="/" horiz-adv-x="349" d="M11 -92L254 686H309L66 -92H11Z"/>
<glyph unicode="0" horiz-adv-x="611" d="M306 622Q366 622 415 599T501 533T557 431T577 302Q577 232 557 174T502 73T417 7T308 -17Q247 -17 197 6T111 73T55 175T35 307Q35 376 55 433T112 533T197 598T306 622ZM306 569Q268 569 236 551T183 501Q161 466 149 415T137 306Q137 178 181 107T306 36Q342 36 376 55T429 104Q451 139 463 191T475 303Q475 362 463 414T429 501Q409 533 377 551T306 569Z"/>
<glyph unicode="1" horiz-adv-x="611" d="M124 51H172Q247 51 261 68Q266 74 267 85T269 121V469H128V518Q172 521 201 527T251 544T283 574T307 622H359V120Q359 97 362 83T374 62T402 53T450 51H496V0H124V51Z"/>
<glyph unicode="2" horiz-adv-x="611" d="M50 0Q50 27 51 48T58 88T70 124T90 161Q102 180 119 196T161 229T222 264T308 304Q344 319 367 332T404 361T423 395T429 439Q429 499 387 533T273 568Q219 568 180 546Q166 538 153 523T123 482H139Q196 482 196 428Q196 401 179 383T134 365Q104 365 84 389T63 448Q63 478 77 508T116 561Q182 622 294 622Q347 622 390 609T464 570T512 510T529 432Q529 386 509 346T453 286Q416 263 302 227Q257 213 230 203T185 180T153 151T122 107Q144 117 157 120T189 123Q207 123 221 121T265 109L332 88Q352 82 374 79T413 75Q436 75 451 81T477 102T491 141T498 201H543Q542 164 539 137T529 87T513 49T489 18Q453 -18 393 -18Q371 -18 349 -12T299 9L249 35Q229 46 217 52T195 61T178 65T160 66Q128 66 115 52T98 0H50Z"/>
<glyph unicode="3" horiz-adv-x="611" d="M232 352Q261 353 282 354T318 356T345 360T366 366Q430 388 430 456Q430 509 391 539T286 570Q246 570 215 559T144 521Q170 515 181 503T192 467Q192 441 176 426T133 411Q104 411 86 429T67 477Q67 506 86 532T136 578T210 610T298 622Q350 622 392 611T465 578T513 528T530 463Q530 432 516 405T476 360Q461 349 444 343T394 327Q436 317 458 307T501 277Q548 233 548 170Q548 128 529 94T474 35T389 -3T279 -17Q230 -17 187 -5T111 30T59 81T40 143Q40 176 61 197T114 219Q141 219 157 204T174 162Q174 135 159 122T109 106Q126 86 142 74T176 53T215 42T266 39Q352 39 397 73T443 172Q443 211 425 239T373 281Q362 285 350 288T322 294T284 297T232 299V352Z"/>
<glyph unicode="4" horiz-adv-x="611" d="M221 51H283Q305 51 319 53T341 61T352 78T355 106V180H30V231L383 622H442V237H570V180H442V110Q442 91 444 80T454 62T476 53T514 51H570V0H221V51ZM355 509L110 237H355V509Z"/>
<glyph unicode="5" horiz-adv-x="611" d="M146 382Q173 394 194 401T233 413T268 420T305 422Q362 422 407 407T484 364T533 296T550 206Q550 150 532 110T471 40Q393 -17 283 -17Q233 -17 191 -5T117 28T67 78T49 141Q49 175 68 196T120 218Q147 218 165 202T183 159Q183 133 168 120T118 102Q140 79 154 69T187 52Q226 38 269 38Q352 38 400 82T448 205Q448 279 402 321T277 364Q257 364 240 361T205 352T169 334T129 305H80L106 620Q140 611 165 606T213 597T257 593T305 591Q332 591 355 592T404 597T457 607T523 622Q509 599 497 583T472 555T445 537T411 524Q357 508 284 508Q270 508 257 508T230 510T198 513T157 519L146 382Z"/>
<glyph unicode="6" horiz-adv-x="611" d="M453 539Q423 557 399 564T346 571Q302 571 266 553T206 501Q195 486 188 469T175 431T167 382T161 319Q186 340 207 354T250 378T292 391T339 395Q387 395 427 380T498 338T545 275T562 195Q562 147 545 108T495 42T418 -1T318 -17Q254 -17 208 2T127 63Q55 149 55 283Q55 359 75 421T133 528T222 597T337 622Q380 622 416 613T480 586T522 547T537 497Q537 467 521 449T475 431Q449 431 431 447T412 486Q412 520 453 539ZM315 336Q247 336 207 297T167 191Q167 120 206 79T312 38Q379 38 419 77T459 185Q459 256 421 296T315 336Z"/>
<glyph unicode="7" horiz-adv-x="611" d="M253 -5Q253 69 258 121T278 217T320 300T389 388Q409 410 421 424T442 451T461 478T486 514Q459 503 443 500T407 496Q395 496 386 496T364 499T330 507T273 522Q261 526 241 526Q213 526 189 515T151 483Q145 474 141 465T135 441T131 405T128 352H74V605H132V534Q150 556 166 571T199 596T233 609T273 613Q299 613 326 607T395 584Q424 572 441 568T471 563Q495 563 508 572T529 605H581Q579 583 576 568T561 532T527 476T462 379Q424 323 403 286T370 213T357 132T354 16V-5H253Z"/>
<glyph unicode="8" horiz-adv-x="611" d="M182 307Q150 322 128 336T92 368T72 405T66 450Q66 487 83 519T132 573T207 609T303 622Q354 622 397 611T471 579T520 531T538 470Q538 410 489 372Q465 354 411 332Q457 312 483 296T527 261Q564 220 564 166Q564 126 545 93T490 35T406 -3T299 -17Q240 -17 193 -5T111 29T59 83T40 153Q40 215 89 258Q116 281 182 307ZM262 281Q220 270 198 261T159 236Q142 221 133 200T123 156Q123 130 136 109T172 72T227 48T298 39Q379 39 425 68T472 147Q472 187 444 211T347 256L262 281ZM337 354Q371 364 388 372T419 392Q436 406 445 427T455 472Q455 518 415 544T303 570Q236 570 195 543T154 471Q154 436 176 415T246 379L337 354Z"/>
<glyph unicode="9" horiz-adv-x="611" d="M157 66Q189 48 213 41T265 34Q309 34 345 52T405 104Q415 119 422 136T435 174T444 223T450 286Q425 264 404 250T361 226T319 213T272 209Q224 209 184 224T113 266T66 330T49 410Q49 458 66 497T116 563T193 606T293 622Q357 622 403 603T484 542Q556 456 556 322Q556 246 536 184T478 77T389 8T274 -17Q231 -17 195 -8T131 19T89 58T74 108Q74 138 90 156T136 174Q162 174 180 158T199 119Q199 83 157 66ZM299 567Q231 567 192 528T152 420Q152 348 190 308T296 268Q364 268 404 307T444 414Q444 502 387 541Q369 553 346 560T299 567Z"/>
<glyph unicode=":" horiz-adv-x="298" d="M186 96Q209 96 225 80T242 40Q242 17 226 0T186 -17Q162 -17 146 0T129 41Q129 64 146 80T186 96ZM186 444Q209 444 225 428T242 388Q242 365 226 348T186 331Q162 331 146 348T129 389Q129 412 146 428T186 444Z"/>
<glyph unicode=";" horiz-adv-x="298" d="M200 444Q223 444 239 428T256 388Q256 365 240 348T200 331Q176 331 160 348T143 389Q143 412 160 428T200 444ZM129 -111Q158 -106 173 -98T202 -72Q222 -45 222 -13V3Q210 -5 202 -8T184 -11Q162 -11 148 3T134 39Q134 65 150 80T192 95Q226 95 247 71T269 6Q269 -23 259 -50T230 -98Q211 -118 190 -128T129 -146V-111Z"/>
<glyph unicode="&lt;" horiz-adv-x="500" d="M466 492L125 333L466 175V89L33 296V371L466 578V492Z"/>
<glyph unicode="=" horiz-adv-x="506" d="M454 426V363H52V426H454ZM454 274V211H52V274H454Z"/>
<glyph unicode="&gt;" horiz-adv-x="500" d="M467 371V296L34 89V175L374 333L34 492V578L467 371Z"/>
<glyph unicode="?" horiz-adv-x="511" d="M247 96Q270 96 286 80T303 40Q303 17 287 0T247 -17Q223 -17 207 0T190 41Q190 63 207 79T247 96ZM219 180Q220 222 223 249T237 298T269 342T326 397Q362 429 376 457T391 520Q391 571 354 602T256 633Q221 633 189 622T137 590Q118 573 111 555T103 507Q117 515 125 517T144 520Q168 520 182 506T196 469Q196 443 179 428T133 412Q97 412 74 441T50 515Q50 552 66 584T112 638T181 674T269 687Q317 687 357 675T425 640T470 585T486 515Q486 492 479 469T460 427Q452 415 444 405T423 384T395 360T354 329Q327 308 311 295T287 266T275 232T270 180H219Z"/>
<glyph unicode="@" horiz-adv-x="747" d="M558 493L518 286Q515 272 514 260T512 240Q512 220 521 208T546 196Q567 196 586 211T620 253T644 312T653 382Q653 435 634 480T580 557T497 608T392 626Q330 626 277 603T184 541T122 447T99 331Q99 272 120 219T179 125Q220 83 273 63T398 42Q508 42 603 85L619 31Q520 -13 397 -13Q238 -13 142 83Q93 131 67 195T40 331Q40 404 67 468T141 579T252 653T390 680Q458 680 516 658T616 595T683 501T707 383Q707 336 694 293T658 218T606 166T543 146Q513 146 493 163T469 211Q447 177 415 159T344 141Q313 141 287 153T243 186T214 237T203 302Q203 344 217 380T255 445T311 489T379 505Q457 505 487 434L498 493H558ZM385 442Q361 442 341 431T304 401T279 357T270 303Q270 258 294 230T358 201Q381 201 401 212T435 244T458 290T467 348Q467 391 445 416T385 442Z"/>
<glyph unicode="A" horiz-adv-x="700" d="M-20 53H12Q29 53 41 55T62 64T79 82T92 111L307 667H390L602 114Q616 78 633 66T685 53H713V0H397V53H450Q484 53 496 58T509 79Q509 88 501 110L459 223H205L168 130Q154 94 154 79Q154 63 167 58T218 53H268V0H-20V53ZM437 276L329 561L225 276H437Z"/>
<glyph unicode="B" horiz-adv-x="715" d="M30 53H71Q118 53 132 68Q137 75 139 86T141 126V541Q141 570 139 581T132 599Q118 614 71 614H30V667H393Q516 667 580 626T644 505Q644 468 629 439T584 390Q575 384 566 379T545 370T519 361T484 352Q528 344 551 337T596 316Q629 294 647 260T665 183Q665 94 591 46Q553 21 503 11T376 0H30V53ZM376 53Q470 53 517 87T565 189Q565 256 514 292Q502 301 489 306T461 315T425 320T376 322H238V53H376ZM376 375Q456 375 500 406T545 494Q545 527 531 553T490 594Q457 614 384 614H238V375H376Z"/>
<glyph unicode="C" horiz-adv-x="705" d="M654 243Q650 210 646 185T634 140T617 103T593 69Q520 -20 373 -20Q302 -20 246 1T144 68Q93 118 66 185T39 331Q39 407 64 472T133 585T238 660T369 687Q397 687 421 683T469 670T519 646T577 607L602 667H648V408H597Q593 435 589 455T579 491T565 521T544 550Q512 589 469 610T376 631Q326 631 284 609T212 547T164 453T147 334Q147 275 162 222T207 127Q236 85 282 63T385 41Q436 41 477 59T545 110Q555 123 562 135T575 163T585 198T595 243H654Z"/>
<glyph unicode="D" horiz-adv-x="785" d="M30 53H71Q118 53 132 68Q137 75 139 86T141 126V541Q141 570 139 581T132 599Q118 614 71 614H30V667H354Q414 667 457 664T533 653T591 632T640 599Q694 554 722 487T750 336Q750 256 725 190T651 79Q627 56 601 41T540 17T460 4T352 0H30V53ZM238 53H352Q429 53 486 71T577 124Q609 157 625 213T642 341Q642 408 627 455T580 539Q544 580 492 597T353 614H238V53Z"/>
<glyph unicode="E" horiz-adv-x="740" d="M30 53H71Q118 53 132 68Q137 75 139 86T141 126V541Q141 570 139 581T132 599Q118 614 71 614H30V667H661V416H610Q608 477 600 516T570 576T513 606T418 614H238V376H307Q331 376 347 377T373 382T390 393T401 411Q408 428 410 448T413 505H464V178H413Q411 208 410 226T408 256T404 275T397 289Q388 306 366 314T306 323H238V53H431Q498 53 534 68T587 117Q592 128 595 141T602 171T606 213T610 271H661V0H30V53Z"/>
<glyph unicode="F" horiz-adv-x="680" d="M30 53H71Q118 53 132 68Q137 75 139 86T141 126V541Q141 570 139 581T132 599Q118 614 71 614H30V667H640V401H589Q588 468 580 509T551 574T493 605T397 614H238V376H291Q316 376 332 377T358 382T375 393T386 411Q393 428 395 448T398 505H448V178H398Q396 207 395 225T393 256T389 275T382 289Q373 307 351 315T290 323H238V126Q238 97 240 86T247 68Q262 53 309 53H358V0H30V53Z"/>
<glyph unicode="G" horiz-adv-x="775" d="M612 -7L576 56Q542 34 516 20T464 -3T415 -15T361 -19Q289 -19 230 6T129 77T63 187T40 329Q40 408 63 473T130 586T232 660T362 687Q393 687 417 683T465 670T513 644T569 602L603 667H650V421H597Q589 449 582 470T566 507T548 537T525 565Q494 597 455 614T371 631Q320 631 279 610T209 550T164 456T148 334Q148 213 195 137Q223 92 272 67T379 41Q428 41 473 59T543 108Q569 141 569 191V232Q569 250 566 261T555 278T532 287T493 289H440V342H776V289H737Q713 289 699 288T678 280T668 263T666 232V-7H612Z"/>
<glyph unicode="H" horiz-adv-x="829" d="M28 53H69Q116 53 130 68Q135 75 137 86T139 126V541Q139 570 137 581T130 599Q116 614 69 614H28V667H356V614H307Q260 614 245 599Q240 592 238 581T236 541V364H592V541Q592 570 590 581T583 599Q569 614 522 614H473V667H800V614H759Q711 614 698 599Q693 592 691 581T689 541V126Q689 97 691 86T698 68Q711 53 759 53H800V0H473V53H522Q569 53 583 68Q588 75 590 86T592 126V311H236V126Q236 97 238 86T245 68Q260 53 307 53H356V0H28V53Z"/>
<glyph unicode="I" horiz-adv-x="387" d="M29 53H74Q121 53 135 68Q140 75 142 86T144 126V541Q144 570 142 581T135 599Q121 614 74 614H29V667H357V614H312Q264 614 251 599Q246 592 244 581T242 541V126Q242 97 244 86T251 68Q264 53 312 53H357V0H29V53Z"/>
<glyph unicode="J" horiz-adv-x="541" d="M195 667H513V614H480Q431 614 418 599Q413 592 411 581T409 541V210Q409 176 407 151T401 107T389 73T370 44Q319 -20 203 -20Q111 -20 58 27Q35 48 23 74T10 129Q10 166 31 189T87 212Q116 212 133 195T151 148Q151 88 83 84Q106 57 129 46T188 35Q217 35 243 45T284 74Q312 106 312 179V541Q312 570 310 581T303 599Q289 614 242 614H195V667Z"/>
<glyph unicode="K" horiz-adv-x="765" d="M358 0H30V53H71Q118 53 132 68Q137 75 139 86T141 126V541Q141 570 139 581T132 599Q118 614 71 614H30V667H358V614H309Q262 614 247 599Q242 592 240 581T238 541V318L515 565Q533 580 533 594Q533 614 483 614H433V667H767V614H727Q659 614 574 536L406 384L656 111Q678 86 689 78T715 63Q727 58 742 56T772 53H802V0H440V53H516Q555 53 555 72Q555 76 555 79T551 86T540 99T520 121L336 323L238 237V126Q238 97 240 86T247 68Q262 53 309 53H358V0Z"/>
<glyph unicode="L" horiz-adv-x="680" d="M358 667V614H309Q262 614 247 599Q242 592 240 581T238 541V53H397Q457 53 494 61T552 94T580 162T589 277H640V0H30V53H71Q118 53 132 68Q137 75 139 86T141 126V541Q141 570 139 581T132 599Q118 614 71 614H30V667H358Z"/>
<glyph unicode="M" horiz-adv-x="943" d="M30 667H273L476 145L686 667H918V614H877Q829 614 816 599Q811 592 809 581T807 541V126Q807 97 809 86T816 68Q829 53 877 53H918V0H595V53H642Q690 53 704 68Q709 75 711 86T713 126V586L478 0H440L206 600V126Q206 97 208 86T215 68Q228 53 276 53H321V0H30V53H69Q116 53 130 68Q135 75 137 86T139 126V541Q139 570 137 581T130 599Q116 614 69 614H30V667Z"/>
<glyph unicode="N" horiz-adv-x="824" d="M614 -3L206 577V126Q206 97 208 86T215 68Q230 53 277 53H327V0H30V53H69Q116 53 130 68Q135 75 137 86T139 126V541Q139 570 137 581T130 599Q116 614 69 614H30V667H253L632 131V541Q632 570 630 581T623 599Q609 614 562 614H509V667H801V614H769Q721 614 708 599Q703 592 701 581T699 541V-3H614Z"/>
<glyph unicode="O" horiz-adv-x="794" d="M398 687Q475 687 540 661T653 587T728 474T755 333Q755 257 728 193T654 81T541 7T398 -20Q320 -20 254 6T141 80T67 194T40 338Q40 413 67 476T142 587T255 660T398 687ZM398 632Q342 632 296 611T217 551T166 458T148 338Q148 267 163 215T212 122Q282 35 398 35Q454 35 500 56T578 117T629 211T647 334Q647 401 629 456T579 550T500 610T398 632Z"/>
<glyph unicode="P" horiz-adv-x="680" d="M358 0H30V53H71Q118 53 132 68Q137 75 139 86T141 126V541Q141 570 139 581T132 599Q118 614 71 614H30V667H340Q385 667 418 665T478 659T525 649T565 632Q603 611 623 574T644 485Q644 435 623 396T563 336Q545 326 526 320T482 309T425 304T348 302H238V126Q238 97 240 86T247 68Q262 53 309 53H358V0ZM348 355Q449 355 496 387T543 489Q543 574 466 600Q445 608 416 611T342 614H238V355H348Z"/>
<glyph unicode="Q" horiz-adv-x="819" d="M820 113Q815 69 807 42T781 -10Q739 -68 671 -68Q651 -68 634 -65T602 -53T571 -30T537 5Q514 -2 497 -6T465 -14T434 -18T401 -19Q322 -19 256 7T141 80T67 191T40 333Q40 409 67 474T142 586T255 660T398 687Q475 687 540 661T653 587T728 474T755 333Q755 281 742 233T702 144Q689 124 670 103T616 52Q639 27 654 18T690 9Q725 9 743 33T770 113H820ZM569 106Q592 133 603 151T624 192Q635 221 641 258T647 335Q647 402 629 457T579 551T500 611T398 632Q341 632 295 611T217 551T166 457T148 335Q148 287 157 243T183 164Q194 141 210 123T259 76Q248 115 248 138Q248 160 257 178T283 211T322 233T371 241Q433 241 484 201Q494 193 503 185T521 166T542 141T569 106ZM502 57Q491 74 489 78T482 88Q450 136 423 156T366 177Q336 177 318 160T300 113Q300 78 328 57T401 35Q421 35 442 39T502 57Z"/>
<glyph unicode="R" horiz-adv-x="770" d="M358 0H30V53H71Q118 53 132 68Q137 75 139 86T141 126V541Q141 570 139 581T132 599Q118 614 71 614H30V667H376Q458 667 512 657T602 626Q632 607 649 575T666 501Q666 424 608 383Q597 375 586 369T561 359T529 350T487 342Q527 332 553 318T595 280T617 223T624 140Q624 84 630 65T657 45Q668 45 675 49T686 67T693 103T696 163H743Q743 111 737 76T718 20T682 -11T628 -20Q532 -20 527 92L524 174Q520 250 483 285T366 320H238V126Q238 97 240 86T247 68Q262 53 309 53H358V0ZM366 373Q565 373 565 499Q565 536 546 563T493 601Q485 604 472 606T443 610T409 613T376 614H238V373H366Z"/>
<glyph unicode="S" horiz-adv-x="626" d="M45 277H100Q106 246 112 223T126 182T144 148T169 118Q204 81 249 62T347 43Q419 43 463 77T507 168Q507 220 466 250Q452 261 424 270T353 289L271 307Q233 316 208 322T166 334T135 347T109 364Q47 408 47 496Q47 539 63 574T110 635T183 673T279 687Q310 687 334 684T382 672T429 649T486 612L515 673H561V420H508Q503 449 498 471T485 509T470 539T449 565Q420 596 378 612T284 629Q215 629 174 599T132 519Q132 474 164 448T268 407L364 388Q428 376 472 359T544 318T584 263T597 189Q597 143 579 105T528 39T450 -4T351 -20Q317 -20 290 -16T238 -1T187 28T128 74L96 0H45V277Z"/>
<glyph unicode="T" horiz-adv-x="665" d="M27 667H638V405H587Q584 468 575 508T547 572T495 605T412 614H381V126Q381 97 383 86T390 68Q403 53 451 53H514V0H152V53H214Q237 53 251 55T272 65T282 87T284 126V614H253Q203 614 171 605T119 573T90 509T78 405H27V667Z"/>
<glyph unicode="U" horiz-adv-x="760" d="M30 667H349V614H300Q252 614 239 599Q234 592 232 581T230 541V209Q230 126 269 87T394 47Q436 47 470 58T526 91Q549 113 558 147T568 244V541Q568 570 566 581T559 599Q545 614 498 614H449V667H736V614H706Q657 614 644 599Q639 592 637 581T635 541V244Q635 171 620 124T569 43Q503 -20 382 -20Q276 -20 208 30Q133 84 133 209V541Q133 570 131 581T124 599Q110 614 62 614H30V667Z"/>
<glyph unicode="V" horiz-adv-x="680" d="M96 551Q89 570 82 582T66 601T43 611T10 614H-20V667H303V614H241Q212 614 201 608T190 585Q190 565 197 547L355 118L514 545Q519 556 521 568T524 586Q524 602 512 608T470 614H412V667H703V614H670Q650 614 637 612T614 602T597 581T581 546L375 0H298L96 551Z"/>
<glyph unicode="W" horiz-adv-x="958" d="M108 513Q99 547 92 567T76 597T57 611T30 614H0V667H281V614H241Q212 614 201 608T189 584Q189 569 194 551L312 124L450 537L441 571Q434 595 420 604T373 614H340V667H631V614H586Q553 614 543 609T532 586Q532 572 537 555L668 124L787 527Q792 543 795 559T798 584Q798 601 788 607T749 614H702V667H954V614H927Q912 614 902 611T883 598T867 572T853 531L693 0H615L479 437L332 0H255L108 513Z"/>
<glyph unicode="X" horiz-adv-x="735" d="M0 53H25Q56 53 89 74T156 138L310 330L155 537Q123 580 98 597T41 614H14V667H330V614H292Q243 614 243 591Q243 579 257 560L372 407L492 548Q518 579 518 594Q518 614 474 614H427V667H713V614H680Q648 614 622 598T565 542L413 353L577 130Q636 53 709 53H736V0H392V53H427Q492 53 492 76Q492 87 481 103L348 275L213 108Q198 89 198 79Q198 53 248 53H292V0H0V53Z"/>
<glyph unicode="Y" horiz-adv-x="636" d="M90 550Q51 614 4 614H-25V667H281V614H217Q182 614 182 593Q182 577 196 555L331 331L476 564Q481 572 484 581T487 597Q487 614 453 614H386V667H656V614H633Q617 614 604 610T579 597T555 572T528 532L363 263V126Q363 97 365 86T372 68Q385 53 433 53H495V0H133V53H196Q243 53 257 68Q262 75 264 86T266 126V263L90 550Z"/>
<glyph unicode="Z" horiz-adv-x="616" d="M25 54L453 614H263Q209 614 180 605T133 573Q124 561 118 548T108 517T101 471T96 403H44V667H568V611L142 53H333Q399 53 437 70T491 124Q495 135 498 148T504 179T509 224T514 287H567V0H25V54Z"/>
<glyph unicode="[" horiz-adv-x="358" d="M104 667H324V623H178V-128H324V-172H104V667Z"/>
<glyph unicode="\" horiz-adv-x="349" d="M40 686H95L338 -92H283L40 686Z"/>
<glyph unicode="]" horiz-adv-x="358" d="M30 -128H176V623H30V667H250V-172H30V-128Z"/>
<glyph unicode="^" horiz-adv-x="500" d="M29 371L200 669H299L470 371H389L249 610L110 371H29Z"/>
<glyph unicode="_" horiz-adv-x="500" d="M500 -74V-139H0V-74H500Z"/>
<glyph unicode="`" horiz-adv-x="500" d="M274 540L129 629Q106 643 97 653T88 677Q88 693 99 704T125 716Q149 716 176 686L310 540H274Z"/>
<glyph unicode="a" horiz-adv-x="551" d="M551 159Q551 109 546 75T528 21T495 -9T445 -18Q407 -18 386 0T351 61Q327 39 306 24T265 0T223 -14T177 -18Q111 -18 71 17T30 110Q30 170 79 205Q99 219 123 228T192 251L270 273Q316 286 333 303T350 354Q350 394 319 417T233 441Q201 441 177 432T124 399Q171 388 171 349Q171 328 155 314T116 300Q90 300 73 317T56 361Q56 387 70 410T110 450T171 476T246 486Q286 486 321 477T382 451Q396 442 405 431T419 406T427 373T430 327V95Q430 63 436 50T460 37Q472 37 480 42T494 60T501 98T505 159H551ZM346 253Q327 244 315 239T294 229T276 222T256 216L217 203Q166 186 145 166T124 112Q124 80 145 61T202 41Q228 41 254 50T299 75Q325 96 335 124T346 199V253Z"/>
<glyph unicode="b" horiz-adv-x="586" d="M84 -6V562Q84 580 82 591T72 608T53 616T20 619H0V667H169V391Q187 417 200 431T228 455Q250 469 277 477T336 485Q384 485 423 467T491 416T535 337T551 234Q551 178 536 133T492 54T424 3T337 -15Q273 -15 225 19Q212 28 199 42T169 81L128 -6H84ZM320 427Q286 427 258 414T211 376T180 316T169 239Q169 148 209 96T319 43Q384 43 419 93T455 233Q455 327 420 377T320 427Z"/>
<glyph unicode="c" horiz-adv-x="511" d="M481 175Q476 150 472 132T461 99T447 72T429 47Q399 13 360 -2T267 -18Q214 -18 170 0T95 50T47 127T30 228Q30 285 48 332T100 413T178 467T279 486Q323 486 361 475T426 443T470 396T486 336Q486 304 468 285T419 266Q395 266 380 281T364 320Q364 343 377 355T419 372Q405 394 396 403T369 421Q335 438 291 438Q214 438 171 385T127 236Q127 144 166 93T277 41Q312 41 341 54T389 91Q400 106 407 123T423 175H481Z"/>
<glyph unicode="d" horiz-adv-x="611" d="M320 667H502V105Q502 87 504 76T514 59T533 51T566 48H591V0H417V81Q398 55 380 37T342 7T299 -10T248 -15Q201 -15 162 3T94 54T51 132T35 234Q35 290 50 336T94 416T162 467T250 486Q278 486 300 481T342 465T380 436T417 391V562Q417 597 405 608T352 619H320V667ZM266 428Q201 428 166 378T131 234Q131 143 166 93T267 43Q301 43 328 57T375 96T406 156T417 234Q417 324 376 376T266 428Z"/>
<glyph unicode="e" horiz-adv-x="526" d="M481 154Q469 108 457 84T423 38Q367 -17 272 -17Q217 -17 173 1T97 51T48 130T30 233Q30 291 47 337T95 417T171 468T270 486Q383 486 442 411Q455 394 464 377T480 338T490 289T495 226H126Q127 200 129 181T134 146T143 119T157 95Q175 68 204 54T272 39Q302 39 328 48T375 74Q391 87 401 104T422 154H481ZM397 279Q395 325 389 349T367 394Q335 437 268 437Q199 437 164 390Q156 379 151 369T142 346T135 317T130 279H397Z"/>
<glyph unicode="f" horiz-adv-x="343" d="M25 420V469H117V509Q117 562 126 593T159 645Q199 684 271 684Q335 684 375 655T415 580Q415 553 401 537T360 521Q338 521 323 535T308 569Q308 604 348 614Q328 629 315 634T283 639Q257 639 239 629T213 600Q207 585 205 565T202 506V469H314V420H202V105Q202 87 204 76T214 59T233 51T266 48H314V0H25V48H53Q73 48 85 50T105 59T114 76T117 105V420H25Z"/>
<glyph unicode="g" horiz-adv-x="646" d="M363 60Q454 60 501 28T549 -68Q549 -142 482 -178T274 -214Q214 -214 171 -207T94 -183Q65 -169 48 -146T30 -97Q30 -78 39 -61T64 -30Q81 -16 126 -4Q85 10 68 29T50 79Q50 94 54 106T67 129T93 151T133 176Q98 208 84 237T69 309Q69 349 84 381T126 437T191 473T275 486Q324 486 361 474T442 432Q458 448 471 458T496 475T521 483T549 486Q591 486 616 463T642 401Q642 369 627 350T585 331Q563 331 549 345T534 379Q534 418 582 427Q573 438 567 441T547 444Q524 444 507 434T468 397Q476 383 481 372T489 351T493 331T494 307Q494 224 438 176T282 128Q270 128 261 128T241 131T218 136T187 145Q182 146 179 146T174 147Q155 147 140 132T124 98Q124 78 144 69T210 60H363ZM279 439Q223 439 192 405T161 308Q161 180 280 180Q340 180 370 213T401 309Q401 372 370 405T279 439ZM259 -20Q106 -20 106 -89Q106 -126 144 -145T258 -164Q306 -164 351 -159T421 -144Q473 -125 473 -85Q473 -50 438 -35T317 -20H259Z"/>
<glyph unicode="h" horiz-adv-x="646" d="M30 667H201V388Q222 417 237 432T273 458Q296 469 322 475T376 482Q420 482 453 467T507 423Q516 410 521 397T530 366T534 325T536 268V105Q536 87 538 76T548 59T567 51T600 48H622V0H354V48H386Q426 48 438 59T451 105V281Q451 363 428 396T349 429Q285 429 242 384Q220 360 211 333T201 268V105Q201 87 203 76T213 59T233 51T266 48H298V0H30V48H52Q72 48 84 50T104 59T113 76T116 105V562Q116 580 114 591T104 608T85 616T52 619H30V667Z"/>
<glyph unicode="i" horiz-adv-x="328" d="M157 675Q180 675 196 659T213 619Q213 596 197 579T157 562Q133 562 117 579T100 620Q100 642 117 658T157 675ZM30 48H62Q82 48 94 50T114 59T123 76T126 105V364Q126 398 114 409T62 421H30V469H212V105Q212 87 214 76T224 59T243 51T276 48H302V0H30V48Z"/>
<glyph unicode="j" horiz-adv-x="318" d="M37 469H215V-45Q215 -91 208 -116T183 -164Q142 -214 63 -214Q4 -214 -33 -186T-70 -113Q-70 -84 -54 -67T-10 -50Q13 -50 28 -64T44 -101Q44 -121 33 -131T-2 -148Q15 -159 26 -163T54 -167Q73 -167 89 -161T114 -143Q123 -132 126 -115T130 -68V360Q130 382 129 394T121 412T103 419T69 421H37V469ZM159 675Q182 675 198 659T215 619Q215 596 199 579T159 562Q135 562 119 579T102 620Q102 643 119 659T159 675Z"/>
<glyph unicode="k" horiz-adv-x="636" d="M370 365Q400 390 400 404Q400 412 388 416T347 420H301V469H594V420H579Q545 420 522 411T467 377L341 276L507 93Q549 48 605 48H620V0H336V48H362Q389 48 404 53T419 67Q419 75 407 89L279 228L197 165V105Q197 87 199 76T209 59T228 51T261 48H283V0H25V48H52Q91 48 103 59T116 105V562Q116 596 104 607T52 619H25V667H197V229L370 365Z"/>
<glyph unicode="l" horiz-adv-x="318" d="M203 105Q203 87 205 76T215 59T234 51T267 48H296V0H25V48H53Q73 48 85 50T105 59T114 76T117 105V562Q117 580 115 591T105 608T86 616T53 619H25V667H203V105Z"/>
<glyph unicode="m" horiz-adv-x="924" d="M30 48H58Q78 48 90 50T110 59T119 76T122 105V364Q122 398 110 409T58 421H30V469H206V398Q226 422 244 438T280 463T319 477T364 482Q393 482 419 474T464 450Q475 441 483 427T502 390Q526 417 545 434T584 462T624 477T670 482Q710 482 741 468T790 426Q798 414 803 401T812 371T816 329T817 268V105Q817 87 819 76T829 59T848 51T881 48H905V0H651V48H669Q689 48 701 50T721 59T730 77T733 105V281Q733 323 729 351T714 397T687 422T645 429Q585 429 546 382Q526 359 519 336T512 268V105Q512 87 514 76T524 59T543 51T576 48H594V0H345V48H363Q403 48 415 59T428 105V281Q428 323 424 351T409 397T382 422T339 429Q279 429 240 382Q220 359 213 336T206 268V105Q206 87 208 76T218 59T237 51T270 48H288V0H30V48Z"/>
<glyph unicode="n" horiz-adv-x="650" d="M30 48H58Q78 48 90 50T110 59T119 76T122 105V364Q122 398 110 409T58 421H30V469H207V388Q229 417 244 432T279 458Q302 469 328 475T381 482Q425 482 458 467T512 423Q521 410 526 397T535 367T539 325T541 268V105Q541 87 543 76T553 59T573 51T606 48H628V0H360V48H392Q412 48 424 50T444 59T453 76T456 105V281Q456 363 434 396T355 429Q291 429 248 384Q226 360 217 333T207 268V105Q207 87 209 76T219 59T239 51T272 48H304V0H30V48Z"/>
<glyph unicode="o" d="M289 486Q341 486 387 469T469 419Q546 349 546 234Q546 175 527 130T469 50Q434 18 387 1T289 -17Q237 -17 191 0T108 50Q68 86 50 131T31 238Q31 294 50 340T108 419Q183 486 289 486ZM289 435Q212 435 170 384T128 237Q128 138 169 86T289 34Q366 34 407 86T449 234Q449 331 408 383T289 435Z"/>
<glyph unicode="p" horiz-adv-x="606" d="M10 469H181V388Q200 415 218 433T256 462T298 479T349 484Q396 484 435 466T503 415T546 336T562 235Q562 179 547 133T503 54T435 3T347 -16Q319 -16 297 -11T255 5T218 34T181 78V-109Q181 -126 183 -137T193 -154T213 -163T245 -166H277V-214H10V-166H32Q51 -166 63 -164T83 -155T93 -137T96 -109V364Q96 399 84 410T32 421H10V469ZM330 426Q262 426 222 374T181 236Q181 146 221 94T331 42Q395 42 430 92T465 235Q465 326 430 376T330 426Z"/>
<glyph unicode="q" horiz-adv-x="611" d="M589 -214H320V-166H352Q392 -166 404 -155T417 -109V78Q398 52 380 34T343 5T300 -11T249 -16Q201 -16 162 2T95 53T51 132T35 235Q35 290 50 336T94 415T161 466T248 484Q313 484 361 450Q374 441 387 427T417 388V469H589V421H566Q527 421 515 410T502 364V-109Q502 -126 504 -137T514 -154T534 -163T566 -166H589V-214ZM266 426Q202 426 167 376T131 235Q131 142 166 92T266 42Q300 42 328 55T375 93T406 153T417 230Q417 321 377 373T266 426Z"/>
<glyph unicode="r" horiz-adv-x="477" d="M320 0H30V48H58Q78 48 90 50T110 59T119 76T122 105V364Q122 398 110 409T58 421H30V469H207V372Q236 431 270 457T352 484Q402 484 433 454T465 376Q465 347 447 328T403 308Q380 308 364 322T348 359Q348 408 403 408Q387 425 376 431T346 437Q279 437 235 352Q221 324 214 292T207 217V105Q207 87 209 76T219 59T238 51T271 48H320V0Z"/>
<glyph unicode="s" horiz-adv-x="497" d="M40 192H92Q102 150 113 128T148 85Q173 62 204 50T270 38Q320 38 349 58T379 114Q379 167 292 185L202 202Q128 216 87 254T46 346Q46 377 58 402T93 446T147 475T216 485Q260 485 295 473T373 433L392 475H437V293H387Q378 331 368 352T340 390Q295 433 225 433Q180 433 155 415T129 364Q129 307 212 292L306 275Q381 261 421 225T461 134Q461 65 411 25T274 -16Q249 -16 229 -13T190 -3T152 16T111 46L91 -4H40V192Z"/>
<glyph unicode="t" horiz-adv-x="402" d="M15 420V469Q73 474 101 516T137 655H184V469H327V420H184V95Q184 41 233 41Q254 41 270 51T292 80Q298 97 301 123T305 192H350Q349 160 348 138T344 100T339 73T331 50Q318 18 288 1T217 -17Q162 -17 131 13T99 95V420H15Z"/>
<glyph unicode="u" horiz-adv-x="645" d="M25 469H196V188Q196 106 218 73T297 40Q362 40 404 85Q427 110 436 136T445 201V364Q445 382 443 393T433 410T414 418T381 421H343V469H530V105Q530 87 532 76T542 59T562 51T595 48H623V0H445V81Q424 52 409 37T374 11Q351 0 325 -6T271 -13Q227 -13 193 2T140 46Q131 59 126 72T117 102T113 144T111 201V364Q111 382 109 393T99 410T80 418T47 421H25V469Z"/>
<glyph unicode="v" horiz-adv-x="556" d="M-5 469H239V420H203Q178 420 170 416T161 398Q161 393 163 384T170 366L286 107L395 360Q406 385 406 399Q406 411 396 415T359 420H315V469H541V420H522Q509 420 500 418T485 410T472 393T456 362L294 -5H241L74 375Q62 403 52 411T17 420H-5V469Z"/>
<glyph unicode="w" horiz-adv-x="819" d="M88 370Q76 401 65 411T28 421H10V469H237V421H204Q167 421 167 397Q167 389 174 372L277 107L379 362L373 380Q364 403 353 412T318 421H296V469H530V421H501Q471 421 462 417T453 398Q453 394 455 387T459 372L561 107L664 363Q669 373 671 383T673 401Q673 412 663 416T627 421H597V469H804V421H791Q765 421 751 409T724 363L578 -5H522L407 285L293 -5H236L88 370Z"/>
<glyph unicode="x" horiz-adv-x="601" d="M482 94Q501 72 524 60T571 48H586V0H314V48H359Q374 48 386 53T398 66Q398 73 385 89L290 196L187 86Q179 78 177 74T174 65Q174 48 220 48H257V0H15V48H29Q51 48 77 61T124 98L255 240L142 364Q113 396 90 408T36 421H20V469H275V421H243Q212 421 212 406Q212 401 215 396T229 379L307 290L400 389Q408 397 408 407Q408 415 400 418T365 421H337V469H571V421H552Q523 421 501 409T451 368L343 251L482 94Z"/>
<glyph unicode="y" horiz-adv-x="566" d="M93 374Q82 401 68 411T28 421H2V469H255V421H212Q193 421 186 417T178 401Q178 395 180 386T187 367L300 103L414 372Q421 389 421 399Q421 411 410 416T371 421H331V469H569V421H539Q515 421 502 409T472 359L333 38Q311 -12 296 -46T269 -102T247 -139T226 -164Q181 -214 113 -214Q86 -214 67 -207T31 -184Q-5 -151 -5 -104Q-5 -72 14 -51T63 -30Q86 -30 101 -45T116 -83Q116 -108 103 -119T58 -132Q72 -151 84 -157T116 -164Q162 -164 197 -115Q203 -105 209 -96T221 -74T236 -44T255 -3L93 374Z"/>
<glyph unicode="z" horiz-adv-x="497" d="M25 50L344 420H226Q195 420 175 419T143 413T123 401T108 381Q104 374 102 366T97 346T93 317T89 272H41V469H450V420L132 50H260Q293 50 316 52T354 60T379 75T395 99Q398 106 400 114T404 135T407 165T411 212H459V0H25V50Z"/>
<glyph unicode="{" horiz-adv-x="358" d="M189 368Q189 343 186 325T177 294T158 269T128 247Q162 227 175 201T189 126V-52Q189 -76 193 -91T209 -116T238 -129T286 -133H326V-177Q298 -178 288 -178T267 -178Q184 -178 150 -145T115 -32V137Q115 179 103 199T59 227V268Q88 276 101 295T115 351V532Q115 570 123 597T150 640T198 664T270 672Q276 672 285 672T326 671V628Q239 628 222 620Q205 612 197 596T189 549V368Z"/>
<glyph unicode="|" horiz-adv-x="500" d="M294 667V-167H207V667H294Z"/>
<glyph unicode="}" horiz-adv-x="358" d="M196 126Q196 151 199 169T208 201T227 225T257 247Q223 267 210 294T196 369V547Q196 579 188 595T158 620Q152 622 147 623T132 625T105 626T59 627V671Q72 671 80 671T95 672T106 672T118 672Q201 672 235 639T270 526V358Q270 316 282 296T326 268V226Q297 219 284 200T270 143V-38Q270 -76 262 -103T235 -146T187 -170T115 -178L75 -177H59V-133Q85 -133 102 -133T132 -132T151 -130T163 -126Q180 -118 188 -102T196 -55V126Z"/>
<glyph unicode="~" horiz-adv-x="667" d="M94 613Q122 673 155 701T230 729Q252 729 276 721T344 691Q365 681 379 675T403 665T422 660T439 658Q465 658 485 674T528 731L573 695Q544 634 512 607T437 579Q427 579 418 580T395 586T365 598T324 618Q283 638 264 644T228 651Q202 651 183 635T140 577L94 613Z"/>
<glyph unicode=" " horiz-adv-x="250"/>
<glyph unicode="¡" horiz-adv-x="303" d="M150 484Q174 484 190 467T207 426Q207 403 190 387T150 371Q127 371 111 388T94 428Q94 451 110 467T150 484ZM172 285Q173 252 174 226T176 176T179 130T183 84Q184 73 186 48T194 -15Q196 -36 198 -55T202 -91Q204 -109 205 -125T207 -150Q207 -182 192 -201T150 -220Q124 -220 109 -201T94 -150Q94 -142 95 -127T98 -89T105 -31T115 50Q120 91 123 149T128 285H172Z"/>
<glyph unicode="¢" horiz-adv-x="611" d="M161 45Q132 69 118 85T94 126Q83 152 77 182T70 245Q70 359 140 431Q173 465 217 484T306 504Q322 504 343 502T391 494L436 582H488L435 478Q526 433 526 353Q526 321 508 302T459 283Q435 283 420 298T404 337Q404 360 417 372T459 390Q453 400 449 406T441 416T430 425T413 435L232 84Q260 69 277 64T317 58Q352 58 381 71T429 108Q440 123 447 140T463 192H521Q510 130 491 95T434 33Q411 16 377 8T303 -1Q289 -1 278 0T255 3T230 10T200 21L145 -87H93L161 45ZM370 451Q355 453 343 454T322 456Q290 456 259 441T208 399Q167 346 167 252Q167 233 168 218T173 188T183 157T199 120L370 451Z"/>
<glyph unicode="£" horiz-adv-x="611" d="M45 42Q66 59 80 72T106 98T125 124T141 154Q160 193 160 230Q160 238 160 250T157 276H48V320H145Q128 345 117 363T99 397T90 426T87 453Q87 489 104 520T152 573T225 609T318 622Q366 622 408 611T481 579T530 533T548 475Q548 444 530 424T484 404Q458 404 443 419T428 458Q428 476 435 487T464 515Q453 531 446 538T425 553Q405 563 380 568T330 574Q300 574 274 565T228 541T197 506T185 461Q185 428 220 373Q227 362 231 356T238 344T243 333T248 320H384V276H254Q255 248 252 227T238 185T211 145T167 99L170 93Q196 110 213 115T251 121Q285 121 317 106L363 84Q408 64 444 64Q480 64 496 93T517 192H561Q560 157 557 131T548 84T533 47T511 15Q480 -19 423 -19Q409 -19 396 -16T361 -3L301 22Q281 30 267 35T241 43T220 47T199 49Q164 49 136 35T72 -14L45 42Z"/>
<glyph unicode="¤" horiz-adv-x="667" d="M146 221Q96 286 96 362Q96 400 108 433T146 503L49 599L94 644L190 548Q228 575 261 586T334 598Q373 598 406 587T476 549L572 644L617 599L521 504Q548 466 559 433T571 362Q571 323 560 290T522 221L618 125L574 80L478 176Q412 126 335 126Q297 126 263 138T191 176L95 80L51 125L146 221ZM336 526Q301 526 271 513T219 478T183 426T170 361Q170 328 183 298T218 246T270 211T333 198Q367 198 397 211T449 246T484 298T497 362Q497 395 484 425T450 477T399 513T336 526Z"/>
<glyph unicode="¥" horiz-adv-x="653" d="M560 349V306H411L374 246H547V203H370V114Q370 92 372 79T380 59T399 50T433 48H490V0H161V48H218Q239 48 252 50T271 59T280 79T282 114V203H106V246H278L240 306H93V349H214L122 499Q87 557 44 557H18V605H295V557H238Q206 557 206 538Q206 524 219 503L341 300L473 512Q483 529 483 541Q483 549 475 553T452 557H390V605H636V557H615Q601 557 590 554T567 542T545 519T520 482L438 349H560Z"/>
<glyph unicode="¦" horiz-adv-x="500" d="M294 667V330H207V667H294ZM294 153V-167H207V153H294Z"/>
<glyph unicode="§" horiz-adv-x="591" d="M395 395Q422 385 438 378T466 365T484 354T500 340Q519 323 529 299T539 247Q539 218 528 193T497 149Q485 138 471 129T426 105Q471 76 489 47T508 -28Q508 -69 492 -103T445 -161T371 -198T276 -211Q185 -211 133 -176T80 -81Q80 -49 99 -28T150 -7Q179 -7 197 -26T216 -74Q216 -95 206 -108T171 -134Q187 -142 200 -147T224 -155T247 -159T273 -160Q346 -160 387 -130T428 -46Q428 -4 398 25T299 77L189 115Q154 127 133 139T95 168Q76 188 66 213T55 265Q55 319 95 359Q108 372 122 381T166 404Q131 429 115 457T98 523Q98 555 114 588T160 644Q213 687 304 687Q390 687 441 654T492 565Q492 532 475 513T425 494Q396 494 379 509T361 550Q361 590 407 607Q391 616 379 622T356 631T333 635T306 637Q244 637 208 612T172 541Q172 523 176 510T193 485T228 463T285 438L395 395ZM368 131Q397 145 410 152T436 168Q452 181 461 199T470 236Q470 263 452 280T389 315L222 378Q169 358 147 335T125 277Q125 246 145 226T211 188L368 131Z"/>
<glyph unicode="¨" horiz-adv-x="500" d="M157 674Q179 674 195 658T211 619Q211 596 196 581T157 565Q134 565 118 581T102 620Q102 641 118 657T157 674ZM343 674Q365 674 381 658T397 619Q397 596 382 581T344 565Q320 565 304 581T288 620Q288 641 304 657T343 674Z"/>
<glyph unicode="©" horiz-adv-x="799" d="M565 286Q563 266 560 251T553 224T543 203T529 183Q485 132 401 132Q358 132 323 146T262 187T222 251T207 332Q207 375 221 412T262 477T323 519T399 535Q431 535 455 526T516 492L529 524H561V372H526Q521 403 516 419T496 453Q460 497 402 497Q375 497 352 485T311 451T285 399T275 334Q275 260 311 217T408 173Q466 173 496 211Q507 225 513 240T524 286H565ZM405 681Q477 681 541 654T654 579T731 468T759 333Q759 261 731 198T654 88T540 14T400 -14Q326 -14 261 13T146 88T69 198T40 333Q40 406 68 469T146 580T261 654T405 681ZM404 630Q340 630 284 607T187 544T122 450T98 333Q98 272 122 218T187 124T283 61T400 37Q462 37 516 60T612 124T676 218T700 333Q700 394 677 448T613 542T518 606T404 630Z"/>
<glyph unicode="ª" horiz-adv-x="347" d="M349 367Q349 340 348 328T344 304Q329 256 280 256Q255 256 242 265T219 300Q190 276 166 266T110 256Q67 256 41 278T14 335Q14 368 37 387T119 421L168 434Q196 442 206 451T216 479Q216 501 197 514T146 527Q128 527 115 523T84 507Q110 498 110 475Q110 461 100 452T72 443Q55 443 43 454T31 483Q31 499 40 513T66 537T105 554T154 560Q180 560 202 555T241 539Q259 527 266 511T273 463V326Q273 309 276 302T289 295Q303 295 307 308T314 367H349ZM213 414Q196 406 185 402T161 394L137 386Q106 377 93 366T80 337Q80 319 92 309T126 298Q142 298 158 303T185 317Q201 329 207 345T213 387V414Z"/>
<glyph unicode="«" horiz-adv-x="457" d="M290 142Q273 165 264 179T249 203T243 220T241 237Q241 247 242 254T249 271T263 295T290 333L338 403H389L335 293Q327 276 323 262T318 238Q318 218 335 182L389 72H338L290 142ZM118 142Q101 165 92 179T78 203T72 220T70 237Q70 247 71 254T78 271T92 295T119 333L167 403H218L164 293Q147 257 147 238Q147 218 164 182L218 72H167L118 142Z"/>
<glyph unicode="¬" horiz-adv-x="500" d="M382 203H33V279H466V0H382V203Z"/>
<glyph unicode="­" horiz-adv-x="258" d="M0 275H258V201H0V275Z"/>
<glyph unicode="®" horiz-adv-x="799" d="M393 143H200V179H227Q239 179 246 180T257 185T262 196T263 217V450Q263 463 262 470T258 481T247 486T227 487H200V523H400Q490 523 529 501T569 427Q569 390 548 369T478 338Q516 327 530 302T545 225Q545 195 548 185T560 175Q571 175 574 187T579 241H613Q612 179 597 156T543 132Q485 132 483 198L481 244Q479 286 459 304T394 323H325V217Q325 204 326 197T330 185T341 180T362 179H393V143ZM394 359Q505 359 505 426Q505 459 481 473T400 487H325V359H394ZM405 681Q477 681 541 654T654 579T731 468T759 333Q759 261 731 198T654 88T540 14T400 -14Q326 -14 261 13T146 88T69 198T40 333Q40 406 68 469T146 580T261 654T405 681ZM404 630Q340 630 284 607T187 544T122 450T98 333Q98 272 122 218T187 124T283 61T400 37Q462 37 516 60T612 124T676 218T700 333Q700 394 677 448T613 542T518 606T404 630Z"/>
<glyph unicode="¯" horiz-adv-x="500" d="M119 653H381V585H119V653Z"/>
<glyph unicode="°" horiz-adv-x="500" d="M251 680Q273 680 292 672T325 649T347 616T356 575Q356 553 348 534T325 501T292 478T252 469Q229 469 210 477T176 500T154 535T145 578Q145 599 153 617T176 650T210 672T251 680ZM250 625Q229 625 214 611T199 576Q199 553 214 538T250 523Q271 523 286 538T302 574Q302 595 287 610T250 625Z"/>
<glyph unicode="±" horiz-adv-x="506" d="M215 342V504H291V342H454V276H291V114H215V276H52V342H215ZM454 66V0H52V66H454Z"/>
<glyph unicode="²" horiz-adv-x="402" d="M35 267Q35 299 42 323T69 366T121 402T205 437Q229 445 244 452T269 468T281 487T285 512Q285 546 258 565T182 585Q147 585 126 575T83 537H93Q131 537 131 506Q131 491 119 481T90 471Q70 471 57 484T43 517Q43 538 54 556T86 587T135 607T196 615Q266 615 308 586T351 509Q351 483 338 461T301 427Q288 420 264 413T201 394Q171 386 154 380T124 367T103 351T83 326Q97 332 106 334T127 336Q139 336 146 335T177 327L221 316Q238 311 250 310T275 308Q305 308 316 323T331 379H360Q358 337 351 315T324 276Q299 256 261 256Q247 256 233 259T200 272L166 287Q152 293 144 296T130 301T120 303T108 304Q86 304 78 296T67 267H35Z"/>
<glyph unicode="³" horiz-adv-x="402" d="M152 464Q190 465 208 466T240 471Q282 485 282 523Q282 552 257 569T187 586Q161 586 140 580T93 559Q125 552 125 528Q125 497 85 497Q66 497 54 507T42 534Q42 550 54 564T88 590T136 608T194 615Q263 615 305 591T348 526Q348 509 339 493T312 468Q302 463 292 459T258 450Q360 429 360 362Q360 339 347 320T311 286T255 265T183 257Q150 257 122 264T72 283T38 312T25 347Q25 366 38 378T74 390Q92 390 103 381T114 358Q114 343 104 336T71 326Q82 315 92 308T115 297T141 290T174 288Q231 288 261 307T291 363Q291 408 245 424Q231 429 211 431T152 434V464Z"/>
<glyph unicode="´" horiz-adv-x="500" d="M316 686Q344 716 367 716Q382 716 393 705T404 677Q404 664 395 654T364 629L218 540H182L316 686Z"/>
<glyph unicode="µ" horiz-adv-x="631" d="M163 -11Q163 -28 163 -38T167 -56T175 -73T191 -95Q199 -105 203 -120T208 -149Q208 -176 192 -196T154 -216Q97 -216 97 -120Q97 -110 98 -95T102 -61Q106 -36 108 -18T111 14T114 40T116 67Q111 78 108 89T103 116T100 152T99 201V364Q99 382 97 393T87 410T68 418T35 421H13V469H184V188Q184 106 206 73T285 40Q350 40 392 85Q415 110 424 136T433 201V364Q433 382 431 393T421 410T402 418T369 421H331V469H518V105Q518 87 520 76T530 59T550 51T583 48H611V0H433V81Q412 52 397 37T362 11Q339 0 313 -6T260 -13Q232 -13 207 -7T163 11V-11Z"/>
<glyph unicode="¶" horiz-adv-x="433" d="M211 315H192Q153 315 121 328T65 364T28 418T14 488Q14 538 36 577T98 639Q121 653 157 660T236 667H399V604H316V-45Q316 -91 309 -116T285 -164Q243 -214 172 -214Q145 -214 122 -206T82 -185T55 -153T45 -113Q45 -85 61 -68T104 -50Q127 -50 142 -64T158 -101Q158 -121 146 -134T113 -148Q133 -167 163 -167Q238 -167 238 -73V315H211Z"/>
<glyph unicode="·" horiz-adv-x="303" d="M151 291Q174 291 190 275T207 235Q207 212 191 195T151 178Q127 178 111 195T94 236Q94 259 111 275T151 291Z"/>
<glyph unicode="¸" horiz-adv-x="500" d="M142 -135Q170 -154 199 -164T254 -174Q308 -174 308 -132Q308 -88 260 -88Q252 -88 245 -89T226 -94V0H257V-51Q267 -50 276 -50T293 -49Q330 -49 353 -71T377 -130Q377 -171 348 -194T267 -217Q235 -217 199 -207T125 -178L142 -135Z"/>
<glyph unicode="¹" horiz-adv-x="402" d="M79 295H111Q133 295 146 296T165 301T173 313T175 334V530H82V557Q111 559 130 562T163 571T184 588T200 615H234V334Q234 321 236 314T244 302T262 297T294 295H324V267H79V295Z"/>
<glyph unicode="º" horiz-adv-x="390" d="M195 560Q231 560 261 549T313 518T347 469T360 408Q360 375 348 347T314 299T262 267T195 256Q158 256 128 267T75 299T41 347T29 410Q29 443 41 470T76 518T128 549T195 560ZM195 524Q148 524 123 494T97 410Q97 292 195 292Q242 292 267 322T292 408Q292 464 267 494T195 524Z"/>
<glyph unicode="»" horiz-adv-x="457" d="M70 72L124 182Q141 218 141 238Q141 257 124 293L70 403H121L170 333Q186 309 196 295T210 271T216 254T218 237Q218 228 217 221T211 204T197 180T170 142L121 72H70ZM241 72L295 182Q312 216 312 238Q312 259 295 293L241 403H292L341 333Q357 309 367 295T381 271T387 254T389 237Q389 228 388 221T382 204T367 180T341 142L292 72H241Z"/>
<glyph unicode="¼" horiz-adv-x="841" d="M79 295H111Q133 295 146 296T165 301T173 313T175 334V530H82V557Q111 559 130 562T163 571T184 588T200 615H234V334Q234 321 236 314T244 302T262 297T294 295H324V267H79V295ZM597 605H652L243 0H188L597 605ZM584 28H625Q654 28 663 33T672 59V101H458V129L691 348H730V133H814V101H730V62Q730 40 738 34T777 28H814V0H584V28ZM672 285L511 133H672V285Z"/>
<glyph unicode="½" horiz-adv-x="841" d="M79 295H111Q133 295 146 296T165 301T173 313T175 334V530H82V557Q111 559 130 562T163 571T184 588T200 615H234V334Q234 321 236 314T244 302T262 297T294 295H324V267H79V295ZM597 605H652L243 0H188L597 605ZM473 8Q473 37 481 59T509 101T561 136T643 170Q667 178 682 185T707 201T719 220T723 245Q723 279 696 298T620 318Q585 318 564 308T522 270H532Q570 270 570 239Q570 224 558 214T529 204Q509 204 496 217T482 250Q482 271 493 289T525 320T574 340T634 348Q704 348 746 319T789 242Q789 216 776 194T739 160Q726 153 702 146T639 127Q609 119 592 114T562 101T542 85T521 60Q535 65 544 67T565 69Q576 69 585 68T615 61L659 49Q673 46 687 44T713 42Q743 42 755 56T769 113H799Q797 71 789 49T762 10Q739 -10 700 -10Q672 -10 638 5L604 20Q578 32 569 34T546 37Q525 37 516 29T505 0H473V8Z"/>
<glyph unicode="¾" horiz-adv-x="841" d="M152 464Q190 465 208 466T240 471Q282 485 282 523Q282 552 257 569T187 586Q161 586 140 580T93 559Q125 552 125 528Q125 497 85 497Q66 497 54 507T42 534Q42 550 54 564T88 590T136 608T194 615Q263 615 305 591T348 526Q348 509 339 493T312 468Q302 463 292 459T258 450Q360 429 360 362Q360 339 347 320T311 286T255 265T183 257Q150 257 122 264T72 283T38 312T25 347Q25 366 38 378T74 390Q92 390 103 381T114 358Q114 343 104 336T71 326Q82 315 92 308T115 297T141 290T174 288Q231 288 261 307T291 363Q291 408 245 424Q231 429 211 431T152 434V464ZM597 605H653L244 0H189L597 605ZM585 28H626Q655 28 664 33T673 59V101H459V129L692 348H731V133H815V101H731V62Q731 40 739 34T778 28H815V0H585V28ZM673 285L512 133H673V285Z"/>
<glyph unicode="¿" horiz-adv-x="497" d="M274 484Q298 484 314 468T331 426Q331 403 314 387T274 371Q251 371 235 388T218 428Q218 451 234 467T274 484ZM301 287Q300 245 297 218T282 169T251 125T194 70Q159 37 145 10T130 -53Q130 -104 167 -135T264 -167Q299 -167 331 -156T384 -124Q402 -106 409 -88T417 -40Q403 -48 395 -50T376 -53Q352 -53 338 -39T324 -2Q324 24 341 39T387 55Q423 55 446 26T470 -48Q470 -86 454 -117T408 -172T339 -208T251 -221Q203 -221 163 -209T95 -174T50 -119T34 -49Q34 -26 41 -3T60 40Q68 52 76 62T97 83T126 107T167 138Q194 159 210 172T234 201T245 235T250 287H301Z"/>
<glyph unicode="À" horiz-adv-x="700" d="M-20 53H12Q29 53 41 55T62 64T79 82T92 111L307 667H390L602 114Q616 78 633 66T685 53H713V0H397V53H450Q484 53 496 58T509 79Q509 88 501 110L459 223H205L168 130Q154 94 154 79Q154 63 167 58T218 53H268V0H-20V53ZM437 276L329 561L225 276H437ZM245 783Q228 791 220 800T212 823Q212 838 222 848T247 859Q266 859 287 840L423 719H388L245 783Z"/>
<glyph unicode="Á" horiz-adv-x="700" d="M-20 53H12Q29 53 41 55T62 64T79 82T92 111L307 667H390L602 114Q616 78 633 66T685 53H713V0H397V53H450Q484 53 496 58T509 79Q509 88 501 110L459 223H205L168 130Q154 94 154 79Q154 63 167 58T218 53H268V0H-20V53ZM437 276L329 561L225 276H437ZM279 719L415 840Q436 859 455 859Q469 859 479 849T490 823Q490 809 482 800T456 783L313 719H279Z"/>
<glyph unicode="Â" horiz-adv-x="700" d="M-20 53H12Q29 53 41 55T62 64T79 82T92 111L307 667H390L602 114Q616 78 633 66T685 53H713V0H397V53H450Q484 53 496 58T509 79Q509 88 501 110L459 223H205L168 130Q154 94 154 79Q154 63 167 58T218 53H268V0H-20V53ZM437 276L329 561L225 276H437ZM313 851H387L493 719H461L350 790L239 719H207L313 851Z"/>
<glyph unicode="Ã" horiz-adv-x="700" d="M-20 53H12Q29 53 41 55T62 64T79 82T92 111L307 667H390L602 114Q616 78 633 66T685 53H713V0H397V53H450Q484 53 496 58T509 79Q509 88 501 110L459 223H205L168 130Q154 94 154 79Q154 63 167 58T218 53H268V0H-20V53ZM437 276L329 561L225 276H437ZM495 829Q485 788 458 761T399 733Q379 733 361 742L312 763Q287 774 274 774Q261 774 252 767T233 741H205Q211 759 215 768T225 788Q238 811 259 825T302 839Q320 839 347 827L396 805Q415 797 427 797Q450 797 467 829H495Z"/>
<glyph unicode="Ä" horiz-adv-x="700" d="M-20 53H12Q29 53 41 55T62 64T79 82T92 111L307 667H390L602 114Q616 78 633 66T685 53H713V0H397V53H450Q484 53 496 58T509 79Q509 88 501 110L459 223H205L168 130Q154 94 154 79Q154 63 167 58T218 53H268V0H-20V53ZM437 276L329 561L225 276H437ZM258 822Q278 822 293 807T309 770Q309 749 294 735T259 720Q236 720 222 734T207 771Q207 791 222 806T258 822ZM436 822Q457 822 472 807T487 770Q487 749 473 735T437 720Q414 720 400 734T385 771Q385 791 400 806T436 822Z"/>
<glyph unicode="Å" horiz-adv-x="700" d="M-20 53H12Q29 53 41 55T62 64T79 82T92 111L307 667H390L602 114Q616 78 633 66T685 53H713V0H397V53H450Q484 53 496 58T509 79Q509 88 501 110L459 223H205L168 130Q154 94 154 79Q154 63 167 58T218 53H268V0H-20V53ZM437 276L329 561L225 276H437ZM343 893Q363 893 380 886T411 865T431 835T439 798Q439 778 432 761T411 730T381 709T344 701Q303 701 275 729T247 800Q247 819 254 836T275 865T306 885T343 893ZM343 848Q322 848 307 834T292 799Q292 777 307 762T343 746Q363 746 378 761T394 797Q394 818 379 833T343 848Z"/>
<glyph unicode="Æ" horiz-adv-x="1097" d="M154 130Q127 92 127 77Q127 63 141 58T190 53H215V0H-55V53H-35Q-6 53 14 66T58 111L371 541Q380 554 385 565T391 584Q391 600 375 607T321 614H272V667H1016V416H965Q963 478 955 516T925 577T868 606T774 614H593V376H662Q686 376 702 377T728 382T745 393T756 411Q763 428 765 448T768 505H819V178H768Q766 208 765 226T763 256T759 275T752 289Q735 323 661 323H593V53H786Q853 53 889 68T942 117Q947 128 951 141T957 171T961 213T965 271H1016V0H385V53H434Q482 53 496 68Q501 75 503 86T505 126V270H256L154 130ZM505 323V614H492L293 323H505Z"/>
<glyph unicode="Ç" horiz-adv-x="705" d="M654 243Q648 190 640 159T616 103Q590 56 552 29T460 -10Q439 -15 415 -17T374 -20H369L359 -19V-58Q369 -57 378 -57T395 -56Q431 -56 455 -78T479 -133Q479 -171 450 -194T369 -217Q305 -217 227 -178L244 -135Q272 -153 301 -163T356 -174Q409 -174 409 -135Q409 -117 397 -106T363 -95Q355 -95 348 -96T328 -101V-17Q264 -10 211 19T120 93T61 199T40 331Q40 407 65 472T134 585T239 660T370 687Q398 687 422 683T469 670T519 646T577 607L602 667H648V408H597Q593 435 589 455T579 491T565 521T544 550Q512 589 469 610T376 631Q326 631 285 609T213 547T165 453T148 334Q148 275 163 222T208 127Q237 85 283 63T386 41Q437 41 477 59T545 110Q555 122 562 135T575 163T585 197T595 243H654Z"/>
<glyph unicode="È" horiz-adv-x="740" d="M30 53H71Q118 53 132 68Q137 75 139 86T141 126V541Q141 570 139 581T132 599Q118 614 71 614H30V667H661V416H610Q608 477 600 516T570 576T513 606T418 614H238V376H307Q331 376 347 377T373 382T390 393T401 411Q408 428 410 448T413 505H464V178H413Q411 208 410 226T408 256T404 275T397 289Q388 306 366 314T306 323H238V53H431Q498 53 534 68T587 117Q592 128 595 141T602 171T606 213T610 271H661V0H30V53ZM265 783Q248 791 240 800T232 823Q232 838 242 848T267 859Q286 859 307 840L443 719H408L265 783Z"/>
<glyph unicode="É" horiz-adv-x="740" d="M30 53H71Q118 53 132 68Q137 75 139 86T141 126V541Q141 570 139 581T132 599Q118 614 71 614H30V667H661V416H610Q608 477 600 516T570 576T513 606T418 614H238V376H307Q331 376 347 377T373 382T390 393T401 411Q408 428 410 448T413 505H464V178H413Q411 208 410 226T408 256T404 275T397 289Q388 306 366 314T306 323H238V53H431Q498 53 534 68T587 117Q592 128 595 141T602 171T606 213T610 271H661V0H30V53ZM299 719L435 840Q456 859 475 859Q489 859 499 849T510 823Q510 809 502 800T477 783L334 719H299Z"/>
<glyph unicode="Ê" horiz-adv-x="740" d="M30 53H71Q118 53 132 68Q137 75 139 86T141 126V541Q141 570 139 581T132 599Q118 614 71 614H30V667H661V416H610Q608 477 600 516T570 576T513 606T418 614H238V376H307Q331 376 347 377T373 382T390 393T401 411Q408 428 410 448T413 505H464V178H413Q411 208 410 226T408 256T404 275T397 289Q388 306 366 314T306 323H238V53H431Q498 53 534 68T587 117Q592 128 595 141T602 171T606 213T610 271H661V0H30V53ZM333 851H407L513 719H481L370 790L259 719H227L333 851Z"/>
<glyph unicode="Ë" horiz-adv-x="740" d="M30 53H71Q118 53 132 68Q137 75 139 86T141 126V541Q141 570 139 581T132 599Q118 614 71 614H30V667H661V416H610Q608 477 600 516T570 576T513 606T418 614H238V376H307Q331 376 347 377T373 382T390 393T401 411Q408 428 410 448T413 505H464V178H413Q411 208 410 226T408 256T404 275T397 289Q388 306 366 314T306 323H238V53H431Q498 53 534 68T587 117Q592 128 595 141T602 171T606 213T610 271H661V0H30V53ZM281 822Q301 822 316 807T332 770Q332 749 317 735T281 720Q259 720 245 734T230 771Q230 791 245 806T281 822ZM460 822Q480 822 495 807T511 770Q511 750 496 735T460 720Q438 720 424 734T409 771Q409 791 424 806T460 822Z"/>
<glyph unicode="Ì" horiz-adv-x="387" d="M29 53H74Q121 53 135 68Q140 75 142 86T144 126V541Q144 570 142 581T135 599Q121 614 74 614H29V667H357V614H312Q264 614 251 599Q246 592 244 581T242 541V126Q242 97 244 86T251 68Q264 53 312 53H357V0H29V53ZM88 783Q71 791 63 800T55 823Q55 838 65 848T90 859Q109 859 130 840L266 719H231L88 783Z"/>
<glyph unicode="Í" horiz-adv-x="387" d="M29 53H74Q121 53 135 68Q140 75 142 86T144 126V541Q144 570 142 581T135 599Q121 614 74 614H29V667H357V614H312Q264 614 251 599Q246 592 244 581T242 541V126Q242 97 244 86T251 68Q264 53 312 53H357V0H29V53ZM122 719L258 840Q279 859 298 859Q312 859 322 849T333 823Q333 809 325 800T300 783L157 719H122Z"/>
<glyph unicode="Î" horiz-adv-x="387" d="M29 53H74Q121 53 135 68Q140 75 142 86T144 126V541Q144 570 142 581T135 599Q121 614 74 614H29V667H357V614H312Q264 614 251 599Q246 592 244 581T242 541V126Q242 97 244 86T251 68Q264 53 312 53H357V0H29V53ZM156 851H230L336 719H304L193 790L82 719H51L156 851Z"/>
<glyph unicode="Ï" horiz-adv-x="387" d="M29 53H74Q121 53 135 68Q140 75 142 86T144 126V541Q144 570 142 581T135 599Q121 614 74 614H29V667H357V614H312Q264 614 251 599Q246 592 244 581T242 541V126Q242 97 244 86T251 68Q264 53 312 53H357V0H29V53ZM114 822Q134 822 149 807T165 770Q165 749 150 735T114 720Q92 720 78 734T63 771Q63 791 78 806T114 822ZM273 822Q293 822 308 807T324 770Q324 750 309 735T273 720Q251 720 237 734T222 771Q222 791 237 806T273 822Z"/>
<glyph unicode="Ð" horiz-adv-x="789" d="M33 53H74Q121 53 136 68Q141 75 143 86T145 126V313H5V361H145V541Q145 570 143 581T136 599Q121 614 74 614H33V667H357Q417 667 460 664T536 653T594 632T643 599Q697 554 725 487T753 336Q753 256 728 190T654 79Q630 56 604 41T543 17T463 4T355 0H33V53ZM242 53H355Q432 53 489 71T580 124Q612 157 628 213T645 340Q645 407 630 455T583 539Q547 579 495 596T357 614H242V361H432V313H242V53Z"/>
<glyph unicode="Ñ" horiz-adv-x="824" d="M614 -3L206 577V126Q206 97 208 86T215 68Q230 53 277 53H327V0H30V53H69Q116 53 130 68Q135 75 137 86T139 126V541Q139 570 137 581T130 599Q116 614 69 614H30V667H253L632 131V541Q632 570 630 581T623 599Q609 614 562 614H509V667H801V614H769Q721 614 708 599Q703 592 701 581T699 541V-3H614ZM571 829Q561 787 534 760T475 733Q455 733 436 742L388 763Q363 774 350 774Q337 774 328 767T308 741H281Q287 759 291 768T301 788Q314 811 335 825T377 839Q396 839 423 827L471 805Q492 797 503 797Q526 797 543 829H571Z"/>
<glyph unicode="Ò" horiz-adv-x="794" d="M398 687Q475 687 540 661T653 587T728 474T755 333Q755 257 728 193T654 81T541 7T398 -20Q320 -20 254 6T141 80T67 194T40 338Q40 413 67 476T142 587T255 660T398 687ZM398 632Q342 632 296 611T217 551T166 458T148 338Q148 267 163 215T212 122Q282 35 398 35Q454 35 500 56T578 117T629 211T647 334Q647 401 629 456T579 550T500 610T398 632ZM293 783Q260 797 260 823Q260 838 270 848T295 859Q313 859 334 840L470 719H436L293 783Z"/>
<glyph unicode="Ó" horiz-adv-x="794" d="M398 687Q475 687 540 661T653 587T728 474T755 333Q755 257 728 193T654 81T541 7T398 -20Q320 -20 254 6T141 80T67 194T40 338Q40 413 67 476T142 587T255 660T398 687ZM398 632Q342 632 296 611T217 551T166 458T148 338Q148 267 163 215T212 122Q282 35 398 35Q454 35 500 56T578 117T629 211T647 334Q647 401 629 456T579 550T500 610T398 632ZM327 719L462 840Q483 859 502 859Q516 859 526 849T537 823Q537 797 504 783L361 719H327Z"/>
<glyph unicode="Ô" horiz-adv-x="794" d="M398 687Q475 687 540 661T653 587T728 474T755 333Q755 257 728 193T654 81T541 7T398 -20Q320 -20 254 6T141 80T67 194T40 338Q40 413 67 476T142 587T255 660T398 687ZM398 632Q342 632 296 611T217 551T166 458T148 338Q148 267 163 215T212 122Q282 35 398 35Q454 35 500 56T578 117T629 211T647 334Q647 401 629 456T579 550T500 610T398 632ZM360 851H434L540 719H508L397 790L287 719H255L360 851Z"/>
<glyph unicode="Õ" horiz-adv-x="794" d="M398 687Q475 687 540 661T653 587T728 474T755 333Q755 257 728 193T654 81T541 7T398 -20Q320 -20 254 6T141 80T67 194T40 338Q40 413 67 476T142 587T255 660T398 687ZM398 632Q342 632 296 611T217 551T166 458T148 338Q148 267 163 215T212 122Q282 35 398 35Q454 35 500 56T578 117T629 211T647 334Q647 401 629 456T579 550T500 610T398 632ZM542 829Q533 787 506 760T447 733Q427 733 408 742L359 763Q336 774 322 774Q309 774 300 767T280 741H253Q259 759 263 768T272 788Q285 811 306 825T349 839Q368 839 394 827L443 805Q462 797 474 797Q488 797 497 804T515 829H542Z"/>
<glyph unicode="Ö" horiz-adv-x="794" d="M398 687Q475 687 540 661T653 587T728 474T755 333Q755 257 728 193T654 81T541 7T398 -20Q320 -20 254 6T141 80T67 194T40 338Q40 413 67 476T142 587T255 660T398 687ZM398 632Q342 632 296 611T217 551T166 458T148 338Q148 267 163 215T212 122Q282 35 398 35Q454 35 500 56T578 117T629 211T647 334Q647 401 629 456T579 550T500 610T398 632ZM308 822Q328 822 343 807T359 770Q359 749 344 735T308 720Q286 720 272 734T257 771Q257 791 272 806T308 822ZM487 822Q507 822 522 807T538 770Q538 750 523 735T487 720Q465 720 451 734T436 771Q436 791 451 806T487 822Z"/>
<glyph unicode="×" horiz-adv-x="507" d="M207 309L63 454L109 500L254 356L398 500L445 454L300 309L445 165L398 118L254 263L109 118L63 165L207 309Z"/>
<glyph unicode="Ø" horiz-adv-x="794" d="M134 88Q107 122 89 151T60 208T45 265T40 331Q40 408 66 473T140 586T252 660T394 687Q428 687 457 683T513 670T566 647T622 611L698 694L732 659L658 581Q686 547 704 518T734 461T750 402T755 335Q755 257 729 192T654 80T540 7T395 -20Q361 -20 334 -17T282 -4T230 19T171 56L94 -28L60 7L134 88ZM222 110Q248 88 269 74T311 51T353 39T400 35Q454 35 501 57T583 122Q616 164 631 216T647 344Q647 371 645 391T638 431T623 471T600 517L222 110ZM572 557Q525 598 485 615T395 632Q340 632 295 610T216 549T165 455T146 335Q146 308 148 284T156 238T171 195T193 150L572 557Z"/>
<glyph unicode="Ù" horiz-adv-x="760" d="M30 667H349V614H300Q252 614 239 599Q234 592 232 581T230 541V209Q230 126 269 87T394 47Q436 47 470 58T526 91Q549 113 558 147T568 244V541Q568 570 566 581T559 599Q545 614 498 614H449V667H736V614H706Q657 614 644 599Q639 592 637 581T635 541V244Q635 171 620 124T569 43Q503 -20 382 -20Q276 -20 208 30Q133 84 133 209V541Q133 570 131 581T124 599Q110 614 62 614H30V667ZM295 783Q278 791 270 800T262 823Q262 838 272 848T297 859Q316 859 337 840L473 719H438L295 783Z"/>
<glyph unicode="Ú" horiz-adv-x="760" d="M30 667H349V614H300Q252 614 239 599Q234 592 232 581T230 541V209Q230 126 269 87T394 47Q436 47 470 58T526 91Q549 113 558 147T568 244V541Q568 570 566 581T559 599Q545 614 498 614H449V667H736V614H706Q657 614 644 599Q639 592 637 581T635 541V244Q635 171 620 124T569 43Q503 -20 382 -20Q276 -20 208 30Q133 84 133 209V541Q133 570 131 581T124 599Q110 614 62 614H30V667ZM329 719L465 840Q486 859 505 859Q519 859 529 849T540 823Q540 809 532 800T507 783L364 719H329Z"/>
<glyph unicode="Û" horiz-adv-x="760" d="M30 667H349V614H300Q252 614 239 599Q234 592 232 581T230 541V209Q230 126 269 87T394 47Q436 47 470 58T526 91Q549 113 558 147T568 244V541Q568 570 566 581T559 599Q545 614 498 614H449V667H736V614H706Q657 614 644 599Q639 592 637 581T635 541V244Q635 171 620 124T569 43Q503 -20 382 -20Q276 -20 208 30Q133 84 133 209V541Q133 570 131 581T124 599Q110 614 62 614H30V667ZM363 851H437L543 719H511L400 790L289 719H257L363 851Z"/>
<glyph unicode="Ü" horiz-adv-x="760" d="M30 667H349V614H300Q252 614 239 599Q234 592 232 581T230 541V209Q230 126 269 87T394 47Q436 47 470 58T526 91Q549 113 558 147T568 244V541Q568 570 566 581T559 599Q545 614 498 614H449V667H736V614H706Q657 614 644 599Q639 592 637 581T635 541V244Q635 171 620 124T569 43Q503 -20 382 -20Q276 -20 208 30Q133 84 133 209V541Q133 570 131 581T124 599Q110 614 62 614H30V667ZM308 822Q328 822 343 807T359 770Q359 750 344 735T308 720Q286 720 272 734T257 771Q257 791 272 806T308 822ZM487 822Q507 822 522 807T538 770Q538 749 523 735T487 720Q465 720 451 734T436 771Q436 791 451 806T487 822Z"/>
<glyph unicode="Ý" horiz-adv-x="636" d="M90 550Q51 614 4 614H-25V667H281V614H217Q182 614 182 593Q182 577 196 555L331 331L476 564Q481 572 484 581T487 597Q487 614 453 614H386V667H656V614H633Q617 614 604 610T579 597T555 572T528 532L363 263V126Q363 97 365 86T372 68Q385 53 433 53H495V0H133V53H196Q243 53 257 68Q262 75 264 86T266 126V263L90 550ZM260 719L396 840Q417 859 436 859Q450 859 460 849T471 823Q471 809 463 800T437 783L294 719H260Z"/>
<glyph unicode="Þ" horiz-adv-x="680" d="M30 53H71Q118 53 132 68Q137 75 139 86T141 126V541Q141 570 139 581T132 599Q118 614 71 614H30V667H358V614H309Q262 614 247 599Q242 592 240 581T238 541V522H340Q385 522 418 520T478 514T525 504T565 487Q603 466 623 429T644 341Q644 291 623 252T563 192Q545 182 526 176T482 165T425 160T348 158H238V126Q238 97 240 86T247 68Q262 53 309 53H358V0H30V53ZM348 211Q449 211 496 243T543 344Q543 429 465 455Q444 463 416 466T342 469H238V211H348Z"/>
<glyph unicode="ß" horiz-adv-x="626" d="M18 48H41Q60 48 72 50T92 59T102 77T105 105V442Q105 560 160 622T321 684Q364 684 400 674T462 644T502 597T517 537Q517 487 490 458T399 410Q422 404 439 398T469 385T493 370T515 352Q568 299 568 208Q568 159 555 118T516 46T457 0T383 -17Q310 -17 280 32Q273 43 269 55T261 83T257 119T254 168H308Q309 147 310 133T313 109T317 91T323 75Q331 57 347 47T383 36Q425 36 448 77T472 192Q472 243 458 282T418 342Q405 352 391 359T359 370T318 377T261 379V430Q286 430 304 431T335 435T359 441T380 451Q424 477 424 531Q424 579 395 606T315 634Q252 634 220 591Q203 570 197 536T190 442V0H15L18 48Z"/>
<glyph unicode="à" horiz-adv-x="551" d="M551 159Q551 109 546 75T528 21T495 -9T445 -18Q407 -18 386 0T351 61Q327 39 306 24T265 0T223 -14T177 -18Q111 -18 71 17T30 110Q30 170 79 205Q99 219 123 228T192 251L270 273Q316 286 333 303T350 354Q350 394 319 417T233 441Q201 441 177 432T124 399Q171 388 171 349Q171 328 155 314T116 300Q90 300 73 317T56 361Q56 387 70 410T110 450T171 476T246 486Q286 486 321 477T382 451Q396 442 405 431T419 406T427 373T430 327V95Q430 63 436 50T460 37Q472 37 480 42T494 60T501 98T505 159H551ZM346 253Q327 244 315 239T294 229T276 222T256 216L217 203Q166 186 145 166T124 112Q124 80 145 61T202 41Q228 41 254 50T299 75Q325 96 335 124T346 199V253ZM300 540L155 629Q132 643 123 653T114 677Q114 693 125 704T151 716Q175 716 202 686L336 540H300Z"/>
<glyph unicode="á" horiz-adv-x="551" d="M551 159Q551 109 546 75T528 21T495 -9T445 -18Q407 -18 386 0T351 61Q327 39 306 24T265 0T223 -14T177 -18Q111 -18 71 17T30 110Q30 170 79 205Q99 219 123 228T192 251L270 273Q316 286 333 303T350 354Q350 394 319 417T233 441Q201 441 177 432T124 399Q171 388 171 349Q171 328 155 314T116 300Q90 300 73 317T56 361Q56 387 70 410T110 450T171 476T246 486Q286 486 321 477T382 451Q396 442 405 431T419 406T427 373T430 327V95Q430 63 436 50T460 37Q472 37 480 42T494 60T501 98T505 159H551ZM346 253Q327 244 315 239T294 229T276 222T256 216L217 203Q166 186 145 166T124 112Q124 80 145 61T202 41Q228 41 254 50T299 75Q325 96 335 124T346 199V253ZM341 686Q369 716 393 716Q408 716 419 705T430 677Q430 664 421 654T389 629L243 540H207L341 686Z"/>
<glyph unicode="â" horiz-adv-x="551" d="M551 159Q551 109 546 75T528 21T495 -9T445 -18Q407 -18 386 0T351 61Q327 39 306 24T265 0T223 -14T177 -18Q111 -18 71 17T30 110Q30 170 79 205Q99 219 123 228T192 251L270 273Q316 286 333 303T350 354Q350 394 319 417T233 441Q201 441 177 432T124 399Q171 388 171 349Q171 328 155 314T116 300Q90 300 73 317T56 361Q56 387 70 410T110 450T171 476T246 486Q286 486 321 477T382 451Q396 442 405 431T419 406T427 373T430 327V95Q430 63 436 50T460 37Q472 37 480 42T494 60T501 98T505 159H551ZM346 253Q327 244 315 239T294 229T276 222T256 216L217 203Q166 186 145 166T124 112Q124 80 145 61T202 41Q228 41 254 50T299 75Q325 96 335 124T346 199V253ZM223 709H288L399 540H363L256 635L148 540H113L223 709Z"/>
<glyph unicode="ã" horiz-adv-x="551" d="M551 159Q551 109 546 75T528 21T495 -9T445 -18Q407 -18 386 0T351 61Q327 39 306 24T265 0T223 -14T177 -18Q111 -18 71 17T30 110Q30 170 79 205Q99 219 123 228T192 251L270 273Q316 286 333 303T350 354Q350 394 319 417T233 441Q201 441 177 432T124 399Q171 388 171 349Q171 328 155 314T116 300Q90 300 73 317T56 361Q56 387 70 410T110 450T171 476T246 486Q286 486 321 477T382 451Q396 442 405 431T419 406T427 373T430 327V95Q430 63 436 50T460 37Q472 37 480 42T494 60T501 98T505 159H551ZM346 253Q327 244 315 239T294 229T276 222T256 216L217 203Q166 186 145 166T124 112Q124 80 145 61T202 41Q228 41 254 50T299 75Q325 96 335 124T346 199V253ZM407 676Q398 634 371 607T312 580Q292 580 273 589L224 610Q201 621 187 621Q174 621 165 614T145 588H118Q124 606 128 615T137 635Q150 658 171 672T214 686Q233 686 259 674L308 652Q327 644 339 644Q353 644 362 651T380 676H407Z"/>
<glyph unicode="ä" horiz-adv-x="551" d="M551 159Q551 109 546 75T528 21T495 -9T445 -18Q407 -18 386 0T351 61Q327 39 306 24T265 0T223 -14T177 -18Q111 -18 71 17T30 110Q30 170 79 205Q99 219 123 228T192 251L270 273Q316 286 333 303T350 354Q350 394 319 417T233 441Q201 441 177 432T124 399Q171 388 171 349Q171 328 155 314T116 300Q90 300 73 317T56 361Q56 387 70 410T110 450T171 476T246 486Q286 486 321 477T382 451Q396 442 405 431T419 406T427 373T430 327V95Q430 63 436 50T460 37Q472 37 480 42T494 60T501 98T505 159H551ZM346 253Q327 244 315 239T294 229T276 222T256 216L217 203Q166 186 145 166T124 112Q124 80 145 61T202 41Q228 41 254 50T299 75Q325 96 335 124T346 199V253ZM179 674Q201 674 217 658T233 619Q233 596 218 581T179 565Q156 565 140 581T124 620Q124 641 140 657T179 674ZM365 674Q387 674 403 658T419 619Q419 596 404 581T366 565Q342 565 326 581T310 620Q310 641 326 657T365 674Z"/>
<glyph unicode="å" horiz-adv-x="551" d="M551 159Q551 109 546 75T528 21T495 -9T445 -18Q407 -18 386 0T351 61Q327 39 306 24T265 0T223 -14T177 -18Q111 -18 71 17T30 110Q30 170 79 205Q99 219 123 228T192 251L270 273Q316 286 333 303T350 354Q350 394 319 417T233 441Q201 441 177 432T124 399Q171 388 171 349Q171 328 155 314T116 300Q90 300 73 317T56 361Q56 387 70 410T110 450T171 476T246 486Q286 486 321 477T382 451Q396 442 405 431T419 406T427 373T430 327V95Q430 63 436 50T460 37Q472 37 480 42T494 60T501 98T505 159H551ZM346 253Q327 244 315 239T294 229T276 222T256 216L217 203Q166 186 145 166T124 112Q124 80 145 61T202 41Q228 41 254 50T299 75Q325 96 335 124T346 199V253ZM250 735Q270 735 287 728T318 707T338 677T346 640Q346 620 339 603T318 572T288 551T251 543Q210 543 182 571T154 642Q154 661 161 678T182 707T213 727T250 735ZM250 690Q229 690 214 676T199 641Q199 619 214 604T250 588Q270 588 285 603T301 639Q301 660 286 675T250 690Z"/>
<glyph unicode="æ" horiz-adv-x="834" d="M789 154Q777 108 765 84T731 38Q675 -17 580 -17Q540 -17 504 -7T440 21Q425 32 412 47T379 89Q363 69 350 56T325 32T300 15T272 1Q249 -8 225 -13T175 -18Q103 -18 62 16T20 110Q20 164 62 199T197 254L260 268Q316 281 337 299T358 353Q358 395 325 418T231 442Q196 442 171 433T114 399Q161 388 161 348Q161 327 145 313T106 299Q80 299 63 316T46 361Q46 388 61 411T102 450T164 476T244 486Q275 486 303 482T354 468Q370 462 382 453T415 424Q439 442 458 454T496 473T534 483T579 486Q691 486 750 411Q763 394 772 377T788 338T798 289T803 226H434Q435 200 437 181T442 146T451 119T465 95Q483 68 512 54T580 39Q610 39 636 48T683 74Q699 87 709 104T730 154H789ZM354 252Q329 239 310 232T261 216L215 204Q114 179 114 113Q114 79 137 60T203 40Q231 40 259 49T307 75Q333 96 343 124T354 199V252ZM705 279Q703 325 697 349T675 394Q659 415 634 426T577 437Q507 437 471 390Q456 370 449 346T438 279H705Z"/>
<glyph unicode="ç" horiz-adv-x="511" d="M481 175Q467 79 412 30T264 -18V-51Q274 -50 283 -50T300 -49Q337 -49 360 -71T384 -130Q384 -171 355 -194T274 -217Q213 -217 132 -178L149 -135Q178 -154 207 -164T261 -174Q315 -174 315 -132Q315 -88 267 -88Q259 -88 252 -89T233 -94V-16Q138 -3 84 62T30 228Q30 285 48 332T100 413T178 467T278 486Q322 486 360 475T425 443T469 396T485 336Q485 304 467 285T419 266Q395 266 380 281T364 320Q364 343 377 355T419 372Q405 394 396 403T369 421Q333 438 291 438Q214 438 171 385T127 236Q127 144 166 93T277 41Q312 41 341 54T389 91Q400 106 407 123T423 175H481Z"/>
<glyph unicode="è" horiz-adv-x="526" d="M481 154Q469 108 457 84T423 38Q367 -17 272 -17Q217 -17 173 1T97 51T48 130T30 233Q30 291 47 337T95 417T171 468T270 486Q383 486 442 411Q455 394 464 377T480 338T490 289T495 226H126Q127 200 129 181T134 146T143 119T157 95Q175 68 204 54T272 39Q302 39 328 48T375 74Q391 87 401 104T422 154H481ZM397 279Q395 325 389 349T367 394Q335 437 268 437Q199 437 164 390Q156 379 151 369T142 346T135 317T130 279H397ZM288 540L142 629Q119 643 110 653T101 677Q101 693 112 704T138 716Q162 716 190 686L324 540H288Z"/>
<glyph unicode="é" horiz-adv-x="526" d="M481 154Q469 108 457 84T423 38Q367 -17 272 -17Q217 -17 173 1T97 51T48 130T30 233Q30 291 47 337T95 417T171 468T270 486Q383 486 442 411Q455 394 464 377T480 338T490 289T495 226H126Q127 200 129 181T134 146T143 119T157 95Q175 68 204 54T272 39Q302 39 328 48T375 74Q391 87 401 104T422 154H481ZM397 279Q395 325 389 349T367 394Q335 437 268 437Q199 437 164 390Q156 379 151 369T142 346T135 317T130 279H397ZM329 686Q357 716 380 716Q395 716 406 705T417 677Q417 664 408 654T377 629L231 540H195L329 686Z"/>
<glyph unicode="ê" horiz-adv-x="526" d="M481 154Q469 108 457 84T423 38Q367 -17 272 -17Q217 -17 173 1T97 51T48 130T30 233Q30 291 47 337T95 417T171 468T270 486Q383 486 442 411Q455 394 464 377T480 338T490 289T495 226H126Q127 200 129 181T134 146T143 119T157 95Q175 68 204 54T272 39Q302 39 328 48T375 74Q391 87 401 104T422 154H481ZM397 279Q395 325 389 349T367 394Q335 437 268 437Q199 437 164 390Q156 379 151 369T142 346T135 317T130 279H397ZM231 709H296L406 540H371L263 635L156 540H121L231 709Z"/>
<glyph unicode="ë" horiz-adv-x="526" d="M481 154Q469 108 457 84T423 38Q367 -17 272 -17Q217 -17 173 1T97 51T48 130T30 233Q30 291 47 337T95 417T171 468T270 486Q383 486 442 411Q455 394 464 377T480 338T490 289T495 226H126Q127 200 129 181T134 146T143 119T157 95Q175 68 204 54T272 39Q302 39 328 48T375 74Q391 87 401 104T422 154H481ZM397 279Q395 325 389 349T367 394Q335 437 268 437Q199 437 164 390Q156 379 151 369T142 346T135 317T130 279H397ZM171 674Q193 674 209 658T225 619Q225 596 210 581T171 565Q148 565 132 581T116 620Q116 641 132 657T171 674ZM357 674Q379 674 395 658T411 619Q411 596 396 581T358 565Q334 565 318 581T302 620Q302 641 318 657T357 674Z"/>
<glyph unicode="ì" horiz-adv-x="328" d="M30 48H62Q82 48 94 50T114 59T123 76T126 105V364Q126 398 114 409T62 421H30V469H212V105Q212 87 214 76T224 59T243 51T276 48H302V0H30V48ZM159 540L71 628Q58 641 51 648T40 661T35 671T34 682Q34 696 44 706T69 716Q84 716 95 707T118 675L191 540H159Z"/>
<glyph unicode="í" horiz-adv-x="346" d="M30 48H62Q82 48 94 50T114 59T123 76T126 105V364Q126 398 114 409T62 421H30V469H212V105Q212 87 214 76T224 59T243 51T276 48H302V0H30V48ZM220 675Q232 698 243 707T270 716Q285 716 295 706T305 682Q305 676 304 672T300 662T289 649T268 628L180 540H148L220 675Z"/>
<glyph unicode="î" horiz-adv-x="328" d="M30 48H62Q82 48 94 50T114 59T123 76T126 105V364Q126 398 114 409T62 421H30V469H212V105Q212 87 214 76T224 59T243 51T276 48H302V0H30V48ZM118 709H183L280 540H246L150 635L54 540H21L118 709Z"/>
<glyph unicode="ï" horiz-adv-x="328" d="M30 48H62Q82 48 94 50T114 59T123 76T126 105V364Q126 398 114 409T62 421H30V469H212V105Q212 87 214 76T224 59T243 51T276 48H302V0H30V48ZM81 674Q103 674 119 658T135 619Q135 596 120 581T81 565Q58 565 42 581T26 620Q26 641 42 657T81 674ZM240 674Q262 674 278 658T294 619Q294 596 279 581T241 565Q217 565 201 581T185 620Q185 641 201 657T240 674Z"/>
<glyph unicode="ð" d="M300 667L337 630L426 663L449 622L369 591Q417 531 450 482T505 389T536 307T546 230Q546 177 527 132T473 53T392 2T289 -17Q237 -17 191 0T108 50Q69 85 50 130T31 235Q31 349 108 419Q143 451 190 468T288 486Q310 486 328 484T372 474Q366 485 361 494T350 514T335 536T314 567L242 537L220 578L291 606Q285 615 280 621T270 634T258 648T243 667H300ZM288 435Q211 435 170 383T128 234Q128 137 169 86T288 34Q365 34 407 85T449 232Q449 331 408 383T288 435Z"/>
<glyph unicode="ñ" horiz-adv-x="650" d="M30 48H58Q78 48 90 50T110 59T119 76T122 105V364Q122 398 110 409T58 421H30V469H207V388Q229 417 244 432T279 458Q302 469 328 475T381 482Q425 482 458 467T512 423Q521 410 526 397T535 367T539 325T541 268V105Q541 87 543 76T553 59T573 51T606 48H628V0H360V48H392Q412 48 424 50T444 59T453 76T456 105V281Q456 363 434 396T355 429Q291 429 248 384Q226 360 217 333T207 268V105Q207 87 209 76T219 59T239 51T272 48H304V0H30V48ZM470 676Q461 634 434 607T375 580Q355 580 336 589L287 610Q264 621 250 621Q237 621 228 614T208 588H180Q187 606 191 615T200 635Q213 658 234 672T277 686Q296 686 322 674L371 652Q390 644 402 644Q416 644 425 651T443 676H470Z"/>
<glyph unicode="ò" d="M289 486Q341 486 387 469T469 419Q546 349 546 234Q546 175 527 130T469 50Q434 18 387 1T289 -17Q237 -17 191 0T108 50Q68 86 50 131T31 238Q31 294 50 340T108 419Q183 486 289 486ZM289 435Q212 435 170 384T128 237Q128 138 169 86T289 34Q366 34 407 86T449 234Q449 331 408 383T289 435ZM313 540L167 629Q144 643 135 653T126 677Q126 693 137 704T163 716Q187 716 215 686L349 540H313Z"/>
<glyph unicode="ó" d="M289 486Q341 486 387 469T469 419Q546 349 546 234Q546 175 527 130T469 50Q434 18 387 1T289 -17Q237 -17 191 0T108 50Q68 86 50 131T31 238Q31 294 50 340T108 419Q183 486 289 486ZM289 435Q212 435 170 384T128 237Q128 138 169 86T289 34Q366 34 407 86T449 234Q449 331 408 383T289 435ZM354 686Q382 716 405 716Q420 716 431 705T442 677Q442 664 433 654T401 629L256 540H220L354 686Z"/>
<glyph unicode="ô" d="M289 486Q341 486 387 469T469 419Q546 349 546 234Q546 175 527 130T469 50Q434 18 387 1T289 -17Q237 -17 191 0T108 50Q68 86 50 131T31 238Q31 294 50 340T108 419Q183 486 289 486ZM289 435Q212 435 170 384T128 237Q128 138 169 86T289 34Q366 34 407 86T449 234Q449 331 408 383T289 435ZM256 709H320L431 540H396L288 635L181 540H145L256 709Z"/>
<glyph unicode="õ" d="M289 486Q341 486 387 469T469 419Q546 349 546 234Q546 175 527 130T469 50Q434 18 387 1T289 -17Q237 -17 191 0T108 50Q68 86 50 131T31 238Q31 294 50 340T108 419Q183 486 289 486ZM289 435Q212 435 170 384T128 237Q128 138 169 86T289 34Q366 34 407 86T449 234Q449 331 408 383T289 435ZM433 676Q423 635 396 608T337 580Q317 580 299 589L250 610Q227 621 213 621Q199 621 190 614T171 588H143Q149 606 153 615T163 635Q176 658 197 672T240 686Q259 686 285 674L334 652Q353 644 365 644Q379 644 388 651T406 676H433Z"/>
<glyph unicode="ö" d="M289 486Q341 486 387 469T469 419Q546 349 546 234Q546 175 527 130T469 50Q434 18 387 1T289 -17Q237 -17 191 0T108 50Q68 86 50 131T31 238Q31 294 50 340T108 419Q183 486 289 486ZM289 435Q212 435 170 384T128 237Q128 138 169 86T289 34Q366 34 407 86T449 234Q449 331 408 383T289 435ZM196 674Q218 674 234 658T250 619Q250 596 235 581T196 565Q173 565 157 581T141 620Q141 641 157 657T196 674ZM383 674Q405 674 421 658T437 619Q437 596 422 581T384 565Q360 565 344 581T328 620Q328 641 344 657T383 674Z"/>
<glyph unicode="÷" horiz-adv-x="506" d="M454 342V276H52V342H454ZM254 515Q277 515 293 499T310 459Q310 436 294 419T254 402Q230 402 214 419T197 460Q197 483 214 499T254 515ZM254 217Q277 217 293 201T310 161Q310 138 294 121T254 104Q230 104 214 121T197 162Q197 185 214 201T254 217Z"/>
<glyph unicode="ø" d="M85 73Q68 99 58 119T41 159T32 196T29 237Q29 291 48 337T101 416T183 467T288 486Q312 486 333 483T373 474T413 456T456 428L528 497L559 466L488 398Q504 375 515 355T532 316T541 278T544 234Q544 120 467 50Q431 18 385 1T286 -17Q237 -17 199 -4T116 41L46 -26L15 5L85 73ZM165 88Q194 57 221 45T286 33Q365 33 406 85T448 237Q448 252 447 264T444 288T439 312T429 341L165 88ZM408 382Q382 410 353 422T285 435Q207 435 166 382T125 229Q125 214 126 202T129 179T134 156T143 128L408 382Z"/>
<glyph unicode="ù" horiz-adv-x="645" d="M25 469H196V188Q196 106 218 73T297 40Q362 40 404 85Q427 110 436 136T445 201V364Q445 382 443 393T433 410T414 418T381 421H343V469H530V105Q530 87 532 76T542 59T562 51T595 48H623V0H445V81Q424 52 409 37T374 11Q351 0 325 -6T271 -13Q227 -13 193 2T140 46Q131 59 126 72T117 102T113 144T111 201V364Q111 382 109 393T99 410T80 418T47 421H25V469ZM314 540L169 629Q146 643 137 653T128 677Q128 693 139 704T165 716Q189 716 216 686L350 540H314Z"/>
<glyph unicode="ú" horiz-adv-x="645" d="M25 469H196V188Q196 106 218 73T297 40Q362 40 404 85Q427 110 436 136T445 201V364Q445 382 443 393T433 410T414 418T381 421H343V469H530V105Q530 87 532 76T542 59T562 51T595 48H623V0H445V81Q424 52 409 37T374 11Q351 0 325 -6T271 -13Q227 -13 193 2T140 46Q131 59 126 72T117 102T113 144T111 201V364Q111 382 109 393T99 410T80 418T47 421H25V469ZM389 686Q416 716 440 716Q455 716 466 705T477 677Q477 664 468 654T436 629L291 540H255L389 686Z"/>
<glyph unicode="û" horiz-adv-x="645" d="M25 469H196V188Q196 106 218 73T297 40Q362 40 404 85Q427 110 436 136T445 201V364Q445 382 443 393T433 410T414 418T381 421H343V469H530V105Q530 87 532 76T542 59T562 51T595 48H623V0H445V81Q424 52 409 37T374 11Q351 0 325 -6T271 -13Q227 -13 193 2T140 46Q131 59 126 72T117 102T113 144T111 201V364Q111 382 109 393T99 410T80 418T47 421H25V469ZM291 709H355L466 540H430L323 635L216 540H180L291 709Z"/>
<glyph unicode="ü" horiz-adv-x="645" d="M25 469H196V188Q196 106 218 73T297 40Q362 40 404 85Q427 110 436 136T445 201V364Q445 382 443 393T433 410T414 418T381 421H343V469H530V105Q530 87 532 76T542 59T562 51T595 48H623V0H445V81Q424 52 409 37T374 11Q351 0 325 -6T271 -13Q227 -13 193 2T140 46Q131 59 126 72T117 102T113 144T111 201V364Q111 382 109 393T99 410T80 418T47 421H25V469ZM219 674Q241 674 257 658T273 619Q273 596 258 581T219 565Q196 565 180 581T164 620Q164 641 180 657T219 674ZM405 674Q427 674 443 658T459 619Q459 596 444 581T406 565Q382 565 366 581T350 620Q350 641 366 657T405 674Z"/>
<glyph unicode="ý" horiz-adv-x="566" d="M93 374Q82 401 68 411T28 421H2V469H255V421H212Q193 421 186 417T178 401Q178 395 180 386T187 367L300 103L414 372Q421 389 421 399Q421 411 410 416T371 421H331V469H569V421H539Q515 421 502 409T472 359L333 38Q311 -12 296 -46T269 -102T247 -139T226 -164Q181 -214 113 -214Q86 -214 67 -207T31 -184Q-5 -151 -5 -104Q-5 -72 14 -51T63 -30Q86 -30 101 -45T116 -83Q116 -108 103 -119T58 -132Q72 -151 84 -157T116 -164Q162 -164 197 -115Q203 -105 209 -96T221 -74T236 -44T255 -3L93 374ZM349 686Q376 716 400 716Q415 716 426 705T437 677Q437 664 428 654T396 629L251 540H215L349 686Z"/>
<glyph unicode="þ" horiz-adv-x="615" d="M190 -109Q190 -127 192 -138T202 -155T221 -163T254 -166H286V-214H19V-166H41Q60 -166 72 -164T92 -155T102 -137T105 -109V562Q105 580 103 591T93 608T74 616T41 619H13V667H191V390Q204 407 210 416T225 433Q249 457 283 470T358 484Q405 484 444 466T512 415T555 336T571 235Q571 179 556 133T512 54T444 3T356 -16Q322 -16 292 -7T239 21Q228 30 217 43T190 78V-109ZM339 426Q271 426 231 375T190 236Q190 145 230 94T340 42Q404 42 439 92T474 235Q474 326 439 376T339 426Z"/>
<glyph unicode="ÿ" horiz-adv-x="566" d="M93 374Q82 401 68 411T28 421H2V469H255V421H212Q193 421 186 417T178 401Q178 395 180 386T187 367L300 103L414 372Q421 389 421 399Q421 411 410 416T371 421H331V469H569V421H539Q515 421 502 409T472 359L333 38Q311 -12 296 -46T269 -102T247 -139T226 -164Q181 -214 113 -214Q86 -214 67 -207T31 -184Q-5 -151 -5 -104Q-5 -72 14 -51T63 -30Q86 -30 101 -45T116 -83Q116 -108 103 -119T58 -132Q72 -151 84 -157T116 -164Q162 -164 197 -115Q203 -105 209 -96T221 -74T236 -44T255 -3L93 374ZM190 674Q212 674 228 658T244 619Q244 596 229 581T190 565Q167 565 151 581T135 620Q135 641 151 657T190 674ZM376 674Q398 674 414 658T430 619Q430 596 415 581T377 565Q353 565 337 581T321 620Q321 641 337 657T376 674Z"/>
<glyph unicode="Œ" horiz-adv-x="1212" d="M1130 416H1079Q1077 478 1069 516T1039 577T982 606T887 614H707V376H776Q800 376 816 377T842 382T859 393T870 411Q877 428 879 448T882 505H933V178H882Q880 208 879 226T877 256T873 275T866 289Q848 323 775 323H707V53H900Q967 53 1003 68T1056 117Q1061 128 1064 141T1070 171T1075 213T1079 271H1130V0H695Q681 0 671 0T646 -1T603 -6T528 -14Q503 -16 479 -17T428 -19Q289 -19 195 43Q119 92 80 166T40 333Q40 433 86 511T218 638Q264 663 315 674T434 686Q452 686 463 686T492 685T537 680T615 671Q633 669 652 668T691 667H1130V416ZM610 541Q610 560 609 571T606 590T598 602T584 610Q562 621 524 627T449 634Q386 634 332 617T241 569Q196 531 172 470T148 333Q148 252 177 187T258 86Q294 60 343 47T448 33Q468 33 489 35T529 41T564 49T590 60Q596 64 600 68T606 79T609 97T610 126V541Z"/>
<glyph unicode="œ" horiz-adv-x="933" d="M887 154Q876 108 864 84T829 38Q773 -17 678 -17Q640 -17 605 -8T543 19Q530 27 518 39T487 73Q463 48 441 31T395 4T345 -12T287 -17Q236 -17 190 0T107 50Q30 120 30 234Q30 349 107 419Q142 451 189 468T287 486Q346 486 392 467T486 401Q511 425 532 441T576 468T622 482T676 486Q789 486 849 411Q862 394 871 377T887 338T896 289T901 226H533Q534 200 535 181T540 146T549 119T563 95Q581 68 611 54T679 39Q708 39 734 48T781 74Q797 87 807 104T828 154H887ZM288 435Q211 435 169 383T127 237Q127 138 168 86T288 34Q365 34 406 86T448 234Q448 331 407 383T288 435ZM804 279Q801 324 795 348T773 393Q757 414 732 425T675 436Q605 436 570 389Q555 369 548 346T536 279H804Z"/>
<glyph unicode="Š" horiz-adv-x="626" d="M45 277H100Q106 246 112 223T126 182T144 148T169 118Q204 81 249 62T347 43Q419 43 463 77T507 168Q507 220 466 250Q452 261 424 270T353 289L271 307Q233 316 208 322T166 334T135 347T109 364Q47 408 47 496Q47 539 63 574T110 635T183 673T279 687Q310 687 334 684T382 672T429 649T486 612L515 673H561V420H508Q503 449 498 471T485 509T470 539T449 565Q420 596 378 612T284 629Q215 629 174 599T132 519Q132 474 164 448T268 407L364 388Q428 376 472 359T544 318T584 263T597 189Q597 143 579 105T528 39T450 -4T351 -20Q317 -20 290 -16T238 -1T187 28T128 74L96 0H45V277ZM202 851L313 780L424 851H456L350 719H276L170 851H202Z"/>
<glyph unicode="š" horiz-adv-x="497" d="M40 192H92Q102 150 113 128T148 85Q173 62 204 50T270 38Q320 38 349 58T379 114Q379 167 292 185L202 202Q128 216 87 254T46 346Q46 377 58 402T93 446T147 475T216 485Q260 485 295 473T373 433L392 475H437V293H387Q378 331 368 352T340 390Q295 433 225 433Q180 433 155 415T129 364Q129 307 212 292L306 275Q381 261 421 225T461 134Q461 65 411 25T274 -16Q249 -16 229 -13T190 -3T152 16T111 46L91 -4H40V192ZM141 709L249 614L356 709H391L281 540H216L106 709H141Z"/>
<glyph unicode="Ÿ" horiz-adv-x="636" d="M90 550Q51 614 4 614H-25V667H281V614H217Q182 614 182 593Q182 577 196 555L331 331L476 564Q481 572 484 581T487 597Q487 614 453 614H386V667H656V614H633Q617 614 604 610T579 597T555 572T528 532L363 263V126Q363 97 365 86T372 68Q385 53 433 53H495V0H133V53H196Q243 53 257 68Q262 75 264 86T266 126V263L90 550ZM242 822Q262 822 277 807T293 770Q293 749 278 735T242 720Q220 720 206 734T191 771Q191 791 206 806T242 822ZM420 822Q440 822 455 807T471 770Q471 750 456 735T420 720Q398 720 384 734T369 771Q369 791 384 806T420 822Z"/>
<glyph unicode="Ž" horiz-adv-x="616" d="M25 54L453 614H263Q209 614 180 605T133 573Q124 561 118 548T108 517T101 471T96 403H44V667H568V611L142 53H333Q399 53 437 70T491 124Q495 135 498 148T504 179T509 224T514 287H567V0H25V54ZM197 851L308 780L419 851H451L345 719H271L165 851H197Z"/>
<glyph unicode="ž" horiz-adv-x="497" d="M25 50L344 420H226Q195 420 175 419T143 413T123 401T108 381Q104 374 102 366T97 346T93 317T89 272H41V469H450V420L132 50H260Q293 50 316 52T354 60T379 75T395 99Q398 106 400 114T404 135T407 165T411 212H459V0H25V50ZM141 709L248 614L356 709H391L281 540H216L106 709H141Z"/>
<glyph unicode="ƒ" horiz-adv-x="608" d="M182 420L189 469H282L288 509Q296 562 310 593T351 645Q397 684 470 684Q529 684 563 660T598 593Q598 562 580 542T534 521Q514 521 501 532T488 562Q488 601 535 614Q517 630 505 634T472 639Q449 639 429 629T398 600Q390 585 384 565T372 506L367 469H478L471 420H359L294 13Q289 -19 278 -46T253 -90Q203 -149 114 -149Q55 -149 21 -125T-14 -59Q-14 -27 4 -7T50 13Q71 13 83 2T96 -28Q96 -66 49 -79Q67 -94 79 -99T112 -104Q176 -104 197 -39Q202 -27 205 -10T214 45L274 420H182Z"/>
<glyph unicode="ˆ" horiz-adv-x="500" d="M217 709H282L393 540H357L250 635L142 540H107L217 709Z"/>
<glyph unicode="˜" horiz-adv-x="500" d="M395 676Q385 635 358 608T299 580Q279 580 261 589L212 610Q187 621 174 621Q161 621 152 614T133 588H105Q111 606 115 615T125 635Q138 658 159 672T202 686Q220 686 247 674L296 652Q315 644 327 644Q350 644 367 676H395Z"/>
<glyph unicode="–" horiz-adv-x="548" d="M34 266H514V209H34V266Z"/>
<glyph unicode="—" horiz-adv-x="695" d="M0 266H695V209H0V266Z"/>
<glyph unicode="‘" horiz-adv-x="228" d="M195 657Q166 652 151 643T122 617Q102 591 102 558V542Q115 550 122 553T140 556Q163 556 176 542T190 506Q190 480 175 465T133 450Q98 450 77 475T55 540Q55 569 65 596T94 643Q115 666 136 675T195 687V657Z"/>
<glyph unicode="’" horiz-adv-x="228" d="M35 480Q64 485 79 493T108 519Q128 546 128 578V594Q116 586 108 583T90 580Q67 580 54 594T40 631Q40 656 55 671T97 687Q132 687 153 662T175 597Q175 568 165 541T136 494Q117 473 96 463T35 445V480Z"/>
<glyph unicode="‚" horiz-adv-x="228" d="M35 -111Q64 -106 79 -98T108 -72Q128 -45 128 -13V3Q116 -5 108 -8T90 -11Q67 -11 54 3T40 39Q40 65 55 80T97 95Q132 95 153 71T175 5Q175 -24 165 -51T136 -98Q117 -118 96 -128T35 -146V-111Z"/>
<glyph unicode="“" horiz-adv-x="437" d="M402 652Q373 647 358 638T329 612Q309 586 309 553V537Q321 545 329 548T347 551Q369 551 383 537T397 501Q397 476 381 461T339 445Q305 445 284 470T262 535Q262 564 272 591T301 638Q320 658 341 668T402 687V652ZM195 652Q166 647 151 638T122 612Q102 586 102 553V537Q114 545 122 548T140 551Q163 551 176 538T190 501Q190 475 175 460T133 445Q98 445 77 470T55 535Q55 564 65 591T94 638Q113 658 134 668T195 687V652Z"/>
<glyph unicode="”" horiz-adv-x="437" d="M35 480Q64 485 79 493T108 519Q128 546 128 578V594Q116 586 108 583T90 580Q67 580 54 594T40 631Q40 656 55 671T97 687Q132 687 153 662T175 597Q175 568 165 541T136 494Q117 473 96 463T35 445V480ZM242 480Q271 485 286 493T315 519Q326 533 330 547T335 579V594Q323 586 315 583T297 580Q274 580 261 594T247 631Q247 656 263 671T305 687Q339 687 360 662T382 597Q382 568 372 541T343 494Q324 474 303 464T242 445V480Z"/>
<glyph unicode="„" horiz-adv-x="437" d="M35 -111Q64 -106 79 -98T108 -72Q128 -45 128 -13V3Q116 -5 108 -8T90 -11Q68 -11 54 3T40 39Q40 65 56 80T98 95Q132 95 153 71T175 6Q175 -23 165 -50T136 -98Q117 -118 96 -128T35 -146V-111ZM242 -111Q271 -106 286 -98T315 -72Q326 -58 330 -44T335 -12V3Q323 -5 315 -8T297 -11Q275 -11 261 3T247 39Q247 65 263 80T305 95Q339 95 360 71T382 6Q382 -23 372 -50T343 -98Q325 -118 304 -128T242 -146V-111Z"/>
<glyph unicode="†" horiz-adv-x="591" d="M272 366Q252 365 241 365T217 363T189 358T144 349Q134 347 122 346T102 344Q55 344 55 384Q55 424 102 424Q109 424 114 424T127 423T150 418T190 410Q200 408 209 407T227 404T247 402T272 401Q270 436 269 457T266 496T261 533T253 583Q251 595 250 607T248 628Q248 656 260 671T294 687Q315 687 327 672T340 628Q340 621 340 616T339 602T334 577T326 532Q322 511 320 482T316 401Q335 402 347 402T371 404T399 409T444 419Q454 421 466 422T486 424Q533 424 533 384Q533 344 486 344Q479 344 474 344T461 345T438 350T398 358Q378 362 361 363T316 366Q316 284 317 222T321 109T326 19T334 -60Q339 -100 340 -119T342 -146Q342 -178 329 -196T293 -214Q270 -214 258 -196T245 -145Q245 -137 247 -118T254 -60Q258 -29 261 16T267 116T270 235T272 366Z"/>
<glyph unicode="‡" horiz-adv-x="591" d="M316 82Q336 82 348 83T372 85T400 90T444 99Q454 101 466 102T486 104Q533 104 533 64Q533 24 486 24Q479 24 474 24T461 25T438 30T398 38Q377 42 361 44T316 46Q317 23 317 9T320 -21T325 -56T335 -110Q337 -122 338 -134T340 -155Q340 -183 328 -198T294 -214Q273 -214 261 -199T248 -155Q248 -149 248 -144T249 -130T254 -105T262 -60Q264 -45 265 -33T268 -10T270 14T272 46Q253 46 241 46T217 44T189 39T144 29Q134 27 122 26T102 24Q55 24 55 64Q55 104 102 104Q109 104 114 104T127 103T150 98T190 90Q210 86 226 85T272 82Q273 91 273 98T273 110Q273 147 267 175T243 236Q260 268 266 296T273 362Q273 367 273 374T272 390Q252 390 241 390T217 388T189 383T144 373Q134 371 122 370T102 368Q55 368 55 408Q55 448 102 448Q109 448 114 448T127 447T149 442T190 434Q200 432 209 431T227 429T247 427T272 426Q271 449 270 463T268 492T263 527T253 583Q251 595 250 607T248 628Q248 656 260 671T294 687Q315 687 327 672T340 628Q340 621 340 616T339 602T334 577T326 532Q323 517 322 506T319 483T318 458T316 426Q335 427 347 427T371 429T399 434T444 443Q467 448 486 448Q533 448 533 408Q533 368 486 368Q479 368 474 368T461 369T438 374T398 382Q378 387 362 388T316 390V362Q316 326 322 297T345 236Q329 204 323 176T316 110V82Z"/>
<glyph unicode="•" horiz-adv-x="667" d="M336 477Q364 477 389 466T432 436T462 392T473 338Q473 309 462 284T433 241T389 211T335 200Q306 200 281 211T237 240T207 284T196 338Q196 367 207 392T237 436T281 466T336 477Z"/>
<glyph unicode="…" horiz-adv-x="678" d="M114 96Q137 96 153 80T170 40Q170 17 154 0T114 -17Q90 -17 74 0T57 41Q57 64 74 80T114 96ZM340 96Q363 96 379 80T396 40Q396 17 380 0T340 -17Q316 -17 300 0T283 41Q283 64 300 80T340 96ZM566 96Q589 96 605 80T622 40Q622 17 606 0T566 -17Q542 -17 526 0T509 41Q509 64 526 80T566 96Z"/>
<glyph unicode="‰" horiz-adv-x="784" d="M137 650Q190 650 223 615T257 522Q257 494 248 471T224 430T186 404T138 394Q84 394 51 430T17 524Q17 579 51 614T137 650ZM137 623Q105 623 87 597T68 523Q68 475 86 448T137 421Q169 421 187 447T206 522Q206 570 188 596T137 623ZM435 658H484L75 0H27L435 658ZM374 249Q427 249 460 214T494 121Q494 93 485 70T461 29T423 3T375 -7Q321 -7 288 29T254 123Q254 178 288 213T374 249ZM374 222Q342 222 324 196T305 122Q305 74 323 47T374 20Q406 20 424 46T443 121Q443 169 425 195T374 222ZM647 249Q700 249 733 214T767 121Q767 93 758 70T734 29T696 3T648 -7Q594 -7 561 29T527 123Q527 178 561 213T647 249ZM647 222Q615 222 597 196T578 122Q578 74 596 47T647 20Q679 20 697 46T716 121Q716 169 698 195T647 222Z"/>
<glyph unicode="‹" horiz-adv-x="288" d="M119 142Q102 166 93 180T78 203T72 220T70 237Q70 247 71 254T78 271T92 295T119 333L167 403H218L164 293Q147 257 147 238Q147 218 164 182L218 72H167L119 142Z"/>
<glyph unicode="›" horiz-adv-x="288" d="M70 72L124 182Q141 218 141 238Q141 257 124 293L70 403H121L170 333Q186 309 196 295T210 271T216 254T218 237Q218 228 217 221T211 204T197 180T170 142L121 72H70Z"/>
<glyph unicode="€" horiz-adv-x="613" d="M48 379Q60 434 87 479T153 555T241 604T346 622Q369 622 389 620T429 611T471 595T522 569L544 604H586V409H540Q532 448 522 470T494 512Q469 538 431 553T350 569Q275 569 222 519T149 379H439L408 326H141Q140 318 140 312T140 299Q140 290 140 283T142 265H371L340 212H151Q172 124 225 80T361 35Q388 35 412 39T459 51T505 74T554 109V36Q528 20 505 9T459 -8T410 -17T354 -20Q172 -20 86 121Q61 163 49 212H-33L-2 265H41Q39 274 39 282T39 300Q39 307 39 313T40 326H-33L-2 379H48Z"/>
<glyph unicode="™" horiz-adv-x="965" d="M16 667H385V513H347Q345 548 341 570T325 606T295 624T247 629H233V361Q233 348 234 341T238 330T249 325T270 324H311V286H90V324H131Q144 324 151 325T162 329T167 340T168 361V629H154Q125 629 107 624T77 607T60 572T54 513H16V667ZM418 667H568L686 382L807 667H950V629H922Q909 629 902 628T891 624T886 613T885 593V361Q885 349 886 342T890 331T901 326T922 325H950V287H752V325H784Q797 325 804 326T815 330T820 341T821 361V598L690 287H661L530 605V361Q530 349 531 342T536 331T547 326T568 325H598V287H418V325H445Q458 325 465 326T477 330T482 341T483 361V593Q483 605 482 612T477 623T466 628T445 629H418V667Z"/>

</font>
</defs>
</svg>
