<?xml version="1.0" encoding="UTF-8"?>
<!DOCTYPE svg PUBLIC "-//W3C//DTD SVG 1.0//EN" "http://www.w3.org/TR/2001/REC-SVG-20010904/DTD/svg10.dtd">
<svg xmlns="http://www.w3.org/2000/svg">
<metadata>
<version>1.0</version>
<id><![CDATA[URW Clarendon W01 Medium Obl]]></id>
<vendor>Monotype Imaging Inc.</vendor>
<credits>
<name>Fonts.com WebFonts</name>
<URL>http://webfonts.fonts.com</URL>
<role>Home of the Web fonts</role>
</credits>
<license>
<URL>http://webfonts.fonts.com/Legal</URL>
</license>
<copyright><![CDATA[(URW)++,Copyright 2004 by (URW)++ Design & Development]]></copyright>
<trademark><![CDATA[Please refer to the Copyright section for the font trademark attribution notices.]]></trademark>
<licensee>
<name/>
</licensee>
</metadata>
<defs>
<font horiz-adv-x="602" id="791761f2-f5a3-4342-8179-975df43eac32">
<font-face font-family="" panose-1="4 0 6 0 0 0 0 0 0 0" ascent="918" descent="-227" units-per-em="1000" alphabetic="0">
</font-face>
<missing-glyph horiz-adv-x="0"/>

<glyph unicode="
"/>
<glyph unicode="" horiz-adv-x="0"/>
<glyph unicode=" " horiz-adv-x="250"/>
<glyph unicode="!" horiz-adv-x="348" d="M127 199Q131 234 134 261T141 318T146 385T153 476Q156 516 158 542T163 585T169 613T179 635Q210 687 267 687Q336 687 336 623Q336 613 335 603T329 576T316 537T294 476Q275 423 262 386T239 319T221 261T203 199H127ZM153 141Q180 141 198 123T216 78Q216 60 208 43T187 12T155 -9T118 -17Q91 -17 73 0T55 45Q55 64 63 81T84 111T116 133T153 141Z"/>
<glyph unicode="&quot;" horiz-adv-x="376" d="M65 399L99 667H236L156 399H65ZM247 399L281 667H418L338 399H247Z"/>
<glyph unicode="#" horiz-adv-x="626" d="M531 188H428L358 0H235L307 188H210L140 0H23L93 188H-10L28 293H132L167 387H64L102 492H205L269 667H387L321 492H419L484 667H604L539 492H641L603 387H501L466 293H569L531 188ZM284 387L250 293H346L381 387H284Z"/>
<glyph unicode="$" horiz-adv-x="626" d="M200 -1Q170 1 149 3T110 9T80 18T52 32Q27 46 13 70T-1 120Q-1 142 7 161T30 196T64 219T104 228Q133 228 149 214T166 173Q166 144 149 127T93 101Q126 62 214 61L251 236Q218 246 197 253T162 266T137 277T115 290Q67 323 67 382Q67 424 86 464T141 533Q158 548 176 558T215 577T265 592T329 604L344 675H413L398 606Q459 601 493 591T551 558Q583 528 583 487Q583 447 556 420T487 393Q460 393 444 406T427 441Q427 464 441 479T486 508Q474 525 450 532T384 541L348 369Q379 362 400 357T436 347T462 337T486 325Q550 291 550 218Q550 177 530 139T473 69Q454 53 435 42T391 23T338 9T269 0L246 -110H177L200 -1ZM283 64Q324 69 345 77T383 99Q396 111 403 126T411 158Q411 185 391 199T317 224L283 64ZM315 538Q207 527 207 445Q207 433 210 425T221 409T244 396T282 383L315 538Z"/>
<glyph unicode="%" horiz-adv-x="958" d="M685 623H768L259 -17H175L685 623ZM286 622Q353 622 394 584T436 484Q436 433 418 389T369 311T294 259T202 240Q133 240 92 277T50 378Q50 429 68 473T118 551T193 603T286 622ZM270 556Q218 556 191 493Q179 464 172 429T165 364Q165 306 216 306Q269 306 295 369Q307 399 314 434T321 498Q321 556 270 556ZM744 365Q811 365 852 327T894 227Q894 176 876 132T826 54T752 2T660 -17Q591 -17 550 21T508 121Q508 173 526 217T576 295T651 346T744 365ZM779 239Q779 297 729 297Q703 297 687 286T656 249Q649 236 643 219T633 183T626 145T623 109Q623 77 635 64T676 50Q700 50 716 61T747 98Q753 110 759 127T769 164T776 202T779 236V239Z"/>
<glyph unicode="&amp;" horiz-adv-x="864" d="M796 231Q788 189 780 159T762 106T738 66T706 32Q645 -20 552 -20Q532 -20 516 -18T482 -9T446 8T403 36Q370 20 345 10T297 -7T254 -16T209 -19Q95 -19 43 36Q2 82 2 141Q2 193 25 242T90 328Q103 339 116 348T144 367T179 385T222 405Q215 433 213 450T210 481Q210 523 227 560T275 626T344 671T428 688Q487 688 521 658T555 577Q555 525 523 479Q513 464 502 452T477 428T443 403T397 375Q409 345 418 323T437 280T458 241T484 197Q528 240 551 270T574 316Q574 325 561 328T514 332H493L510 414H816L799 332Q790 333 782 333T768 333Q730 333 704 317Q696 312 691 308T678 296T660 274T628 234Q621 225 614 216T596 195T570 167T534 128Q551 105 564 97T599 89Q641 89 668 123T711 231H796ZM364 456Q373 461 382 465T396 473Q460 510 460 565Q460 605 416 605Q384 605 364 585T344 532Q344 514 348 498T364 456ZM247 313Q200 284 181 254T162 181Q162 133 190 107T269 80Q289 80 305 84T348 102Q333 124 321 147T296 195T272 249T247 313Z"/>
<glyph unicode="'" horiz-adv-x="194" d="M66 399L100 667H237L157 399H66Z"/>
<glyph unicode="(" horiz-adv-x="397" d="M431 610Q407 602 389 594T357 577T329 556T303 528Q262 480 234 412T185 244Q174 191 169 142T163 57Q163 15 176 -22T213 -82Q224 -94 237 -101T277 -119L260 -196Q228 -189 204 -182T159 -165T123 -142T90 -112Q11 -29 11 103Q11 170 23 235T59 359T115 469T190 560Q219 587 247 607T305 643T370 668T448 687L431 610Z"/>
<glyph unicode=")" horiz-adv-x="397" d="M-72 -119Q-48 -111 -30 -103T3 -86T31 -65T57 -38Q98 11 126 79T175 246Q186 299 191 348T197 434Q197 476 184 513T147 573Q136 584 123 592T84 609L100 687Q132 680 156 673T201 656T237 633T270 603Q349 520 349 388Q349 321 337 256T302 132T245 22T170 -69Q141 -96 113 -116T55 -152T-10 -177T-88 -196L-72 -119Z"/>
<glyph unicode="*" horiz-adv-x="497" d="M271 492Q272 506 272 514T273 528Q273 552 264 582Q257 603 256 609T254 624Q254 651 273 669T321 687Q343 687 355 676T368 646Q368 639 367 634T363 622T352 605T334 580Q318 559 309 542T290 493Q302 499 311 505T330 518T348 535T370 559Q384 575 393 585T411 601T427 609T444 611Q462 611 474 598T487 564Q487 549 480 535T460 512Q454 508 450 506T438 502T420 499T390 497Q357 495 339 491T297 476Q317 464 335 459T383 452Q417 450 427 448T446 437Q455 428 455 413Q455 398 449 385T433 361T410 344T383 338Q375 338 369 339T358 347T347 363T333 392Q325 407 320 417T309 434T298 446T284 458Q282 444 282 435T281 420Q281 409 283 398T291 368Q297 351 299 343T301 326Q301 300 281 282T233 263Q186 263 186 301Q186 308 187 313T191 326T202 343T221 370Q239 398 248 416T265 456Q253 450 244 444T225 431T207 414T185 390Q171 373 162 363T145 348T130 341T112 339Q92 339 80 352T67 387Q67 402 74 416T95 438Q105 445 117 447T165 452Q180 453 191 454T213 458T234 465T257 474Q237 486 220 490T172 497Q137 498 127 501T108 513Q99 523 99 539Q99 552 105 565T121 588T143 604T169 610Q188 610 198 601T222 559Q227 546 231 538T241 522T253 508T271 492Z"/>
<glyph unicode="+" horiz-adv-x="595" d="M251 366L285 530H394L359 366H529L507 263H337L302 100H194L229 263H59L81 366H251Z"/>
<glyph unicode="," horiz-adv-x="268" d="M-42 -94Q-16 -87 1 -80T31 -63T52 -39T70 -1Q44 -10 34 -10Q12 -10 -2 4T-16 41Q-16 60 -8 78T15 109T48 131T87 139Q120 139 139 119T159 63Q159 31 143 -5T99 -70Q70 -101 36 -117T-53 -144L-42 -94Z"/>
<glyph unicode="-" horiz-adv-x="275" d="M-7 299H268L241 172H-34L-7 299Z"/>
<glyph unicode="." horiz-adv-x="313" d="M118 141Q145 141 163 123T181 78Q181 60 173 43T152 12T120 -9T83 -17Q56 -17 38 0T20 45Q20 64 28 81T49 111T81 133T118 141Z"/>
<glyph unicode="/" horiz-adv-x="383" d="M-81 -92L341 686H418L-4 -92H-81Z"/>
<glyph unicode="0" horiz-adv-x="626" d="M379 621Q429 621 470 605T540 558T585 486T601 391Q601 307 573 233T495 104T380 16T240 -17Q188 -17 147 -1T76 45T30 117T14 213Q14 294 43 371T126 506Q232 621 379 621ZM358 539Q268 539 222 407Q202 347 189 283T176 174Q176 121 197 93T256 65Q301 65 336 98T393 197Q403 226 411 258T426 321T435 380T439 430Q439 484 418 511T358 539Z"/>
<glyph unicode="1" horiz-adv-x="626" d="M154 444L169 519Q206 522 234 528T283 545T320 571T349 607H456L356 135Q351 112 351 102Q351 76 394 76H455L438 0H58L74 76H137Q152 76 165 79T184 88Q189 93 194 106T203 135L268 444H154Z"/>
<glyph unicode="2" horiz-adv-x="626" d="M-21 0Q-11 55 9 98T65 177T158 246T296 315Q356 343 383 376T411 455Q411 494 383 516T305 539Q279 539 255 532T212 511Q201 504 194 495T176 467Q201 472 209 472Q231 472 245 458T259 421Q259 402 251 385T227 354T193 332T152 324Q116 324 95 345T74 402Q74 442 98 483T168 558Q254 622 375 622Q421 622 459 611T525 578T567 528T582 463Q582 415 560 371T500 296Q479 279 448 265T382 242L291 219Q251 208 224 199T176 178T141 152T109 116Q149 134 172 140T219 147Q233 147 252 144T300 133Q333 124 353 121T387 117Q424 117 443 137T477 213H547Q541 180 535 157T523 115T510 84T493 57Q467 22 427 3T342 -17Q324 -17 309 -15T277 -8T236 7T179 33Q139 53 115 53Q95 53 81 41T53 0H-21Z"/>
<glyph unicode="3" horiz-adv-x="626" d="M251 360Q278 361 298 363T332 369T358 379T379 396Q396 412 404 433T413 479Q413 514 389 532T318 551Q284 551 255 543T197 515Q230 509 243 498T257 463Q257 445 249 429T227 401T195 382T156 374Q125 374 105 391T85 436Q85 475 108 508T170 567T263 607T377 622Q429 622 473 610T546 575Q564 561 574 540T584 492Q584 464 574 438T546 392Q535 380 523 371T496 354T461 340T413 326Q481 305 509 277T537 204Q537 159 515 117T454 46Q415 16 353 -1T219 -18Q113 -18 55 17T-3 119Q-3 147 6 171T32 213T70 241T118 252Q150 252 168 235T187 188Q187 157 168 133Q155 118 139 111T91 98Q103 86 114 79T138 67T167 60T204 58Q240 58 270 68T322 97T356 142T369 198Q369 224 356 243T320 270Q312 273 305 274T289 277T267 278T234 280L251 360Z"/>
<glyph unicode="4" horiz-adv-x="626" d="M521 0H155L171 77H224Q238 77 251 80T270 89Q275 94 281 108T290 136L299 177H2L20 260L414 607H538L466 264H571L553 177H447L438 136Q436 124 435 116T433 102Q433 77 476 77H537L521 0ZM317 264L362 465L125 264H317Z"/>
<glyph unicode="5" horiz-adv-x="626" d="M184 397Q208 408 226 415T262 426T298 432T338 434Q385 434 423 423T488 390T529 338T544 271Q544 207 514 147T432 48Q389 16 331 -1T210 -18Q113 -18 59 18T5 120Q5 147 14 170T40 211T79 239T126 249Q157 249 175 233T194 188Q194 171 187 154T166 125Q154 114 140 108T97 97Q137 58 202 58Q238 58 269 73T323 115T360 177T374 254Q374 354 277 354Q242 354 216 343T154 302H71L163 618Q202 611 231 607T287 599T338 595T395 594Q451 594 490 599T568 616Q575 619 582 619Q586 619 586 613Q586 588 563 564T502 522T416 492T319 480Q298 480 275 482T210 490L184 397Z"/>
<glyph unicode="6" horiz-adv-x="626" d="M468 534Q455 546 444 550T414 554Q378 554 343 537T284 488Q264 463 251 429T223 333Q273 358 308 368T384 378Q463 378 508 337T554 224Q554 172 532 128T470 51T378 0T262 -19Q150 -19 93 35T35 195Q35 285 68 370T160 516Q209 567 274 594T411 622Q494 622 543 592T592 510Q592 488 584 470T562 437T528 415T486 407Q454 407 435 421T416 460Q416 483 428 500T468 534ZM312 294Q286 294 264 282T224 249T198 200T188 138Q188 100 207 79T261 57Q287 57 310 69T350 102T376 152T386 214Q386 252 367 273T312 294Z"/>
<glyph unicode="7" horiz-adv-x="626" d="M152 -2Q166 68 182 117T222 207T283 286T376 371Q406 396 423 411T453 436T476 457T504 484Q473 471 455 467T415 462Q405 462 398 462T381 463T352 468T300 478Q295 479 289 479T275 480Q228 480 200 446Q191 436 185 425T173 400T164 368T154 324H73L133 605H214L198 532Q217 555 234 570T270 595T308 609T352 613Q369 613 380 613T404 608T438 596T493 573Q499 571 511 569T533 566Q552 566 564 575T586 605H654Q648 577 643 558T625 520T590 475T530 408Q479 351 445 307T387 217T347 121T314 -2H152Z"/>
<glyph unicode="8" horiz-adv-x="626" d="M146 295Q126 313 113 327T93 353T82 378T79 407Q79 460 112 508T203 586Q237 603 284 612T382 622Q428 622 465 613T530 588T571 548T586 496Q586 475 578 453T555 414Q538 393 516 379T450 347Q509 321 531 293T554 218Q554 183 541 148T502 83Q413 -17 233 -17Q117 -17 55 19T-7 125Q-7 149 1 173T26 217Q45 242 70 258T146 295ZM385 374Q392 374 403 381T426 402Q447 424 456 442T466 481Q466 511 436 529T354 547Q328 547 305 541T264 524T237 499T227 468Q227 438 270 417Q275 414 281 412T298 405T330 393T383 374H385ZM212 258Q207 258 196 253T173 238T150 217T131 196Q115 175 115 143Q115 96 162 77Q181 69 203 65T249 60Q290 60 324 71T377 102Q388 114 395 128T402 155Q402 165 397 173T379 190T345 207T290 229Q277 234 258 241T214 257L212 258Z"/>
<glyph unicode="9" horiz-adv-x="626" d="M144 69Q157 58 168 54T198 49Q234 49 268 66T328 115Q338 128 346 142T361 175T375 216T389 270Q364 257 344 249T304 235T267 227T228 225Q148 225 103 266T58 380Q58 431 80 475T142 552T234 603T350 622Q462 622 519 568T577 408Q577 318 544 233T452 87Q403 36 338 9T201 -19Q118 -19 69 11T20 94Q20 139 50 168T127 197Q159 197 177 183T196 143Q196 120 185 103T144 69ZM351 546Q325 546 302 534T262 501T236 451T226 389Q226 351 245 330T300 309Q326 309 348 321T388 355T414 404T424 465Q424 503 405 524T351 546Z"/>
<glyph unicode=":" horiz-adv-x="348" d="M213 447Q240 447 258 429T276 384Q276 366 268 349T247 318T215 297T178 289Q151 289 133 306T115 351Q115 370 123 387T144 417T176 439T213 447ZM148 143Q175 143 193 125T211 80Q211 62 203 45T182 14T150 -7T113 -15Q86 -15 68 2T50 47Q50 66 58 83T79 113T111 135T148 143Z"/>
<glyph unicode=";" horiz-adv-x="348" d="M22 -94Q48 -87 65 -80T95 -63T116 -39T134 -1Q108 -10 98 -10Q76 -10 62 4T48 41Q48 60 56 78T79 109T112 131T151 139Q184 139 203 119T223 63Q223 31 207 -5T163 -70Q134 -101 100 -117T11 -144L22 -94ZM221 447Q248 447 266 429T284 384Q284 366 276 349T255 318T223 297T186 289Q159 289 141 306T123 351Q123 370 131 387T152 417T184 439T221 447Z"/>
<glyph unicode="&lt;" horiz-adv-x="500" d="M497 477L184 333L436 190L406 49L21 274L46 393L527 618L497 477Z"/>
<glyph unicode="=" horiz-adv-x="595" d="M546 449L525 352H77L98 449H546ZM511 282L490 185H42L63 282H511Z"/>
<glyph unicode="&gt;" horiz-adv-x="500" d="M479 393L454 274L-27 49L3 190L317 333L64 477L94 618L479 393Z"/>
<glyph unicode="?" horiz-adv-x="596" d="M211 199Q215 227 221 247T237 285T262 320T303 362Q335 391 356 413T390 454T408 489T413 523Q413 558 387 580T318 603Q283 603 252 589Q226 577 211 560T182 506Q201 514 212 517T237 521Q260 521 275 507T290 471Q290 429 261 401T186 373Q148 373 126 395T103 458Q103 494 119 531T164 600Q245 687 378 687Q469 687 523 647T577 538Q577 504 563 470T523 410Q511 397 502 389T479 371T442 346T377 306Q340 283 322 258T295 199H211ZM240 141Q267 141 285 123T303 78Q303 60 295 43T274 12T242 -9T205 -17Q178 -17 160 1T142 45Q142 64 150 81T171 111T203 133T240 141Z"/>
<glyph unicode="@" horiz-adv-x="741" d="M598 493L518 298Q507 271 504 261T501 241Q501 219 520 219Q532 219 547 228T576 253Q610 289 629 337T648 434Q648 473 634 505T595 559T533 594T451 606Q383 606 321 578T212 503T137 395T108 267Q108 168 166 115T331 61Q384 61 432 69T529 93L533 18Q484 2 429 -6T315 -15Q187 -15 113 47Q71 83 48 137T25 255Q25 338 61 415T158 551T298 645T462 681Q521 681 569 665T651 617T704 543T723 447Q723 393 704 340T653 245T581 177T501 151Q473 151 456 166T436 208Q410 178 373 161T297 143Q246 143 216 176T185 263Q185 307 204 350T255 427T327 483T407 504Q441 504 464 490T497 451L514 493H598ZM402 415Q380 415 359 404T320 373T293 331T282 283Q282 257 297 242T337 227Q358 227 379 239T416 270T443 312T454 360Q454 386 440 400T402 415Z"/>
<glyph unicode="A" horiz-adv-x="705" d="M645 0H288L306 82H342Q383 82 396 90T410 125Q410 130 410 135T408 145L398 214H194L154 142Q139 113 139 100Q139 90 149 86T184 82H227L209 0H-91L-74 82H-41Q-12 82 11 99Q21 106 28 116T50 153L335 667H505L574 149Q577 127 580 114T590 93T608 84T637 82H662L645 0ZM359 512L240 297H388L359 512Z"/>
<glyph unicode="B" horiz-adv-x="730" d="M484 667Q599 667 648 639T697 543Q697 468 643 414Q632 403 621 395T597 379T566 366T526 352Q547 347 562 343T590 333T611 320T628 303Q657 271 657 223Q657 175 636 130T576 55Q538 25 483 13T332 0H-51L-34 82H4Q26 82 39 84T60 92T72 110T81 143L162 524Q164 537 165 545T167 558Q167 575 156 580T111 585H73L91 667H484ZM348 385Q407 385 440 395T493 432Q506 448 513 471T520 518Q520 555 492 570T395 585H338L295 385H348ZM293 81Q327 81 352 83T396 91T429 106T454 129Q470 148 479 174T488 227Q488 270 455 287T339 305H278L231 81H293Z"/>
<glyph unicode="C" horiz-adv-x="715" d="M654 258Q642 218 631 189T607 136T576 93T537 55Q490 15 437 -2T307 -19Q242 -19 191 -1T102 53T46 137T26 248Q26 336 60 416T153 556T289 651T452 687Q479 687 500 684T542 674T583 653T630 621L659 675H740L682 404H597Q600 443 600 460Q600 523 564 561T466 599Q374 599 307 523Q279 491 262 456T230 369Q219 331 214 295T209 228Q209 154 247 112T351 69Q393 69 431 86T499 136Q509 148 517 159T531 185T544 216T559 258H654Z"/>
<glyph unicode="D" horiz-adv-x="799" d="M-34 82H4Q25 82 38 84T59 92T71 110T81 144L161 524Q167 552 167 559Q167 576 157 581T111 586H73L91 667H438Q541 667 603 651T706 595Q770 535 770 431Q770 383 761 336T734 247T691 167T633 102Q602 75 568 56T494 24T405 6T297 0H-51L-34 82ZM312 83Q392 83 444 111T528 200Q541 224 551 254T569 316T581 380T586 442Q586 517 547 551T419 585H338L231 83H312Z"/>
<glyph unicode="E" horiz-adv-x="745" d="M693 408H612Q615 435 616 452T618 482Q618 539 590 564Q575 576 549 580T469 585H338L296 389H333Q361 389 378 393T408 408T428 442T446 500H527L459 182H378L385 213Q387 222 388 234T389 254Q389 282 372 294T315 306H278L231 82H351Q389 82 416 85T463 94T497 113T525 143Q534 155 541 168T554 197T567 233T582 279H665L606 0H-51L-34 82H4Q26 82 39 84T60 92T72 110T81 143L162 524Q164 538 165 545T167 558Q167 575 156 580T111 585H73L91 667H748L693 408Z"/>
<glyph unicode="F" horiz-adv-x="685" d="M652 393H571Q580 456 580 482Q580 539 552 564Q537 576 511 580T431 585H338L296 389H326Q349 389 363 392T388 407T406 441T423 500H504L436 182H356L362 213Q367 236 367 256Q367 284 354 295T309 306H277L243 143Q238 121 238 109Q238 92 248 87T293 82H338L321 0H-51L-34 82H4Q26 82 39 84T60 92T72 110T81 143L162 524Q164 538 165 545T167 558Q167 575 156 580T111 585H73L91 667H710L652 393Z"/>
<glyph unicode="G" horiz-adv-x="784" d="M716 273Q690 273 679 264T663 229L613 -7H535L511 47Q479 28 453 15T401 -5T351 -16T297 -20Q234 -20 184 -2T99 51T44 133T25 242Q25 332 59 413T151 555T287 651T452 687Q479 687 500 684T542 674T583 653T630 621L659 675H740L682 404H597L599 455V458Q599 523 563 561T465 599Q372 599 307 523Q279 491 262 456T230 368Q219 331 214 295T209 228Q209 154 247 112T350 69Q380 69 407 78T455 105Q469 117 475 129T487 168L498 222Q503 244 503 252Q503 264 493 268T456 273H402L419 354H767L750 273H716Z"/>
<glyph unicode="H" horiz-adv-x="819" d="M431 585H392Q374 585 363 583T345 575T334 557T325 524L296 387H546L575 524Q579 540 580 547T581 559Q581 575 572 580T534 585H495L512 667H870L853 585H815Q793 585 780 583T760 575T748 557T739 524L658 143Q654 128 653 121T652 109Q652 92 663 87T708 82H746L728 0H370L388 82H427Q445 82 456 84T475 92T486 110T494 143L528 301H277L244 143Q240 127 239 120T238 108Q238 92 247 87T285 82H324L307 0H-51L-34 82H4Q25 82 38 84T59 92T71 110T81 143L162 524Q164 537 165 545T167 558Q167 575 157 580T111 585H73L91 667H449L431 585Z"/>
<glyph unicode="I" horiz-adv-x="412" d="M-32 82H6Q27 82 40 84T61 92T73 110T83 143L164 524L169 553V557V559Q168 575 158 580T113 585H75L93 667H461L443 585H403Q382 585 369 583T348 575T336 557T327 524L246 143Q242 127 241 121T240 109Q240 92 251 87T296 82H336L319 0H-49L-32 82Z"/>
<glyph unicode="J" horiz-adv-x="591" d="M275 667H642L625 585H592Q570 585 557 584T537 576T525 557T516 524L452 224Q444 190 438 166T424 122T407 89T386 61Q352 22 299 2T180 -19Q88 -19 33 19T-22 123Q-22 153 -12 180T17 227T59 259T111 271Q143 271 162 253T182 206Q182 185 173 166T148 132Q134 120 118 114T74 106Q90 83 106 76T154 68Q182 68 207 78T247 107Q254 115 259 124T268 146T278 178T289 224L352 524Q354 533 355 543T357 558Q357 575 347 580T302 585H257L275 667Z"/>
<glyph unicode="K" horiz-adv-x="790" d="M426 585H397Q376 585 363 583T342 575T330 557T321 524L285 351L547 547Q565 562 565 572Q565 580 559 582T534 585H491L508 667H840L823 585H797Q771 585 744 574T682 536L521 418L654 124Q674 82 715 82H750L733 0H368L385 82H422Q476 82 476 104Q476 110 471 122L386 319L258 225L240 143Q238 130 237 122T235 109Q235 92 246 87T290 82H317L300 0H-51L-34 82H4Q26 82 39 84T60 92T72 110T81 143L162 524Q164 538 165 545T167 558Q167 575 156 580T111 585H73L91 667H443L426 585Z"/>
<glyph unicode="L" horiz-adv-x="685" d="M446 585H401Q380 585 367 583T346 575T334 557T325 524L231 82H336Q372 82 397 85T440 94T473 113T499 143Q507 155 514 168T527 197T540 233T554 279H636L577 0H-51L-34 82H4Q25 82 38 84T59 92T71 110T81 143L162 524Q164 537 165 545T167 558Q167 575 156 580T111 585H73L91 667H463L446 585Z"/>
<glyph unicode="M" horiz-adv-x="973" d="M1003 585H966Q944 585 931 583T910 575T898 557T889 524L808 143Q806 130 805 122T803 109Q803 92 814 87T859 82H896L879 0H531L548 82H579Q600 82 613 84T634 92T646 110T655 143L742 550L445 0H334L274 549L188 143Q184 128 183 121T182 109Q182 92 193 87T238 82H267L249 0H-51L-34 82H2Q23 82 36 84T57 92T69 110T79 143L159 524L165 553V557V559Q164 575 153 580T109 585H73L91 667H420L466 238L699 667H1021L1003 585Z"/>
<glyph unicode="N" horiz-adv-x="814" d="M263 0H-51L-34 82H0Q21 82 34 84T55 92T67 110T76 143L157 524L162 553V557V559Q161 575 151 580T107 585H73L91 667H385L560 191L630 524Q634 538 635 545T636 558Q636 575 626 580T580 585H535L553 667H863L846 585H816Q795 585 782 583T761 575T749 557T740 524L628 0H456L266 522L185 143Q180 118 180 109Q180 92 191 87T235 82H280L263 0Z"/>
<glyph unicode="O" horiz-adv-x="810" d="M482 686Q551 686 607 668T702 615T763 531T785 421Q785 332 750 250T652 107Q520 -19 325 -19Q257 -19 202 0T108 53T48 137T26 247Q26 335 61 417T159 560Q224 623 305 654T482 686ZM464 599Q404 599 353 565T267 467Q255 445 244 416T226 354T214 289T209 228Q209 155 247 112T349 69Q414 69 470 112T558 231Q568 254 576 281T590 335T599 390T602 442Q602 512 564 555T464 599Z"/>
<glyph unicode="P" horiz-adv-x="705" d="M91 667H479Q557 667 600 656T670 618Q703 583 703 525Q703 478 684 434T629 358Q610 341 589 329T540 310T479 299T400 295H276L244 143Q239 121 239 109Q239 92 249 87T294 82H339L321 0H-51L-34 82H4Q25 82 38 84T59 92T71 110T81 143L162 524Q164 537 165 545T167 558Q167 575 156 580T111 585H73L91 667ZM349 377Q412 377 447 388T504 426Q517 442 524 466T532 514Q532 553 502 569T398 585H338L294 377H349Z"/>
<glyph unicode="Q" horiz-adv-x="824" d="M801 152Q794 117 786 90T768 43T745 6T715 -24Q674 -59 624 -59Q607 -59 593 -56T566 -43T539 -20T508 18Q481 7 459 0T415 -11T372 -17T325 -19Q255 -19 199 -1T104 52T43 136T21 247Q21 335 56 417T154 560Q284 686 477 686Q546 686 602 668T697 615T758 531T780 421Q780 373 769 324T735 229Q726 211 717 196T697 165T671 134T636 97Q651 80 661 74T686 67Q707 67 718 84T739 152H801ZM454 103Q419 153 393 172T334 192Q304 192 282 170T260 116Q260 90 280 75T336 60Q365 60 390 69T454 103ZM544 207Q556 227 565 255T582 314T593 379T597 442Q597 514 559 556T457 599Q399 599 348 565T262 467Q250 445 240 416T221 356T208 295T203 240Q203 228 206 206T218 155Q228 195 240 216T274 256Q319 293 381 293Q429 293 469 273T544 207Z"/>
<glyph unicode="R" horiz-adv-x="780" d="M91 667H503Q617 667 669 637T721 539Q721 499 704 463T655 401Q643 391 631 384T604 370T570 357T525 344Q551 337 568 329T596 311T611 286T615 252Q615 243 614 233T611 212L598 142Q596 126 595 117T593 102Q593 78 614 78Q623 78 630 82T642 98T654 131T668 188H739Q733 157 727 134T714 93T699 62T679 36Q655 10 620 -5T546 -20Q493 -20 461 5T428 71Q428 82 430 101T438 144L451 211Q454 227 454 242Q454 279 436 294T375 310H279L244 143Q239 121 239 109Q239 92 249 87T294 82H339L321 0H-51L-34 82H4Q26 82 39 84T60 92T72 110T81 143L162 524Q164 538 165 545T167 558Q167 575 156 580T111 585H73L91 667ZM356 390Q395 390 421 392T465 399T496 412T519 434Q533 451 540 472T547 515Q547 542 532 559Q524 568 516 573T494 580T459 584T403 585H338L296 390H356Z"/>
<glyph unicode="S" horiz-adv-x="655" d="M-25 -5L32 262H118Q119 209 128 180T160 126Q209 74 297 74Q361 74 401 101T442 173Q442 189 437 200T416 221T376 239T311 256Q239 273 192 289T118 326T79 371T67 431Q67 485 90 531T156 612T254 666T377 686Q405 686 428 683T472 673T513 653T558 623L593 669H666L614 421H529Q530 430 530 436T530 446Q530 497 513 527T458 577Q438 587 413 592T362 597Q305 597 268 570T231 501Q231 486 236 475T257 455T297 438T362 421Q433 405 480 388T557 351T598 306T610 246Q610 189 586 140T518 56T415 0T286 -20Q254 -20 228 -17T179 -5T134 16T88 49L53 -5H-25Z"/>
<glyph unicode="T" horiz-adv-x="680" d="M313 586Q271 587 240 578T187 547T149 489T121 401H35L91 667H731L675 401H589Q594 429 596 451T599 491Q599 510 592 529T574 560Q560 574 538 580T476 586L382 143Q378 129 377 122T376 109Q376 92 387 87T432 82H476L459 0H80L97 82H142Q163 82 176 84T197 92T209 110T218 143L313 586Z"/>
<glyph unicode="U" horiz-adv-x="765" d="M795 585H763Q743 585 731 583T712 575T700 557T691 524L625 213Q575 -21 297 -21Q197 -21 139 22T81 139Q81 153 83 171T89 206L157 524Q159 538 160 545T162 558Q162 575 152 580T106 585H73L90 667H458L441 585H396Q375 585 362 583T341 575T329 557T320 524L255 217Q246 175 246 156Q246 78 346 78Q384 78 417 87T469 114Q486 128 496 150T515 211L581 524Q585 540 586 546T587 558Q587 575 578 580T536 585H494L511 667H812L795 585Z"/>
<glyph unicode="V" horiz-adv-x="705" d="M56 667H421L404 585H359Q320 585 309 577T297 543Q297 537 297 532T298 522L342 169L544 526Q549 536 553 549T558 570Q558 578 550 580T513 585L466 587L483 667H788L770 585H742Q727 585 715 582T693 571T673 549T651 514L358 0H198L130 519Q125 554 110 569T64 585H39L56 667Z"/>
<glyph unicode="W" horiz-adv-x="973" d="M424 667H735L718 585H687Q653 585 641 577T629 545Q629 540 629 535T630 523L652 169L822 527Q828 540 832 552T836 570Q836 587 795 587H762L779 667H1040L1022 585H1005Q978 585 959 569T920 515L666 0H511L489 316L321 0H167L130 519Q127 539 124 551T113 571T96 581T68 585L85 667H380L363 585H342Q324 585 313 584T295 578T286 567T284 546Q284 543 284 536T285 523L308 169L479 486L475 519Q472 540 468 553T456 573T437 582T407 585L424 667Z"/>
<glyph unicode="X" horiz-adv-x="740" d="M79 667H433L416 585H396Q347 585 347 559Q347 550 354 534L405 438L505 530Q521 545 526 552T532 567Q532 577 523 581T490 585H468L486 667H793L776 585H738Q718 585 703 578T663 547L454 360L594 117Q606 97 618 90T652 82H694L677 0H297L314 82H350Q398 82 398 110Q398 122 392 133L327 248L213 139Q186 113 186 99Q186 90 196 86T233 82H260L243 0H-86L-69 82H-26Q-15 82 -5 85T18 95T45 114T80 145L282 327L151 550Q139 570 127 577T94 585H62L79 667Z"/>
<glyph unicode="Y" horiz-adv-x="700" d="M56 667H421L404 585H375Q358 585 351 585T337 581Q320 571 320 554Q320 544 327 528L392 389L528 537Q545 555 545 568Q545 587 499 587H469L486 667H783L766 585H743Q728 585 716 583T693 573T668 553T636 520L419 277L391 143Q387 129 386 122T385 109Q385 92 396 87T441 82H492L474 0H83L101 82H151Q172 82 185 84T206 92T218 110T227 143L256 277L149 514Q132 552 113 568T64 585H39L56 667Z"/>
<glyph unicode="Z" horiz-adv-x="651" d="M-33 84L465 585H346Q300 585 267 577T210 547T169 491T137 403H56L112 667H674L654 575L160 81H287Q338 81 377 94T440 135Q457 155 471 188T504 286H593L532 0H-51L-33 84Z"/>
<glyph unicode="[" horiz-adv-x="397" d="M6 -176L185 667H450L434 590H316L170 -99H287L271 -176H6Z"/>
<glyph unicode="\" horiz-adv-x="383" d="M115 686H192L283 -92H206L115 686Z"/>
<glyph unicode="]" horiz-adv-x="397" d="M356 667L177 -177H-88L-72 -100H46L192 590H75L91 667H356Z"/>
<glyph unicode="^" horiz-adv-x="500" d="M21 353L243 670H400L487 353H361L301 575L147 353H21Z"/>
<glyph unicode="_" horiz-adv-x="500" d="M417 -58L399 -143H-101L-83 -58H417Z"/>
<glyph unicode="`" horiz-adv-x="500" d="M324 540L182 619Q143 641 143 666Q143 692 162 711T208 730Q227 730 240 720T274 683L379 540H324Z"/>
<glyph unicode="a" horiz-adv-x="586" d="M528 127Q519 84 508 61T478 20Q438 -17 372 -17Q327 -17 305 -1T272 54Q246 34 225 21T182 -1T140 -14T95 -18Q35 -18 3 9T-30 85Q-30 119 -16 149T25 202Q49 222 88 236T196 264Q243 274 267 283T305 310Q327 334 327 367Q327 396 305 413T243 430Q216 430 198 424T157 402Q203 396 203 356Q203 341 196 328T176 305T147 288T112 282Q82 282 64 297T45 339Q45 385 86 424Q117 454 169 470T289 486Q371 486 418 460T466 387Q466 377 463 357T455 313L414 120Q412 114 412 107T411 96Q411 74 431 74Q457 74 467 120L478 173H538L528 127ZM298 237Q287 233 277 228T255 218Q250 216 248 215T245 214T241 213T234 210Q210 201 195 195T169 182T153 170T141 155Q127 136 127 115Q127 73 174 73Q216 73 244 98T283 169L298 237Z"/>
<glyph unicode="b" horiz-adv-x="611" d="M76 667H294L234 385Q259 413 281 431T324 461T368 478T417 483Q484 483 523 440T563 323Q563 290 558 256T542 190T518 128T486 75Q415 -18 300 -18Q241 -18 209 0T152 66L95 -4H9L123 534Q125 542 126 550T127 564Q127 576 122 581Q117 586 104 589T81 593H61L76 667ZM334 393Q299 393 269 370T224 307Q218 290 213 270T203 227T196 185T193 149Q193 111 212 89T264 66Q300 66 325 85T369 146Q386 182 395 227T405 311Q405 393 334 393Z"/>
<glyph unicode="c" horiz-adv-x="521" d="M441 179Q426 116 404 80T339 19Q311 2 274 -8T196 -18Q151 -18 114 -6T51 30T10 87T-4 161Q-4 230 21 289T89 393T191 462T318 487Q394 487 440 452T486 359Q486 333 477 311T453 272T416 246T371 236Q342 236 325 252T308 294Q308 323 328 348Q339 362 351 368T386 379Q366 398 351 404T312 411Q226 411 186 315Q170 278 162 237T154 158Q154 69 230 69Q275 69 303 94T353 179H441Z"/>
<glyph unicode="d" horiz-adv-x="616" d="M416 534Q418 542 419 550T420 564Q420 580 407 586T362 593H343L359 667H588L474 130Q469 105 469 96Q469 70 513 70H543L528 0H305L321 75Q282 25 242 4T145 -18Q73 -18 34 24T-6 142Q-6 210 14 276T70 389Q141 483 255 483Q308 483 337 463T387 394L416 534ZM291 393Q255 393 231 375T187 315Q171 280 161 234T151 150Q151 106 168 86T223 66Q255 66 284 90T330 153Q337 169 343 191T353 235T361 277T364 313Q364 350 344 371T291 393Z"/>
<glyph unicode="e" horiz-adv-x="541" d="M463 161Q453 133 442 112T417 73T385 42T344 16Q279 -18 197 -18Q103 -18 49 30T-5 162Q-5 229 19 288T86 392T184 462T305 488Q396 488 446 441T497 311Q497 294 495 274T485 218H158Q154 195 152 180T150 154Q150 69 235 69Q284 69 313 89T366 161H463ZM350 294Q356 327 356 344Q356 375 338 392T287 409Q240 409 212 375Q200 361 193 344T177 294H350Z"/>
<glyph unicode="f" horiz-adv-x="372" d="M266 0H-46L-30 74H-1Q30 74 43 86T65 133L119 389H37L54 469H136L144 507Q156 563 178 596T241 653Q267 669 299 677T366 685Q426 685 461 661T497 594Q497 556 472 530T409 504Q384 504 370 517T355 552Q355 593 410 616Q397 623 390 625T372 628Q338 628 321 607T291 528L279 469H375L358 389H261L207 133Q204 119 203 112T202 100Q202 74 246 74H282L266 0Z"/>
<glyph unicode="g" horiz-adv-x="636" d="M76 165Q56 193 48 216T39 268Q39 314 59 354T114 423T197 469T302 486Q326 486 345 484T381 476T414 462T448 440Q485 466 509 475T561 484Q603 484 627 464T652 408Q652 369 628 343T567 316Q544 316 530 329T515 362Q515 383 528 400T566 428Q548 439 537 439Q524 439 509 431T468 404Q477 385 480 373T483 340Q483 290 464 250T409 180T325 135T215 119Q202 119 192 120T171 123T148 129T120 139Q101 129 94 120T86 99Q86 90 90 85T106 77T142 73T205 72Q211 72 226 72T263 73Q277 74 290 74T313 74Q398 74 437 50T477 -27Q477 -60 461 -94T417 -151Q378 -183 313 -198T153 -214Q36 -214 -20 -192T-76 -125Q-76 -108 -69 -92T-48 -63Q-34 -50 -18 -43T31 -27Q-2 -13 -15 3T-29 46Q-29 88 -5 115T76 165ZM288 420Q229 420 203 352Q192 323 187 295T181 244Q181 181 233 181Q265 181 284 195T317 244Q328 270 334 305T341 367Q341 396 329 408T288 420ZM207 -46Q165 -46 131 -49T78 -58Q41 -69 41 -107Q41 -131 72 -141T179 -152Q267 -152 307 -137T347 -86Q347 -63 320 -56Q301 -51 270 -49T207 -46Z"/>
<glyph unicode="h" horiz-adv-x="655" d="M288 74H306Q337 74 349 85T370 133L407 309Q410 321 411 333T413 353Q413 376 399 388T359 401Q311 401 275 366T227 272L197 133Q194 118 193 112T192 100Q192 74 236 74H253L237 0H-51L-35 74H-11Q5 74 16 76T34 85T46 103T55 133L140 534Q142 544 143 552T144 566Q144 581 134 587T100 593H75L91 667H311L252 391Q278 417 300 434T345 463T389 479T438 484Q495 484 527 459T560 391Q560 375 558 355T550 311L512 133Q510 125 509 115T508 100Q508 86 519 80T557 74H580L565 0H273L288 74Z"/>
<glyph unicode="i" horiz-adv-x="353" d="M260 0H-46L-30 74H-1Q31 74 43 86T64 133L108 336Q110 344 110 352T111 369Q111 383 101 389T67 395H38L54 469H278L207 133Q202 108 202 100Q202 74 245 74H275L260 0ZM241 668Q267 668 285 651T303 607Q303 588 295 571T274 541T243 520T207 512Q179 512 162 529T144 573Q144 592 152 609T173 639T204 660T241 668Z"/>
<glyph unicode="j" horiz-adv-x="338" d="M249 668Q276 668 293 651T311 606Q311 588 303 571T282 541T251 520T214 512Q187 512 170 529T152 573Q152 592 160 609T181 639T212 660T249 668ZM58 469H286L184 -12Q178 -42 174 -61T166 -92T158 -112T147 -130Q122 -170 74 -192T-37 -214Q-96 -214 -129 -193T-162 -133Q-162 -113 -155 -96T-136 -66T-107 -46T-71 -38Q-46 -38 -32 -50T-18 -83Q-18 -106 -30 -121T-71 -149Q-52 -157 -41 -157Q-12 -157 3 -137T30 -64L115 336Q117 344 118 352T119 368Q119 382 109 388T75 395H42L58 469Z"/>
<glyph unicode="k" horiz-adv-x="650" d="M86 667H310L220 243L386 362Q409 378 409 387Q409 392 405 393T386 395H325L341 469H633L617 395H593Q573 395 552 385T498 352L418 295L495 128Q508 99 524 87T564 74H581L566 0H276L292 74H323Q354 74 354 93Q354 103 348 115L300 215L199 143Q192 109 192 98Q192 74 231 74H244L228 0H-56L-40 74H-11Q21 74 33 86T54 133L140 534Q142 541 142 550T143 566Q143 581 133 587T99 593H70L86 667Z"/>
<glyph unicode="l" horiz-adv-x="338" d="M197 133Q192 108 192 100Q192 74 235 74H265L250 0H-56L-40 74H-11Q21 74 33 86T54 133L140 534Q142 542 142 550T143 567Q143 581 133 587T99 593H70L86 667H310L197 133Z"/>
<glyph unicode="m" horiz-adv-x="934" d="M-35 74H-6Q26 74 38 86T59 133L102 336Q104 345 105 353T106 369Q106 383 96 389T62 395H33L49 469H271L254 391Q282 417 305 435T351 464T396 479T445 484Q494 484 516 464T548 390Q578 417 602 435T647 464T689 479T733 484Q784 484 813 460T843 393Q843 379 840 357T832 311L794 133Q792 120 791 112T789 99Q789 74 834 74H859L843 0H566L581 74H600Q612 74 620 76T633 85T643 103T651 133L689 309Q693 326 694 338T696 358Q696 401 657 401Q612 401 576 365T527 272L498 133Q493 110 493 99Q493 74 531 74H544L528 0H269L285 74H304Q316 74 324 76T337 85T347 103T355 133L392 309Q397 330 398 340T400 358Q400 401 361 401Q316 401 280 365T231 272L201 133Q199 123 198 115T197 99Q197 74 238 74H249L233 0H-51L-35 74Z"/>
<glyph unicode="n" horiz-adv-x="655" d="M292 74H310Q326 74 336 76T354 85T365 103T374 133L411 309Q414 321 415 333T417 353Q417 376 403 388T363 401Q315 401 279 366T231 272L201 133Q199 123 198 115T197 100Q197 74 240 74H257L242 0H-51L-35 74H-6Q26 74 38 86T59 133L102 336Q104 345 105 353T106 369Q106 383 96 389T62 395H33L49 469H271L253 385Q284 414 308 433T353 463T396 479T442 484Q499 484 531 459T564 391Q564 374 562 354T554 311L516 133Q514 124 513 115T512 100Q512 86 523 80T561 74H582L566 0H277L292 74Z"/>
<glyph unicode="o" horiz-adv-x="591" d="M332 486Q381 486 421 473T490 435T533 375T549 297Q549 230 524 173T455 73T350 7T220 -17Q117 -17 58 33T-1 172Q-1 235 25 295T96 398Q190 486 332 486ZM395 316Q395 361 374 385T313 409Q226 409 187 311Q171 273 163 231T154 153Q154 60 238 60Q312 60 353 138Q362 154 369 176T382 221T391 268T395 311V316Z"/>
<glyph unicode="p" horiz-adv-x="626" d="M242 385Q266 413 287 432T330 462T375 479T425 484Q494 484 532 442T570 323Q570 255 550 190T494 77Q423 -17 310 -17Q279 -17 253 -9T211 15Q201 24 194 39T179 78L145 -81Q141 -100 141 -111Q141 -127 154 -133T200 -140H222L207 -214H-101L-85 -140H-62Q-46 -140 -36 -138T-18 -129T-7 -111T2 -81L91 336L95 362L96 369V371Q95 395 51 395H28L44 469H260L242 385ZM343 399Q310 399 281 376T235 312Q228 295 222 274T212 231T204 189T201 155Q201 117 220 95T274 73Q309 73 333 91T377 151Q394 187 403 232T413 316Q413 399 343 399Z"/>
<glyph unicode="q" horiz-adv-x="616" d="M194 -140H217Q238 -140 251 -138T273 -129T287 -110T296 -80L330 78Q292 25 254 4T158 -17Q85 -17 45 25T4 143Q4 176 9 210T25 276T49 337T82 390Q117 438 163 462T262 487Q312 487 342 466T399 391L415 469H633L617 395H593Q561 395 548 383T527 336L439 -80Q437 -88 436 -97T435 -113Q435 -127 445 -133T479 -140H503L487 -214H178L194 -140ZM303 399Q268 399 243 380T199 320Q182 283 173 238T163 155Q163 73 233 73Q268 73 297 96T343 159Q349 175 354 196T364 238T371 280T374 316Q374 354 355 376T303 399Z"/>
<glyph unicode="r" horiz-adv-x="487" d="M254 408Q288 448 320 465T393 482Q437 482 461 461T485 401Q485 377 477 357T454 320T420 295T378 286Q352 286 336 299T320 335Q320 392 387 414Q378 419 372 421T360 423Q339 423 317 412T276 380Q266 369 259 357T245 331T234 297T223 253L197 133Q194 119 193 112T192 100Q192 74 236 74H281L266 0H-51L-35 74H-11Q21 74 34 86T55 133L98 336Q102 353 102 369Q102 395 58 395H33L49 469H266L254 408Z"/>
<glyph unicode="s" horiz-adv-x="541" d="M42 -7H-27L12 176H90Q96 133 110 110T156 73Q168 67 184 64T219 61Q257 61 282 77T308 120Q308 140 283 151Q276 154 271 156T256 162T229 169T180 182Q141 193 108 211T58 249Q40 272 40 306Q40 343 58 376T108 434T183 473T274 487Q317 487 348 478T417 445L438 474H505L471 314H404Q395 334 387 348T369 373T350 390T325 402Q313 407 300 409T273 412Q241 412 219 396T197 357Q197 347 200 340T213 328T242 316T293 302Q338 289 366 279T414 258Q437 244 449 221T462 169Q462 130 444 96T394 37T320 -3T229 -18Q184 -18 147 -7T67 30L42 -7Z"/>
<glyph unicode="t" horiz-adv-x="432" d="M355 224L340 154Q334 124 327 102T309 62T287 32T257 8Q219 -17 158 -17Q101 -17 70 10T38 85Q38 97 41 116T51 170L98 391H27L42 463Q78 472 104 485T150 520T186 573T217 652H296L257 469H380L364 391H240L188 144Q181 112 181 103Q181 75 210 75Q222 75 231 80T247 97T261 129T274 180L283 224H355Z"/>
<glyph unicode="u" horiz-adv-x="656" d="M49 469H266L200 157Q198 146 196 133T194 113Q194 91 208 79T248 66Q296 66 332 101T380 194L410 336Q415 359 415 369Q415 395 372 395H344L360 469H582L510 133Q508 123 507 115T506 99Q506 74 550 74H581L565 0H341L357 76Q330 50 307 32T261 3T217 -12T169 -17Q112 -17 80 8T47 75Q47 92 49 112T57 156L95 336Q100 359 100 369Q100 395 51 395H33L49 469Z"/>
<glyph unicode="v" horiz-adv-x="561" d="M384 338Q402 371 402 380Q402 387 392 391T364 395H341L357 469H584L569 395H561Q543 395 532 393T511 385T493 365T471 328L284 0H129L90 329Q87 349 83 361T72 381T51 391T18 395L34 469H313L297 395Q292 396 289 396T281 396Q255 396 244 387T233 356Q233 347 234 343L257 108L384 338Z"/>
<glyph unicode="w" horiz-adv-x="834" d="M279 395H271Q247 395 238 387T228 359Q228 357 228 353T229 343L239 113L364 338Q375 355 378 363T381 377Q381 395 344 395H328L344 469H594L579 395Q574 396 572 396T566 396Q555 396 542 392T526 382Q520 373 520 357V343L541 112L660 338Q672 361 675 367T678 379Q678 387 668 391T640 395H627L643 469H856L841 395Q821 395 809 393T786 384T768 364T747 328L569 0H422L400 245L263 0H116L90 329Q87 349 83 361T71 381T51 391T18 395L34 469H295L279 395Z"/>
<glyph unicode="x" horiz-adv-x="641" d="M48 469H347L331 395Q326 396 323 396T317 396Q286 394 286 380Q286 368 296 352L328 303L396 359Q413 373 413 384Q413 389 407 392T390 396Q388 396 386 396T379 395L395 469H640L624 395H616Q588 395 563 384T501 345L375 250L460 128Q472 111 482 101T504 85T529 77T565 74L549 0H236L251 74H266Q303 74 303 89Q303 102 292 116L253 172L178 113Q155 95 155 85Q155 74 182 74H202L186 0H-71L-55 74Q-35 74 -21 75T6 82T33 97T68 123L209 231L131 341Q119 357 109 367T88 383T64 391T32 395L48 469Z"/>
<glyph unicode="y" horiz-adv-x="566" d="M247 -38Q189 -133 134 -174T13 -216Q-37 -216 -67 -189T-98 -118Q-98 -93 -90 -71T-67 -32T-34 -7T8 3Q37 3 54 -10T71 -48Q71 -78 51 -101Q37 -117 21 -123T-26 -130Q-13 -144 -4 -149T19 -154Q33 -154 50 -148T81 -130Q93 -121 102 -112T122 -89T143 -58T168 -16L93 327Q88 349 83 362T70 383T48 393T14 396L30 469H320L304 396H283Q257 396 246 388T235 358Q235 348 236 343L277 152L392 338Q400 351 405 362T410 379Q410 396 372 396H352L368 469H593L577 396Q557 396 544 394T520 384T499 362T475 326L247 -38Z"/>
<glyph unicode="z" horiz-adv-x="531" d="M-23 83L321 395H253Q225 395 207 394T176 388T156 376T140 355Q136 349 134 344T128 329T122 305T112 267H36L79 469H503L486 389L141 74H226Q262 74 285 79T324 100T350 144T371 218H450L404 0H-41L-23 83Z"/>
<glyph unicode="{" horiz-adv-x="397" d="M281 363Q275 337 268 318T251 285T227 260T194 239Q217 223 225 207T234 166Q234 155 233 142T228 115L197 -30Q194 -47 193 -56T190 -70T189 -77T189 -84Q189 -104 205 -111T265 -118Q267 -118 272 -118T284 -117L268 -189Q243 -190 226 -190T197 -191Q118 -191 86 -171T54 -100Q54 -78 60 -46L95 115Q97 129 98 138T100 157Q100 196 58 205L73 274Q105 281 121 299T147 361L182 528Q193 575 211 604T260 649Q282 661 311 665T393 670Q398 670 407 670T431 669L450 668L435 596Q399 596 377 594T343 584T324 558T312 510L281 363Z"/>
<glyph unicode="|" horiz-adv-x="500" d="M393 667L215 -167H73L250 667H393Z"/>
<glyph unicode="}" horiz-adv-x="397" d="M77 116Q83 142 90 161T106 194T129 218T163 239Q140 256 132 272T123 312Q123 334 129 363L160 509Q163 525 164 534T167 548T168 555T168 562Q168 588 136 593Q125 595 113 595T74 596L89 668Q115 669 131 669T161 670Q239 670 271 650T303 578Q303 566 302 552T297 525L263 364Q259 347 258 339T257 321Q257 283 299 274L285 205Q253 198 237 179T211 118L175 -49Q167 -89 153 -116T115 -159T57 -183T-24 -191Q-34 -191 -49 -191T-93 -189L-78 -117Q-72 -118 -67 -118T-60 -118Q-28 -118 -14 -116T12 -106Q19 -102 23 -98T31 -87T37 -67T45 -31L77 116Z"/>
<glyph unicode="~" horiz-adv-x="667" d="M152 613Q195 682 237 714T327 747Q347 747 369 740T430 714Q449 705 460 700T480 691T494 687T507 686Q528 686 548 700T594 749L652 692Q605 621 564 589T474 557Q465 557 458 558T439 564T405 578T349 604Q317 619 296 619Q274 619 255 605T209 556L152 613Z"/>
<glyph unicode=" " horiz-adv-x="250"/>
<glyph unicode="¡" horiz-adv-x="313" d="M182 267Q177 232 174 205T168 147T162 80T156 -9Q154 -49 152 -75T147 -118T140 -146T130 -168Q101 -220 42 -220Q-27 -220 -27 -156Q-27 -146 -26 -136T-20 -110T-7 -70T15 -9Q34 45 47 81T69 147T87 204T106 267H182ZM191 483Q218 483 236 466T254 421Q254 403 246 386T225 355T193 334T156 326Q129 326 111 343T93 388Q93 406 101 423T122 454T154 475T191 483Z"/>
<glyph unicode="¢" horiz-adv-x="626" d="M138 28Q95 52 75 88T54 179Q54 248 79 307T148 411T251 481T379 506Q407 506 426 502T474 485L537 570H600L515 455Q532 429 538 413T544 377Q544 351 535 329T511 290T474 264T429 254Q413 254 404 258T382 274L251 95Q265 90 273 89T291 87Q307 87 323 92T354 108Q373 122 385 140T411 197H499Q481 103 418 52T258 0Q241 0 227 2T188 9L107 -101H43L138 28ZM386 365Q395 373 400 378T412 386T425 392T444 397Q424 415 408 421T368 428Q331 428 300 407T247 347Q230 316 220 277T210 202Q210 188 212 175T220 139L386 365Z"/>
<glyph unicode="£" horiz-adv-x="626" d="M-20 75Q18 97 44 117T87 159T113 208T126 268H31L45 336H120Q112 364 109 381T106 413Q106 466 140 514T235 591Q267 606 307 614T393 623Q440 623 478 614T544 587T586 545T601 491Q601 468 593 449T571 414T537 391T497 382Q467 382 448 398T429 441Q429 465 444 482T493 517Q469 539 450 547T403 555Q376 555 352 546T308 520Q290 503 282 482T273 428Q273 414 274 393T280 336H402L387 268H271Q265 245 257 227T236 193T203 161T155 128Q197 143 221 149T266 155Q276 155 283 155T300 151T325 142T369 123Q381 118 396 115T421 111Q445 111 460 131T489 202H553Q548 174 544 154T533 117T520 88T504 62Q478 25 441 4T362 -17Q325 -17 268 7Q235 20 216 27T185 38T165 43T145 44Q120 44 88 31T-2 -16L-20 75Z"/>
<glyph unicode="¤" horiz-adv-x="667" d="M104 240Q93 263 89 283T84 329Q84 426 163 515L81 619L166 690L248 586Q288 609 323 619T397 629Q435 629 466 619T526 587L650 689L705 619L582 517Q593 490 598 469T603 425Q603 331 525 241L606 138L522 67L440 170Q401 147 364 136T289 125Q252 125 222 135T159 169L34 67L-21 137L104 240ZM374 512Q341 512 311 499T257 463T219 411T205 349Q205 302 235 272T313 242Q346 242 376 255T430 292T468 344T482 406Q482 452 452 482T374 512Z"/>
<glyph unicode="¥" horiz-adv-x="701" d="M616 379L602 311H462L412 255H580L565 187H394L382 130L377 104V99V97Q377 83 387 79T427 74H473L458 0H103L119 74H165Q184 74 196 75T215 83T226 100T234 130L246 187H75L89 255H258L232 311H91L105 379H202L163 466Q147 501 130 516T86 531H63L79 605H409L394 531H368Q341 531 330 525T318 502Q318 491 324 478L383 353L507 487Q522 503 522 515Q522 533 480 533H453L468 605H738L722 531H702Q688 531 678 529T656 520T633 502T605 472L522 379H616Z"/>
<glyph unicode="¦" horiz-adv-x="500" d="M393 667L318 317H176L250 667H393ZM283 153L215 -167H73L141 153H283Z"/>
<glyph unicode="§" horiz-adv-x="596" d="M182 395Q152 418 140 440T127 493Q127 533 147 569T201 631T282 672T382 688Q460 688 506 660T553 584Q553 547 527 521T463 494Q438 494 424 506T409 541Q409 561 418 574T452 605Q440 611 431 615T412 622T394 625T371 626Q342 626 318 619T275 599T247 569T237 530Q237 509 251 495T298 469Q336 454 364 443T414 422T451 403T482 384Q507 367 520 341T534 285Q534 253 520 223T479 167Q462 151 442 139T384 109Q419 81 432 60T445 7Q445 -37 423 -80T364 -153Q329 -182 280 -196T171 -211Q132 -211 99 -203T43 -180T6 -145T-7 -100Q-7 -79 0 -61T21 -28T52 -6T90 2Q116 2 130 -10T144 -46Q144 -71 132 -88T90 -123Q112 -138 131 -144T178 -150Q210 -150 238 -142T286 -118T319 -81T331 -36Q331 -21 326 -10T307 12T270 33T213 56Q162 74 127 91T71 126T41 164T31 210Q31 238 41 266T69 316Q87 339 111 355T182 395ZM233 352Q214 352 197 345T167 325T146 297T138 263Q138 250 141 241T153 223T177 206T216 187Q308 147 327 147Q344 147 361 155T391 176T413 206T422 239Q422 262 408 277T353 311Q303 334 277 343T233 352Z"/>
<glyph unicode="¨" horiz-adv-x="435" d="M181 699Q205 699 221 684T237 644Q237 627 230 612T210 586T183 567T150 560Q127 560 111 575T95 615Q95 631 102 646T121 673T148 692T181 699ZM411 699Q434 699 450 684T466 644Q466 627 459 612T439 586T412 567T379 560Q356 560 340 575T324 615Q324 631 331 646T351 673T378 692T411 699Z"/>
<glyph unicode="©" horiz-adv-x="797" d="M561 294Q554 270 548 253T533 222T515 197T492 174Q465 151 435 142T359 132Q284 132 240 173T196 285Q196 336 215 381T269 460T347 515T441 535Q456 535 468 534T492 528T516 516T542 499L558 528H609L575 370H521L522 402Q522 437 502 458T447 479Q415 479 387 461T339 408Q332 396 327 380T317 345T310 309T307 275Q307 235 328 212T386 188Q429 188 456 213T501 294H561ZM478 685Q541 685 594 664T687 606T748 517T770 404Q770 322 733 246T633 112T491 18T324 -18Q259 -18 205 3T111 61T49 150T27 263Q27 345 64 421T164 556T308 650T478 685ZM464 622Q393 622 327 593T211 516T130 405T100 274Q100 224 117 183T166 110T241 62T335 45Q405 45 470 74T586 151T667 262T697 393Q697 442 680 484T631 557T557 605T464 622Z"/>
<glyph unicode="ª" horiz-adv-x="382" d="M388 407Q378 359 355 339T286 318Q257 318 243 327T220 358Q188 335 164 327T109 318Q69 318 47 335T25 383Q25 426 61 454Q77 465 102 474T172 491Q216 499 233 511T251 547Q251 564 237 573T199 582Q184 582 174 580T154 571Q178 565 178 543Q178 523 160 509T117 495Q96 495 83 505T70 532Q70 572 114 597T229 622Q283 622 314 606T346 560Q346 544 340 516L316 403Q314 393 314 389Q314 378 324 378Q337 378 343 403L350 437H395L388 407ZM232 466Q212 456 197 452Q159 438 146 428T132 401Q132 378 159 378Q213 378 225 431L232 466Z"/>
<glyph unicode="«" horiz-adv-x="482" d="M263 129Q248 158 239 185T229 227Q229 261 310 346L363 403H441L399 336Q370 291 359 265T347 217Q347 208 347 201T349 185T353 166T359 139L376 72H293L263 129ZM67 129Q53 157 43 185T33 227Q33 262 113 346L167 403H245L202 336Q174 292 163 265T151 217Q151 198 153 183T163 139L180 72H97L67 129Z"/>
<glyph unicode="¬" horiz-adv-x="500" d="M293 165H-2L24 289H458L396 0H258L293 165Z"/>
<glyph unicode="­" horiz-adv-x="275" d="M-7 299H268L241 172H-34L-7 299Z"/>
<glyph unicode="®" horiz-adv-x="797" d="M238 523H477Q543 523 573 505T604 449Q604 368 502 339Q526 331 535 320T544 287Q544 282 544 277T542 265L535 226Q532 211 532 204Q532 193 541 193Q550 193 555 204T569 255H616Q608 217 601 198T580 164Q550 132 501 132Q470 132 451 147T431 185Q431 190 432 201T437 227L444 265Q445 270 445 274T446 281Q446 300 436 308T403 316H352L333 226Q330 215 330 208Q330 200 335 198T359 195H388L377 143H158L169 195H194Q205 195 212 196T222 200T228 209T233 226L278 440Q281 452 281 458Q281 466 276 468T252 471H227L238 523ZM393 368Q436 368 454 372T483 391Q498 409 498 434Q498 447 490 457Q482 466 469 468T418 471H385L363 368H393ZM478 685Q541 685 594 664T687 606T748 517T770 404Q770 322 733 246T633 112T491 18T324 -18Q259 -18 205 3T111 61T49 150T27 263Q27 345 64 421T164 556T308 650T478 685ZM464 622Q393 622 327 593T211 516T130 405T100 274Q100 224 117 183T166 110T241 62T335 45Q405 45 470 74T586 151T667 262T697 393Q697 442 680 484T631 557T557 605T464 622Z"/>
<glyph unicode="¯" horiz-adv-x="373" d="M104 665H410L393 586H87L104 665Z"/>
<glyph unicode="°" horiz-adv-x="400" d="M204 686Q235 686 261 674T307 642T338 594T350 534Q350 502 339 474T307 426T259 393T200 381Q168 381 141 393T94 425T62 474T50 534Q50 566 62 593T95 641T144 674T204 686ZM202 629Q161 629 134 602T106 533Q106 513 113 496T133 466T163 446T200 438Q219 438 236 445T266 466T286 496T293 534Q293 553 286 570T267 601T238 621T202 629Z"/>
<glyph unicode="±" horiz-adv-x="595" d="M263 427L298 591H406L372 427H541L520 324H350L315 161H207L241 324H72L93 427H263ZM473 104L451 1H3L25 104H473Z"/>
<glyph unicode="²" horiz-adv-x="392" d="M16 266Q22 297 34 321T68 365T125 404T211 443Q281 474 281 521Q281 543 263 556T214 569Q184 569 166 560T133 528Q148 531 155 531Q168 531 177 523T186 502Q186 481 167 465T120 449Q97 449 84 461T70 494Q70 518 85 540T126 578T185 605T257 615Q317 615 353 590T389 524Q389 498 376 474T339 432Q330 425 322 421T301 412T267 403T209 389Q184 383 167 378T138 366T116 352T96 332Q121 342 135 345T165 349Q179 349 217 341Q237 336 249 334T271 332Q294 332 306 343T326 386H371Q363 348 357 330T339 297Q322 277 298 267T244 256Q232 256 223 257T203 261T178 270T142 285Q114 296 101 296Q88 296 80 290T62 266H16Z"/>
<glyph unicode="³" horiz-adv-x="392" d="M256 615Q319 615 354 595T390 540Q390 526 385 512T368 486Q354 472 337 465T285 450Q329 437 347 421T365 379Q365 352 351 330T311 291T249 266T168 257Q100 257 63 277T26 335Q26 366 47 387T101 408Q121 408 133 398T145 370Q145 330 85 321Q101 309 116 305T157 300Q203 300 231 321T260 377Q260 389 254 399T236 415Q228 420 215 421T173 424L183 469Q217 470 233 473T262 488Q282 506 282 533Q282 553 267 564T222 575Q200 575 183 571T146 555Q167 551 175 545T184 525Q184 505 166 491T123 476Q103 476 90 486T77 513Q77 534 91 552T129 585T184 607T251 615H256Z"/>
<glyph unicode="´" horiz-adv-x="500" d="M361 683Q392 710 410 720T447 730Q467 730 478 719T490 688Q490 666 475 650T426 619L251 540H196L361 683Z"/>
<glyph unicode="µ" horiz-adv-x="576" d="M442 131Q442 90 455 66T492 41Q509 41 523 60T540 109L567 108Q556 50 526 19T449 -13Q410 -13 388 8T354 80Q274 -13 200 -13Q174 -13 154 -3T101 33V21Q101 10 101 2T103 -14T107 -31T113 -53Q119 -75 122 -89T128 -113T131 -130T132 -146Q132 -178 119 -198T83 -219Q60 -219 47 -199T33 -147Q33 -138 33 -132T35 -116T40 -93T50 -56Q62 -11 62 20V500H150V169Q150 116 174 87T242 58Q274 58 300 75T354 131L353 500H442V131Z"/>
<glyph unicode="¶" horiz-adv-x="657" d="M215 321Q211 320 208 320T202 320Q135 320 96 355T56 449Q56 495 76 539T132 612Q197 667 328 667H655L635 572H563L422 -93H317L458 572H373L232 -93H127L215 321Z"/>
<glyph unicode="·" horiz-adv-x="313" d="M155 313Q182 313 200 296T218 251Q218 233 210 216T189 185T157 164T120 156Q93 156 75 173T57 218Q57 236 65 253T86 284T118 305T155 313Z"/>
<glyph unicode="¸" horiz-adv-x="500" d="M33 -132Q64 -152 90 -161T141 -171Q163 -171 177 -158T191 -124Q191 -111 182 -104T155 -96Q144 -96 123 -99L144 0H186L174 -56Q187 -54 198 -54T216 -53Q246 -53 264 -70T282 -116Q282 -140 272 -160T245 -195T204 -218T152 -227Q134 -227 119 -225T86 -218T48 -204T0 -181L33 -132Z"/>
<glyph unicode="¹" horiz-adv-x="392" d="M124 515L132 557Q179 561 204 572T244 607H312L256 342Q253 331 253 324Q253 309 281 309H319L310 266H70L79 309H119Q139 309 147 315T159 342L196 515H124Z"/>
<glyph unicode="º" horiz-adv-x="385" d="M257 621Q323 621 362 590T401 504Q401 464 385 430T341 371T273 332T189 318Q122 318 83 349T43 434Q43 474 59 508T103 568T171 607T257 621ZM245 569Q198 569 174 526Q163 506 156 478T149 424Q149 370 200 370Q246 370 270 413Q281 433 288 461T295 515Q295 569 245 569Z"/>
<glyph unicode="»" horiz-adv-x="482" d="M-1 72L45 139Q61 162 71 179T88 209T96 234T99 256Q99 270 96 293T89 336L75 403H153L182 346Q198 317 207 290T217 248Q217 214 136 129L82 72H-1ZM195 72L241 139Q272 184 283 209T295 256Q295 270 293 294T286 336L271 403H349L379 346Q394 317 403 290T413 248Q413 214 332 129L279 72H195Z"/>
<glyph unicode="¼" horiz-adv-x="948" d="M124 515L132 557Q179 561 204 572T244 607H312L256 342Q253 331 253 324Q253 309 281 309H319L310 266H70L79 309H119Q139 309 147 315T159 342L196 515H124ZM702 622H786L237 -17H154L702 622ZM856 0H625L634 43H667Q687 43 695 50T708 76L713 99H526L536 146L779 340H858L817 148H883L873 99H806L801 76Q799 64 799 62T798 58Q798 43 826 43H865L856 0ZM723 148L749 261L602 148H723Z"/>
<glyph unicode="½" horiz-adv-x="948" d="M124 515L132 557Q179 561 204 572T244 607H312L256 342Q253 331 253 324Q253 309 281 309H319L310 266H70L79 309H119Q139 309 147 315T159 342L196 515H124ZM702 622H786L237 -17H154L702 622ZM515 0Q520 31 532 55T566 99T624 137T710 176Q780 207 780 254Q780 276 762 289T713 302Q683 302 665 293T632 261Q647 264 654 264Q667 264 676 256T685 235Q685 214 666 198T619 182Q596 182 583 194T569 227Q569 251 584 273T625 311T684 338T756 348Q816 348 852 323T888 257Q888 231 875 207T838 165Q829 158 821 154T800 145T766 136T708 122Q683 116 666 111T637 100T615 85T595 65Q620 75 634 78T664 82Q672 82 684 80T715 74Q736 69 748 67T770 65Q793 65 805 76T825 119H870Q866 100 863 87T856 63T848 46T837 31Q804 -10 743 -10Q731 -10 722 -9T702 -5T677 3T641 18Q611 29 600 29Q587 29 578 23T561 0H515Z"/>
<glyph unicode="¾" horiz-adv-x="948" d="M256 615Q319 615 354 595T390 540Q390 526 385 512T368 486Q354 472 337 465T285 450Q329 437 347 421T365 379Q365 352 351 330T311 291T249 266T168 257Q100 257 63 277T26 335Q26 366 47 387T101 408Q121 408 133 398T145 370Q145 330 85 321Q101 309 116 305T157 300Q203 300 231 321T260 377Q260 389 254 399T236 415Q228 420 215 421T173 424L183 469Q217 470 233 473T262 488Q282 506 282 533Q282 553 267 564T222 575Q200 575 183 571T146 555Q167 551 175 545T184 525Q184 505 166 491T123 476Q103 476 90 486T77 513Q77 534 91 552T129 585T184 607T251 615H256ZM702 622H786L237 -17H154L702 622ZM855 0H625L634 43H667Q687 43 695 49T708 76L713 99H526L536 146L779 340H857L817 148H883L873 99H806L801 76Q799 64 799 62T798 58Q798 43 826 43H865L855 0ZM723 148L749 261L602 148H723Z"/>
<glyph unicode="¿" horiz-adv-x="561" d="M333 267Q328 239 323 219T307 181T282 146T241 104Q209 75 188 53T155 12T137 -23T131 -56Q131 -91 157 -113T226 -136Q261 -136 292 -122Q318 -111 333 -93T362 -39Q343 -48 332 -51T307 -55Q284 -55 269 -41T254 -5Q254 37 283 65T358 93Q396 93 418 71T441 9Q441 -28 425 -64T380 -133Q299 -220 166 -220Q75 -220 21 -180T-33 -71Q-33 -38 -19 -4T21 57Q33 70 42 78T65 96T102 120T167 160Q203 183 222 208T249 267H333ZM339 483Q366 483 384 466T402 421Q402 403 394 386T373 355T341 334T304 326Q277 326 259 343T241 388Q241 406 249 423T270 454T302 475T339 483Z"/>
<glyph unicode="À" horiz-adv-x="705" d="M645 0H288L306 82H342Q383 82 396 90T410 125Q410 130 410 135T408 145L398 214H194L154 142Q139 113 139 100Q139 90 149 86T184 82H227L209 0H-91L-74 82H-41Q-12 82 11 99Q21 106 28 116T50 153L335 667H505L574 149Q577 127 580 114T590 93T608 84T637 82H662L645 0ZM359 512L240 297H388L359 512ZM343 772Q327 779 318 789T309 813Q309 823 314 833T327 850T345 863T366 868Q379 868 388 863T412 842L523 721H469L343 772Z"/>
<glyph unicode="Á" horiz-adv-x="705" d="M645 0H288L306 82H342Q383 82 396 90T410 125Q410 130 410 135T408 145L398 214H194L154 142Q139 113 139 100Q139 90 149 86T184 82H227L209 0H-91L-74 82H-41Q-12 82 11 99Q21 106 28 116T50 153L335 667H505L574 149Q577 127 580 114T590 93T608 84T637 82H662L645 0ZM359 512L240 297H388L359 512ZM377 721L540 842Q560 856 572 862T598 868Q613 868 623 858T634 831Q634 813 620 797T580 772L431 721H377Z"/>
<glyph unicode="Â" horiz-adv-x="705" d="M645 0H288L306 82H342Q383 82 396 90T410 125Q410 130 410 135T408 145L398 214H194L154 142Q139 113 139 100Q139 90 149 86T184 82H227L209 0H-91L-74 82H-41Q-12 82 11 99Q21 106 28 116T50 153L335 667H505L574 149Q577 127 580 114T590 93T608 84T637 82H662L645 0ZM359 512L240 297H388L359 512ZM404 858H520L587 721H540L444 776L325 721H278L404 858Z"/>
<glyph unicode="Ã" horiz-adv-x="705" d="M645 0H288L306 82H342Q383 82 396 90T410 125Q410 130 410 135T408 145L398 214H194L154 142Q139 113 139 100Q139 90 149 86T184 82H227L209 0H-91L-74 82H-41Q-12 82 11 99Q21 106 28 116T50 153L335 667H505L574 149Q577 127 580 114T590 93T608 84T637 82H662L645 0ZM359 512L240 297H388L359 512ZM284 720Q313 786 342 813T416 841Q433 841 451 836L505 821Q515 818 525 818Q542 818 553 826T577 858H615Q599 822 587 804T558 769Q524 737 484 737Q468 737 453 741L402 756Q393 758 386 759T373 761Q343 761 321 720H284Z"/>
<glyph unicode="Ä" horiz-adv-x="705" d="M645 0H288L306 82H342Q383 82 396 90T410 125Q410 130 410 135T408 145L398 214H194L154 142Q139 113 139 100Q139 90 149 86T184 82H227L209 0H-91L-74 82H-41Q-12 82 11 99Q21 106 28 116T50 153L335 667H505L574 149Q577 127 580 114T590 93T608 84T637 82H662L645 0ZM359 512L240 297H388L359 512ZM343 858Q366 858 381 843T397 804Q397 788 390 773T371 747T344 729T312 722Q289 722 274 737T258 776Q258 792 265 806T284 832T311 851T343 858ZM571 858Q595 858 610 843T626 804Q626 788 619 773T600 747T573 729T541 722Q517 722 502 737T486 776Q486 792 493 807T512 833T539 851T571 858Z"/>
<glyph unicode="Å" horiz-adv-x="705" d="M645 0H288L306 82H342Q383 82 396 90T410 125Q410 130 410 135T408 145L398 214H194L154 142Q139 113 139 100Q139 90 149 86T184 82H227L209 0H-91L-74 82H-41Q-12 82 11 99Q21 106 28 116T50 153L335 667H505L574 149Q577 127 580 114T590 93T608 84T637 82H662L645 0ZM359 512L240 297H388L359 512ZM460 855Q438 855 421 839T404 800Q404 785 414 775T440 765Q462 765 479 781T496 819Q496 835 486 845T460 855ZM475 918Q512 918 536 894T561 832Q561 806 550 783T520 741T477 712T426 701Q388 701 364 725T340 787Q340 812 351 836T381 878T424 907T475 918Z"/>
<glyph unicode="Æ" horiz-adv-x="1073" d="M295 82H340Q361 82 374 84T395 92T407 110T416 143L437 241H241L164 139Q152 122 148 115T144 101Q144 82 188 82H228L211 0H-106L-89 82H-52Q-23 82 -1 96T47 144L331 523Q348 545 348 563Q348 576 337 580T293 585H257L274 667H1080L1025 408H945Q947 434 948 451T949 480Q949 512 943 532T920 564T874 580T800 585H669L628 389H664Q692 389 710 393T740 408T760 442T778 500H858L791 182H710L716 213Q721 235 721 251Q721 281 705 293T647 306H610L562 82H682Q720 82 747 85T794 94T828 113T856 143Q865 155 872 168T886 197T899 233T914 279H996L937 0H278L295 82ZM512 591H501L304 324H455L512 591Z"/>
<glyph unicode="Ç" horiz-adv-x="715" d="M295 -58Q307 -56 318 -55T337 -54Q368 -54 386 -71T405 -118Q405 -141 395 -161T367 -195T325 -218T273 -227Q255 -227 239 -225T206 -218T169 -204T121 -181L155 -132Q185 -152 211 -161T263 -171Q284 -171 298 -158T312 -125Q312 -111 303 -104T276 -96Q271 -96 263 -97T244 -101L262 -16Q150 -2 88 67T26 248Q26 336 60 416T153 556T289 651T452 687Q479 687 500 684T542 674T583 653T630 621L659 675H740L682 404H597L599 455V458Q599 523 563 561T465 599Q372 599 307 523Q279 492 262 456T230 369Q219 331 214 295T209 228Q209 154 247 112T351 69Q393 69 431 86T499 136Q509 148 517 159T531 185T544 216T559 258H654Q620 119 531 48T304 -19L295 -58Z"/>
<glyph unicode="È" horiz-adv-x="745" d="M693 408H612Q615 435 616 452T618 482Q618 539 590 564Q575 576 549 580T469 585H338L296 389H333Q361 389 378 393T408 408T428 442T446 500H527L459 182H378L385 213Q387 222 388 234T389 254Q389 282 372 294T315 306H278L231 82H351Q389 82 416 85T463 94T497 113T525 143Q534 155 541 168T554 197T567 233T582 279H665L606 0H-51L-34 82H4Q26 82 39 84T60 92T72 110T81 143L162 524Q164 538 165 545T167 558Q167 575 156 580T111 585H73L91 667H748L693 408ZM367 772Q351 779 342 789T333 813Q333 823 338 833T351 850T369 863T390 868Q403 868 412 863T436 842L548 721H494L367 772Z"/>
<glyph unicode="É" horiz-adv-x="745" d="M693 408H612Q615 435 616 452T618 482Q618 539 590 564Q575 576 549 580T469 585H338L296 389H333Q361 389 378 393T408 408T428 442T446 500H527L459 182H378L385 213Q387 222 388 234T389 254Q389 282 372 294T315 306H278L231 82H351Q389 82 416 85T463 94T497 113T525 143Q534 155 541 168T554 197T567 233T582 279H665L606 0H-51L-34 82H4Q26 82 39 84T60 92T72 110T81 143L162 524Q164 538 165 545T167 558Q167 575 156 580T111 585H73L91 667H748L693 408ZM397 721L560 842Q580 857 592 862T618 868Q633 868 643 858T654 831Q654 813 640 797T600 772L451 721H397Z"/>
<glyph unicode="Ê" horiz-adv-x="745" d="M693 408H612Q615 435 616 452T618 482Q618 539 590 564Q575 576 549 580T469 585H338L296 389H333Q361 389 378 393T408 408T428 442T446 500H527L459 182H378L385 213Q387 222 388 234T389 254Q389 282 372 294T315 306H278L231 82H351Q389 82 416 85T463 94T497 113T525 143Q534 155 541 168T554 197T567 233T582 279H665L606 0H-51L-34 82H4Q26 82 39 84T60 92T72 110T81 143L162 524Q164 538 165 545T167 558Q167 575 156 580T111 585H73L91 667H748L693 408ZM432 858H548L615 721H569L473 776L353 721H307L432 858Z"/>
<glyph unicode="Ë" horiz-adv-x="745" d="M693 408H612Q615 435 616 452T618 482Q618 539 590 564Q575 576 549 580T469 585H338L296 389H333Q361 389 378 393T408 408T428 442T446 500H527L459 182H378L385 213Q387 222 388 234T389 254Q389 282 372 294T315 306H278L231 82H351Q389 82 416 85T463 94T497 113T525 143Q534 155 541 168T554 197T567 233T582 279H665L606 0H-51L-34 82H4Q26 82 39 84T60 92T72 110T81 143L162 524Q164 538 165 545T167 558Q167 575 156 580T111 585H73L91 667H748L693 408ZM379 858Q402 858 417 843T433 804Q433 788 426 773T407 747T380 729T348 722Q325 722 310 737T294 776Q294 792 301 806T320 832T347 851T379 858ZM605 858Q629 858 644 843T660 804Q660 788 653 773T634 747T607 729T575 722Q551 722 536 737T520 776Q520 792 527 807T546 833T573 851T605 858Z"/>
<glyph unicode="Ì" horiz-adv-x="412" d="M-32 82H6Q27 82 40 84T61 92T73 110T83 143L164 524L169 553V557V559Q168 575 158 580T113 585H75L93 667H461L443 585H403Q382 585 369 583T348 575T336 557T327 524L246 143Q242 127 241 121T240 109Q240 92 251 87T296 82H336L319 0H-49L-32 82ZM207 772Q191 779 182 789T173 813Q173 823 178 833T191 850T209 863T230 868Q243 868 252 863T276 842L388 721H333L207 772Z"/>
<glyph unicode="Í" horiz-adv-x="412" d="M-32 82H6Q27 82 40 84T61 92T73 110T83 143L164 524L169 553V557V559Q168 575 158 580T113 585H75L93 667H461L443 585H403Q382 585 369 583T348 575T336 557T327 524L246 143Q242 127 241 121T240 109Q240 92 251 87T296 82H336L319 0H-49L-32 82ZM220 721L383 842Q403 856 415 862T441 868Q456 868 466 858T477 831Q477 813 463 797T423 772L274 721H220Z"/>
<glyph unicode="Î" horiz-adv-x="412" d="M-32 82H6Q27 82 40 84T61 92T73 110T83 143L164 524L169 553V557V559Q168 575 158 580T113 585H75L93 667H461L443 585H403Q382 585 369 583T348 575T336 557T327 524L246 143Q242 127 241 121T240 109Q240 92 251 87T296 82H336L319 0H-49L-32 82ZM259 858H375L442 721H396L300 776L180 721H134L259 858Z"/>
<glyph unicode="Ï" horiz-adv-x="412" d="M-32 82H6Q27 82 40 84T61 92T73 110T83 143L164 524L169 553V557V559Q168 575 158 580T113 585H75L93 667H461L443 585H403Q382 585 369 583T348 575T336 557T327 524L246 143Q242 127 241 121T240 109Q240 92 251 87T296 82H336L319 0H-49L-32 82ZM216 858Q239 858 254 843T270 804Q270 788 263 773T244 747T217 729T185 722Q162 722 147 737T131 776Q131 792 138 806T157 832T184 851T216 858ZM427 858Q450 858 465 843T481 804Q481 788 474 773T455 747T428 729T396 722Q373 722 358 737T342 776Q342 792 349 806T368 832T395 851T427 858Z"/>
<glyph unicode="Ð" horiz-adv-x="809" d="M-31 82H7Q28 82 41 84T62 92T74 110T84 143L118 305H-6L11 381H134L165 524Q167 538 168 546T170 559Q170 576 160 581T114 586H76L94 667H441Q544 667 606 651T709 595Q773 535 773 430Q773 333 737 246T636 102Q605 75 571 56T497 24T408 6T300 0H-48L-31 82ZM316 83Q395 83 447 111T531 199Q544 223 554 253T572 315T584 379T589 441Q589 517 550 551T422 585H341L298 381H442L425 305H281L234 83H316Z"/>
<glyph unicode="Ñ" horiz-adv-x="814" d="M263 0H-51L-34 82H0Q21 82 34 84T55 92T67 110T76 143L157 524L162 553V557V559Q161 575 151 580T107 585H73L91 667H385L560 191L630 524Q634 538 635 545T636 558Q636 575 626 580T580 585H535L553 667H863L846 585H816Q795 585 782 583T761 575T749 557T740 524L628 0H456L266 522L185 143Q180 118 180 109Q180 92 191 87T235 82H280L263 0ZM348 720Q377 786 406 813T480 841Q490 841 498 840T516 836L569 821Q579 818 590 818Q607 818 617 826T641 858H679Q663 822 651 804T622 769Q588 737 548 737Q531 737 518 741L466 756Q457 758 450 759T437 761Q406 761 386 720H348Z"/>
<glyph unicode="Ò" horiz-adv-x="810" d="M482 686Q551 686 607 668T702 615T763 531T785 421Q785 332 750 250T652 107Q520 -19 325 -19Q257 -19 202 0T108 53T48 137T26 247Q26 335 61 417T159 560Q224 623 305 654T482 686ZM464 599Q404 599 353 565T267 467Q255 445 244 416T226 354T214 289T209 228Q209 155 247 112T349 69Q414 69 470 112T558 231Q568 254 576 281T590 335T599 390T602 442Q602 512 564 555T464 599ZM408 772Q393 778 384 789T375 813Q375 834 393 851T432 868Q444 868 453 863T477 842L589 721H535L408 772Z"/>
<glyph unicode="Ó" horiz-adv-x="810" d="M482 686Q551 686 607 668T702 615T763 531T785 421Q785 332 750 250T652 107Q520 -19 325 -19Q257 -19 202 0T108 53T48 137T26 247Q26 335 61 417T159 560Q224 623 305 654T482 686ZM464 599Q404 599 353 565T267 467Q255 445 244 416T226 354T214 289T209 228Q209 155 247 112T349 69Q414 69 470 112T558 231Q568 254 576 281T590 335T599 390T602 442Q602 512 564 555T464 599ZM422 721L585 842Q605 856 617 862T642 868Q658 868 668 858T679 830Q679 813 665 797T624 772L476 721H422Z"/>
<glyph unicode="Ô" horiz-adv-x="810" d="M482 686Q551 686 607 668T702 615T763 531T785 421Q785 332 750 250T652 107Q520 -19 325 -19Q257 -19 202 0T108 53T48 137T26 247Q26 335 61 417T159 560Q224 623 305 654T482 686ZM464 599Q404 599 353 565T267 467Q255 445 244 416T226 354T214 289T209 228Q209 155 247 112T349 69Q414 69 470 112T558 231Q568 254 576 281T590 335T599 390T602 442Q602 512 564 555T464 599ZM465 858H581L648 721H601L506 776L386 721H340L465 858Z"/>
<glyph unicode="Õ" horiz-adv-x="810" d="M482 686Q551 686 607 668T702 615T763 531T785 421Q785 332 750 250T652 107Q520 -19 325 -19Q257 -19 202 0T108 53T48 137T26 247Q26 335 61 417T159 560Q224 623 305 654T482 686ZM464 599Q404 599 353 565T267 467Q255 445 244 416T226 354T214 289T209 228Q209 155 247 112T349 69Q414 69 470 112T558 231Q568 254 576 281T590 335T599 390T602 442Q602 512 564 555T464 599ZM354 720Q383 786 412 813T485 841Q503 841 521 836L574 821Q584 818 595 818Q612 818 623 826T647 858H684Q669 822 657 804T628 769Q594 737 554 737Q546 737 539 738T523 741L472 756Q452 761 443 761Q411 761 391 720H354Z"/>
<glyph unicode="Ö" horiz-adv-x="809" d="M482 686Q551 686 607 668T702 615T763 531T785 421Q785 332 750 250T652 107Q520 -19 325 -19Q257 -19 202 0T108 53T48 137T26 247Q26 335 61 417T159 560Q224 623 305 654T482 686ZM464 599Q404 599 353 565T267 467Q255 445 244 416T226 354T214 289T209 228Q209 155 247 112T349 69Q414 69 470 112T558 231Q568 254 576 281T590 335T599 390T602 442Q602 512 564 555T464 599ZM412 858Q435 858 450 843T466 804Q466 788 459 773T440 747T413 729T381 722Q358 722 343 737T327 776Q327 792 334 806T353 832T380 851T412 858ZM638 858Q661 858 676 843T692 804Q692 788 685 773T666 747T639 729T607 722Q584 722 569 737T553 776Q553 792 560 806T579 832T606 851T638 858Z"/>
<glyph unicode="×" horiz-adv-x="595" d="M221 315L109 457L197 530L309 387L482 530L540 457L367 315L479 172L391 99L278 242L105 99L48 172L221 315Z"/>
<glyph unicode="Ø" horiz-adv-x="809" d="M737 575Q761 541 772 504T784 421Q784 328 749 248T653 108T508 15T329 -19Q197 -19 116 46L17 -39L-23 12L72 93Q48 128 37 165T25 247Q25 335 60 417T158 560Q290 686 481 686Q610 686 692 622L785 701L825 650L737 575ZM228 141Q264 69 348 69Q414 69 469 112T557 231Q567 253 575 280T589 335T598 390T601 441Q601 445 601 449T600 458L228 141ZM581 528Q545 599 461 599Q395 599 340 556T252 436Q242 413 234 387T220 333T211 278T208 227Q208 223 208 219T209 210L581 528Z"/>
<glyph unicode="Ù" horiz-adv-x="765" d="M795 585H763Q743 585 731 583T712 575T700 557T691 524L625 213Q575 -21 297 -21Q197 -21 139 22T81 139Q81 153 83 171T89 206L157 524Q159 538 160 545T162 558Q162 575 152 580T106 585H73L90 667H458L441 585H396Q375 585 362 583T341 575T329 557T320 524L255 217Q246 175 246 156Q246 78 346 78Q384 78 417 87T469 114Q486 128 496 150T515 211L581 524Q585 540 586 546T587 558Q587 575 578 580T536 585H494L511 667H812L795 585ZM393 772Q378 778 369 789T360 813Q360 834 378 851T417 868Q429 868 438 863T462 842L574 721H520L393 772Z"/>
<glyph unicode="Ú" horiz-adv-x="765" d="M795 585H763Q743 585 731 583T712 575T700 557T691 524L625 213Q575 -21 297 -21Q197 -21 139 22T81 139Q81 153 83 171T89 206L157 524Q159 538 160 545T162 558Q162 575 152 580T106 585H73L90 667H458L441 585H396Q375 585 362 583T341 575T329 557T320 524L255 217Q246 175 246 156Q246 78 346 78Q384 78 417 87T469 114Q486 128 496 150T515 211L581 524Q585 540 586 546T587 558Q587 575 578 580T536 585H494L511 667H812L795 585ZM423 721L587 842Q607 856 619 862T644 868Q660 868 670 858T681 830Q681 812 667 797T626 772L478 721H423Z"/>
<glyph unicode="Û" horiz-adv-x="765" d="M795 585H763Q743 585 731 583T712 575T700 557T691 524L625 213Q575 -21 297 -21Q197 -21 139 22T81 139Q81 153 83 171T89 206L157 524Q159 538 160 545T162 558Q162 575 152 580T106 585H73L90 667H458L441 585H396Q375 585 362 583T341 575T329 557T320 524L255 217Q246 175 246 156Q246 78 346 78Q384 78 417 87T469 114Q486 128 496 150T515 211L581 524Q585 540 586 546T587 558Q587 575 578 580T536 585H494L511 667H812L795 585ZM454 858H570L637 721H591L495 776L376 721H329L454 858Z"/>
<glyph unicode="Ü" horiz-adv-x="765" d="M795 585H763Q743 585 731 583T712 575T700 557T691 524L625 213Q575 -21 297 -21Q197 -21 139 22T81 139Q81 153 83 171T89 206L157 524Q159 538 160 545T162 558Q162 575 152 580T106 585H73L90 667H458L441 585H396Q375 585 362 583T341 575T329 557T320 524L255 217Q246 175 246 156Q246 78 346 78Q384 78 417 87T469 114Q486 128 496 150T515 211L581 524Q585 540 586 546T587 558Q587 575 578 580T536 585H494L511 667H812L795 585ZM396 858Q419 858 434 843T450 804Q450 788 443 773T424 747T397 729T365 722Q342 722 327 737T311 776Q311 792 318 806T337 832T364 851T396 858ZM622 858Q645 858 660 843T676 804Q676 788 669 773T650 747T623 729T591 722Q568 722 553 737T537 776Q537 792 544 806T563 832T590 851T622 858Z"/>
<glyph unicode="Ý" horiz-adv-x="700" d="M56 667H421L404 585H375Q358 585 351 585T337 581Q320 571 320 554Q320 544 327 528L392 389L528 537Q545 555 545 568Q545 587 499 587H469L486 667H783L766 585H743Q728 585 716 583T693 573T668 553T636 520L419 277L391 143Q387 129 386 122T385 109Q385 92 396 87T441 82H492L474 0H83L101 82H151Q172 82 185 84T206 92T218 110T227 143L256 277L149 514Q132 552 113 568T64 585H39L56 667ZM396 721L559 842Q579 857 591 862T616 868Q632 868 642 858T653 830Q653 812 639 797T599 772L450 721H396Z"/>
<glyph unicode="Þ" horiz-adv-x="705" d="M-34 82H4Q26 82 39 84T60 92T72 110T81 143L163 534Q167 551 167 558Q167 575 157 580T111 585H73L91 667H463L446 585H401Q380 585 368 583T347 576T335 561T327 534L325 526H449Q527 526 570 515T640 477Q673 442 673 384Q673 337 654 293T599 217Q580 200 559 188T510 169T449 158T371 154H246L244 143Q242 133 241 124T239 109Q239 92 249 87T294 82H339L321 0H-51L-34 82ZM319 236Q382 236 417 247T474 285Q487 301 494 325T502 373Q502 412 472 428T368 444H308L264 236H319Z"/>
<glyph unicode="ß" horiz-adv-x="621" d="M122 450Q130 486 138 512T155 558T177 593T207 623Q281 687 404 687Q495 687 544 658T594 574Q594 549 586 524T560 478Q550 466 540 457T516 439T484 425T442 411Q480 400 499 390T533 362Q564 327 564 270Q564 219 545 165T494 68Q462 26 422 4T334 -18Q286 -18 261 3T235 67Q235 91 239 107L251 165H322L310 107Q308 102 308 99T308 90Q308 77 315 69T335 61Q346 61 354 66T370 85T384 120T398 178Q406 220 410 249T415 295Q415 318 402 336T365 359Q356 361 345 362T301 363L317 440Q338 441 352 442T377 447T396 456T412 469Q428 485 437 509T447 559Q447 612 383 612Q338 612 314 588T277 508L169 0H-51L-35 74H-10Q22 74 34 86T55 133L122 450Z"/>
<glyph unicode="à" horiz-adv-x="586" d="M528 127Q519 84 508 61T478 20Q438 -17 372 -17Q327 -17 305 -1T272 54Q246 34 225 21T182 -1T140 -14T95 -18Q35 -18 3 9T-30 85Q-30 119 -16 149T25 202Q49 222 88 236T196 264Q243 274 267 283T305 310Q327 334 327 367Q327 396 305 413T243 430Q216 430 198 424T157 402Q203 396 203 356Q203 341 196 328T176 305T147 288T112 282Q82 282 64 297T45 339Q45 385 86 424Q117 454 169 470T289 486Q371 486 418 460T466 387Q466 377 463 357T455 313L414 120Q412 114 412 107T411 96Q411 74 431 74Q457 74 467 120L478 173H538L528 127ZM298 237Q287 233 277 228T255 218Q250 216 248 215T245 214T241 213T234 210Q210 201 195 195T169 182T153 170T141 155Q127 136 127 115Q127 73 174 73Q216 73 244 98T283 169L298 237ZM368 540L226 619Q187 641 187 666Q187 692 207 711T253 730Q271 730 285 720T319 683L423 540H368Z"/>
<glyph unicode="á" horiz-adv-x="586" d="M528 127Q519 84 508 61T478 20Q438 -17 372 -17Q327 -17 305 -1T272 54Q246 34 225 21T182 -1T140 -14T95 -18Q35 -18 3 9T-30 85Q-30 119 -16 149T25 202Q49 222 88 236T196 264Q243 274 267 283T305 310Q327 334 327 367Q327 396 305 413T243 430Q216 430 198 424T157 402Q203 396 203 356Q203 341 196 328T176 305T147 288T112 282Q82 282 64 297T45 339Q45 385 86 424Q117 454 169 470T289 486Q371 486 418 460T466 387Q466 377 463 357T455 313L414 120Q412 114 412 107T411 96Q411 74 431 74Q457 74 467 120L478 173H538L528 127ZM298 237Q287 233 277 228T255 218Q250 216 248 215T245 214T241 213T234 210Q210 201 195 195T169 182T153 170T141 155Q127 136 127 115Q127 73 174 73Q216 73 244 98T283 169L298 237ZM406 683Q437 710 455 720T491 730Q511 730 522 719T534 688Q534 666 519 650T470 619L295 540H240L406 683Z"/>
<glyph unicode="â" horiz-adv-x="586" d="M528 127Q519 84 508 61T478 20Q438 -17 372 -17Q327 -17 305 -1T272 54Q246 34 225 21T182 -1T140 -14T95 -18Q35 -18 3 9T-30 85Q-30 119 -16 149T25 202Q49 222 88 236T196 264Q243 274 267 283T305 310Q327 334 327 367Q327 396 305 413T243 430Q216 430 198 424T157 402Q203 396 203 356Q203 341 196 328T176 305T147 288T112 282Q82 282 64 297T45 339Q45 385 86 424Q117 454 169 470T289 486Q371 486 418 460T466 387Q466 377 463 357T455 313L414 120Q412 114 412 107T411 96Q411 74 431 74Q457 74 467 120L478 173H538L528 127ZM298 237Q287 233 277 228T255 218Q250 216 248 215T245 214T241 213T234 210Q210 201 195 195T169 182T153 170T141 155Q127 136 127 115Q127 73 174 73Q216 73 244 98T283 169L298 237ZM313 719H403L475 540H427L337 623L213 540H164L313 719Z"/>
<glyph unicode="ã" horiz-adv-x="586" d="M528 127Q519 84 508 61T478 20Q438 -17 372 -17Q327 -17 305 -1T272 54Q246 34 225 21T182 -1T140 -14T95 -18Q35 -18 3 9T-30 85Q-30 119 -16 149T25 202Q49 222 88 236T196 264Q243 274 267 283T305 310Q327 334 327 367Q327 396 305 413T243 430Q216 430 198 424T157 402Q203 396 203 356Q203 341 196 328T176 305T147 288T112 282Q82 282 64 297T45 339Q45 385 86 424Q117 454 169 470T289 486Q371 486 418 460T466 387Q466 377 463 357T455 313L414 120Q412 114 412 107T411 96Q411 74 431 74Q457 74 467 120L478 173H538L528 127ZM298 237Q287 233 277 228T255 218Q250 216 248 215T245 214T241 213T234 210Q210 201 195 195T169 182T153 170T141 155Q127 136 127 115Q127 73 174 73Q216 73 244 98T283 169L298 237ZM169 540Q198 606 227 633T301 661Q318 661 336 656L389 641Q401 638 410 638Q427 638 438 646T462 678H500Q473 615 442 586T368 557Q351 557 338 561L287 576Q278 578 271 579T258 581Q226 581 206 540H169Z"/>
<glyph unicode="ä" horiz-adv-x="586" d="M528 127Q519 84 508 61T478 20Q438 -17 372 -17Q327 -17 305 -1T272 54Q246 34 225 21T182 -1T140 -14T95 -18Q35 -18 3 9T-30 85Q-30 119 -16 149T25 202Q49 222 88 236T196 264Q243 274 267 283T305 310Q327 334 327 367Q327 396 305 413T243 430Q216 430 198 424T157 402Q203 396 203 356Q203 341 196 328T176 305T147 288T112 282Q82 282 64 297T45 339Q45 385 86 424Q117 454 169 470T289 486Q371 486 418 460T466 387Q466 377 463 357T455 313L414 120Q412 114 412 107T411 96Q411 74 431 74Q457 74 467 120L478 173H538L528 127ZM298 237Q287 233 277 228T255 218Q250 216 248 215T245 214T241 213T234 210Q210 201 195 195T169 182T153 170T141 155Q127 136 127 115Q127 73 174 73Q216 73 244 98T283 169L298 237ZM238 699Q262 699 278 684T294 644Q294 627 287 612T267 586T240 567T207 560Q184 560 168 575T152 615Q152 631 159 646T178 673T205 692T238 699ZM468 699Q491 699 507 684T523 644Q523 627 516 612T496 586T469 567T436 560Q413 560 397 575T381 615Q381 631 388 646T408 673T435 692T468 699Z"/>
<glyph unicode="å" horiz-adv-x="586" d="M528 127Q519 84 508 61T478 20Q438 -17 372 -17Q327 -17 305 -1T272 54Q246 34 225 21T182 -1T140 -14T95 -18Q35 -18 3 9T-30 85Q-30 119 -16 149T25 202Q49 222 88 236T196 264Q243 274 267 283T305 310Q327 334 327 367Q327 396 305 413T243 430Q216 430 198 424T157 402Q203 396 203 356Q203 341 196 328T176 305T147 288T112 282Q82 282 64 297T45 339Q45 385 86 424Q117 454 169 470T289 486Q371 486 418 460T466 387Q466 377 463 357T455 313L414 120Q412 114 412 107T411 96Q411 74 431 74Q457 74 467 120L478 173H538L528 127ZM298 237Q287 233 277 228T255 218Q250 216 248 215T245 214T241 213T234 210Q210 201 195 195T169 182T153 170T141 155Q127 136 127 115Q127 73 174 73Q216 73 244 98T283 169L298 237ZM362 697Q340 697 323 681T306 642Q306 627 316 617T342 607Q364 607 381 623T398 661Q398 677 388 687T362 697ZM376 760Q413 760 437 736T462 675Q462 649 451 626T421 584T378 555T327 544Q290 544 266 568T241 629Q241 654 252 678T282 720T325 749T376 760Z"/>
<glyph unicode="æ" horiz-adv-x="814" d="M735 161Q721 121 707 99T670 55Q633 20 583 2T478 -17Q418 -17 379 1T309 64Q279 40 255 24T206 -2T158 -16T103 -20Q39 -20 5 7T-30 85Q-30 119 -15 149T26 202Q49 222 90 236T197 263Q223 268 241 273T273 283T297 294T315 310Q326 321 331 336T337 366Q337 395 313 412T245 430Q216 430 198 425T157 402Q203 396 203 356Q203 341 196 328T176 305T147 288T112 282Q82 282 64 297T45 339Q45 371 63 398T113 444T191 475T290 486Q311 486 327 484T360 476T392 460T429 435Q456 450 477 459T516 475T552 483T589 486Q671 486 720 439T769 311Q769 294 767 274T757 218H430Q426 195 424 180T422 154Q422 69 507 69Q556 69 585 89T638 161H735ZM309 237Q298 232 287 228T264 218Q258 216 256 215T253 214T249 212T241 209Q215 200 199 194T172 181T155 169T141 154Q127 137 127 115Q127 72 177 72Q224 72 254 97T295 169L309 237ZM622 294Q626 311 627 323T629 344Q629 374 611 391T560 408Q515 408 490 382T449 294H622Z"/>
<glyph unicode="ç" horiz-adv-x="521" d="M185 -57Q198 -55 209 -54T227 -53Q257 -53 275 -70T293 -117Q293 -141 283 -161T256 -195T214 -218T161 -227Q144 -227 129 -225T96 -218T59 -204T11 -181L45 -132Q103 -171 152 -171Q174 -171 188 -158T202 -123Q202 -110 193 -103T166 -95Q153 -95 134 -99L152 -15Q77 -2 37 43T-4 161Q-4 230 21 289T89 393T191 462T318 487Q394 487 440 452T486 359Q486 333 477 311T453 272T416 246T371 236Q342 236 325 252T308 294Q308 323 328 348Q339 362 351 368T386 379Q366 398 351 404T312 411Q226 411 186 315Q170 278 162 238T154 159Q154 112 172 91T230 69Q275 69 303 94T353 179H441Q423 83 360 33T194 -18L185 -57Z"/>
<glyph unicode="è" horiz-adv-x="541" d="M463 161Q453 133 442 112T417 73T385 42T344 16Q279 -18 197 -18Q103 -18 49 30T-5 162Q-5 229 19 288T86 392T184 462T305 488Q396 488 446 441T497 311Q497 294 495 274T485 218H158Q154 195 152 180T150 154Q150 69 235 69Q284 69 313 89T366 161H463ZM350 294Q356 327 356 344Q356 375 338 392T287 409Q240 409 212 375Q200 361 193 344T177 294H350ZM398 540L257 619Q218 641 218 666Q218 692 237 711T283 730Q302 730 315 720T349 683L453 540H398Z"/>
<glyph unicode="é" horiz-adv-x="541" d="M463 161Q453 133 442 112T417 73T385 42T344 16Q279 -18 197 -18Q103 -18 49 30T-5 162Q-5 229 19 288T86 392T184 462T305 488Q396 488 446 441T497 311Q497 294 495 274T485 218H158Q154 195 152 180T150 154Q150 69 235 69Q284 69 313 89T366 161H463ZM350 294Q356 327 356 344Q356 375 338 392T287 409Q240 409 212 375Q200 361 193 344T177 294H350ZM417 683Q448 710 466 720T503 730Q523 730 534 719T546 688Q546 666 531 650T482 619L307 540H252L417 683Z"/>
<glyph unicode="ê" horiz-adv-x="541" d="M463 161Q453 133 442 112T417 73T385 42T344 16Q279 -18 197 -18Q103 -18 49 30T-5 162Q-5 229 19 288T86 392T184 462T305 488Q396 488 446 441T497 311Q497 294 495 274T485 218H158Q154 195 152 180T150 154Q150 69 235 69Q284 69 313 89T366 161H463ZM350 294Q356 327 356 344Q356 375 338 392T287 409Q240 409 212 375Q200 361 193 344T177 294H350ZM320 719H410L482 540H434L344 623L220 540H171L320 719Z"/>
<glyph unicode="ë" horiz-adv-x="541" d="M463 161Q453 133 442 112T417 73T385 42T344 16Q279 -18 197 -18Q103 -18 49 30T-5 162Q-5 229 19 288T86 392T184 462T305 488Q396 488 446 441T497 311Q497 294 495 274T485 218H158Q154 195 152 180T150 154Q150 69 235 69Q284 69 313 89T366 161H463ZM350 294Q356 327 356 344Q356 375 338 392T287 409Q240 409 212 375Q200 361 193 344T177 294H350ZM241 699Q265 699 281 684T297 644Q297 627 290 612T270 586T243 567T210 560Q187 560 171 575T155 615Q155 631 162 646T181 673T208 692T241 699ZM471 699Q494 699 510 684T526 644Q526 627 519 612T499 586T472 567T439 560Q416 560 400 575T384 615Q384 631 391 646T411 673T438 692T471 699Z"/>
<glyph unicode="ì" horiz-adv-x="353" d="M260 0H-46L-30 74H-1Q31 74 43 86T64 133L108 336Q110 344 110 352T111 369Q111 383 101 389T67 395H38L54 469H278L207 133Q202 108 202 100Q202 74 245 74H275L260 0ZM253 537L156 619Q127 645 127 671Q127 694 144 710T184 726Q220 726 240 676L299 537H253Z"/>
<glyph unicode="í" horiz-adv-x="353" d="M295 676Q338 726 374 726Q391 726 401 717T411 692Q411 654 355 619L224 537H177L295 676ZM260 0H-46L-30 74H-1Q31 74 43 86T64 133L108 336Q110 344 110 352T111 369Q111 383 101 389T67 395H38L54 469H278L207 133Q202 108 202 100Q202 74 245 74H275L260 0Z"/>
<glyph unicode="î" horiz-adv-x="353" d="M202 717H292L351 537H305L228 628L112 537H66L202 717ZM260 0H-46L-30 74H-1Q31 74 43 86T64 133L108 336Q110 344 110 352T111 369Q111 383 101 389T67 395H38L54 469H278L207 133Q202 108 202 100Q202 74 245 74H275L260 0Z"/>
<glyph unicode="ï" horiz-adv-x="353" d="M260 0H-46L-30 74H-1Q31 74 43 86T64 133L108 336Q110 344 110 352T111 369Q111 383 101 389T67 395H38L54 469H278L207 133Q202 108 202 100Q202 74 245 74H275L260 0ZM151 699Q175 699 191 684T207 644Q207 627 200 612T180 586T153 567T120 560Q97 560 81 575T65 615Q65 631 72 646T91 673T118 692T151 699ZM343 699Q366 699 382 684T398 644Q398 627 391 612T371 586T344 567T311 560Q288 560 272 575T256 615Q256 631 263 646T283 673T310 692T343 699Z"/>
<glyph unicode="ð" horiz-adv-x="595" d="M370 667Q375 662 377 659T382 653T387 647T394 638L493 673L508 617L428 588Q467 530 491 489T530 416T549 357T554 299Q554 232 529 174T460 74T355 7T225 -17Q122 -17 63 33T4 171Q4 234 28 292T97 395Q141 437 197 461T308 485Q323 485 335 484T362 479L354 498Q349 511 346 518T341 531T337 541T332 551L245 517L231 574L311 604Q300 628 294 639T279 667H370ZM317 410Q231 410 192 312Q176 274 168 232T159 153Q159 60 243 60Q328 60 366 158Q382 196 390 238T399 317Q399 362 378 386T317 410Z"/>
<glyph unicode="ñ" horiz-adv-x="655" d="M292 74H310Q326 74 336 76T354 85T365 103T374 133L411 309Q414 321 415 333T417 353Q417 376 403 388T363 401Q315 401 279 366T231 272L201 133Q199 123 198 115T197 100Q197 74 240 74H257L242 0H-51L-35 74H-6Q26 74 38 86T59 133L102 336Q104 345 105 353T106 369Q106 383 96 389T62 395H33L49 469H271L253 385Q284 414 308 433T353 463T396 479T442 484Q499 484 531 459T564 391Q564 374 562 354T554 311L516 133Q514 124 513 115T512 100Q512 86 523 80T561 74H582L566 0H277L292 74ZM225 540Q254 606 284 633T357 661Q367 661 375 660T393 656L446 641Q456 638 467 638Q484 638 494 646T518 678H556Q540 642 529 624T499 589Q465 557 425 557Q408 557 395 561L343 576Q325 581 314 581Q283 581 263 540H225Z"/>
<glyph unicode="ò" horiz-adv-x="591" d="M332 486Q381 486 421 473T490 435T533 375T549 297Q549 230 524 173T455 73T350 7T220 -17Q117 -17 58 33T-1 172Q-1 236 24 295T96 398Q190 486 332 486ZM313 409Q226 409 187 311Q171 273 163 231T154 153Q154 60 238 60Q322 60 362 158Q377 196 386 238T395 316Q395 361 374 385T313 409ZM415 540L273 619Q234 641 234 666Q234 692 253 711T299 730Q318 730 332 720T365 683L470 540H415Z"/>
<glyph unicode="ó" horiz-adv-x="591" d="M332 486Q381 486 421 473T490 435T533 375T549 297Q549 230 524 173T455 73T350 7T220 -17Q117 -17 58 33T-1 172Q-1 236 24 295T96 398Q190 486 332 486ZM313 409Q226 409 187 311Q171 273 163 231T154 153Q154 60 238 60Q322 60 362 158Q377 196 386 238T395 316Q395 361 374 385T313 409ZM450 683Q481 710 499 720T536 730Q556 730 567 719T579 688Q579 666 564 650T515 619L340 540H285L450 683Z"/>
<glyph unicode="ô" horiz-adv-x="591" d="M332 486Q381 486 421 473T490 435T533 375T549 297Q549 230 524 173T455 73T350 7T220 -17Q117 -17 58 33T-1 172Q-1 236 24 295T96 398Q190 486 332 486ZM313 409Q226 409 187 311Q171 273 163 231T154 153Q154 60 238 60Q322 60 362 158Q377 196 386 238T395 316Q395 361 374 385T313 409ZM341 719H430L503 540H454L365 623L240 540H192L341 719Z"/>
<glyph unicode="õ" horiz-adv-x="591" d="M332 486Q381 486 421 473T490 435T533 375T549 297Q549 230 524 173T455 73T350 7T220 -17Q117 -17 58 33T-1 172Q-1 236 24 295T96 398Q190 486 332 486ZM313 409Q226 409 187 311Q171 273 163 231T154 153Q154 60 238 60Q322 60 362 158Q377 196 386 238T395 316Q395 361 374 385T313 409ZM201 540Q230 606 259 633T333 661Q350 661 368 656L422 641Q432 638 442 638Q459 638 470 646T494 678H532Q505 615 474 586T400 557Q393 557 386 558T370 561L319 576Q310 578 303 579T290 581Q260 581 238 540H201Z"/>
<glyph unicode="ö" horiz-adv-x="591" d="M330 486Q379 486 419 473T488 435T531 375T547 297Q547 230 522 173T453 73T348 7T218 -17Q115 -17 56 33T-3 172Q-3 236 22 295T94 398Q188 486 330 486ZM311 409Q224 409 185 311Q169 273 161 231T152 153Q152 60 236 60Q320 60 360 158Q375 196 384 238T393 316Q393 361 372 385T311 409ZM264 699Q287 699 303 684T319 644Q319 627 312 612T292 586T265 567T232 560Q209 560 193 575T177 615Q177 631 184 646T204 673T231 692T264 699ZM492 699Q516 699 532 684T548 644Q548 627 541 612T521 586T494 567T461 560Q438 560 422 575T406 615Q406 631 413 646T432 673T459 692T492 699Z"/>
<glyph unicode="÷" horiz-adv-x="595" d="M529 366L507 263H59L81 366H529ZM352 588Q379 588 397 570T415 525Q415 507 407 490T386 459T354 438T317 430Q290 430 272 447T254 492Q254 511 262 528T283 558T315 580T352 588ZM272 210Q299 210 317 192T335 147Q335 129 327 112T306 81T274 60T237 52Q210 52 192 69T174 114Q174 133 182 150T203 180T235 202T272 210Z"/>
<glyph unicode="ø" horiz-adv-x="591" d="M-11 -38L-44 10L28 70Q11 104 4 125T-3 168Q-3 233 23 294T95 398Q189 486 323 486Q348 486 366 484T402 478T436 465T476 443L548 504L588 461L517 402Q526 384 532 371T541 345T546 322T548 296Q548 234 522 174T450 71Q358 -17 220 -17Q169 -17 135 -7T67 27L-11 -38ZM384 367Q364 392 349 400T308 409Q179 409 152 174L384 367ZM160 105Q176 79 193 70T237 60Q270 60 298 78T347 127T380 202T392 298L160 105Z"/>
<glyph unicode="ù" horiz-adv-x="656" d="M49 469H266L200 157Q198 146 196 133T194 113Q194 91 208 79T248 66Q296 66 332 101T380 194L410 336Q415 359 415 369Q415 395 372 395H344L360 469H582L510 133Q508 123 507 115T506 99Q506 74 550 74H581L565 0H341L357 76Q330 50 307 32T261 3T217 -12T169 -17Q112 -17 80 8T47 75Q47 92 49 112T57 156L95 336Q100 359 100 369Q100 395 51 395H33L49 469ZM431 540L289 619Q250 641 250 666Q250 692 269 711T315 730Q334 730 347 720T381 683L486 540H431Z"/>
<glyph unicode="ú" horiz-adv-x="656" d="M49 469H266L200 157Q198 146 196 133T194 113Q194 91 208 79T248 66Q296 66 332 101T380 194L410 336Q415 359 415 369Q415 395 372 395H344L360 469H582L510 133Q508 123 507 115T506 99Q506 74 550 74H581L565 0H341L357 76Q330 50 307 32T261 3T217 -12T169 -17Q112 -17 80 8T47 75Q47 92 49 112T57 156L95 336Q100 359 100 369Q100 395 51 395H33L49 469ZM466 683Q497 710 515 720T552 730Q572 730 583 719T595 688Q595 666 580 650T531 619L356 540H301L466 683Z"/>
<glyph unicode="û" horiz-adv-x="656" d="M49 469H266L200 157Q198 146 196 133T194 113Q194 91 208 79T248 66Q296 66 332 101T380 194L410 336Q415 359 415 369Q415 395 372 395H344L360 469H582L510 133Q508 123 507 115T506 99Q506 74 550 74H581L565 0H341L357 76Q330 50 307 32T261 3T217 -12T169 -17Q112 -17 80 8T47 75Q47 92 49 112T57 156L95 336Q100 359 100 369Q100 395 51 395H33L49 469ZM367 719H457L529 540H481L391 623L267 540H218L367 719Z"/>
<glyph unicode="ü" horiz-adv-x="656" d="M49 469H266L200 157Q198 146 196 133T194 113Q194 91 208 79T248 66Q296 66 332 101T380 194L410 336Q415 359 415 369Q415 395 372 395H344L360 469H582L510 133Q508 123 507 115T506 99Q506 74 550 74H581L565 0H341L357 76Q330 50 307 32T261 3T217 -12T169 -17Q112 -17 80 8T47 75Q47 92 49 112T57 156L95 336Q100 359 100 369Q100 395 51 395H33L49 469ZM290 699Q314 699 330 684T346 644Q346 627 339 612T319 586T292 567T259 560Q235 560 219 576T203 615Q203 631 210 646T230 673T257 692T290 699ZM519 699Q542 699 558 684T574 644Q574 627 567 612T548 586T520 567T487 560Q464 560 448 576T432 615Q432 631 439 646T459 673T486 692T519 699Z"/>
<glyph unicode="ý" horiz-adv-x="566" d="M247 -38Q189 -133 134 -174T13 -216Q-37 -216 -67 -189T-98 -118Q-98 -93 -90 -71T-67 -32T-34 -7T8 3Q37 3 54 -10T71 -48Q71 -78 51 -101Q37 -117 21 -123T-26 -130Q-13 -144 -4 -149T19 -154Q33 -154 50 -148T81 -130Q93 -121 102 -112T122 -89T143 -58T168 -16L93 327Q88 349 83 362T70 383T48 393T14 396L30 469H320L304 396H283Q257 396 246 388T235 358Q235 348 236 343L277 152L392 338Q400 351 405 362T410 379Q410 396 372 396H352L368 469H593L577 396Q557 396 544 394T520 384T499 362T475 326L247 -38ZM451 683Q482 710 500 720T536 730Q556 730 567 719T579 688Q579 666 564 650T516 619L341 540H286L451 683Z"/>
<glyph unicode="þ" horiz-adv-x="635" d="M253 387Q266 402 276 412T293 429T308 441T323 452Q373 484 434 484Q502 484 540 442T579 323Q579 255 559 190T503 77Q432 -17 319 -17Q287 -17 262 -9T220 15Q210 24 203 39T188 78L154 -81Q152 -91 151 -98T150 -111Q150 -127 163 -133T209 -140H231L216 -214H-92L-76 -140H-53Q-37 -140 -27 -138T-9 -129T2 -111T11 -81L142 534Q146 553 146 566Q146 581 136 587T102 593H72L88 667H312L253 387ZM352 399Q319 399 290 376T244 312Q237 295 231 274T221 231T213 189T210 155Q210 117 229 95T282 73Q318 73 342 91T386 151Q403 187 412 232T422 316Q422 399 352 399Z"/>
<glyph unicode="ÿ" horiz-adv-x="566" d="M247 -38Q189 -133 134 -174T13 -216Q-37 -216 -67 -189T-98 -118Q-98 -93 -90 -71T-67 -32T-34 -7T8 3Q37 3 54 -10T71 -48Q71 -78 51 -101Q37 -117 21 -123T-26 -130Q-13 -144 -4 -149T19 -154Q33 -154 50 -148T81 -130Q93 -121 102 -112T122 -89T143 -58T168 -16L93 327Q88 349 83 362T70 383T48 393T14 396L30 469H320L304 396H283Q257 396 246 388T235 358Q235 348 236 343L277 152L392 338Q400 351 405 362T410 379Q410 396 372 396H352L368 469H593L577 396Q557 396 544 394T520 384T499 362T475 326L247 -38ZM265 699Q289 699 305 684T321 644Q321 627 314 612T294 586T267 567T234 560Q210 560 194 575T178 615Q178 631 185 646T205 673T232 692T265 699ZM494 699Q518 699 534 684T550 644Q550 627 543 612T523 586T496 567T463 560Q439 560 423 575T407 615Q407 631 414 646T434 673T461 692T494 699Z"/>
<glyph unicode="Œ" horiz-adv-x="1202" d="M1162 408H1082Q1085 434 1086 451T1087 480Q1087 512 1081 532T1058 564T1012 580T938 585H807L765 389H802Q830 389 847 393T877 408T897 442T915 500H996L928 182H847L854 213Q856 223 857 232T858 251Q858 281 842 293T784 306H747L700 82H820Q858 82 885 85T931 94T965 113T994 143Q1003 155 1010 168T1023 197T1036 233T1051 279H1134L1074 0H748Q696 0 664 0T606 -2T551 -5T478 -11Q436 -14 397 -16T327 -18Q258 -18 203 1T108 54T48 138T26 247Q26 338 61 418T156 557T298 651T472 686Q498 686 539 684T631 677Q674 674 702 672T754 669T804 668T872 667H1217L1162 408ZM608 422Q621 484 621 516Q621 542 614 557T589 583Q573 592 547 597T490 603Q378 603 307 523Q280 491 262 456T230 368Q219 331 214 296T209 228Q209 181 227 143T277 88Q313 67 376 67Q419 67 453 76T508 103Q529 120 543 153T571 247L608 422Z"/>
<glyph unicode="œ" horiz-adv-x="909" d="M833 161Q823 134 812 113T787 74T755 43T714 17Q649 -17 574 -17Q521 -17 486 -1T415 55Q389 35 365 22T316 0T265 -13T208 -17Q161 -17 122 -4T55 35T12 95T-3 172Q-3 238 22 295T90 394T193 461T319 486Q378 486 417 471T493 420Q523 439 547 452T592 472T635 483T679 487Q766 487 816 440T867 311Q867 294 865 274T855 218H528Q524 195 522 180T520 154Q520 69 605 69Q654 69 683 89T736 161H833ZM152 154Q152 60 236 60Q320 60 360 158Q376 196 384 238T393 316Q393 361 372 385T310 409Q234 409 194 331Q185 314 178 292T164 247T155 201T152 158V154ZM720 294Q724 311 725 323T727 344Q727 374 709 391T658 408Q613 408 588 382T547 294H720Z"/>
<glyph unicode="Š" horiz-adv-x="655" d="M-25 -5L32 262H118Q119 209 128 180T160 126Q209 74 297 74Q361 74 401 101T442 173Q442 189 437 200T416 221T376 239T311 256Q239 273 192 289T118 326T79 371T67 431Q67 485 90 531T156 612T254 666T377 686Q405 686 428 683T472 673T513 653T558 623L593 669H666L614 421H529Q530 430 530 436T530 446Q530 497 513 527T458 577Q438 587 413 592T362 597Q305 597 268 570T231 501Q231 486 236 475T257 455T297 438T362 421Q433 405 480 388T557 351T598 306T610 246Q610 189 586 140T518 56T415 0T286 -20Q254 -20 228 -17T179 -5T134 16T88 49L53 -5H-25ZM327 858L423 803L542 858H589L463 720H347L281 858H327Z"/>
<glyph unicode="š" horiz-adv-x="541" d="M42 -7H-27L12 176H90Q96 133 110 110T156 73Q168 67 184 64T219 61Q257 61 282 77T308 120Q308 140 283 151Q276 154 271 156T256 162T229 169T180 182Q141 193 108 211T58 249Q40 272 40 306Q40 343 58 376T108 434T183 473T274 487Q317 487 348 478T417 445L438 474H505L471 314H404Q395 334 387 348T369 373T350 390T325 402Q313 407 300 409T273 412Q241 412 219 396T197 357Q197 347 200 340T213 328T242 316T293 302Q338 289 366 279T414 258Q437 244 449 221T462 169Q462 130 444 96T394 37T320 -3T229 -18Q184 -18 147 -7T67 30L42 -7ZM361 540H271L199 719H248L337 636L462 719H510L361 540Z"/>
<glyph unicode="Ÿ" horiz-adv-x="700" d="M56 667H421L404 585H375Q358 585 351 585T337 581Q320 571 320 554Q320 544 327 528L392 389L528 537Q545 555 545 568Q545 587 499 587H469L486 667H783L766 585H743Q728 585 716 583T693 573T668 553T636 520L419 277L391 143Q387 129 386 122T385 109Q385 92 396 87T441 82H492L474 0H83L101 82H151Q172 82 185 84T206 92T218 110T227 143L256 277L149 514Q132 552 113 568T64 585H39L56 667ZM370 858Q393 858 408 843T424 804Q424 788 417 773T398 747T371 729T339 722Q316 722 301 737T285 776Q285 792 292 806T311 832T338 851T370 858ZM596 858Q619 858 634 843T650 804Q650 788 643 773T624 747T597 729T565 722Q542 722 527 737T511 776Q511 792 518 806T537 832T564 851T596 858Z"/>
<glyph unicode="Ž" horiz-adv-x="651" d="M-33 84L465 585H346Q300 585 267 577T210 547T169 491T137 403H56L112 667H674L654 575L160 81H287Q338 81 377 94T440 135Q457 155 471 188T504 286H593L532 0H-51L-33 84ZM338 858L433 803L553 858H599L474 720H358L291 858H338Z"/>
<glyph unicode="ž" horiz-adv-x="531" d="M-23 83L321 395H253Q225 395 207 394T176 388T156 376T140 355Q136 349 134 344T128 329T122 305T112 267H36L79 469H503L486 389L141 74H226Q262 74 285 79T324 100T350 144T371 218H450L404 0H-41L-23 83ZM365 540H275L202 719H251L341 636L465 719H514L365 540Z"/>
<glyph unicode="ƒ" horiz-adv-x="639" d="M286 11Q266 -45 239 -78T167 -135Q138 -151 105 -159T37 -167Q-17 -167 -49 -147T-81 -91Q-81 -70 -73 -51T-50 -17T-18 5T22 14Q69 14 69 -25Q69 -50 54 -67T3 -98Q14 -105 21 -107T40 -110Q74 -110 94 -89T136 -10L284 389H202L232 469H314L328 507Q348 563 376 596T447 653Q476 669 509 677T577 685Q632 685 663 665T695 608Q695 587 687 568T664 535T632 513T592 504Q545 504 545 543Q545 568 560 585T611 616Q600 623 593 625T574 628Q540 628 520 607T478 528L456 469H553L523 389H427L286 11Z"/>
<glyph unicode="ˆ" horiz-adv-x="500" d="M287 719H377L449 540H401L311 623L187 540H138L287 719Z"/>
<glyph unicode="˜" horiz-adv-x="500" d="M143 540Q172 606 202 633T275 661Q285 661 293 660T311 656L364 641Q374 638 385 638Q402 638 412 646T436 678H474Q458 642 447 624T417 589Q383 557 343 557Q326 557 313 561L261 576Q243 581 232 581Q201 581 181 540H143Z"/>
<glyph unicode="–" horiz-adv-x="554" d="M19 284H515L495 187H-2L19 284Z"/>
<glyph unicode="—" horiz-adv-x="735" d="M-10 284H725L704 187H-31L-10 284Z"/>
<glyph unicode="‘" horiz-adv-x="248" d="M269 637Q243 630 226 623T196 606T175 580T157 543Q182 552 193 552Q215 552 229 538T243 501Q243 482 235 464T212 433T179 411T140 403Q107 403 88 423T68 479Q68 511 84 547T128 612Q143 627 158 639T191 660T231 675T280 687L269 637Z"/>
<glyph unicode="’" horiz-adv-x="248" d="M64 453Q90 460 107 467T137 484T158 508T176 546Q150 537 140 537Q118 537 104 551T90 588Q90 607 98 625T121 656T154 678T193 686Q226 686 245 666T265 610Q265 578 249 542T205 477Q176 446 142 430T53 403L64 453Z"/>
<glyph unicode="‚" horiz-adv-x="248" d="M-52 -94Q-26 -87 -9 -80T21 -63T42 -39T60 -1Q34 -10 24 -10Q2 -10 -12 4T-26 41Q-26 60 -18 78T5 109T38 131T77 139Q110 139 129 119T149 63Q149 31 133 -5T89 -70Q60 -101 26 -117T-63 -144L-52 -94Z"/>
<glyph unicode="“" horiz-adv-x="482" d="M508 637Q481 630 464 623T434 606T413 580T395 543Q420 552 432 552Q454 552 468 538T482 501Q482 482 474 464T451 433T418 411T379 403Q346 403 327 423T307 479Q307 511 323 547T366 612Q381 627 396 638T429 659T469 674T519 687L508 637ZM274 637Q248 630 231 623T201 606T180 580T162 543Q187 552 198 552Q220 552 234 538T248 501Q248 482 240 464T217 433T184 411T145 403Q112 403 93 423T73 479Q73 511 89 547T133 612Q148 627 163 639T196 660T236 675T285 687L274 637Z"/>
<glyph unicode="”" horiz-adv-x="482" d="M297 453Q323 460 340 467T370 484T391 508T409 546Q383 537 373 537Q351 537 337 551T323 588Q323 607 331 625T354 656T387 678T426 686Q459 686 478 666T498 610Q498 578 482 542T438 477Q409 446 375 430T286 403L297 453ZM64 453Q90 460 107 467T137 484T158 508T176 546Q150 537 140 537Q118 537 104 551T90 588Q90 607 98 625T121 656T154 678T193 686Q226 686 245 666T265 610Q265 578 249 542T205 477Q176 446 142 430T53 403L64 453Z"/>
<glyph unicode="„" horiz-adv-x="482" d="M-47 -94Q-21 -87 -4 -80T26 -63T47 -39T65 -1Q39 -10 29 -10Q7 -10 -7 4T-21 41Q-21 60 -13 78T10 109T43 131T82 139Q115 139 134 119T154 63Q154 31 138 -5T94 -70Q65 -101 31 -117T-58 -144L-47 -94ZM186 -94Q213 -87 230 -80T260 -63T281 -39T299 -1Q273 -10 262 -10Q240 -10 226 4T212 41Q212 60 220 78T243 109T277 131T316 139Q349 139 368 119T388 63Q388 31 372 -5T328 -70Q299 -101 265 -117T176 -144L186 -94Z"/>
<glyph unicode="†" horiz-adv-x="596" d="M171 331Q158 327 143 325T115 322Q69 322 69 368Q69 400 92 423T147 446Q154 446 158 446T168 444T183 439T210 430Q217 427 226 425T246 419Q257 416 266 413T286 407Q291 436 293 453T295 490Q295 498 295 513T293 546Q292 558 292 568T292 585Q292 635 313 661T375 687Q428 687 428 641Q428 633 427 625T422 605T412 580T396 545Q384 519 376 501T363 468T355 439T347 407L376 415L391 419Q402 422 412 424T432 430Q452 436 463 439T480 443T491 445T503 446Q553 446 553 397Q553 373 536 351Q523 334 511 328T480 322Q471 322 464 322T449 325T427 332T393 345Q382 350 369 352T333 360Q328 339 322 304T310 225T299 131T288 28Q284 -17 281 -48T273 -100T264 -137T253 -165Q242 -185 224 -196T183 -208Q136 -208 136 -151Q136 -139 137 -128T144 -97T158 -49T183 28Q198 76 208 108T225 164T239 209T251 253Q256 271 261 290T272 329L280 360Q259 356 249 354T225 349L199 340L171 331Z"/>
<glyph unicode="‡" horiz-adv-x="596" d="M210 238Q224 256 234 272T253 306T269 344T285 392Q265 390 255 389T230 384Q216 379 203 376T175 367Q148 359 119 359Q70 359 70 402Q70 431 92 452T147 473Q154 473 159 473T172 471T188 466T213 458Q223 455 231 453T248 449T267 446T292 442Q294 457 295 467T297 485Q297 492 297 499T295 517Q293 534 293 545T292 562T291 574T291 584Q291 633 312 659T375 686Q401 686 415 673T429 637Q429 628 428 620T421 598T407 566T382 517Q375 504 371 496T364 480T359 464T354 442Q369 444 380 445T400 449T419 453T440 458Q456 463 467 466T485 470T499 472T513 473Q564 473 564 427Q564 398 543 379T491 359Q481 359 474 359T458 362T437 368T402 380Q386 385 374 387T339 392Q336 368 335 354T334 328Q334 302 337 284T349 238Q336 223 326 209T308 177T291 138T275 89Q295 91 305 92T330 97Q333 98 346 101T384 113Q397 117 412 119T440 121Q489 121 489 78Q489 49 467 28T412 7Q405 7 400 7T388 9T372 14T347 22Q336 25 328 27T311 32T292 35T268 39Q265 23 264 13T262 -6Q262 -11 262 -14T262 -24T264 -44T268 -80Q269 -85 269 -91T269 -103Q269 -153 248 -179T185 -206Q159 -206 145 -193T130 -157Q130 -148 131 -139T138 -118T152 -86T178 -36Q185 -23 189 -15T196 1T201 17T206 39Q191 37 180 35T160 32T141 28T120 22Q103 17 93 14T75 10T61 8T47 7Q-4 7 -4 53Q-4 82 17 101T69 121Q79 121 86 121T102 118T124 112T159 100Q175 95 187 93T221 89Q224 112 225 125T226 153Q226 167 226 177T223 196T218 215T210 238Z"/>
<glyph unicode="•" horiz-adv-x="667" d="M366 480Q414 480 444 449T475 370Q475 337 461 307T423 252T368 214T304 200Q256 200 225 231T194 310Q194 343 208 374T246 428T301 466T366 480Z"/>
<glyph unicode="…" horiz-adv-x="939" d="M118 141Q145 141 163 123T181 78Q181 60 173 43T152 12T120 -9T83 -17Q56 -17 38 0T20 45Q20 64 28 81T49 111T81 133T118 141ZM431 141Q458 141 476 123T494 78Q494 60 486 43T465 12T433 -9T396 -17Q369 -17 351 0T333 45Q333 64 341 81T362 111T394 133T431 141ZM744 141Q771 141 789 123T807 78Q807 60 799 43T778 12T746 -9T709 -17Q682 -17 664 0T646 45Q646 64 654 81T675 111T707 133T744 141Z"/>
<glyph unicode="‰" horiz-adv-x="1383" d="M286 622Q353 622 394 584T436 484Q436 433 418 389T369 311T294 259T202 240Q133 240 92 277T50 378Q50 429 68 473T118 551T193 603T286 622ZM270 556Q218 556 191 493Q179 464 172 429T165 364Q165 306 216 306Q269 306 295 369Q307 399 314 434T321 498Q321 556 270 556ZM744 365Q811 365 852 327T894 227Q894 176 876 132T826 54T752 2T660 -17Q591 -17 550 21T508 121Q508 173 526 217T576 295T651 346T744 365ZM779 239Q779 297 729 297Q703 297 687 286T656 249Q649 236 643 219T633 183T626 145T623 109Q623 77 635 64T676 50Q700 50 716 61T747 98Q753 110 759 127T769 164T776 202T779 236V239ZM685 623H768L259 -17H175L685 623ZM1169 365Q1236 365 1277 327T1319 227Q1319 176 1301 132T1251 54T1177 2T1085 -17Q1016 -17 975 21T933 121Q933 173 951 217T1001 295T1076 346T1169 365ZM1204 239Q1204 297 1154 297Q1128 297 1112 286T1081 249Q1074 236 1068 219T1058 183T1051 145T1048 109Q1048 77 1060 64T1101 50Q1125 50 1141 61T1172 98Q1178 110 1184 127T1194 164T1201 202T1204 236V239Z"/>
<glyph unicode="‹" horiz-adv-x="288" d="M67 129Q53 157 43 185T33 227Q33 262 113 346L167 403H245L202 336Q174 292 163 265T151 217Q151 198 153 183T163 139L180 72H97L67 129Z"/>
<glyph unicode="›" horiz-adv-x="288" d="M-1 72L45 139Q61 162 71 179T88 209T96 234T99 256Q99 270 96 293T89 336L75 403H153L182 346Q198 317 207 290T217 248Q217 214 136 129L82 72H-1Z"/>
<glyph unicode="€" horiz-adv-x="845" d="M40 355L83 423H141Q166 482 207 531T299 614T408 668T528 687Q555 687 577 684T619 674T660 653T707 621L736 675H817L759 404H674Q675 418 675 431T676 455Q676 523 640 561T540 599Q470 599 413 553T324 423H579L536 355H303L294 312H508L465 244H286V228Q286 154 324 112T428 69Q470 69 508 86T576 136Q586 148 594 159T608 185T621 216T636 258H731Q721 222 712 196T691 148T667 110T636 75Q587 26 529 4T390 -19Q180 -19 119 146Q111 169 108 192T103 244H16L59 312H108Q110 322 112 334T117 355H40Z"/>
<glyph unicode="™" horiz-adv-x="1022" d="M217 615Q169 615 146 592T109 511H50L83 667H480L447 511H388Q394 545 394 559Q394 589 378 601T324 615L272 370Q270 365 270 360T269 352Q269 344 274 342T300 339H331L320 287H82L93 339H123Q135 339 142 340T154 344T160 353T165 370L217 615ZM1067 615H1041Q1029 615 1022 614T1010 610T1004 601T999 584L954 370Q952 365 952 360T951 352Q951 344 956 342T982 339H1009L997 287H778L789 339H812Q836 339 842 343T854 370L898 579L732 287H660L619 578L575 370Q572 355 572 352Q572 344 578 342T604 339H624L613 287H424L435 339H460Q472 339 479 340T491 344T497 353T502 370L547 584Q550 599 550 602Q550 610 544 612T518 615H493L504 667H711L742 434L876 667H1078L1067 615Z"/>

</font>
</defs>
</svg>
